<?xml version="1.0" encoding="utf-8"?>
<!-- Generator: Adobe Illustrator 21.1.0, SVG Export Plug-In . SVG Version: 6.00 Build 0)  -->
<!DOCTYPE svg PUBLIC "-//W3C//DTD SVG 1.1//EN" "http://www.w3.org/Graphics/SVG/1.1/DTD/svg11.dtd">
<svg version="1.1" id="Layer_1" xmlns="http://www.w3.org/2000/svg" xmlns:xlink="http://www.w3.org/1999/xlink" x="0px" y="0px"
	 viewBox="0 0 280 64" style="enable-background:new 0 0 280 64;" xml:space="preserve">
<style type="text/css">
	.st0{fill:#0669AC;}
	.st1{fill:#343433;}
</style>
<path class="st0" d="M4.1,13.6c-4.6,6.5-4,15.1-0.5,22c0.1,0.2,0.2,0.3,0.3,0.5c0,0.1,0.1,0.2,0.2,0.3c0,0.1,0.1,0.1,0.1,0.2
	c0.1,0.1,0.1,0.2,0.2,0.3c0.1,0.2,0.2,0.4,0.3,0.6c0.1,0.1,0.1,0.2,0.2,0.3c0.1,0.2,0.3,0.4,0.4,0.6c0.1,0.1,0.1,0.2,0.2,0.3
	c0.2,0.3,0.4,0.5,0.6,0.8c0,0,0,0,0,0c0,0,0.1,0.1,0.1,0.1c0.2,0.2,0.3,0.5,0.5,0.7c0.1,0.1,0.1,0.2,0.2,0.2
	c0.2,0.2,0.3,0.4,0.5,0.6c0.1,0.1,0.1,0.1,0.2,0.2c0.2,0.3,0.4,0.5,0.7,0.7c0,0,0,0,0,0c0,0,0,0,0,0c0.2,0.2,0.4,0.5,0.7,0.7
	c0.1,0.1,0.1,0.1,0.2,0.2c0.2,0.2,0.3,0.3,0.5,0.5c0.1,0.1,0.1,0.1,0.2,0.2c0.2,0.2,0.5,0.4,0.7,0.7c0,0,0,0,0,0
	c0,0,0.1,0.1,0.1,0.1c0.2,0.2,0.4,0.4,0.7,0.6c0.1,0.1,0.2,0.1,0.3,0.2c0.2,0.1,0.4,0.3,0.6,0.4c0.1,0.1,0.2,0.1,0.3,0.2
	c0.2,0.2,0.4,0.3,0.6,0.4c0.1,0.1,0.1,0.1,0.2,0.2c0,0,0,0,0.1,0c0.2,0.1,0.4,0.3,0.6,0.4c0.1,0.1,0.2,0.1,0.3,0.2
	c0.3,0.2,0.6,0.4,0.9,0.6c0.1,0,0.2,0.1,0.3,0.1c0.2,0.1,0.5,0.3,0.7,0.4c0.1,0.1,0.3,0.1,0.4,0.2c0.2,0.1,0.3,0.2,0.5,0.3
	c0,0,0.1,0,0.1,0.1c0.1,0,0.1,0.1,0.2,0.1c0.3,0.1,0.5,0.3,0.8,0.4c0.1,0,0.1,0,0.2,0.1c0.3,0.1,0.6,0.3,0.9,0.4
	c0.1,0,0.1,0.1,0.2,0.1c0.3,0.1,0.6,0.2,0.9,0.3c0,0,0.1,0,0.1,0c0.3,0.1,0.7,0.2,1,0.3c0.1,0,0.2,0.1,0.2,0.1
	c0.3,0.1,0.7,0.2,1,0.3c22,4,28.4-13.2,28.4-13.2c-5.4,7-14.9,8.8-24,6.8c-0.3-0.1-0.7-0.2-1-0.3c-0.1,0-0.2,0-0.2-0.1
	c-0.3-0.1-0.7-0.2-1-0.3c0,0-0.1,0-0.1-0.1c-0.3-0.1-0.6-0.2-0.9-0.3c-0.1,0-0.2-0.1-0.2-0.1c-0.3-0.1-0.6-0.3-0.9-0.4
	c-0.1,0-0.1-0.1-0.2-0.1c-0.3-0.1-0.5-0.2-0.8-0.4c-0.1,0-0.1-0.1-0.2-0.1c-0.2-0.1-0.4-0.2-0.6-0.3c-0.1-0.1-0.3-0.1-0.4-0.2
	c-0.2-0.1-0.5-0.3-0.7-0.4c-0.1-0.1-0.2-0.1-0.2-0.1c-0.3-0.2-0.6-0.4-0.9-0.6c-0.1-0.1-0.2-0.1-0.3-0.2c-0.2-0.1-0.5-0.3-0.7-0.4
	c-0.1-0.1-0.1-0.1-0.2-0.2c-0.2-0.1-0.4-0.3-0.6-0.5c-0.1-0.1-0.2-0.1-0.3-0.2c-0.2-0.1-0.4-0.3-0.6-0.4c-0.1-0.1-0.2-0.1-0.3-0.2
	c-0.2-0.2-0.5-0.4-0.7-0.6c0,0-0.1,0-0.1-0.1c-0.2-0.2-0.5-0.5-0.7-0.7c-0.1-0.1-0.1-0.1-0.2-0.2c-0.2-0.2-0.4-0.3-0.5-0.5
	c-0.1-0.1-0.1-0.1-0.2-0.2c-0.2-0.2-0.4-0.5-0.7-0.7c0,0,0,0,0,0c-0.2-0.2-0.4-0.5-0.7-0.8c-0.1-0.1-0.1-0.1-0.2-0.2
	c-0.2-0.2-0.3-0.4-0.5-0.6c-0.1-0.1-0.1-0.1-0.2-0.2c-0.2-0.2-0.4-0.5-0.6-0.7c-5-6.8-6.8-16.3-2.8-24"/>
<path class="st0" d="M18.2,8.1c-3.3,4.7-3.1,11.1-0.5,16.1c0.4,0.8,0.9,1.7,1.5,2.4c0.5,0.7,1,1.5,1.7,2.1c0.2,0.3,0.5,0.5,0.7,0.8
	c0.1,0.1,0.1,0.1,0.2,0.2c0.2,0.2,0.5,0.5,0.8,0.7c0,0,0,0,0,0c0,0,0,0,0,0c0.3,0.3,0.6,0.5,0.9,0.7c0.1,0.1,0.1,0.1,0.2,0.2
	c0.3,0.2,0.6,0.5,0.9,0.7c0,0,0,0,0,0c0.1,0.1,0.3,0.2,0.4,0.3c0.1,0,0.1,0.1,0.2,0.1c0.2,0.1,0.5,0.3,0.7,0.4c0,0,0.1,0,0.1,0.1
	c0.2,0.1,0.4,0.2,0.6,0.3c0.1,0,0.1,0.1,0.2,0.1c0.1,0.1,0.3,0.1,0.4,0.2c0,0,0,0,0.1,0c0.3,0.1,0.6,0.3,0.9,0.4
	c0.1,0,0.1,0.1,0.2,0.1c0.2,0.1,0.5,0.2,0.7,0.3c0.1,0,0.2,0.1,0.3,0.1c0.2,0.1,0.4,0.2,0.7,0.2c0.1,0,0.2,0.1,0.3,0.1
	c0.3,0.1,0.6,0.2,1,0.3c17,2.8,20.9-10.3,20.9-10.3c-3.5,5.1-10.4,7.5-17.7,5.6c-0.3-0.1-0.6-0.2-1-0.3c-0.1,0-0.2-0.1-0.3-0.1
	c-0.2-0.1-0.5-0.1-0.7-0.2c-0.1,0-0.2-0.1-0.3-0.1c-0.2-0.1-0.5-0.2-0.7-0.3c-0.1,0-0.1-0.1-0.2-0.1c-0.3-0.1-0.6-0.3-0.9-0.4
	c-0.1-0.1-0.3-0.2-0.4-0.2c-0.1,0-0.2-0.1-0.3-0.1c-0.2-0.1-0.4-0.2-0.6-0.3c0,0-0.1,0-0.1-0.1c-0.2-0.1-0.5-0.3-0.7-0.4
	c-0.1,0-0.1-0.1-0.2-0.1c-0.1-0.1-0.3-0.2-0.4-0.3c-0.3-0.2-0.6-0.4-0.9-0.7c-0.1-0.1-0.1-0.1-0.2-0.2c-3.2-2.5-5.7-6-6.9-9.9
	c-1.3-4.1-1-8.6,1.2-12.3"/>
<path class="st0" d="M30.1,3.9c-1.9,2.9-2.1,6.4-0.8,9.6c1.4,3.4,4.3,6,7.7,7.2c0.1,0.1,0.3,0.1,0.4,0.1c0.1,0,0.1,0,0.2,0.1
	c0.2,0.1,0.4,0.1,0.6,0.2c9.4,1.8,11.9-4.8,12.6-5.8c-2.2,3.2-6,4-10.6,2.9c-0.4-0.1-0.8-0.2-1.1-0.3c-0.4-0.2-0.9-0.3-1.3-0.5
	c-0.8-0.4-1.6-0.9-2.3-1.4c-4.1-3.1-6.7-9.1-4-13.9"/>
<path class="st1" d="M247.8,17.3l0.4,1.6c0.1,0.4-0.2,0.8-0.6,0.8"/>
<path class="st1" d="M218.2,14.7c-0.1,0.4-0.2,1-0.3,1.3l-3.3,15.2l3.4-16L218.2,14.7z"/>
<polygon class="st1" points="120.8,24.8 119,31.2 120.8,24.8 "/>
<path class="st1" d="M248.2,18.9l-0.9-4c-0.7-2.9-2.8-4.2-7.5-4.2h-19.8c-0.5,0-0.9,0.2-1,0.7L211.4,47c-0.1,0.5-0.1,0.8-0.1,1
	c0.1,0.2,0.9,0.2,1.4,0.2h6.9c0.5,0,1.3,0,1.5-0.1c0.3-0.1,0.4-0.8,0.5-1.2l2.4-12.5l3-13.9c0.1-0.4,0.5-0.8,1-0.8l19.6,0
	C248,19.7,248.3,19.3,248.2,18.9"/>
<path class="st1" d="M276.1,4.4c-0.5,0-8.7,0-8.7,0c-0.5,0-1,0.5-1.3,0.9l-15.3,22.5c-0.3,0.4-0.6,0.4-0.7-0.1l-1.1-4.9
	c-0.1-0.4-0.6-0.8-1-0.8h-9.8c-0.5,0-0.7,0.4-0.6,0.8l4.4,15.4c0.1,0.4,0.1,1.2,0,1.6l-2.1,7.8c-0.1,0.4,0.2,0.6,0.6,0.6h9.7
	c0.5,0,0.9-0.1,1-0.6l2.1-7.9c0.1-0.4,0.4-1,0.7-1.4l24.9-33c0.3-0.4,0.2-0.8-0.2-0.8L276.1,4.4z"/>
<path class="st1" d="M173.9,10.7h-8.9c-0.5,0-0.9,0.2-1,0.6L161.2,25l-2.9,13.1c-0.1,0.4-0.5,0.4-1,0.4h-5.8c-5.8,0-5.1-3.6-3.9-9.1
	c0-0.1,3.7-18.1,3.7-18.1c0.1-0.4-0.2-0.6-0.7-0.6h-8.4c-0.5,0-0.9,0.2-1,0.6l-3.4,18.1c-1.7,9.8-1.7,18.4,9.6,18.7
	c0.2,0,17.9,0,17.9,0c0.5,0,0.9-0.2,1-0.6l3.9-18.2l3.8-18.2C174,11.1,174.1,10.7,173.9,10.7z"/>
<path class="st1" d="M85.8,10.7h-9.5c-0.5,0-0.9,0.1-1,0.6l-1.7,7.4c-0.1,0.4,0.2,0.8,0.7,0.8h9.1c0.5,0,0.9-0.4,1-0.9l1.6-7.5
	C85.9,11.1,86.1,10.7,85.8,10.7z"/>
<path class="st1" d="M73.6,22c-0.5,0-0.9,0.4-1,0.8l-1.3,5.7l-2.9,13.1c0,0-1.5,6.9-1.7,7.4c0,0-1.3,5-4.3,4.8c-1.4-0.1-3-0.4-3-0.4
	h0c-0.9-0.3-0.9,0.6-1,1.1l-1.9,8.1c-0.1,0.4,0.2,0.8,0.6,0.9c0,0,4.1,0.6,7,0.6h0.5c7.1,0,10.9-4.2,13.3-15.6l2.8-13.2l2.6-12.3
	c0.1-0.4-0.2-0.9-0.6-0.9"/>
<path class="st1" d="M196.3,10.6c-16,0-19.8,9.9-21.9,19.6c-2.1,10-1.9,17.9,14.6,17.9h0.6c6.6,0,14.5,0,14.5,0c0.4,0,0.9-0.4,1-0.9
	l1.6-6.3c0.1-0.4-0.2-0.6-0.7-0.6h-14.9c-5.4,0-7.3-1.7-7.1-5.4c0-0.4,0.5-1.5,0.9-1.5h22.9c1,0,1-0.6,1-0.6
	C211.3,22.4,211.5,10.6,196.3,10.6 M200.6,26.3c0,0.5-1.6,0.4-1.6,0.4l-12.4-0.1c-0.4,0-0.6-0.6-0.6-1c0,0,0-0.5,0.1-0.6
	c1-3.3,3.8-5.2,8.4-5.2c5.1,0,6.2,2.5,6.2,5.4"/>
<path class="st1" d="M127.3,37.9c0,0,4.5-10.9,5.5-17.1c1.4-8.4-2.8-20.6-19.1-20.6c-16.2,0-23.2,11.6-25.8,24.3
	c-2.7,12.7,0.8,23.8,16.9,23.7l24.5,0c0.5,0,0.9-0.4,1-0.8l2.1-7.9c0.1-0.4-0.2-0.8-0.6-0.8l-2,0l-2,0c-0.4,0-0.6-0.3-0.6-0.6
	C127.3,38,127.3,37.9,127.3,37.9 M118.9,31.2l-1.8,6.3c-0.1,0.4-0.6,0.7-1.1,0.7h-9.5c-7.2,0-9-5.6-7.2-13.9
	c1.8-8.5,5.2-13.7,12.3-14.3c9.7-0.7,11.7,6.1,9.3,14L118.9,31.2z"/>
</svg>
