<?xml version="1.0" encoding="utf-8"?>
<!-- Generator: Adobe Illustrator 18.0.0, SVG Export Plug-In . SVG Version: 6.00 Build 0)  -->
<!DOCTYPE svg PUBLIC "-//W3C//DTD SVG 1.1//EN" "http://www.w3.org/Graphics/SVG/1.1/DTD/svg11.dtd">
<svg version="1.1" id="Layer_1" xmlns="http://www.w3.org/2000/svg" xmlns:xlink="http://www.w3.org/1999/xlink" x="0px" y="0px"
	 viewBox="0 0 1366 768" enable-background="new 0 0 1366 768" xml:space="preserve">
<g>
	<linearGradient id="SVGID_1_" gradientUnits="userSpaceOnUse" x1="219.1308" y1="442.4431" x2="866.9885" y2="442.4431">
		<stop  offset="0" style="stop-color:#2941C1"/>
		<stop  offset="0.4973" style="stop-color:#00AEEF"/>
	</linearGradient>
	<path fill="url(#SVGID_1_)" d="M543.1,766.4c-178.6,0-323.9-145.3-323.9-323.9s145.3-323.9,323.9-323.9S867,263.8,867,442.4
		S721.7,766.4,543.1,766.4z M543.1,146.9c-163,0-295.6,132.6-295.6,295.6c0,163,132.6,295.6,295.6,295.6s295.6-132.6,295.6-295.6
		C838.6,279.5,706,146.9,543.1,146.9z"/>
	<linearGradient id="SVGID_2_" gradientUnits="userSpaceOnUse" x1="605.212" y1="274.0695" x2="1146.8693" y2="274.0695">
		<stop  offset="0" style="stop-color:#2941C1"/>
		<stop  offset="0.4973" style="stop-color:#00AEEF"/>
	</linearGradient>
	<path fill="url(#SVGID_2_)" d="M1132.7,544.9H619.4c-7.8,0-14.2-6.3-14.2-14.2V17.4c0-7.8,6.3-14.2,14.2-14.2h513.3
		c7.8,0,14.2,6.3,14.2,14.2v513.3C1146.9,538.5,1140.5,544.9,1132.7,544.9z M633.6,516.5h484.9V31.6H633.6V516.5z"/>
	<linearGradient id="SVGID_3_" gradientUnits="userSpaceOnUse" x1="605.212" y1="628.0648" x2="1146.8693" y2="628.0648">
		<stop  offset="0" style="stop-color:#2941C1"/>
		<stop  offset="0.4973" style="stop-color:#00AEEF"/>
	</linearGradient>
	<path fill="url(#SVGID_3_)" d="M1132.7,642.2H619.4c-7.8,0-14.2-6.3-14.2-14.2s6.3-14.2,14.2-14.2h513.3c7.8,0,14.2,6.3,14.2,14.2
		S1140.5,642.2,1132.7,642.2z"/>
</g>
</svg>
