<?xml version="1.0" encoding="utf-8"?>
<!-- Generator: Adobe Illustrator 18.0.0, SVG Export Plug-In . SVG Version: 6.00 Build 0)  -->
<!DOCTYPE svg PUBLIC "-//W3C//DTD SVG 1.1//EN" "http://www.w3.org/Graphics/SVG/1.1/DTD/svg11.dtd">
<svg version="1.1" id="Layer_1" xmlns="http://www.w3.org/2000/svg" xmlns:xlink="http://www.w3.org/1999/xlink" x="0px" y="0px"
	 viewBox="0 0 1366 768" enable-background="new 0 0 1366 768" xml:space="preserve">
<linearGradient id="SVGID_1_" gradientUnits="userSpaceOnUse" x1="556.6787" y1="653.6749" x2="775.4081" y2="653.6749">
	<stop  offset="0" style="stop-color:#2941C1"/>
	<stop  offset="0.4973" style="stop-color:#00AEEF"/>
</linearGradient>
<path fill="url(#SVGID_1_)" d="M762.4,666.7H569.7c-7.2,0-13-5.8-13-13s5.8-13,13-13h192.6c7.2,0,13,5.8,13,13
	S769.6,666.7,762.4,666.7z"/>
<linearGradient id="SVGID_2_" gradientUnits="userSpaceOnUse" x1="565.5027" y1="705.4656" x2="766.5841" y2="705.4656">
	<stop  offset="0" style="stop-color:#2941C1"/>
	<stop  offset="0.4973" style="stop-color:#00AEEF"/>
</linearGradient>
<path fill="url(#SVGID_2_)" d="M753.5,718.5h-175c-7.2,0-13-5.8-13-13.1c0-7.2,5.8-13,13-13h175c7.2,0,13,5.8,13,13
	C766.6,712.7,760.7,718.5,753.5,718.5z"/>
<linearGradient id="SVGID_3_" gradientUnits="userSpaceOnUse" x1="590.1804" y1="754.0728" x2="741.9064" y2="754.0728">
	<stop  offset="0" style="stop-color:#2941C1"/>
	<stop  offset="0.4973" style="stop-color:#00AEEF"/>
</linearGradient>
<path fill="url(#SVGID_3_)" d="M728.9,767.1H603.2c-7.2,0-13-5.8-13-13s5.8-13,13-13h125.6c7.2,0,13,5.8,13,13
	S736.1,767.1,728.9,767.1z"/>
<linearGradient id="SVGID_4_" gradientUnits="userSpaceOnUse" x1="411.8319" y1="305.6362" x2="934.7603" y2="305.6362">
	<stop  offset="0" style="stop-color:#2941C1"/>
	<stop  offset="0.4973" style="stop-color:#00AEEF"/>
</linearGradient>
<path fill="url(#SVGID_4_)" d="M769.6,611.5H563.2c-6.9,0-12.6-5.3-13-12.2c-1-14.4-5.5-56-15-74.8C523.1,500.3,465.6,420,465,419.2
	c-0.1-0.1-0.2-0.3-0.3-0.4c-34.6-45.7-52.9-100.2-52.9-157.6C411.8,117,529.1-0.2,673.3-0.2c144.2,0,261.5,117.3,261.5,261.5
	c0,69.9-27.2,135.5-76.6,184.9c-16.9,21.6-31.2,38-42.8,51.3c-13.4,15.4-23.1,26.5-26.3,33.9c-4.2,9.5-6.3,45.1-6.4,67.3
	C782.6,605.7,776.8,611.5,769.6,611.5z M575.1,585.4h181.7c0.5-19,2.4-51.2,8.4-64.8c4.9-10.9,15.1-22.6,30.5-40.4
	c11.4-13.1,25.5-29.3,42.1-50.5c0.2-0.3,0.4-0.5,0.6-0.8c0.2-0.3,0.5-0.5,0.7-0.7c44.8-44.5,69.5-103.8,69.5-167
	c0-129.8-105.6-235.4-235.4-235.4c-129.8,0-235.4,105.6-235.4,235.4c0,51.9,16.6,101.2,48.1,142.5c0.2,0.3,0.5,0.7,0.7,1
	c6.1,8.6,59.3,83.1,71.8,108.2C568.5,532.7,573.2,567.1,575.1,585.4z"/>
<linearGradient id="SVGID_5_" gradientUnits="userSpaceOnUse" x1="518.5092" y1="445.2308" x2="828.5522" y2="445.2308">
	<stop  offset="0" style="stop-color:#2941C1"/>
	<stop  offset="0.4973" style="stop-color:#00AEEF"/>
</linearGradient>
<path fill="url(#SVGID_5_)" d="M658.4,611.5c-5.8,0-11-3.9-12.6-9.7c-0.1-0.5-13.6-50.9-22.9-75.2c-8.4-21.7-28.2-50.1-53.8-64.4
	c-32.3-18.1-50.7-55.2-50.5-102c0.2-46.6,30.6-66.2,59-69.1c11.8-1.2,24.6,0.5,36.3,4.8c10.8-9.7,27.2-17.6,51.6-17
	c22.5,0.5,42.9,8.7,59.2,23.3c9.7-10.3,20.9-16,32.5-16.5c36.6-1.5,54.1,13.9,62.2,27c16.4,26.6,8.8,66-5.1,91.4
	c-13.7,24.8-32.3,39.8-48.8,53.1c-3.9,3.1-7.6,6.2-11.2,9.2c-13.8,11.9-23.8,45.9-29.2,64.2l-1.4,4.7c-5.5,18.5-13.2,64.7-13.3,65.2
	c-1.2,7.1-7.9,11.9-15,10.8c-7.1-1.2-11.9-7.9-10.8-15c0.3-2,8-48.4,14-68.5l1.4-4.6c6.6-22.3,17.6-59.6,37.2-76.5
	c3.8-3.2,7.7-6.5,11.8-9.8c15.3-12.4,31.1-25.1,42.3-45.4c10.7-19.3,15.7-48.9,5.8-65c-6.5-10.5-19.5-15.4-39-14.6
	c-5.2,0.2-11,4.1-16.4,10.5c1.5,2.4,3,4.8,4.4,7.4c14.5,26.5,17.3,57.2,6.7,74.6c-5.9,9.7-15.5,15-26.7,14.7
	c-14.5-0.4-30.1-11.2-30.4-40.4c-0.1-17,5.1-37.6,13.8-54.6c-9.9-9.8-24.4-18.5-44.8-18.9c-10.7-0.2-19.6,1.6-26.8,5.5
	c8.1,7.5,14.1,17.1,16.4,28.5c6.4,31.2,4.1,53.7-6.7,67c-6.5,8-15.7,12.2-26.6,12.2c-5.7,0-14-2.6-21-14.8
	c-10.2-17.9-15.8-55.7-2.5-85.1c-5.8-1.3-11.9-1.8-17.5-1.2c-13.2,1.3-35.3,8.7-35.4,43.2c-0.1,37.6,13.1,65.7,37.2,79.2
	c33.4,18.7,56.1,53.6,65.4,77.8c9.9,25.7,23.2,75.8,23.8,77.9c1.9,7-2.3,14.1-9.3,16C660.6,611.4,659.5,611.5,658.4,611.5z
	 M726.7,349.5c-3.1,9.1-5,19-4.9,28.8c0,5,1.1,14.5,4.9,14.6c1.6,0,2.6-0.3,3.7-2.2C734.7,383.7,734.2,366.8,726.7,349.5z
	 M620.8,330.3c-0.3,0.6-0.5,1.2-0.8,1.9c-9.1,24-1.8,52.5,3.5,59.8c2.1-0.4,3.2-1.4,3.9-2.4c2-2.4,8-12.9,1.4-45.2
	C627.7,338.9,624.9,334.2,620.8,330.3z"/>
</svg>
