<?xml version="1.0" encoding="utf-8"?>
<!-- Generator: Adobe Illustrator 18.0.0, SVG Export Plug-In . SVG Version: 6.00 Build 0)  -->
<!DOCTYPE svg PUBLIC "-//W3C//DTD SVG 1.1//EN" "http://www.w3.org/Graphics/SVG/1.1/DTD/svg11.dtd">
<svg version="1.1" id="Layer_1" xmlns="http://www.w3.org/2000/svg" xmlns:xlink="http://www.w3.org/1999/xlink" x="0px" y="0px"
	 viewBox="0 0 380 284" enable-background="new 0 0 380 284" xml:space="preserve">
<g>
	<g>
		<g>
			<path fill="#C4DCEE" d="M284.8,266.9c-0.5,0-1-0.4-1-0.9c0-0.6,0.4-1,0.9-1.1c1.5-0.1,3-0.2,4.5-0.3c0.6-0.1,1,0.4,1.1,0.9
				c0,0.6-0.4,1-0.9,1.1C287.8,266.6,286.3,266.8,284.8,266.9C284.8,266.9,284.8,266.9,284.8,266.9z"/>
			<path fill="#C4DCEE" d="M253.5,268c-1.7,0-3.3,0-5,0c-0.6,0-1-0.5-1-1c0-0.5,0.5-1,1-1c0,0,0,0,0,0c3,0,6,0,9,0c0.6,0,1,0.4,1,1
				s-0.4,1-1,1C256.2,268,254.8,268,253.5,268z M266.7,267.8c-0.5,0-1-0.4-1-1c0-0.6,0.4-1,1-1c3-0.1,6-0.2,9-0.4
				c0.5,0,1,0.4,1.1,0.9c0,0.6-0.4,1-0.9,1.1C272.7,267.6,269.7,267.7,266.7,267.8C266.7,267.8,266.7,267.8,266.7,267.8z
				 M239.5,267.8C239.5,267.8,239.4,267.8,239.5,267.8c-3.1-0.1-6.1-0.3-9.1-0.4c-0.6,0-1-0.5-0.9-1.1c0-0.6,0.5-1,1.1-0.9
				c3,0.2,6,0.3,9,0.4c0.6,0,1,0.5,1,1C240.4,267.4,240,267.8,239.5,267.8z M221.4,266.7C221.3,266.7,221.3,266.7,221.4,266.7
				c-3.1-0.3-6.1-0.6-9.1-0.9c-0.5-0.1-0.9-0.6-0.9-1.1s0.6-0.9,1.1-0.9c3,0.3,6,0.6,9,0.9c0.5,0,1,0.5,0.9,1.1
				C222.3,266.3,221.9,266.7,221.4,266.7z M203.4,264.7c0,0-0.1,0-0.1,0c-3-0.4-6-0.9-9-1.4c-0.5-0.1-0.9-0.6-0.8-1.2
				s0.6-0.9,1.2-0.8c3,0.5,6,1,8.9,1.4c0.5,0.1,0.9,0.6,0.9,1.1C204.3,264.3,203.8,264.7,203.4,264.7z M185.5,261.6
				c-0.1,0-0.1,0-0.2,0c-3-0.6-6-1.2-8.9-1.9c-0.5-0.1-0.9-0.7-0.7-1.2c0.1-0.5,0.7-0.9,1.2-0.7c2.9,0.7,5.9,1.3,8.8,1.9
				c0.5,0.1,0.9,0.6,0.8,1.2C186.4,261.3,186,261.6,185.5,261.6z M167.8,257.5c-0.1,0-0.2,0-0.3,0c-2.9-0.8-5.9-1.6-8.8-2.5
				c-0.5-0.2-0.8-0.7-0.7-1.2c0.2-0.5,0.7-0.8,1.2-0.7c2.9,0.9,5.8,1.7,8.7,2.5c0.5,0.1,0.9,0.7,0.7,1.2
				C168.7,257.2,168.3,257.5,167.8,257.5z M150.5,252.3c-0.1,0-0.2,0-0.3-0.1c-2.9-1-5.8-2-8.6-3.1c-0.5-0.2-0.8-0.8-0.6-1.3
				s0.8-0.8,1.3-0.6c2.8,1.1,5.6,2.1,8.5,3c0.5,0.2,0.8,0.7,0.6,1.3C151.3,252.1,150.9,252.3,150.5,252.3z M133.5,245.9
				c-0.1,0-0.3,0-0.4-0.1c-2.8-1.2-5.6-2.4-8.3-3.7c-0.5-0.2-0.7-0.8-0.5-1.3s0.8-0.7,1.3-0.5c2.7,1.3,5.5,2.5,8.3,3.6
				c0.5,0.2,0.7,0.8,0.5,1.3C134.3,245.7,133.9,245.9,133.5,245.9z M117.1,238.3c-0.2,0-0.3,0-0.5-0.1c-2.7-1.4-5.4-2.8-8-4.3
				c-0.5-0.3-0.7-0.9-0.4-1.4c0.3-0.5,0.9-0.7,1.4-0.4c2.6,1.5,5.3,2.9,8,4.3c0.5,0.3,0.7,0.9,0.4,1.3
				C117.8,238.1,117.4,238.3,117.1,238.3z M101.2,229.4c-0.2,0-0.4,0-0.5-0.1c-2.6-1.6-5.2-3.2-7.7-4.9c-0.5-0.3-0.6-0.9-0.3-1.4
				c0.3-0.5,0.9-0.6,1.4-0.3c2.5,1.7,5,3.3,7.6,4.9c0.5,0.3,0.6,0.9,0.3,1.4C101.9,229.3,101.6,229.4,101.2,229.4z M86.2,219.3
				c-0.2,0-0.4-0.1-0.6-0.2c-2.4-1.8-4.9-3.7-7.2-5.6c-0.4-0.3-0.5-1-0.1-1.4c0.3-0.4,1-0.5,1.4-0.1c2.3,1.9,4.7,3.7,7.1,5.5
				c0.4,0.3,0.5,1,0.2,1.4C86.8,219.2,86.5,219.3,86.2,219.3z M72.1,207.9c-0.2,0-0.5-0.1-0.7-0.3c-2.3-2-4.5-4.1-6.7-6.2
				c-0.4-0.4-0.4-1,0-1.4c0.4-0.4,1-0.4,1.4,0c2.1,2.1,4.4,4.1,6.6,6.1c0.4,0.4,0.5,1,0.1,1.4C72.7,207.8,72.4,207.9,72.1,207.9z
				 M59.1,195.2c-0.3,0-0.5-0.1-0.7-0.3c-2.1-2.3-4.1-4.6-6-6.9c-0.4-0.4-0.3-1.1,0.1-1.4c0.4-0.4,1.1-0.3,1.4,0.1
				c1.9,2.3,3.9,4.5,5.9,6.8c0.4,0.4,0.4,1-0.1,1.4C59.6,195.1,59.4,195.2,59.1,195.2z M47.6,181.2c-0.3,0-0.6-0.1-0.8-0.4
				c-1.2-1.6-2.4-3.3-3.4-4.9c-0.6-0.9-1.1-1.8-1.7-2.7c-0.3-0.5-0.1-1.1,0.3-1.4c0.5-0.3,1.1-0.1,1.4,0.3c0.5,0.9,1.1,1.8,1.7,2.6
				c1,1.6,2.2,3.2,3.4,4.8c0.3,0.4,0.2,1.1-0.2,1.4C48,181.2,47.8,181.2,47.6,181.2z M38.1,165.8c-0.4,0-0.7-0.2-0.9-0.5
				c-1.4-2.7-2.6-5.5-3.8-8.3c-0.2-0.5,0-1.1,0.5-1.3c0.5-0.2,1.1,0,1.3,0.5c1.1,2.8,2.4,5.5,3.7,8.2c0.2,0.5,0.1,1.1-0.4,1.3
				C38.4,165.8,38.2,165.8,38.1,165.8z M31.2,149c-0.4,0-0.8-0.3-1-0.7c-0.9-2.9-1.7-5.9-2.4-8.8c-0.1-0.5,0.2-1.1,0.7-1.2
				c0.5-0.1,1.1,0.2,1.2,0.7c0.7,2.9,1.5,5.8,2.4,8.7c0.2,0.5-0.1,1.1-0.6,1.3C31.4,149,31.3,149,31.2,149z M27.1,131.4
				c-0.5,0-0.9-0.4-1-0.8c-0.5-3-0.8-6.1-1-9.1c0-0.6,0.4-1,0.9-1.1c0.6,0,1,0.4,1.1,0.9c0.2,3,0.6,6,1,8.9c0.1,0.5-0.3,1.1-0.8,1.1
				C27.2,131.4,27.1,131.4,27.1,131.4z M25.8,113.3C25.8,113.3,25.8,113.3,25.8,113.3c-0.6,0-1-0.5-1-1c0-3.1,0.2-6.1,0.5-9.1
				c0.1-0.5,0.5-1,1.1-0.9c0.5,0.1,1,0.5,0.9,1.1c-0.3,3-0.4,6-0.5,9C26.8,112.9,26.3,113.3,25.8,113.3z M27.5,95.3
				c-0.1,0-0.1,0-0.2,0c-0.5-0.1-0.9-0.6-0.8-1.2c0.6-3,1.3-6,2.1-8.9c0.2-0.5,0.7-0.8,1.2-0.7c0.5,0.2,0.8,0.7,0.7,1.2
				c-0.8,2.9-1.5,5.8-2,8.7C28.4,95,28,95.3,27.5,95.3z M32.5,77.9c-0.1,0-0.2,0-0.4-0.1c-0.5-0.2-0.8-0.8-0.6-1.3
				c1.1-2.8,2.3-5.7,3.7-8.4c0.2-0.5,0.8-0.7,1.3-0.4c0.5,0.2,0.7,0.8,0.4,1.3c-1.3,2.7-2.6,5.4-3.6,8.2
				C33.3,77.7,32.9,77.9,32.5,77.9z M40.6,61.7c-0.2,0-0.4,0-0.5-0.2c-0.5-0.3-0.6-0.9-0.3-1.4c1.6-2.6,3.4-5.1,5.2-7.5
				c0.3-0.4,1-0.5,1.4-0.2c0.4,0.3,0.5,1,0.2,1.4c-1.8,2.4-3.5,4.9-5.1,7.4C41.3,61.5,40.9,61.7,40.6,61.7z"/>
			<path fill="#C4DCEE" d="M51.6,47.2c-0.2,0-0.5-0.1-0.7-0.3c-0.4-0.4-0.4-1-0.1-1.4c1-1.1,2.1-2.2,3.1-3.3c0.4-0.4,1-0.4,1.4,0
				s0.4,1,0,1.4c-1.1,1.1-2.1,2.1-3.1,3.2C52.2,47.1,51.9,47.2,51.6,47.2z"/>
		</g>
		<path fill="#C4DCEE" d="M213.8,271.5c-2.3,0-5-0.1-8-0.3c-0.6,0-1-0.5-0.9-1.1c0-0.6,0.5-1,1.1-0.9c3,0.2,5.7,0.3,7.9,0.3
			c0.3,0,0.7,0,1,0c0,0,0,0,0,0c0.5,0,1,0.4,1,1c0,0.6-0.4,1-1,1C214.5,271.5,214.2,271.5,213.8,271.5z M196.9,270.3
			c0,0-0.1,0-0.1,0c-1-0.1-2-0.2-3-0.3c-2-0.2-4-0.5-6-0.8c-0.5-0.1-0.9-0.6-0.9-1.1c0.1-0.5,0.6-0.9,1.1-0.9c2,0.3,4,0.5,5.9,0.8
			c1,0.1,2,0.2,3,0.3c0.5,0.1,0.9,0.6,0.9,1.1C197.8,270,197.4,270.3,196.9,270.3z M179.1,267.9c-0.1,0-0.1,0-0.2,0
			c-2.9-0.5-5.9-1-8.9-1.6c-0.5-0.1-0.9-0.6-0.8-1.2c0.1-0.5,0.6-0.9,1.2-0.8c2.9,0.6,5.9,1.1,8.8,1.6c0.5,0.1,0.9,0.6,0.8,1.1
			C180,267.5,179.6,267.9,179.1,267.9z M161.4,264.5c-0.1,0-0.1,0-0.2,0c-2.9-0.6-5.9-1.3-8.8-2.1c-0.5-0.1-0.9-0.7-0.7-1.2
			c0.1-0.5,0.7-0.9,1.2-0.7c2.9,0.7,5.8,1.4,8.7,2c0.5,0.1,0.9,0.7,0.8,1.2C162.3,264.2,161.9,264.5,161.4,264.5z M143.9,260.1
			c-0.1,0-0.2,0-0.3,0c-2.9-0.8-5.8-1.7-8.7-2.6c-0.5-0.2-0.8-0.7-0.7-1.3c0.2-0.5,0.7-0.8,1.3-0.7c2.8,0.9,5.7,1.7,8.6,2.5
			c0.5,0.1,0.8,0.7,0.7,1.2C144.8,259.9,144.4,260.1,143.9,260.1z M126.8,254.7c-0.1,0-0.2,0-0.3-0.1c-2.9-1-5.7-2.1-8.5-3.2
			c-0.5-0.2-0.8-0.8-0.6-1.3c0.2-0.5,0.8-0.8,1.3-0.6c2.7,1.1,5.5,2.1,8.4,3.2c0.5,0.2,0.8,0.8,0.6,1.3
			C127.6,254.5,127.2,254.7,126.8,254.7z M110.1,248c-0.1,0-0.3,0-0.4-0.1l-8.2-3.8c-0.5-0.2-0.7-0.8-0.5-1.3
			c0.2-0.5,0.8-0.7,1.3-0.5l8.1,3.8c0.5,0.2,0.7,0.8,0.5,1.3C110.8,247.8,110.4,248,110.1,248z M93.8,240.4c-0.1,0-0.3,0-0.4-0.1
			c-2.8-1.3-5.5-2.6-8.1-3.9c-0.5-0.2-0.7-0.8-0.5-1.3s0.8-0.7,1.3-0.5c2.6,1.3,5.3,2.6,8.1,3.9c0.5,0.2,0.7,0.8,0.5,1.3
			C94.5,240.2,94.1,240.4,93.8,240.4z M77.6,232.5c-0.2,0-0.3,0-0.5-0.1c-2.9-1.5-5.5-2.8-8-4.2c-0.5-0.3-0.7-0.9-0.4-1.4
			c0.3-0.5,0.9-0.7,1.4-0.4c2.5,1.3,5.1,2.7,7.9,4.2c0.5,0.2,0.7,0.9,0.4,1.3C78.3,232.3,77.9,232.5,77.6,232.5z M61.8,224
			c-0.2,0-0.4,0-0.5-0.1c-2.7-1.6-5.3-3.2-7.7-4.8c-0.5-0.3-0.6-0.9-0.3-1.4s0.9-0.6,1.4-0.3c2.4,1.6,4.9,3.2,7.6,4.8
			c0.5,0.3,0.6,0.9,0.3,1.4C62.4,223.8,62.1,224,61.8,224z M46.9,213.9c-0.2,0-0.4-0.1-0.6-0.2c-2.4-1.9-4.8-3.8-7-5.8
			c-0.4-0.4-0.4-1-0.1-1.4c0.4-0.4,1-0.4,1.4-0.1c2.1,1.9,4.4,3.9,6.8,5.7c0.4,0.3,0.5,1,0.2,1.4C47.5,213.8,47.2,213.9,46.9,213.9z
			 M33.6,201.8c-0.3,0-0.5-0.1-0.7-0.3c-2-2.2-4-4.6-5.8-7c-0.3-0.4-0.3-1.1,0.2-1.4c0.4-0.3,1.1-0.3,1.4,0.2
			c1.8,2.4,3.7,4.6,5.7,6.8c0.4,0.4,0.3,1-0.1,1.4C34.1,201.7,33.8,201.8,33.6,201.8z M22.7,187.6c-0.3,0-0.7-0.2-0.8-0.5
			c-1.6-2.5-3.1-5.1-4.5-7.8c-0.3-0.5-0.1-1.1,0.4-1.4c0.5-0.3,1.1-0.1,1.4,0.4c1.4,2.7,2.9,5.3,4.5,7.7c0.3,0.5,0.2,1.1-0.3,1.4
			C23.1,187.5,22.9,187.6,22.7,187.6z M14.3,171.7c-0.4,0-0.8-0.2-0.9-0.6c-1.2-2.7-2.3-5.5-3.4-8.4c-0.2-0.5,0.1-1.1,0.6-1.3
			c0.5-0.2,1.1,0.1,1.3,0.6c1.1,2.9,2.2,5.6,3.4,8.3c0.2,0.5,0,1.1-0.5,1.3C14.6,171.7,14.4,171.7,14.3,171.7z M8,154.9
			c-0.4,0-0.8-0.3-1-0.7c-0.9-2.8-1.7-5.7-2.5-8.7c-0.1-0.5,0.2-1.1,0.7-1.2c0.5-0.1,1.1,0.2,1.2,0.7c0.8,2.9,1.6,5.8,2.5,8.6
			c0.2,0.5-0.1,1.1-0.7,1.3C8.2,154.8,8.1,154.9,8,154.9z M3.3,137.5c-0.5,0-0.9-0.3-1-0.8c-0.6-3-1.1-6-1.5-8.9
			c-0.1-0.5,0.3-1.1,0.9-1.1c0.6-0.1,1.1,0.3,1.1,0.9c0.4,2.9,0.9,5.9,1.5,8.8c0.1,0.5-0.2,1.1-0.8,1.2
			C3.4,137.5,3.4,137.5,3.3,137.5z M0.9,119.7c-0.5,0-1-0.4-1-0.9c-0.1-2.3-0.2-4.6-0.2-6.9c0-0.7,0-1.5,0-2.2c0-0.6,0.5-1,1-1
			c0.6,0,1,0.5,1,1c0,0.7,0,1.4,0,2.1c0,2.2,0.1,4.5,0.2,6.8C2,119.2,1.5,119.6,0.9,119.7C1,119.7,0.9,119.7,0.9,119.7z M1.3,101.7
			C1.2,101.7,1.2,101.7,1.3,101.7c-0.6-0.1-1-0.5-1-1.1c0.3-3,0.7-6,1.2-9c0.1-0.5,0.6-0.9,1.2-0.8c0.5,0.1,0.9,0.6,0.8,1.2
			c-0.5,2.9-0.9,5.9-1.2,8.8C2.2,101.3,1.8,101.7,1.3,101.7z M4.3,84c-0.1,0-0.2,0-0.2,0c-0.5-0.1-0.9-0.7-0.7-1.2
			C4,79.8,4.9,76.9,5.8,74c0.2-0.5,0.7-0.8,1.3-0.6c0.5,0.2,0.8,0.7,0.6,1.3c-0.9,2.8-1.7,5.7-2.4,8.6C5.1,83.7,4.7,84,4.3,84z
			 M9.8,66.9c-0.1,0-0.2,0-0.4-0.1c-0.5-0.2-0.8-0.8-0.6-1.3c1.1-2.8,2.3-5.6,3.6-8.3c0.2-0.5,0.8-0.7,1.3-0.5
			c0.5,0.2,0.7,0.8,0.5,1.3c-1.3,2.7-2.5,5.5-3.6,8.2C10.6,66.6,10.2,66.9,9.8,66.9z M17.5,50.6c-0.2,0-0.3,0-0.5-0.1
			c-0.5-0.3-0.7-0.9-0.4-1.4c1.4-2.6,3-5.2,4.6-7.8c0.3-0.5,0.9-0.6,1.4-0.3c0.5,0.3,0.6,0.9,0.3,1.4c-1.6,2.5-3.1,5.1-4.5,7.7
			C18.2,50.4,17.8,50.6,17.5,50.6z M26.9,35.3c-0.2,0-0.4-0.1-0.6-0.2c-0.5-0.3-0.6-0.9-0.2-1.4c1.7-2.4,3.5-4.9,5.4-7.3
			c0.3-0.4,1-0.5,1.4-0.2c0.4,0.3,0.5,1,0.2,1.4c-1.8,2.4-3.6,4.8-5.3,7.2C27.6,35.1,27.3,35.3,26.9,35.3z M37.9,21
			c-0.2,0-0.5-0.1-0.6-0.2c-0.4-0.4-0.5-1-0.1-1.4c1.9-2.3,4-4.6,6-6.8c0.4-0.4,1-0.4,1.4-0.1c0.4,0.4,0.4,1,0.1,1.4
			c-2,2.2-4,4.4-6,6.7C38.5,20.9,38.2,21,37.9,21z M50.2,7.9c-0.3,0-0.5-0.1-0.7-0.3c-0.4-0.4-0.4-1,0-1.4C51.7,4,53.9,1.9,56.1,0
			c0.4-0.4,1-0.3,1.4,0.1c0.4,0.4,0.3,1-0.1,1.4c-2.2,2-4.4,4-6.5,6.1C50.7,7.8,50.5,7.9,50.2,7.9z"/>
		<g>
			<polygon fill="#C5DCED" points="310.2,260.3 322.1,284 380.3,256.1 			"/>
			<polygon fill="#FFFFFF" points="310.2,260.3 301.7,277 380.3,256.1 			"/>
			<polygon fill="#FFFFFF" points="310.2,260.3 304.1,247 380.3,256.1 			"/>
		</g>
	</g>
	<polygon fill="#C5DCED" points="304.1,247 310.2,260.3 301.7,277 313,261.9 352.3,258.3 312.8,259.5 	"/>
</g>
</svg>
