<?xml version="1.0" encoding="utf-8"?>
<!-- Generator: Adobe Illustrator 18.0.0, SVG Export Plug-In . SVG Version: 6.00 Build 0)  -->
<!DOCTYPE svg PUBLIC "-//W3C//DTD SVG 1.1//EN" "http://www.w3.org/Graphics/SVG/1.1/DTD/svg11.dtd">
<svg version="1.1" id="Layer_1" xmlns="http://www.w3.org/2000/svg" xmlns:xlink="http://www.w3.org/1999/xlink" x="0px" y="0px"
	 viewBox="0 0 459 272" enable-background="new 0 0 459 272" xml:space="preserve">
<g>
	<path fill="#0076FF" d="M291.1,234.6c0,0,5.1,9,8.5,21.9c3.4,12.9-16.5,15.5-16.5,15.5H164.5c0,0,22.7-17,34.9-22.3
		c14.1-6,22.5-11.9,22.5-11.9L291.1,234.6z"/>
	<polygon fill="#0076FF" points="26.9,240.9 7,272 27.8,272 46.3,240.9 	"/>
	<polygon fill="#0076FF" points="353.2,240.9 373,272 352.3,272 333.7,240.9 	"/>
	<g>
		<path fill="#0076FF" d="M237,39.3c-7.7,3.9-17.5-0.2-21.8,5.1s1.6,12.4-5.1,20.8c-6.6,8.3-19.9,13.4-15.2,30.9s14,16,22.6,15.6
			c8.6-0.4,19.5,0,26.1,2.3c6.6,2.3,15.6,12.1,26.5,5.1s10.1-16.6,17.5-21.1c7.4-4.6,13.2-14.3,3.5-23.3c-9.7-9-17.1-15.2-19.5-23.4
			C269.3,43.2,253.7,30.7,237,39.3z"/>
		<path fill="#FFD8B5" d="M188.3,184.4c0,0-4.7,16.7-16.4,23.2c-6.5,3.6-37,12.3-46.3,12.7s-19.5-3.1-24.9,0
			c-5.5,3.1-5.8,11.3-5.8,11.3s81-2.9,85.7-3.5c4.1-0.5,25.6-33.9,25.6-33.9L188.3,184.4z"/>
		<path fill="#00B8F0" d="M219.5,121.6c0,0-6.6,1.7-9.9,7.5c-3.4,5.8-8.8,28.4-12.3,35.8c-3.5,7.4-9,19.5-9,19.5
			s11.9,11.7,17.8,11.7c3.5-4.7,14.5-22.8,14.5-22.8L219.5,121.6z"/>
		<path fill="#00C4FF" d="M255.1,115.1c0,0,20,0.2,25.5,6.5c5.5,6.3,8.2,107.8,8.2,107.8l-66.8,0.2c0,0-1.9-45.2-4.9-49.1
			c-3.1-3.9-11.6-14.4-5.1-28c4.3-9,7.2-23.4,7.5-30.9c5.5-3.5,9.7-3.8,9.7-3.8"/>
		<path fill="#FFE4CC" d="M263.2,192.6l-0.3,14.8c0,0-11.4,4.7-21,6.2c-9.6,1.6-41.6,1.9-50.5,3.1c-9,1.2-12.9-2.3-23.4,0
			c-10.5,2.3-12.9,11.3-12.9,11.3s118.2,3.1,127.8,0c9.7-3.1,4.2-40.9,4.2-40.9L263.2,192.6z"/>
		<path fill="#0064D9" d="M261.9,86.8l11.3-1c0,0,7.2,0.4,1.5,9.3s-1,11.8-6.4,17.6c-5.3,5.8-19.9,5.8-29.4,0
			c-9.4-5.8-9.8-6-24.5-5.2c-13.3,0.7-16.4-8.2-14.5-19.9s8.2-15.3,12-20.3c5.1-6.6,2.3-12.2,8.7-17.6s17.5,2.4,17.5,2.4L261.9,86.8
			z"/>
		<path fill="#FFD8B5" d="M220.7,89.4c0,0,7.4,8.2,8.5,14.8c1.2,6.6,0,13.6,0,13.6s-9,10,2.7,15.3c11.7,5.3,29.1-4.2,31-11.6
			c1.9-7.4-7.8-6.5-7.8-6.5s-13.2-13-5.9-27.5C253.2,79.8,220.7,89.4,220.7,89.4z"/>
		<path fill="#EDBF98" d="M247.2,93.9c0.1-0.8,0.3-1.6,0.5-2.3c0,0,0,0,0,0c0.7-9.2-18,2-22.1,4.5c1.6,2.5,3.1,5.5,3.6,8.1
			c0.3,1.8,0.5,3.7,0.5,5.4l0,0C229.7,109.7,244.3,103.1,247.2,93.9z"/>
		<path fill="#FFE4CC" d="M257,81.4L257,81.4c6.3-10.6,7.8-26.1-3.2-33.2c-10.6-6.8-21.8-4.3-29.6,5.5c-7.8,9.7-18.5,31.8-7.4,40.1
			c9.9,7.4,22.3,4.2,32.5-3.7c0,0,8.8,1.8,12.7-3.3C265.8,81.8,257.4,80.7,257,81.4z"/>
		<path fill="#00C4FF" d="M280.6,121.6c0,0-18.7,4.4-21.8,26.6c0,1.9,4.2,47.9,4.2,47.9s12.2-6.6,17.7-7c5.5-0.4,9.3,0.8,9.3,0.8
			s1.6-32.3,0-47.9S280.6,121.6,280.6,121.6z"/>
		<path fill="#FFD8B5" d="M257,81.4L257,81.4c0.8-1.3,1.5-2.7,2.1-4.2c-3-4.5-5.8-10.2-5.6-16.1c0.1-7.3-0.8-11.8-2.7-14.5
			c-6.4-3.1-13-2.8-18.7,0.3c0,0,8,4.9,9.8,15.8c1.9,11,2.4,22.1,11.2,23.1c3.9,0.4,7,0.5,9.2,0.4C265.2,81.7,257.4,80.8,257,81.4z"
			/>
		<path fill="#0076FF" d="M237,45c0,0,8.6,2.9,10.6,13.4s1.4,23.3,12,27.4c10.6,4.1,13.7,0,13.7,0s0.8-31.5-8.2-37.2
			C248.3,38.1,237,45,237,45z"/>
		<path fill="#FFD8B5" d="M226.9,67.3c0,0-10.9,6.2-9.7,8.2c1.2,1.9,3.5,3.5,3.5,3.5L226.9,67.3z"/>
		<path fill="#00B8F0" d="M268.3,132.1c0,0-6,6.7-6.5,20.2s0,23.9,0,23.9s-7.2-12.9-6.3-27.7S268.3,132.1,268.3,132.1z"/>
		<path fill="#0064D9" d="M250.9,49.7c0,0,4.2,3.9,5.2,12c0.9,8.1,0.1,17.1,7.1,19.5c7,2.4,11.5-2.2,11.5-2.2s-11.3,0.2-11.5-9.2
			C262.8,52.1,250.9,49.7,250.9,49.7z"/>
	</g>
	<g>
		<path fill="#C5DCED" d="M173.6,201.8H32.4c-5.5,0-10-4.5-10-10v-86.7c0-5.5,4.5-10,10-10h141.2c5.5,0,10,4.5,10,10v86.7
			C183.6,197.3,179.1,201.8,173.6,201.8z"/>
		<path fill="#FFFFFF" d="M119.7,217.9V176c0-4-3.3-7.3-7.3-7.3H97.4c-4,0-7.3,3.3-7.3,7.3v41.9c-3.5,8.3-12.9,10.8-12.9,10.8h58.4
			C135.7,228.7,122.9,225.6,119.7,217.9z M104.6,176.3c4.2,0,7.7,3.4,7.7,7.7s-3.4,7.7-7.7,7.7c-4.2,0-7.7-3.4-7.7-7.7
			S100.4,176.3,104.6,176.3z"/>
	</g>
	<g>
		<path fill="#FFD8B5" d="M346.9,164.9l-35.6-17.1c0,0,0,0,0,0c-0.1-1.5-0.9-8.1-8.1-10.2c-4.1-1.2-8.1-2.3-8.1-2.3
			s-2.5,2.4,2.8,4.4c-2.1,0.1-4.5,0.3-7.7,0.8c-5.4,0.7-16.2,1-16.1,3c0,2.2,7.9,1.8,13.6,2c-0.7,0.8-2.5,3.3-0.9,4.3
			c2,1.2,3.8,1,3.8,1c0,0-2.8,0.5-2.3,2.2c0.4,1.4,6.4,3.7,8.5,4.5c0.1,0,0.2,0.1,0.3,0.1c0.3,0.1,0.4,0.2,0.4,0.2s0,0,0,0
			c4.4,1.5,7.4,1.1,9.6-0.4c0,0,0,0.1,0.1,0.1c3.6,6.2,37.2,23.2,37.2,23.2l4.4-6.8L346.9,164.9z"/>
		<path fill="#00B8F0" d="M379.6,203.6L412,272h38.2c0,0-8.8-31.3-8.7-48.1"/>
		<path fill="#00C4FF" d="M439.5,180.5c0,0,8.2,14.6,9.1,16.7c2.1,4.9,5.3,16.5-3.6,35.2c-5,10.4-32.2,39.6-32.2,39.6H364
			c0,0,19.3-52.3,18.9-67l37-24.5"/>
		<path fill="#0064D9" d="M344.3,163.7c0.2,0.1,2.2,5.4,1.5,9.4c-0.7,4-2.4,7.3-2.4,7.3s9.3,4.5,20.5,2c11.2-2.5,19-29.4,19-29.4
			l-14.5-16.6c0,0-5.7,22.3-11.7,24.8C350.6,163.6,344.3,163.7,344.3,163.7z"/>
		<path fill="#7BC1FA" d="M360.3,6.3c0,0,16.8-5.3,28.8-2.1c12,3.2,18.8,19.8,21.1,31.1c2.3,11.3-6.1,26.2,3.3,34.7
			c9.4,8.5,19.2,9.2,26.9,25.6c7.7,16.4-3.1,45.1,5.3,48.8c8.5,3.7,13.3-0.8,13.3-0.8s-8.6,17.7-19.5,12c-11-5.7-28-7-36.4-6.7
			c-8.4,0.3-4.9-69.7-33.9-74.1C334.1,69.6,312.9,30.2,360.3,6.3z"/>
		<path fill="#58AAED" d="M437.5,138.5c-1-8.8-1.7-21.9-2.8-31.6c-1.1-9.7-7.4-20.5-17.8-26.8c-10.4-6.3-16-14.4-19.5-22.6
			c-2.2-5.3-5.2-8-7-9.3c-1-0.7-1.7-1-1.7-1l-16,11.9l4.1,18.8l0,0c7.1,4.8,11.5,14.6,14.6,25.3l26.8,46.5l0,0
			c7.3,0.9,15.3,2.7,21.4,5.9c5.8,3,11-0.6,14.5-4.6C454,151.1,439.5,155.7,437.5,138.5z"/>
		<path fill="#FFD8B5" d="M359.3,71.7c7.1,20,10.7,31.6,10.7,31.6l29.9-20.6c0,0-8.9-4-15.7-11s-4.4-19.4-4.4-19.4L359.3,71.7z"/>
		<path fill="#EDBF98" d="M365.1,88.4c0,0,15.5-13.9,14.5-26.9c-0.1-0.4-0.1-0.8-0.1-1.1l0,0c-0.5-3.3-2-4.3-3.9-3.9l-16.2,15.3
			C361.6,78.2,363.5,83.8,365.1,88.4L365.1,88.4z"/>
		<path fill="#00B8F0" d="M432.1,215.6c-8.4,18.5-36.7,56.4-36.7,56.4h18.4c5.9-7,26.8-30.4,31.2-39.6c8.9-18.7,5.7-30.2,3.6-35.2
			c-0.9-2.1-9.1-16.7-9.1-16.7l-12.4,6.4C427.2,186.9,440.5,197.1,432.1,215.6z"/>
		<path fill="#FFE4CC" d="M354,14.6C341.4,20,339.6,34.9,341.5,48c1.9,13.1,5.1,25.1,16.7,25.7c11.6,0.6,27.5-17.3,28.7-30.8
			C388,29.3,375,5.7,354,14.6z"/>
		<path fill="#FFE4CC" d="M386.6,37.3c0,0,3.3-8.5,6.2-4.2s-1.7,18.5-7.1,18.4C380.3,51.4,386.6,37.3,386.6,37.3z"/>
		<path fill="#FFD8B5" d="M368.8,36.9c8.5,1.4,18.7,7.1,22.6,9.4c0.3-0.5,0.5-1.1,0.7-1.6l-2.5-7.8l-2.1-1.5c-0.5,1-0.9,1.9-0.9,1.9
			c-0.1-0.9-0.3-1.9-0.6-2.9l-10.3-7.1L350.9,17c0,0-0.7,0.1-1.7,0.5c-2,1.6-3.6,3.6-4.8,5.8C347.9,26.2,359.9,35.5,368.8,36.9z"/>
		<path fill="none" stroke="#0076FF" stroke-width="3" stroke-miterlimit="10" d="M363.8,42.3h4.5c0,0,13.4-5.4,19.2-6"/>
		<path fill="#0076FF" d="M389.9,76.8c0,0,18.7-9.4,27.7,13.6c5.4,13.8,11.8,36.7,15.1,62.5s8.8,31,8.8,31
			c-17.1,20-35.6,12.9-61.9,26.2c0-10.4-3.9-41.2-3.9-41.2s-6.8-21.8-11.8-34.6c-5-12.8,3.9-37.8,3.9-37.8S371.1,108.4,389.9,76.8z"
			/>
		<path fill="#FFE4CC" d="M406.4,79.4c-11.5-8-14,3.9-19.4,17.8s-15.7,47.9-21.8,65c-6.1,17-40.8,59-46.3,61.8
			c-5.4,2.8-6.9-3.6-15.7-1.9c-8.8,1.7-7.2,6.8-7.2,6.8h33.5c0,0,46.7-41.9,54.3-57.3C391.4,156.3,426,93.1,406.4,79.4z"/>
		<path fill="#7BC1FA" d="M347.1,17.4c0,0,9.8,7.8,20.5,13.7C378.4,37,385,36.9,391.3,45c6.2,8.1,10.9,15.3,10.9,15.3
			s4.9-12.4-0.5-24.7S385.2,9.1,374.1,8.2C363.1,7.2,347.1,17.4,347.1,17.4z"/>
		<path fill="#0064D9" d="M365.2,162.2c-1.9,5.2-6.3,12.6-11.8,20.5l12.4,11.2c8.3-8.7,15.4-17,18-22.2
			c7.6-15.4,42.2-78.6,22.6-92.3c-11.5-8-14,3.9-19.4,17.8C381.6,111.1,371.3,145.1,365.2,162.2z"/>
		<path fill="#58AAED" d="M362.3,16.3c0,0,4.5,6.6,15,11.3c10.5,4.7,20.7,6.9,22.5,14s0.4,15.8,0.4,15.8s7.6-8.2,2.6-18.7
			s-16.4-14.6-23.3-15.9C372,21.5,362.3,16.3,362.3,16.3z"/>
		<circle fill="none" stroke="#0076FF" stroke-width="3" stroke-miterlimit="10" cx="356.3" cy="43.4" r="7.6"/>
		<ellipse fill="none" stroke="#0076FF" stroke-width="3" stroke-miterlimit="10" cx="338.8" cy="44.4" rx="5.8" ry="6.6"/>
		<path fill="#FFD8B5" d="M345.9,41.3c0,0-4,12.6-2,14.8c2.1,2.2,6.9,0.9,6.9,0.9L345.9,41.3z"/>
		<path fill="none" stroke="#0076FF" stroke-width="3" stroke-miterlimit="10" d="M344.3,42.4c0,0,1.7-1.6,4.5,0.3"/>
	</g>
	<g>
		<path fill="#0064D9" d="M40.7,191.7c0,0,3.1-7.9,0-11.8s-14.2-5.7-10.4-11.1c3.7-5.4,10.4,7.6,14.9,4.6s-16-9.9-10.6-14.9
			c5.4-5,13.4,12.7,16.2,8.2c2.8-4.5-15-14.2-6.7-16.7s10.3,14.8,12.8,8.5s-9.2-17.1-4.2-18.2c5-1.1,9.7,15.3,11.4,10.3
			c1.7-5-7-15.7,0-15.8c7-0.1,7.3,14.4,9.2,8.5c2-5.9,2.5-12.3,6.7-11.7s-5.3,12.5-2.2,13.4c3.1,0.8,4.9-1.4,8.9-0.6
			c3.9,0.8,1.7,6.7-5.3,6.4s-13.1,1.1-10.3,3.3c2.8,2.2,13-1.7,15.6,1.1c2.5,2.8-1.6,7.3-12.8,6.3s-17,2.3-11.2,4.8
			s17.6-2.3,20.6,2.3c3.1,4.6-5.6,8.3-15.1,5.8c-9.5-2.5-14.5-3.9-13.1,0c1.4,3.9,13.9,2.8,18.4,5.6c4.5,2.8-3.8,7.3-13,4.4
			c-9.3-3-8.7-2.6-11.5,0c-2.8,2.6-5.9,7.2-5.9,7.2H40.7z"/>
		<path fill="#0076FF" d="M41.6,194.9c0,0,0-13.5-10-16.6c-10-3.1-16.4,1.9-15.3-6.3c1.1-8.2,20.6,5.5,19.8,2.1s-17.8-9.8-16.2-15.6
			c1.7-5.9,12.5,8.6,14.5,4.7c2-3.9-18.1-13.9-15.1-17.8c3.1-3.9,14.2,12.3,15.3,7.5c1.1-4.7-10.4-12.3-7-16.4s6.8,7,7.9,4.2
			c1.1-2.8-1.7-13.4,4.2-12c5.9,1.4,0.6,9.8,2,12.3c1.4,2.5,3.9-7.8,7.8-4.7c3.9,3.1-10.6,13.1-7,15.5c3.6,2.4,7.5-6.6,10-2.7
			s-12.5,10.3-8.6,12.7s9.5-6.3,11.4-1.5c2,4.7-13.4,8.3-10.6,11.8c2.8,3.5,9.8-6.2,12.8-2s-11,8.3-12.8,11.4
			c-3.1,5.3-1.1,13.5-1.1,13.5H41.6z"/>
		<polygon fill="#7BC1FA" points="20.8,196.3 27.1,228.2 55.1,228.2 60.5,196.3 		"/>
		<rect x="16.1" y="190" fill="#74B7ED" width="47.9" height="11.9"/>
		<polygon fill="#4793D1" points="22,202.3 24.3,214.2 59.6,201.9 		"/>
	</g>
	<polygon fill="#0076FF" points="231.8,144.6 233.9,158.1 226.9,153.4 235,181.4 233.3,163 238.2,167.3 238.8,147.2 	"/>
	<rect x="0.2" y="228.2" fill="#D9EEFF" width="371.8" height="12.7"/>
</g>
</svg>
