<?xml version="1.0" encoding="utf-8"?>
<!-- Generator: Adobe Illustrator 18.0.0, SVG Export Plug-In . SVG Version: 6.00 Build 0)  -->
<!DOCTYPE svg PUBLIC "-//W3C//DTD SVG 1.1//EN" "http://www.w3.org/Graphics/SVG/1.1/DTD/svg11.dtd">
<svg version="1.1" id="Layer_1" xmlns="http://www.w3.org/2000/svg" xmlns:xlink="http://www.w3.org/1999/xlink" x="0px" y="0px"
	 viewBox="0 0 206 163" enable-background="new 0 0 206 163" xml:space="preserve">
<g>
	<path fill="#C5DCED" d="M203,47.7h-8.4c-1.6,0-3,1.3-3,3v12c0,1.6,1.4,3,3,3h8.4c1.7,0,3-1.4,3-3v-12C206,49.1,204.6,47.7,203,47.7
		z"/>
	<path fill="#C5DCED" d="M14.7,47.7H6.3c-0.6,0-1.1,0.2-1.6,0.5V22.7h8.8v-15H4.7H0v15v35.6h3.3v4.4c0,1.6,1.4,3,3,3h8.4
		c1.6,0,3-1.4,3-3v-12C17.7,49.1,16.3,47.7,14.7,47.7z"/>
</g>
<path fill="#0076FF" d="M189.5,75.4h-169c-5.5,0-10-4.5-10-10V51.2c0-5.5,4.5-10,10-10h169c5.5,0,10,4.5,10,10v14.2
	C199.5,70.9,195,75.4,189.5,75.4z"/>
<rect x="40.2" y="0.3" fill="#EDF7FF" width="127.4" height="112.2"/>
<path fill="#00C4FF" d="M174,61.5h-52.2c0.1,0.6,0.2,1.2,0.2,1.8v4.9c0,4.3-3.5,7.9-7.9,7.9H95.8c-4.3,0-7.9-3.5-7.9-7.9v-4.9
	c0-0.6,0.1-1.2,0.2-1.8H36c-5.5,0-10,4.5-10,10v81c0,5.5,4.5,10,10,10h138c5.5,0,10-4.5,10-10v-81C184,66,179.5,61.5,174,61.5z"/>
<polygon fill="#DBEFFF" points="167.6,0.3 39,96.8 167.6,96.8 "/>
<path fill="#00C4FF" d="M174,61.5h-52.2c0.1,0.6,0.2,1.2,0.2,1.8v4.9c0,4.3-3.5,7.9-7.9,7.9H95.8c-4.3,0-7.9-3.5-7.9-7.9v-4.9
	c0-0.6,0.1-1.2,0.2-1.8H36c-5.5,0-10,4.5-10,10v81c0,5.5,4.5,10,10,10h138c5.5,0,10-4.5,10-10v-81C184,66,179.5,61.5,174,61.5z"/>
<path fill="#00B8F0" d="M26,102v50.5c0,5.5,4.5,10,10,10h138c5.5,0,10-4.5,10-10V102H26z"/>
<g>
	<rect x="36.3" y="107.9" fill="#0064D9" width="137.3" height="44.4"/>
	<g>
		<path fill="#EDF7FF" d="M128.4,147.9H82.7c-0.5,0-1-0.4-1-1v-4.8c0-0.6,0.5-1,1-1h45.7c0.6,0,1,0.4,1,1v4.8
			C129.4,147.4,128.9,147.9,128.4,147.9z"/>
		<path fill="#EDF7FF" d="M76.6,147.9H69c-0.6,0-1-0.4-1-1v-4.8c0-0.6,0.4-1,1-1h7.6c0.5,0,1,0.4,1,1v4.8
			C77.6,147.4,77.1,147.9,76.6,147.9z"/>
		<path fill="#EDF7FF" d="M63.5,147.9h-7.6c-0.5,0-1-0.4-1-1v-4.8c0-0.6,0.5-1,1-1h7.6c0.5,0,1,0.4,1,1v4.8
			C64.5,147.4,64,147.9,63.5,147.9z"/>
		<path fill="#EDF7FF" d="M50.4,147.9h-7.6c-0.5,0-1-0.4-1-1v-4.8c0-0.6,0.5-1,1-1h7.6c0.6,0,1,0.4,1,1v4.8
			C51.4,147.4,50.9,147.9,50.4,147.9z"/>
		<path fill="#EDF7FF" d="M76.6,138H69c-0.6,0-1-0.4-1-1v-4.8c0-0.6,0.4-1,1-1h7.6c0.5,0,1,0.4,1,1v4.8
			C77.6,137.6,77.1,138,76.6,138z"/>
		<path fill="#EDF7FF" d="M63.5,138h-7.6c-0.5,0-1-0.4-1-1v-4.8c0-0.6,0.5-1,1-1h7.6c0.5,0,1,0.4,1,1v4.8
			C64.5,137.6,64,138,63.5,138z"/>
		<path fill="#EDF7FF" d="M50.4,138h-7.6c-0.5,0-1-0.4-1-1v-4.8c0-0.6,0.5-1,1-1h7.6c0.5,0,1,0.4,1,1v4.8
			C51.4,137.6,50.9,138,50.4,138z"/>
		<path fill="#EDF7FF" d="M115.7,138h-7.6c-0.6,0-1-0.4-1-1v-4.8c0-0.6,0.4-1,1-1h7.6c0.5,0,1,0.4,1,1v4.8
			C116.7,137.6,116.2,138,115.7,138z"/>
		<path fill="#EDF7FF" d="M102.6,138H95c-0.6,0-1-0.4-1-1v-4.8c0-0.6,0.4-1,1-1h7.6c0.6,0,1,0.4,1,1v4.8
			C103.6,137.6,103.1,138,102.6,138z"/>
		<path fill="#EDF7FF" d="M89.5,138h-7.6c-0.5,0-1-0.4-1-1v-4.8c0-0.6,0.5-1,1-1h7.6c0.6,0,1,0.4,1,1v4.8
			C90.5,137.6,90,138,89.5,138z"/>
		<path fill="#EDF7FF" d="M154.8,138h-7.6c-0.6,0-1-0.4-1-1v-4.8c0-0.6,0.4-1,1-1h7.6c0.6,0,1,0.4,1,1v4.8
			C155.8,137.6,155.3,138,154.8,138z"/>
		<path fill="#EDF7FF" d="M141.7,138H134c-0.6,0-1-0.4-1-1v-4.8c0-0.6,0.4-1,1-1h7.6c0.5,0,1,0.4,1,1v4.8
			C142.7,137.6,142.2,138,141.7,138z"/>
		<path fill="#EDF7FF" d="M128.6,138h-7.6c-0.5,0-1-0.4-1-1v-4.8c0-0.6,0.5-1,1-1h7.6c0.5,0,1,0.4,1,1v4.8
			C129.6,137.6,129.1,138,128.6,138z"/>
		<path fill="#EDF7FF" d="M167.7,138H160c-0.6,0-1-0.4-1-1v-4.8c0-0.6,0.4-1,1-1h7.6c0.6,0,1,0.4,1,1v4.8
			C168.7,137.6,168.2,138,167.7,138z"/>
		<path fill="#EDF7FF" d="M76.6,128.1H69c-0.6,0-1-0.4-1-1v-4.8c0-0.5,0.4-1,1-1h7.6c0.5,0,1,0.5,1,1v4.8
			C77.6,127.7,77.1,128.1,76.6,128.1z"/>
		<path fill="#EDF7FF" d="M63.5,128.1h-7.6c-0.5,0-1-0.4-1-1v-4.8c0-0.5,0.5-1,1-1h7.6c0.5,0,1,0.5,1,1v4.8
			C64.5,127.7,64,128.1,63.5,128.1z"/>
		<path fill="#EDF7FF" d="M50.4,128.1h-7.6c-0.5,0-1-0.4-1-1v-4.8c0-0.5,0.5-1,1-1h7.6c0.5,0,1,0.5,1,1v4.8
			C51.4,127.7,50.9,128.1,50.4,128.1z"/>
		<path fill="#EDF7FF" d="M115.7,128.1h-7.6c-0.6,0-1-0.4-1-1v-4.8c0-0.5,0.4-1,1-1h7.6c0.5,0,1,0.5,1,1v4.8
			C116.7,127.7,116.2,128.1,115.7,128.1z"/>
		<path fill="#EDF7FF" d="M102.6,128.1H95c-0.6,0-1-0.4-1-1v-4.8c0-0.5,0.4-1,1-1h7.6c0.6,0,1,0.5,1,1v4.8
			C103.6,127.7,103.1,128.1,102.6,128.1z"/>
		<path fill="#EDF7FF" d="M89.5,128.1h-7.6c-0.5,0-1-0.4-1-1v-4.8c0-0.5,0.5-1,1-1h7.6c0.6,0,1,0.5,1,1v4.8
			C90.5,127.7,90,128.1,89.5,128.1z"/>
		<path fill="#EDF7FF" d="M154.8,128.1h-7.6c-0.6,0-1-0.4-1-1v-4.8c0-0.5,0.4-1,1-1h7.6c0.6,0,1,0.5,1,1v4.8
			C155.8,127.7,155.3,128.1,154.8,128.1z"/>
		<path fill="#EDF7FF" d="M141.7,128.1H134c-0.6,0-1-0.4-1-1v-4.8c0-0.5,0.4-1,1-1h7.6c0.5,0,1,0.5,1,1v4.8
			C142.7,127.7,142.2,128.1,141.7,128.1z"/>
		<path fill="#EDF7FF" d="M128.6,128.1h-7.6c-0.5,0-1-0.4-1-1v-4.8c0-0.5,0.5-1,1-1h7.6c0.5,0,1,0.5,1,1v4.8
			C129.6,127.7,129.1,128.1,128.6,128.1z"/>
		<path fill="#EDF7FF" d="M167.7,128.1H160c-0.6,0-1-0.4-1-1v-4.8c0-0.5,0.4-1,1-1h7.6c0.6,0,1,0.5,1,1v4.8
			C168.7,127.7,168.2,128.1,167.7,128.1z"/>
		<path fill="#EDF7FF" d="M76.6,118.2H69c-0.6,0-1-0.4-1-1v-4.8c0-0.5,0.4-1,1-1h7.6c0.5,0,1,0.5,1,1v4.8
			C77.6,117.8,77.1,118.2,76.6,118.2z"/>
		<path fill="#EDF7FF" d="M63.5,118.2h-7.6c-0.5,0-1-0.4-1-1v-4.8c0-0.5,0.5-1,1-1h7.6c0.5,0,1,0.5,1,1v4.8
			C64.5,117.8,64,118.2,63.5,118.2z"/>
		<path fill="#EDF7FF" d="M50.4,118.2h-7.6c-0.5,0-1-0.4-1-1v-4.8c0-0.5,0.5-1,1-1h7.6c0.5,0,1,0.5,1,1v4.8
			C51.4,117.8,50.9,118.2,50.4,118.2z"/>
		<path fill="#EDF7FF" d="M115.7,118.2h-7.6c-0.6,0-1-0.4-1-1v-4.8c0-0.5,0.4-1,1-1h7.6c0.5,0,1,0.5,1,1v4.8
			C116.7,117.8,116.2,118.2,115.7,118.2z"/>
		<path fill="#EDF7FF" d="M102.6,118.2H95c-0.6,0-1-0.4-1-1v-4.8c0-0.5,0.4-1,1-1h7.6c0.6,0,1,0.5,1,1v4.8
			C103.6,117.8,103.1,118.2,102.6,118.2z"/>
		<path fill="#EDF7FF" d="M89.5,118.2h-7.6c-0.5,0-1-0.4-1-1v-4.8c0-0.5,0.5-1,1-1h7.6c0.6,0,1,0.5,1,1v4.8
			C90.5,117.8,90,118.2,89.5,118.2z"/>
		<path fill="#EDF7FF" d="M154.8,118.2h-7.6c-0.6,0-1-0.4-1-1v-4.8c0-0.5,0.4-1,1-1h7.6c0.6,0,1,0.5,1,1v4.8
			C155.8,117.8,155.3,118.2,154.8,118.2z"/>
		<path fill="#EDF7FF" d="M141.7,118.2H134c-0.6,0-1-0.4-1-1v-4.8c0-0.5,0.4-1,1-1h7.6c0.5,0,1,0.5,1,1v4.8
			C142.7,117.8,142.2,118.2,141.7,118.2z"/>
		<path fill="#EDF7FF" d="M128.6,118.2h-7.6c-0.5,0-1-0.4-1-1v-4.8c0-0.5,0.5-1,1-1h7.6c0.5,0,1,0.5,1,1v4.8
			C129.6,117.8,129.1,118.2,128.6,118.2z"/>
		<path fill="#EDF7FF" d="M167.7,118.2H160c-0.6,0-1-0.4-1-1v-4.8c0-0.5,0.4-1,1-1h7.6c0.6,0,1,0.5,1,1v4.8
			C168.7,117.8,168.2,118.2,167.7,118.2z"/>
		<path fill="#EDF7FF" d="M154.8,147.9h-7.6c-0.6,0-1-0.4-1-1v-4.8c0-0.6,0.4-1,1-1h7.6c0.6,0,1,0.4,1,1v4.8
			C155.8,147.4,155.3,147.9,154.8,147.9z"/>
		<path fill="#EDF7FF" d="M141.7,147.9H134c-0.6,0-1-0.4-1-1v-4.8c0-0.6,0.4-1,1-1h7.6c0.5,0,1,0.4,1,1v4.8
			C142.7,147.4,142.2,147.9,141.7,147.9z"/>
		<path fill="#EDF7FF" d="M167.7,147.9H160c-0.6,0-1-0.4-1-1v-4.8c0-0.6,0.4-1,1-1h7.6c0.6,0,1,0.4,1,1v4.8
			C168.7,147.4,168.2,147.9,167.7,147.9z"/>
	</g>
</g>
<path fill="#0064D9" d="M88.2,61.5L62,74.1c0,0,9.5,19.9,41.6,19.9c32.1,0,42.6-19.9,42.6-19.9l-24.3-12.6c0.1,0.6,0.2,1.2,0.2,1.8
	v4.9c0,4.3-3.5,7.9-7.9,7.9H95.8c-4.3,0-7.9-3.5-7.9-7.9v-4.9C87.9,62.7,88,62.1,88.2,61.5z"/>
<rect x="6.5" y="54.4" fill="#C5DCED" width="194.9" height="3.9"/>
<g>
	<path fill="#0042D9" d="M84.2,27.2h2.3v3.9h4.5v-3.9h2.3v10.4h-2.3v-4.5h-4.5v4.5h-2.3V27.2z"/>
	<path fill="#0042D9" d="M101.8,36.4c-0.4,0.5-0.8,0.8-1.3,1c-0.5,0.2-1.1,0.4-1.7,0.4c-0.6,0-1.1-0.1-1.6-0.3
		c-0.5-0.2-0.9-0.4-1.3-0.8c-0.4-0.3-0.6-0.7-0.8-1.2c-0.2-0.5-0.3-1-0.3-1.5c0-0.6,0.1-1.1,0.3-1.5c0.2-0.5,0.5-0.9,0.8-1.2
		c0.4-0.3,0.8-0.6,1.3-0.8s1-0.3,1.6-0.3c0.5,0,1,0.1,1.4,0.3c0.4,0.2,0.8,0.4,1.1,0.8c0.3,0.3,0.5,0.7,0.7,1.2s0.2,1,0.2,1.5v0.7
		H97c0.1,0.4,0.3,0.8,0.6,1c0.3,0.3,0.7,0.4,1.1,0.4c0.4,0,0.7-0.1,0.9-0.2s0.5-0.4,0.7-0.6L101.8,36.4z M100,33.3
		c0-0.4-0.1-0.7-0.4-1c-0.3-0.3-0.6-0.4-1-0.4c-0.2,0-0.5,0-0.6,0.1c-0.2,0.1-0.3,0.2-0.5,0.3c-0.1,0.1-0.2,0.3-0.3,0.4
		s-0.1,0.3-0.1,0.5H100z"/>
	<path fill="#0042D9" d="M103.5,26.5h2.2v11.1h-2.2V26.5z"/>
	<path fill="#0042D9" d="M107.4,26.5h2.2v11.1h-2.2V26.5z"/>
	<path fill="#0042D9" d="M110.9,34.1c0-0.6,0.1-1.1,0.3-1.5c0.2-0.5,0.5-0.9,0.8-1.2c0.4-0.3,0.8-0.6,1.3-0.8s1-0.3,1.6-0.3
		c0.5,0,1.1,0.1,1.6,0.3s0.9,0.4,1.3,0.8c0.4,0.3,0.6,0.7,0.8,1.2s0.3,1,0.3,1.5c0,0.6-0.1,1.1-0.3,1.5s-0.5,0.9-0.8,1.2
		c-0.4,0.3-0.8,0.6-1.3,0.8c-0.5,0.2-1,0.3-1.6,0.3c-0.6,0-1.1-0.1-1.6-0.3c-0.5-0.2-0.9-0.4-1.3-0.8c-0.4-0.3-0.6-0.7-0.8-1.2
		C111,35.2,110.9,34.7,110.9,34.1z M113.1,34.1c0,0.5,0.2,1,0.5,1.3c0.3,0.3,0.7,0.5,1.3,0.5c0.6,0,1-0.2,1.3-0.5s0.5-0.8,0.5-1.3
		c0-0.5-0.2-1-0.5-1.3c-0.3-0.3-0.7-0.5-1.3-0.5c-0.6,0-1,0.2-1.3,0.5C113.3,33.1,113.1,33.5,113.1,34.1z"/>
	<path fill="#0042D9" d="M121.3,36.4c0-0.2,0-0.4,0.1-0.5c0.1-0.2,0.2-0.3,0.3-0.4c0.1-0.1,0.3-0.2,0.4-0.3s0.3-0.1,0.5-0.1
		s0.4,0,0.5,0.1s0.3,0.2,0.4,0.3s0.2,0.3,0.3,0.4c0.1,0.2,0.1,0.3,0.1,0.5c0,0.2,0,0.4-0.1,0.5c-0.1,0.2-0.2,0.3-0.3,0.4
		s-0.3,0.2-0.4,0.3s-0.3,0.1-0.5,0.1s-0.4,0-0.5-0.1s-0.3-0.2-0.4-0.3c-0.1-0.1-0.2-0.3-0.3-0.4C121.3,36.8,121.3,36.6,121.3,36.4z
		 M123.8,34.2h-2.2v-7h2.2V34.2z"/>
</g>
<path fill="#0076FF" d="M75.3,67.7c0,0,8.6,14.3,28.6,14.3s29.9-14.3,29.9-14.3l3.9,2c0,0-12.1,15.8-33.8,15.8S71.4,69.6,71.4,69.6
	L75.3,67.7z"/>
</svg>
