<?xml version="1.0" encoding="utf-8"?>
<!-- Generator: Adobe Illustrator 18.0.0, SVG Export Plug-In . SVG Version: 6.00 Build 0)  -->
<!DOCTYPE svg PUBLIC "-//W3C//DTD SVG 1.1//EN" "http://www.w3.org/Graphics/SVG/1.1/DTD/svg11.dtd">
<svg version="1.1" id="Layer_1" xmlns="http://www.w3.org/2000/svg" xmlns:xlink="http://www.w3.org/1999/xlink" x="0px" y="0px"
	 viewBox="0 0 459 398" enable-background="new 0 0 459 398" xml:space="preserve">
<path fill="#0076FF" d="M290.7,360.6c0,0,5.1,9,8.5,21.9S282.7,398,282.7,398H164.1c0,0,22.7-17,34.9-22.3
	c14.1-6,22.5-11.9,22.5-11.9L290.7,360.6z"/>
<polygon fill="#0076FF" points="26.5,366.9 6.6,398 27.4,398 45.9,366.9 "/>
<polygon fill="#0076FF" points="352.8,366.9 372.6,398 351.9,398 333.3,366.9 "/>
<g>
	<g>
		<path fill="#0064D9" d="M296.2,138.7H192.8c-0.6,0-1-0.4-1-1V1.4c0-0.5,0.4-1,1-1h103.4c0.5,0,1,0.5,1,1v136.3
			C297.2,138.2,296.7,138.7,296.2,138.7z"/>
		<path fill="#0042D9" d="M296.5,0.4h-72.6c0,0-6.7,5.2,10.1,6.1c16.8,1,31.7-1.2,30.3,4c-1.4,5.2-54.6-1.2-57.7,3.5
			c-3.1,4.7,29.5,3.8,43.2,5.7c13.7,1.9,27.8,3.5,21.9,7.3c-5.9,3.8-56-5.7-51.7,0c4.3,5.7,52.7,7.6,50.2,11.1
			c-2.5,3.5-30.1-1.9-28.1,3.3c2,5.2,36.5,2.4,36,7.3c-0.5,5-57.4-4.3-57.7,2.4c-0.2,6.6,63.6,3.3,64,8c0.5,4.7-36.6,2.6-34,7.3
			c2.6,4.7,41.4,0.5,41.1,4.7c-0.2,4.3-13.2,2.1-11.1,7.1c2.1,5,16.7,4.3,16.7,4.3V1.1C297.2,0.7,296.9,0.4,296.5,0.4z"/>
		<path fill="#0042D9" d="M283.3,132.9c-7.3-2.2-30.5,0.5-35.4-3.4c-5-3.9,40.6-1.8,42.8-7.9c2.1-6.1-64,1.4-66.8-5.2
			c-2.8-6.6,43.9,0.5,43.2-6.4s-48.7,0.5-48.1-3.3c0.6-3.8,30.6,1.7,32.8-4.5c2.2-6.1-42.6-2.1-40.8-6.4c1.9-4.3,22,0.5,19.2-5
			c-2.8-5.5-33.1,0.7-32.5-2.1c0.6-2.8,6.8-1.7,5.8-4.5c-0.9-2.8-11.6-1.6-11.6-1.6v55.3c0,0.4,0.3,0.7,0.7,0.7h96.9
			C289.5,138.7,290.7,135.1,283.3,132.9z"/>
		<path fill="#FFFFFF" d="M297.6,22.4c-9.2-9.7-22.6-15-37-15c-27.9,0-50.5,22.6-50.5,50.5c0,27.9,22.6,50.5,50.5,50.5
			c14.4,0,27.8-6.7,37-16.3V22.4z"/>
		<g>
			<path fill="#0064D9" d="M272.4,35.2c0,0-6.4,3.1-10.9,13.8c-4.5,10.7-6.4,25-6.4,25l5.3,2c0,0,6.1-8.5,10.8-22.5
				S272.4,35.2,272.4,35.2z"/>
			<polygon fill="#0064D9" points="251.2,60.7 263.7,59.2 271.5,69.2 270.3,72.3 260.7,66.8 249.7,64.6 			"/>
			<path fill="#0064D9" d="M254.2,56.3c0,0-3.6,0.1-5.4,5.3c-2.1,5.9,0.4,8.2,0.4,8.2L254.2,56.3z"/>
			<path fill="#0064D9" d="M272.1,63c0,0,2.7,2.4,0.6,7.6c-2.3,5.8-5.6,5.9-5.6,5.9L272.1,63z"/>
		</g>
		<circle fill="#EDF7FF" cx="199.6" cy="28.6" r="0.8"/>
		<circle fill="#EDF7FF" cx="204.4" cy="57.9" r="0.8"/>
		<circle fill="#EDF7FF" cx="223.7" cy="8.2" r="0.8"/>
		<circle fill="#EDF7FF" cx="213.9" cy="4.2" r="0.8"/>
		<circle fill="#EDF7FF" cx="265.3" cy="114.3" r="0.8"/>
		<circle fill="#EDF7FF" cx="241.3" cy="133.2" r="0.8"/>
		<circle fill="#EDF7FF" cx="226" cy="124" r="0.8"/>
		<circle fill="#EDF7FF" cx="273.5" cy="116.4" r="0.8"/>
		<circle fill="#EDF7FF" cx="281.9" cy="108.7" r="0.8"/>
		<circle fill="#EDF7FF" cx="290.7" cy="8.2" r="0.8"/>
		<circle fill="#EDF7FF" cx="211" cy="131.2" r="0.8"/>
		<circle fill="#EDF7FF" cx="214.7" cy="128.2" r="0.8"/>
	</g>
	<path opacity="0.66" fill="#7BC1FA" d="M258,78.2c-7.3-2.6-9.4,6.8-13.5,17.7c-8.4,22.5-30.6,42.8-30.6,42.8l40.5,0
		c0,0,4.3-25.8,5.9-46.7C261,84.6,261.9,79.5,258,78.2z"/>
</g>
<g>
	<path fill="#0076FF" d="M236.6,165.3c-7.7,3.9-17.5-0.2-21.8,5.1s1.6,12.4-5.1,20.8s-19.9,13.4-15.2,30.9s14,16,22.6,15.6
		c8.6-0.4,19.5,0,26.1,2.3c6.6,2.3,15.6,12.1,26.5,5.1c10.9-7,10.1-16.6,17.5-21.1s13.2-14.3,3.5-23.3c-9.7-9-17.1-15.2-19.5-23.4
		C268.9,169.2,253.3,156.7,236.6,165.3z"/>
	<path fill="#FFD8B5" d="M187.9,310.4c0,0-4.7,16.7-16.4,23.2c-6.5,3.6-37,12.3-46.3,12.7c-9.3,0.4-19.5-3.1-24.9,0
		c-5.5,3.1-5.8,11.3-5.8,11.3s81-2.9,85.7-3.5c4.1-0.5,25.6-33.9,25.6-33.9L187.9,310.4z"/>
	<path fill="#00B8F0" d="M219.1,247.6c0,0-6.6,1.7-9.9,7.5c-3.4,5.8-8.8,28.4-12.3,35.8c-3.5,7.4-9,19.5-9,19.5s11.9,11.7,17.8,11.7
		c3.5-4.7,14.5-22.8,14.5-22.8L219.1,247.6z"/>
	<path fill="#00C4FF" d="M254.7,241.1c0,0,20,0.2,25.5,6.5c5.5,6.3,8.2,107.8,8.2,107.8l-66.8,0.2c0,0-1.9-45.2-4.9-49.1
		s-11.6-14.4-5.1-28c4.3-9,7.2-23.4,7.5-30.9c5.5-3.5,9.7-3.8,9.7-3.8"/>
	<path fill="#FFE4CC" d="M262.8,318.6l-0.3,14.8c0,0-11.4,4.7-21,6.2s-41.6,1.9-50.5,3.1c-9,1.2-12.9-2.3-23.4,0
		s-12.9,11.3-12.9,11.3s118.2,3.1,127.8,0c9.7-3.1,4.2-40.9,4.2-40.9L262.8,318.6z"/>
	<path fill="#0064D9" d="M261.5,212.8l11.3-1c0,0,7.2,0.4,1.5,9.3c-5.8,8.9-1,11.8-6.4,17.6c-5.3,5.8-19.9,5.8-29.4,0
		c-9.4-5.8-9.8-6-24.5-5.2c-13.3,0.7-16.4-8.2-14.5-19.9s8.2-15.3,12-20.3c5.1-6.6,2.3-12.2,8.7-17.6c6.4-5.4,17.5,2.4,17.5,2.4
		L261.5,212.8z"/>
	<path fill="#FFD8B5" d="M220.3,215.4c0,0,7.4,8.2,8.5,14.8c1.2,6.6,0,13.6,0,13.6s-9,10,2.7,15.3c11.7,5.3,29.1-4.2,31-11.6
		c1.9-7.4-7.8-6.5-7.8-6.5s-13.2-13-5.9-27.5C252.8,205.8,220.3,215.4,220.3,215.4z"/>
	<path fill="#EDBF98" d="M246.8,219.9c0.1-0.8,0.3-1.6,0.5-2.3c0,0,0,0,0,0c0.7-9.2-18,2-22.1,4.5c1.6,2.5,3.1,5.5,3.6,8.1
		c0.3,1.8,0.5,3.7,0.5,5.4l0,0C229.3,235.7,243.9,229.1,246.8,219.9z"/>
	<path fill="#FFE4CC" d="M256.6,207.4L256.6,207.4c6.3-10.6,7.8-26.1-3.2-33.2c-10.6-6.8-21.8-4.3-29.6,5.5
		c-7.8,9.7-18.5,31.8-7.4,40.1c9.9,7.4,22.3,4.2,32.5-3.7c0,0,8.8,1.8,12.7-3.3C265.4,207.8,257,206.7,256.6,207.4z"/>
	<path fill="#00C4FF" d="M280.2,247.6c0,0-18.7,4.4-21.8,26.6c0,1.9,4.2,47.9,4.2,47.9s12.2-6.6,17.7-7c5.5-0.4,9.3,0.8,9.3,0.8
		s1.6-32.3,0-47.9C288,252.4,280.2,247.6,280.2,247.6z"/>
	<path fill="#FFD8B5" d="M256.6,207.4L256.6,207.4c0.8-1.3,1.5-2.7,2.1-4.2c-3-4.5-5.8-10.2-5.6-16.1c0.1-7.3-0.8-11.8-2.7-14.5
		c-6.4-3.1-13-2.8-18.7,0.3c0,0,8,4.9,9.8,15.8c1.9,11,2.4,22.1,11.2,23.1c3.9,0.4,7,0.5,9.2,0.4C264.8,207.7,257,206.8,256.6,207.4
		z"/>
	<path fill="#0076FF" d="M236.6,171c0,0,8.6,2.9,10.6,13.4c1.9,10.5,1.4,23.3,12,27.4c10.6,4.1,13.7,0,13.7,0s0.8-31.5-8.2-37.2
		C247.9,164.1,236.6,171,236.6,171z"/>
	<path fill="#FFD8B5" d="M226.5,193.3c0,0-10.9,6.2-9.7,8.2c1.2,1.9,3.5,3.5,3.5,3.5L226.5,193.3z"/>
	<path fill="#00B8F0" d="M267.9,258.1c0,0-6,6.7-6.5,20.2c-0.5,13.5,0,23.9,0,23.9s-7.2-12.9-6.3-27.7
		C256.1,259.6,267.9,258.1,267.9,258.1z"/>
	<path fill="#0064D9" d="M250.5,175.7c0,0,4.2,3.9,5.2,12c0.9,8.1,0.1,17.1,7.1,19.5c7,2.4,11.5-2.2,11.5-2.2s-11.3,0.2-11.5-9.2
		C262.4,178.1,250.5,175.7,250.5,175.7z"/>
</g>
<g>
	<path fill="#C5DCED" d="M173.2,327.8H32c-5.5,0-10-4.5-10-10v-86.7c0-5.5,4.5-10,10-10h141.2c5.5,0,10,4.5,10,10v86.7
		C183.2,323.3,178.7,327.8,173.2,327.8z"/>
	<path fill="#FFFFFF" d="M119.3,343.9V302c0-4-3.3-7.3-7.3-7.3H97c-4,0-7.3,3.3-7.3,7.3v41.9c-3.5,8.3-12.9,10.8-12.9,10.8h58.4
		C135.3,354.7,122.5,351.6,119.3,343.9z M104.2,302.3c4.2,0,7.7,3.4,7.7,7.7c0,4.2-3.4,7.7-7.7,7.7c-4.2,0-7.7-3.4-7.7-7.7
		C96.5,305.7,100,302.3,104.2,302.3z"/>
</g>
<g>
	<path fill="#FFD8B5" d="M346.5,290.9l-35.6-17.1c0,0,0,0,0,0c-0.1-1.5-0.9-8.1-8.1-10.2c-4.1-1.2-8.1-2.3-8.1-2.3s-2.5,2.4,2.8,4.4
		c-2.1,0.1-4.5,0.3-7.7,0.8c-5.4,0.7-16.2,1-16.1,3c0,2.2,7.9,1.8,13.6,2c-0.7,0.8-2.5,3.3-0.9,4.3c2,1.2,3.8,1,3.8,1
		c0,0-2.8,0.5-2.3,2.2c0.4,1.4,6.4,3.7,8.5,4.5c0.1,0,0.2,0.1,0.3,0.1c0.3,0.1,0.4,0.2,0.4,0.2s0,0,0,0c4.4,1.5,7.4,1.1,9.6-0.4
		c0,0,0,0.1,0.1,0.1c3.6,6.2,37.2,23.2,37.2,23.2l4.4-6.8L346.5,290.9z"/>
	<path fill="#00B8F0" d="M379.2,329.6l32.4,68.4h38.2c0,0-8.8-31.3-8.7-48.1"/>
	<path fill="#00C4FF" d="M439.1,306.5c0,0,8.2,14.6,9.1,16.7c2.1,4.9,5.3,16.5-3.6,35.2c-5,10.4-32.2,39.6-32.2,39.6h-48.7
		c0,0,19.3-52.3,18.9-67l37-24.5"/>
	<path fill="#0064D9" d="M343.9,289.7c0.2,0.1,2.2,5.4,1.5,9.4c-0.7,4-2.4,7.3-2.4,7.3s9.3,4.5,20.5,2c11.2-2.5,19-29.4,19-29.4
		L368,262.4c0,0-5.7,22.3-11.7,24.8C350.2,289.6,343.9,289.7,343.9,289.7z"/>
	<path fill="#7BC1FA" d="M359.9,132.3c0,0,16.8-5.3,28.8-2.1c12,3.2,18.8,19.8,21.1,31.1s-6.1,26.2,3.3,34.7
		c9.4,8.5,19.2,9.2,26.9,25.6s-3.1,45.1,5.3,48.8s13.3-0.8,13.3-0.8s-8.6,17.7-19.5,12c-11-5.7-28-7-36.4-6.7
		c-8.4,0.3-4.9-69.7-33.9-74.1C333.7,195.6,312.5,156.2,359.9,132.3z"/>
	<path fill="#58AAED" d="M437.1,264.5c-1-8.8-1.7-21.9-2.8-31.6c-1.1-9.7-7.4-20.5-17.8-26.8c-10.4-6.3-16-14.4-19.5-22.6
		c-2.2-5.3-5.2-8-7-9.3c-1-0.7-1.7-1-1.7-1l-16,11.9l4.1,18.8l0,0c7.1,4.8,11.5,14.6,14.6,25.3l26.8,46.5l0,0
		c7.3,0.9,15.3,2.7,21.4,5.9c5.8,3,11-0.6,14.5-4.6C453.6,277.1,439.1,281.7,437.1,264.5z"/>
	<path fill="#FFD8B5" d="M358.9,197.7c7.1,20,10.7,31.6,10.7,31.6l29.9-20.6c0,0-8.9-4-15.7-11c-6.9-7-4.4-19.4-4.4-19.4
		L358.9,197.7z"/>
	<path fill="#EDBF98" d="M364.7,214.4c0,0,15.5-13.9,14.5-26.9c-0.1-0.4-0.1-0.8-0.1-1.1l0,0c-0.5-3.3-2-4.3-3.9-3.9l-16.2,15.3
		C361.2,204.2,363.1,209.8,364.7,214.4L364.7,214.4z"/>
	<path fill="#00B8F0" d="M431.6,341.6C423.2,360.1,395,398,395,398h18.4c5.9-7,26.8-30.4,31.2-39.6c8.9-18.7,5.7-30.2,3.6-35.2
		c-0.9-2.1-9.1-16.7-9.1-16.7l-12.4,6.4C426.7,312.9,440,323.1,431.6,341.6z"/>
	<path fill="#FFE4CC" d="M353.6,140.6c-12.6,5.4-14.4,20.3-12.5,33.3c1.9,13.1,5.1,25.1,16.7,25.7c11.6,0.6,27.5-17.3,28.7-30.8
		S374.6,131.7,353.6,140.6z"/>
	<path fill="#FFE4CC" d="M386.2,163.3c0,0,3.3-8.5,6.2-4.2s-1.7,18.5-7.1,18.4C379.9,177.4,386.2,163.3,386.2,163.3z"/>
	<path fill="#FFD8B5" d="M368.4,162.9c8.5,1.4,18.7,7.1,22.6,9.4c0.3-0.5,0.5-1.1,0.7-1.6l-2.5-7.8l-2.1-1.5c-0.5,1-0.9,1.9-0.9,1.9
		c-0.1-0.9-0.3-1.9-0.6-2.9l-10.3-7.1L350.5,143c0,0-0.7,0.1-1.7,0.5c-2,1.6-3.6,3.6-4.8,5.8C347.5,152.2,359.5,161.5,368.4,162.9z"
		/>
	<path fill="none" stroke="#0076FF" stroke-width="3" stroke-miterlimit="10" d="M363.4,168.3h4.5c0,0,13.4-5.4,19.2-6"/>
	<path fill="#0076FF" d="M389.5,202.8c0,0,18.7-9.4,27.7,13.6c5.4,13.8,11.8,36.7,15.1,62.5c3.3,25.8,8.8,31,8.8,31
		c-17.1,20-35.6,12.9-61.9,26.2c0-10.4-3.9-41.2-3.9-41.2s-6.8-21.8-11.8-34.6c-5-12.8,3.9-37.8,3.9-37.8S370.7,234.4,389.5,202.8z"
		/>
	<path fill="#FFE4CC" d="M406,205.4c-11.5-8-14,3.9-19.4,17.8s-15.7,47.9-21.8,65c-6.1,17-40.8,59-46.3,61.8
		c-5.4,2.8-6.9-3.6-15.7-1.9s-7.2,6.8-7.2,6.8H329c0,0,46.7-41.9,54.3-57.3C391,282.3,425.6,219.1,406,205.4z"/>
	<path fill="#7BC1FA" d="M346.7,143.4c0,0,9.8,7.8,20.5,13.7s17.3,5.8,23.6,13.9c6.2,8.1,10.9,15.3,10.9,15.3s4.9-12.4-0.5-24.7
		s-16.5-26.5-27.6-27.5C362.7,133.2,346.7,143.4,346.7,143.4z"/>
	<path fill="#0064D9" d="M364.8,288.2c-1.9,5.2-6.3,12.6-11.8,20.5l12.4,11.2c8.3-8.7,15.4-17,18-22.2c7.6-15.4,42.2-78.6,22.6-92.3
		c-11.5-8-14,3.9-19.4,17.8C381.2,237.1,370.9,271.1,364.8,288.2z"/>
	<path fill="#58AAED" d="M361.9,142.3c0,0,4.5,6.6,15,11.3s20.7,6.9,22.5,14c1.7,7.1,0.4,15.8,0.4,15.8s7.6-8.2,2.6-18.7
		s-16.4-14.6-23.3-15.9C371.6,147.5,361.9,142.3,361.9,142.3z"/>
	<circle fill="none" stroke="#0076FF" stroke-width="3" stroke-miterlimit="10" cx="355.9" cy="169.4" r="7.6"/>
	<ellipse fill="none" stroke="#0076FF" stroke-width="3" stroke-miterlimit="10" cx="338.4" cy="170.4" rx="5.8" ry="6.6"/>
	<path fill="#FFD8B5" d="M345.5,167.3c0,0-4,12.6-2,14.8c2.1,2.2,6.9,0.9,6.9,0.9L345.5,167.3z"/>
	<path fill="none" stroke="#0076FF" stroke-width="3" stroke-miterlimit="10" d="M343.9,168.4c0,0,1.7-1.6,4.5,0.3"/>
</g>
<g>
	<path fill="#0064D9" d="M40.3,317.7c0,0,3.1-7.9,0-11.8c-3.1-3.9-14.2-5.7-10.4-11.1s10.4,7.6,14.9,4.6s-16-9.9-10.6-14.9
		c5.4-5,13.4,12.7,16.2,8.2c2.8-4.5-15-14.2-6.7-16.7s10.3,14.8,12.8,8.5c2.5-6.3-9.2-17.1-4.2-18.2s9.7,15.3,11.4,10.3
		s-7-15.7,0-15.8c7-0.1,7.3,14.4,9.2,8.5c2-5.9,2.5-12.3,6.7-11.7c4.2,0.6-5.3,12.5-2.2,13.4c3.1,0.8,4.9-1.4,8.9-0.6
		c3.9,0.8,1.7,6.7-5.3,6.4c-7-0.3-13.1,1.1-10.3,3.3c2.8,2.2,13-1.7,15.6,1.1c2.5,2.8-1.6,7.3-12.8,6.3c-11.2-1-17,2.3-11.2,4.8
		c5.9,2.5,17.6-2.3,20.6,2.3c3.1,4.6-5.6,8.3-15.1,5.8c-9.5-2.5-14.5-3.9-13.1,0c1.4,3.9,13.9,2.8,18.4,5.6c4.5,2.8-3.8,7.3-13,4.4
		c-9.3-3-8.7-2.6-11.5,0c-2.8,2.6-5.9,7.2-5.9,7.2H40.3z"/>
	<path fill="#0076FF" d="M41.2,320.9c0,0,0-13.5-10-16.6s-16.4,1.9-15.3-6.3s20.6,5.5,19.8,2.1s-17.8-9.8-16.2-15.6
		c1.7-5.9,12.5,8.6,14.5,4.7c2-3.9-18.1-13.9-15.1-17.8c3.1-3.9,14.2,12.3,15.3,7.5c1.1-4.7-10.4-12.3-7-16.4s6.8,7,7.9,4.2
		c1.1-2.8-1.7-13.4,4.2-12c5.9,1.4,0.6,9.8,2,12.3c1.4,2.5,3.9-7.8,7.8-4.7s-10.6,13.1-7,15.5c3.6,2.4,7.5-6.6,10-2.7
		c2.5,3.9-12.5,10.3-8.6,12.7c3.9,2.4,9.5-6.3,11.4-1.5c2,4.7-13.4,8.3-10.6,11.8c2.8,3.5,9.8-6.2,12.8-2c3.1,4.2-11,8.3-12.8,11.4
		c-3.1,5.3-1.1,13.5-1.1,13.5H41.2z"/>
	<polygon fill="#7BC1FA" points="20.4,322.3 26.6,354.2 54.7,354.2 60.1,322.3 	"/>
	<rect x="15.7" y="316" fill="#74B7ED" width="47.9" height="11.9"/>
	<polygon fill="#4793D1" points="21.6,328.3 23.9,340.2 59.2,327.9 	"/>
</g>
<polygon fill="#0076FF" points="231.4,270.6 233.5,284.1 226.5,279.4 234.6,307.4 232.9,289 237.8,293.3 238.4,273.2 "/>
<rect x="-0.2" y="354.2" fill="#D9EEFF" width="371.8" height="12.7"/>
</svg>
