<?xml version="1.0" encoding="utf-8"?>
<!-- Generator: Adobe Illustrator 18.0.0, SVG Export Plug-In . SVG Version: 6.00 Build 0)  -->
<!DOCTYPE svg PUBLIC "-//W3C//DTD SVG 1.1//EN" "http://www.w3.org/Graphics/SVG/1.1/DTD/svg11.dtd">
<svg version="1.1" id="Layer_1" xmlns="http://www.w3.org/2000/svg" xmlns:xlink="http://www.w3.org/1999/xlink" x="0px" y="0px"
	 viewBox="0 0 186 325" enable-background="new 0 0 186 325" xml:space="preserve">
<g>
	<path fill="#FFD8B5" d="M93,196.8l61.9-12.2l-4.2,12.2L91,213.3c0,0-3.9-5.4,1.4-15.2"/>
	<path fill="#58AAED" d="M92.5,113.3c0,0,8,6.9,9,20.5S93,196.8,93,196.8s-3.1,11.9,0,16.6c-5.2,5.2-10.4,1.1-10.4,1.1L93,115.2"/>
	<path fill="#00C4FF" d="M100.6,30.4c0,0,1.6,6.8,0.1,12.4s-5.5,8.4-5.5,8.4L93,30.4L100.6,30.4z"/>
	<path fill="#58AAED" d="M95.7,36.2c-0.1-0.7-0.2-1.5-0.7-2.1c-0.4-0.4-0.9-0.6-1.4-0.8c-1.5-0.6-3-1.1-4.5-1.7
		c1.9,2.4,2.9,5.4,3.9,8.2c0.4,1.2,0.9,2.5,1.1,3.7c0.4,2,0.3,4,1.1,5.9C96,45.1,96.1,40.6,95.7,36.2z"/>
	<path fill="#0064D9" d="M6.6,249.7c0,0-2.8,8.4-4.3,40.2c-0.3,5.9,0,35.1,0,35.1l45-0.2c0,0-0.3-39.7,6.9-40.9
		c7.2-1.3,9.3,41.1,9.3,41.1h38.2c0,0-8-67.9-11.8-76.8C86,239.3,6.6,249.7,6.6,249.7z"/>
	<path fill="#FFD8B5" d="M50.1,63.7c0.3,1.1,3.1,18.4-1.7,24.2s-11.8,9.5-11.8,9.5s5.1,17.8,24.3,17.8s13.7-14.1,13.7-14.1
		s1.2-20.5,3.9-25.7C81.2,70.3,50.1,63.7,50.1,63.7z"/>
	<path fill="#EDBF98" d="M50.6,66.8C50.6,66.8,50.6,66.8,50.6,66.8c0,0,4.1,25.4,15.1,26.2c6.5,0.5,9.1-3.6,10.2-7.1
		c0.2-1.5,0.5-3,0.7-4.4v0L50.6,66.8z"/>
	<path fill="#FFE4CC" d="M75.3,13.4C59.4,13.5,47.6,22,42.1,36c-1.1,2.8-1.7,5-2,7c-1.1-0.3-2.2,0-3,1.8c-2.9,6.2,1,18.3,8.8,17.2
		c2.5,10.9,13.9,22.9,25.9,23.8c12,0.9,24.9-23.6,24.2-47.2C95.3,15,75.3,13.4,75.3,13.4z"/>
	<path fill="#7BC1FA" d="M42.9,92.9c0,0,1.5,12.3,16.7,13.7s14.9-5.5,14.9-5.5s12.9,6.6,18,12.1s-4.1,70.3-5.3,86.7
		s2.6,48.2,2.6,48.2s-20.2,8.6-32.2,10.2c-12,1.6-46.7-4.1-51-6.8s0-70.5-4.5-97.2c-4.7-28.1-1.4-52.6,16.1-54.4
		C31.2,98.6,42.9,92.9,42.9,92.9z"/>
	<path fill="#FFD8B5" d="M80.6,45.9c0,0,2.6,14.9,1.9,18.1c-0.7,3.2-9.7,1-9.7,1L80.6,45.9z"/>
	<path fill="#FFD8B5" d="M93.3,26.4l-6.2-5.5l-10.4,1.1l-20.4-1.2l-2.5,7.6c0,0,16.1,12.5,29.5,9.1c7.5-1.9,10.5-4.4,11.7-6.3
		C94.6,29.4,94,27.8,93.3,26.4z"/>
	<path fill="#00C4FF" d="M56,26.2c5.2-1,11.5,5.7,24.9,5.7s29,3.4,27.5-11.2C106.9,6.1,96.8,2.1,86,5.1S61.4,9.2,61.7,7.3
		c0.3-2,7.2-6.4,3.9-7s-9.1,6.5-11.4,8.6c-2.3,2.1-7,1.7-9.9,8.9C41.4,25,38.8,34.3,40.1,43c2.4,5.2,6.4,3.3,9.1,8.8
		c4.9-2.4,0.6-9.6,0.8-15.2S56,26.2,56,26.2z"/>
	<path fill="#FFE4CC" d="M92.4,186.8c0,0,7-13.5,15.3-14.3c11.1-1.1,1.9,8.8,1.9,8.8L92.4,186.8z"/>
	<path fill="#C5DCED" d="M112.5,165.7l-19.6,43.6c-1.7,3.9,2,7.9,6,6.6l60.7-20.6c2.3-0.8,4.2-2.5,5.2-4.7l20.5-46.2
		c1-2.3-1.1-4.7-3.5-4L119,159.9C116.1,160.8,113.7,162.9,112.5,165.7z"/>
	<path fill="#FFE4CC" d="M23.4,222.2c0,0,20.6,3.2,46.1-10.9c13.1-7.3,26.8-13.3,26.8-13.3s20.1,3.3,30.9-7.4
		c10.7-10.7,5.7-11.4,0-12s-18.1-0.6-23.2,0s-11.5,8.2-11.5,8.2s-47.5,9.6-59.5,15S13.8,218.1,23.4,222.2z"/>
	<path fill="#58AAED" d="M5.9,107.6c5.5-3.9,23.5-7.3,26,22.7c1.6,18.5,2.7,43,3.1,52.8c0.4,9.8,3.2,16.8,3.2,16.8s-7.3,2-13.3,8.3
		c-6,6.3-1.5,14.1-1.5,14.1s-8.6-3.3-12.2-10.5C5.3,200.1-7.4,117,5.9,107.6z"/>
	<path fill="#FFE4CC" d="M175.7,165.5c0,0-20.9,0.4-22.4,10.3c-1,6.5,12.9,11,12.9,11s6.8,1.9,10.7-7.2
		C181,170.5,175.7,165.5,175.7,165.5z"/>
</g>
</svg>
