<svg xmlns="http://www.w3.org/2000/svg" version="1.1" width="168" height="35" viewBox="0 0 373 79" preserveAspectRatio="xMidYMid meet"><path fill="#FFFFFF" d="M3.5 23.1v37.2h22.6v2.9H0.4V23.1H3.5z"/><path fill="#FFFFFF" d="M60.3 23.1V48c0 21-30.8 21.1-30.8 0V23.1h3V48c0 17.3 24.7 17.2 24.7 0V23.1H60.3z"/><path fill="#FFFFFF" d="M70.2 23.1l27 33.2V23.1h3v40.2H99l-27.1-33.2v33.2h-3.1V23.1H70.2z"/><path fill="none" d="M135.5 50.5L124.7 26.1l-10.8 24.4H135.5z"/><path fill="#FFFFFF" d="M181.7 63.2h-4.1L163.7 48h-11v15.2h-3.1V23.1c5.9 0 11.8 0 17.7 0 8.7 0 13.1 6.3 13.2 12.5 0.1 6.5-4.2 12.3-13 12.3L181.7 63.2zM152.7 45.1h14.2c7 0 10.1-4 10.2-9.6 0.1-4.7-3.2-9.6-9.8-9.6h-14.6V45.1z"/><rect x="117.5" y="21.8" transform="matrix(0.9273 0.3742 -0.3742 0.9273 24.0962 -41.5092)" fill="#00AEEF" width="2.8" height="38.9"/><rect x="101.8" y="38.7" transform="matrix(0.3875 0.9219 -0.9219 0.3875 118.4951 -98.2239)" fill="#00AEEF" width="62.8" height="2.8"/><path fill="#00AEEF" d="M119 12.7c-3.4 0-6.2-2.8-6.2-6.2s2.8-6.2 6.3-6.2 6.3 2.8 6.3 6.3S122.5 12.7 119 12.7zM119 3.2c-1.8 0-3.2 1.5-3.2 3.3s1.5 3.3 3.3 3.3 3.3-1.5 3.3-3.2S120.8 3.2 119 3.2z"/><path fill="#00AEEF" d="M147 78.7c-3.4 0-6.2-2.8-6.2-6.2s2.8-6.2 6.3-6.2 6.3 2.8 6.3 6.3S150.5 78.7 147 78.7zM147 69.2c-1.8 0-3.2 1.5-3.2 3.3s1.5 3.3 3.3 3.3 3.3-1.5 3.3-3.2S148.8 69.2 147 69.2z"/><path fill="#00AEEF" d="M110 69.7c-3.4 0-6.2-2.8-6.2-6.2s2.8-6.2 6.3-6.2 6.3 2.8 6.3 6.3S113.5 69.7 110 69.7zM110 60.2c-1.8 0-3.2 1.5-3.2 3.3s1.5 3.3 3.3 3.3 3.3-1.5 3.3-3.2S111.8 60.2 110 60.2z"/><path fill="#FFFFFF" d="M211.9 22.9v37.2h22.6v2.9h-25.7V22.9H211.9z"/><path fill="#FFFFFF" d="M277.9 43c-0.1 10.6-6.8 20.7-20.3 20.7s-20.3-10.2-20.3-20.8c0-10.8 6.7-20.7 20.3-20.7C271.2 22.3 278 32.2 277.9 43zM240.5 43c0.1 9.1 5.8 17.9 17.2 17.9 11.5 0 17.3-8.8 17.3-17.9 0-9.3-5.7-17.8-17.3-17.8S240.4 33.5 240.5 43z"/><path fill="#FFFFFF" d="M316.9 30.3c-3.5-3.4-8.4-5.2-12.9-5.2-11.8 0-17.8 8.6-17.7 17.9 0 9.5 6 17.6 17.7 17.6 4.3 0 8.8-1.5 12.2-4.6V44.8h-14V42.1h16.9v15c-4.2 4.2-9.2 6.5-15.1 6.5-13.7 0-20.7-9.5-20.7-20.5-0.1-12.6 8.5-20.8 20.7-20.8 5.3 0 10.6 2 14.7 6L316.9 30.3z"/><path fill="#FFFFFF" d="M327.6 63.1V22.9h3v40.2H327.6z"/><path fill="#FFFFFF" d="M372.6 57.5c-4 4-9.4 6-14.6 6-13.5 0-20.6-9.5-20.7-20.3-0.1-10.7 6.9-20.8 20.7-20.8 5.3 0 10.6 2 14.6 6l-2.1 1.8c-3.4-3.4-8-5.1-12.5-5.1-11.7 0-17.7 8.3-17.7 17.9 0.1 9.4 6.1 17.6 17.7 17.6 4.5 0 9.1-1.7 12.6-5.1L372.6 57.5z"/></svg>
