<?xml version="1.0" encoding="utf-8"?>
<!-- Generator: Adobe Illustrator 21.1.0, SVG Export Plug-In . SVG Version: 6.00 Build 0)  -->
<!DOCTYPE svg PUBLIC "-//W3C//DTD SVG 1.1//EN" "http://www.w3.org/Graphics/SVG/1.1/DTD/svg11.dtd">
<svg version="1.1" id="Layer_1" xmlns="http://www.w3.org/2000/svg" xmlns:xlink="http://www.w3.org/1999/xlink" x="0px" y="0px"
	 viewBox="0 0 500 500" style="enable-background:new 0 0 500 500;" xml:space="preserve">
<style type="text/css">
	.st0{fill:#D1EAFF;}
	.st1{fill:#FFFFFF;}
	.st2{fill:#94C4FF;}
	.st3{fill:#0076FF;}
	.st4{fill:#FFE4CC;}
	.st5{fill:#94AFCC;}
	.st6{fill:#FFD8B5;}
	.st7{fill:#7BC1FA;}
	.st8{fill:#EDF7FF;}
	.st9{fill:#FFD2A5;}
	.st10{fill:#58AAED;}
	.st11{fill:#7AB6FF;}
	.st12{fill:#4794FA;}
	.st13{fill:#005BFF;}
	.st14{fill:#00E1FF;}
	.st15{fill:#8ABEFF;}
	.st16{fill:#3383ED;}
	.st17{fill:#94A6B5;}
	.st18{fill:#0064D9;}
	.st19{fill:#EDBA96;}
	.st20{fill:#00C4FF;}
	.st21{fill:#00B6ED;}
	.st22{fill:#9EC9FF;}
	.st23{fill:#8FBEF7;}
</style>
<path class="st0" d="M0,67v65c21.9,3.4,43.5,8.9,64.6,16.3c63.3,22.4,119.2,61.8,161.5,113.8c1,1.2,0.8,2.9-0.4,3.9
	c-0.5,0.4-1.1,0.6-1.7,0.6c-0.8,0-1.6-0.3-2.1-1c-41.7-51.2-96.7-90-159-112.1c-20.5-7.2-41.5-12.6-62.7-16V222
	c17.4,4.1,34.2,9.9,50.1,17.2c7.7-8.7,21.2-13.7,45.5-4c0,0,2.9,11.4-2.4,16.4c0,0-1.1,4.8-0.9,11.6c10.1,7,19.7,14.6,28.7,22.9
	c9.7-5.5,18.5-11.7,18.5-11.7s5.7,27.8,14.8,32.9c0,0-3.3,1.9-8.3,4.9c40.1,47.7,64.4,109.2,64.4,176.4c0,3.5-0.1,8.1-0.2,11.6
	h152.4c0.1-3.5,0.1-8,0.1-11.6C362.7,274.7,205.3,97.6,0,67z"/>
<path class="st1" d="M182.9,59c-0.4,0-0.9-0.1-1.3-0.3c-9.4-4.9-19.1-9.5-28.9-13.8c-1.4-0.6-2-2.3-1.4-3.6c0.6-1.4,2.3-2,3.6-1.4
	c9.8,4.4,19.6,9.1,29.2,14c1.4,0.7,1.9,2.4,1.2,3.7C184.9,58.5,183.9,59,182.9,59z"/>
<path class="st1" d="M227,84.5c-0.5,0-1-0.1-1.5-0.4c-9.5-6.1-19.4-12-29.3-17.5c-1.3-0.7-1.8-2.4-1.1-3.8c0.7-1.3,2.4-1.8,3.8-1.1
	c10,5.6,20,11.5,29.6,17.7c1.3,0.8,1.7,2.5,0.8,3.8C228.8,84.1,227.9,84.5,227,84.5z"/>
<path class="st1" d="M472.9,493.8c-1.4,0-2.6-1.1-2.7-2.5c-6.6-78.1-30.7-155.4-69.9-223.5c-39.8-69.2-95.5-129.6-161.1-174.6
	c-1.3-0.9-1.6-2.6-0.7-3.8c0.9-1.3,2.6-1.6,3.8-0.7C308.6,134,364.8,195,405,265c39.5,68.8,63.9,146.9,70.6,225.8
	c0.1,1.5-1,2.9-2.5,3C473,493.8,472.9,493.8,472.9,493.8z"/>
<path class="st2" d="M99.2,56.3l-43,146.1c87.5,26.7,156.4,96,182.5,183.8l144.4-48.8C341.1,202.8,234.3,96.9,99.2,56.3z"/>
<path class="st3" d="M361.8,203c0.2-0.5,0.4-1,0.8-1.3c0.7-0.7,1.8-0.8,2.8-0.5c0.9,0.3,1.7,0.9,2.5,1.6c-1.5-0.5-2-2.4-2-3.9
	c0-1,0-2,0.5-2.9c1.1-1.9,3.8-2.4,5.8-1.6c2.1,0.8,3.6,2.5,5,4.2c1.1,1.2,2.2,2.7,1.7,4.3c-0.5,1.5-2.3,2.1-3.7,2.6
	c-1.9,0.6-3.7,1.5-5.3,2.6c-1.5,0.9-3,2.9-4.6,3.5C360.5,213.1,360.6,205.7,361.8,203z"/>
<path class="st3" d="M320.3,456.9l-1.1,43H366c0,0,1.1-11.7,6-11c5,0.7,8.2,11.1,8.2,11.1l56.3-0.1l-8.9-43.3
	C427.7,456.6,334.9,461.1,320.3,456.9z"/>
<path class="st4" d="M337,279.2c0,0-27.4-24.4-31.5-52.7s-8.5-60.1-8.5-60.1l-18.2-18.7c0,0-5.9,56.4-5,87.5s55.6,90.4,55.6,90.4
	L337,279.2z"/>
<path class="st5" d="M273.8,235.2c0.9,31.1,55.6,90.4,55.6,90.4l7.5-46.3c0,0-27.4-24.4-31.5-52.7c-1.9-13.6-4-27.9-5.6-39.2
	c-7.2-8.4-14.7-16.6-22.6-24.4C275.7,181.9,273.2,214.2,273.8,235.2z"/>
<path class="st3" d="M396.3,264.5c1.1-2.4,1-5.2,2.1-7.6c1-2.3,2.8-4,4.5-5.8c3.3-3.7,5.5-8.2,8.2-12.3c10.3-15.8,6-23.7,4.7-26
	c-1-1.9-7.2,15.8-9.4,15.7c-5.9-0.2-11.1,4.3-13.5,9.6c-2.5,5.3-2.7,11.4-3,17.2c-0.1,1.9-1.6,10.1,0,11.4
	C392,268.8,395.2,266.8,396.3,264.5z"/>
<path class="st6" d="M398.7,242.3c0,0-10.1,24.4-6.9,36.9s-0.6,17.6-0.6,17.6l-44.4-10.4c0,0,12.6-4.2,14.2-10
	c1.7-6.5-0.1-11.5,0.9-17.5C363.9,246.5,398.7,242.3,398.7,242.3z"/>
<path class="st7" d="M427.2,456.4C427.2,456.3,427.3,456.3,427.2,456.4c0.6-1.7-0.3-3.4-0.6-5.1c-0.7-3.2-1.6-6.4-0.7-9.6
	c0.9-3.1,1.5-6.7-0.2-9.5c-1.1-1.7-0.8-2.9-1.7-4.7c-1.9-3.8-0.9-8.5-2-12.6c-0.8-2.8-1.2-4.9-2.8-7.2c-2.1-14.8-3.6-29.3-3.2-37.9
	c1-23.2,3.2-81.7,3.2-81.7l-27.2-8.8c0,0-2.7,11.8-14,11.6c-25.6-0.5-18.6-11.6-18.6-11.6H347c0,0-35.8-35.8-37.9-50.2l-35.1,11
	c-2.7,16.3,30.5,55.4,40,68.5c3.9,5.3,6.9,12.1,9.1,18.3c0.7,34.8-5.6,127.8-2.7,133.3c35.8,21.6,107.4-1.3,107.4-1.3
	S427.5,457.9,427.2,456.4z"/>
<path class="st4" d="M408.3,235.6c6.1-12.5,8.2-27.6-10.4-35.7c-16.7-7.3-31.6,5.5-40.9,21.7c-9.3,16.1-6.8,31,0.9,40.9
	c7.7,10,30.9-0.3,37.5-7.9c0,0,11.5,0.1,17.2-8.5C421.8,232.2,408.3,235.6,408.3,235.6z"/>
<path class="st8" d="M363.8,359.8l-16.7-10.7c0,0-0.1,14.5,0.5,15.3s9.1,8.2,10.7,8.7s4.4,0.4,4.4,0.4s2.7,0.6,4.4,0.4
	c1.7-0.3,11.3-6.1,12-6.8c0.7-0.6,3.1-15,3.1-15L363.8,359.8z"/>
<path class="st3" d="M376.8,324.5c-2.7,1.3-17.3,0.1-19.8-1.7s-7.6-10.7-7.6-10.7l-3.3,38.8l13.4,6.8l4.2,3l4.6-2.3l14.4-4.4
	l3.3-38.8C386.1,315.2,379.5,323.1,376.8,324.5z"/>
<path class="st3" d="M376.8,324.5c-2.7,1.3-17.3,0.1-19.8-1.7s-7.6-10.7-7.6-10.7l-3.3,38.8l13.4,6.8l4.2,3l4.6-2.3l14.4-4.4
	l3.3-38.8C386.1,315.2,379.5,323.1,376.8,324.5z"/>
<path class="st8" d="M360.4,351.6c0,0-3.2-7.9-8.5-8.3c-2.2,2.1-0.4,4.6-0.4,4.6L360.4,351.6z"/>
<path class="st8" d="M368.6,352.3c0,0,4.5-7.2,9.8-6.7c1.8,2.5-0.4,4.6-0.4,4.6L368.6,352.3z"/>
<path class="st9" d="M376.2,221.3c0,0-16.3,10.5-16.8,16.1s6.5,4.7,6.5,4.7S370.1,230.3,376.2,221.3z"/>
<path class="st4" d="M419.1,288c0,0-0.2,58.9-36.1,73.4s-80.3,9-80.3,9l-21.4,7.4c0,0,67.2,29.1,108,11.8s42.4-28.6,51.1-52.1
	C449.1,313.9,431.1,296.8,419.1,288z"/>
<path class="st7" d="M377.8,357l17.6,33.9c0,0,38.6-10.3,45.5-46.4s-1.4-58.4-21.9-56.4C401.6,289.7,430,331.7,377.8,357z"/>
<path class="st10" d="M379.3,386c0.4,2.4,0.9,4.9,2.4,6.8s4.5,2.9,6.4,1.5c0.9-0.6,1.5-1.7,2.5-2.2c2.4-1.3,5.8,0.9,7.8-0.9
	c1.2-1.1,1.5-3.3,3.1-3.3c0.4,0,0.7,0.2,1.1,0.3c2.1,0.6,4.3-0.8,5.3-2.7c1-1.9,0.9-4.2,0.2-6.3c-0.6-2.1-1.7-3.9-2.7-5.9
	c-1.9-3.9-3.4-8-4.3-12.3c-0.6-3-1-6.2-2.8-8.7s-5.7-3.8-8-1.8c-1.3,1.1-2.1,3.2-3.8,3.3c-1.2,0.1-2.3-0.9-3.5-1.1
	c-2.7-0.5-4.6,3-7.3,3.2c-1.9,0.1-6.2-2.6-6.2,0.9c0,2.3,3.8,6.1,4.8,8.3C377.4,371.6,378.2,379,379.3,386z"/>
<path class="st10" d="M426.6,451.2c0,0-35.8,6.2-61.5,7.5c-24.6,1.2-44.2-9-45.8-9.9c0.2,4.2,0.5,7.9,1.1,11.2
	c12.3,7.4,28.7,9.6,45,9.2c0,0,15.2,0.3,20-0.4c6.5-0.9,41-7,42.3-10.1C429,455.6,426.6,451.2,426.6,451.2z"/>
<path class="st3" d="M398.7,242.3c2.2-4.4,4.1-13.5,2.7-18.2c-1.5-5.2-6.9-8.1-11.8-10.4c-2.3-1.1-4.6-2.2-6.9-3.3
	c-4-1.9-8.2-4-10.2-7.9c-1.2-2.2-1.5-4.8-1.2-7.2c0.3-3.5,2.1-7.2,5.3-8.6c3.3-1.4,7.9,0.7,7.9,4.3c-1.1-3.1,2.4-6.6,5.7-5.9
	c3.2,0.7,5,4.8,3.9,7.9c1-1.5,2.1-3,3.1-4.4c0.5-0.7,1-1.4,1.8-1.6c1.1-0.2,2.1,0.8,2.8,1.7c1.9,2.9,2.9,6.5,2.6,9.9
	c-0.8-1,0.3-2.6,1.6-2.6c1.3,0,2.3,1.1,2.8,2.2c0.5,1.2,0.6,2.5,1,3.7c0.9,2.7,3,4.8,4.5,7.2c3.4,5.3,0.5,16.9-2.5,22.5
	C408.7,237.2,404.6,238.5,398.7,242.3z"/>
<path class="st4" d="M302.7,370.4c0,0-6.9-13.7-12.3-12.6s2.8,10,2.8,10L302.7,370.4z"/>
<path class="st11" d="M89.1,90.4l-32.9,112c87.5,26.7,156.4,96,182.5,183.8l101.6-34.4C299.7,231.7,207,135.6,89.1,90.4z"/>
<path class="st5" d="M290.4,357.8c-5.3,1.1,2.8,10,2.8,10l0,0l6.6-2.2C297.3,361.7,293.6,357.2,290.4,357.8z"/>
<path class="st12" d="M383.1,337.4c-5.2-16.6-11.4-32.8-18.4-48.4c-9.5-3.3-5.4-9.7-5.4-9.7h-12.4c0,0-35.8-35.8-37.9-50.2
	l-27.7,8.8l0,0l-7.2,2.3c-2.7,16.3,30.5,55.4,40,68.5c3.9,5.3,6.9,12.1,9.1,18.3c0.2,7.9,0,18.8-0.4,31l17.7-6l0,0L383.1,337.4z"/>
<path class="st13" d="M383.1,337.4c-1.5-4.7-3-9.4-4.7-14.1c-0.6,0.5-1.2,1-1.6,1.2c-2.7,1.3-17.3,0.1-19.8-1.7
	c-2.4-1.8-7.6-10.7-7.6-10.7l-3.2,37.8L383.1,337.4z"/>
<path class="st14" d="M260.8,321.7c-1,0-1.9-0.5-2.4-1.4c-6-11.1-12.7-22-19.9-32.4c-0.9-1.3-0.6-3,0.7-3.8c1.3-0.9,3-0.6,3.8,0.7
	c7.3,10.5,14.1,21.6,20.2,32.9c0.7,1.3,0.2,3-1.1,3.7C261.7,321.6,261.2,321.7,260.8,321.7z"/>
<path class="st14" d="M302.6,469.5c-1.4,0-2.6-1.1-2.7-2.5c-2.5-23.9-7.3-47.5-14.4-70.2c-0.5-1.5,0.4-3,1.8-3.5
	c1.5-0.5,3,0.4,3.5,1.8c7.2,23.1,12.1,47.1,14.6,71.3c0.2,1.5-0.9,2.9-2.5,3C302.8,469.5,302.7,469.5,302.6,469.5z"/>
<path class="st15" d="M351.9,343.3c-2.2,2.1-0.4,4.6-0.4,4.6l0.2,0.1l5.3-1.8C355.7,344.7,353.9,343.5,351.9,343.3z"/>
<path class="st4" d="M258.7,145.3c0,0,18.4-4.5,28.5,1.1s9.9,20,9.9,20s-18.8,10.5-27.9,0C260,155.9,258.7,145.3,258.7,145.3z"/>
<path class="st4" d="M260.4,369.7c-8.8,3.4,0,10.1,0,10.1s13.7,4.6,27.5,0c12.4-4.1,14.9-9.3,14.9-9.3s-7.1-2.3-13-3.4
	C282.5,365.7,271.7,365.2,260.4,369.7z"/>
<path class="st16" d="M278.2,215.9c-2.8,0.2-5.6,0.6-8.1,1.8c-1,0.5-2,1.2-2.4,2.2c-1.3,3,2.5,6.6,1.1,9.5c-0.5,1-1.6,1.8-1.8,2.9
	c-0.7,2.5,3,4.3,3,6.9c0,1.1-0.7,2.1-0.8,3.2c-0.2,2.4,2.5,4.2,4.9,4s4.5-1.5,6.7-2.5c10.1-4.7,22.9-2.5,31.8-9.3
	c0.5-0.4,1.1-0.9,1.3-1.5c0.7-2.2-3.1-3.9-2.6-6.2c0.3-1.4,2-2,2.3-3.4c0.5-2.3-3.3-3.7-3-6c1.1-8.1-5.9-4-10.7-3.3
	C292.7,215.6,285.4,215.3,278.2,215.9z"/>
<path class="st14" d="M62.7,153.5c62.4,22.1,117.4,60.8,159,112.1c0.5,0.7,1.3,1,2.1,1c0.6,0,1.2-0.2,1.7-0.6c1.2-1,1.4-2.7,0.4-3.9
	c-42.3-52-98.1-91.4-161.5-113.8C43.5,140.9,21.9,135.4,0,132v5.6C21.2,141,42.2,146.3,62.7,153.5z"/>
<path class="st10" d="M1.9,499.1H0v0.9h25.9c0-0.3-0.1-0.6-0.2-0.9H1.9z"/>
<path class="st1" d="M500,426.8c-11.9-60.5-33.8-118.2-65.1-171.4c-0.8-1.3-2.5-1.8-3.8-1s-1.8,2.5-1,3.8
	c31.7,53.8,53.6,112.3,65.2,173.7c0.3,1.3,1.4,2.2,2.7,2.2c0.2,0,0.3,0,0.5,0c0.6-0.1,1-0.4,1.4-0.7v-6.6H500z"/>
<g>
	<path class="st6" d="M114.2,163.7c-8.6-6.2-23.7,10.1-30,18.7c-6.4,8.6-9.9,20.8-9.9,20.8s-15.9,11.5-37.6,50.6
		c-21.8,39.1-14.8,64.4-14.8,64.4l31,10.1c0,0-4.1-43.4-1.3-59.9c2.7-16.4,36-61.9,36-61.9c2.1-2.9,14.2-8.6,21.2-13.6
		c7-5,3.8-9.1-2-5.4c-5.8,3.8-7.5,2-7.5,2C101.1,184.7,122.8,169.9,114.2,163.7z"/>
	<path class="st17" d="M114.2,163.7c-8.6-6.2-23.7,10.1-30,18.7c-6.4,8.6-9.9,20.8-9.9,20.8s-1.5,1.1-4.3,3.9
		c4.5,1.7,9,3.4,13.5,5.3c2.6-3.6,4.2-5.8,4.2-5.8c2.1-2.9,14.2-8.6,21.2-13.6c7-5,3.8-9.1-2-5.4c-5.8,3.8-7.5,2-7.5,2
		C101.1,184.7,122.8,169.9,114.2,163.7z"/>
	<path class="st18" d="M2,427.9c0,0,13.1,16.7,58,13.9s50.6-18.4,50.6-18.4s-19-28-63.6-20.2C2.3,411,2,427.9,2,427.9z"/>
	<path class="st18" d="M155,307.5c0,0,3.2-5.7-1.2-15.6c-4.4-9.9-13.7-17.3-13.7-17.3S142.1,303,155,307.5z"/>
	<path class="st7" d="M0,499.9h99.2l-5.5-90.5l-80.4-7.5c0,0-6.3,8.4-13.3,22.7V499.9z"/>
	<path class="st19" d="M100.6,249l8.2,13c0,0-0.6,6.3-4.1,8.6S100.6,249,100.6,249z"/>
	<path class="st3" d="M155,307.5c-9.2-5.1-15.4-34.1-15.4-34.1s-25.5,19.5-37.3,21.3c-19.9,3.1-60.7,0.1-76.9,9.9
		c-0.3,0.2-0.6,0.4-1,0.7c-0.4,0.3-0.7,0.6-1.1,0.9c-0.3,0.3-0.6,0.6-0.9,0.9c-0.1,0.1-0.1,0.2-0.2,0.2c-0.4,0.4-0.8,0.8-1.1,1.3
		c-0.2,0.2-0.3,0.4-0.5,0.6c-0.1,0.1-0.2,0.2-0.3,0.4c0,0.1-0.1,0.1-0.1,0.2c-0.2,0.2-0.4,0.5-0.5,0.8c0,0,0,0.1-0.1,0.1
		c-0.4,0.6-0.8,1.3-1.2,2c0,0,0,0.1-0.1,0.1c-0.4,0.7-0.8,1.4-1.2,2.2c-0.1,0.3-0.3,0.5-0.4,0.8c-0.1,0.1-0.1,0.3-0.2,0.4
		c-0.1,0.3-0.3,0.5-0.4,0.8c-0.1,0.2-0.1,0.3-0.2,0.5c-0.3,0.7-0.6,1.4-1,2.1c-0.5,1.1-0.9,2.2-1.4,3.3c-0.1,0.2-0.1,0.3-0.2,0.5
		c-0.5,1.3-1,2.6-1.4,3.9c0,0,0,0.1,0,0.1c-0.2,0.5-0.3,0.9-0.5,1.4c0,0.1,0,0.1-0.1,0.2c-0.5,1.5-1,2.9-1.4,4.4
		c-0.1,0.3-0.2,0.6-0.3,0.8c-0.1,0.2-0.1,0.5-0.2,0.7c0,0.2-0.1,0.3-0.1,0.5c-0.9,3-1.7,6-2.4,9c0,0.1-0.1,0.3-0.1,0.4
		c-0.3,1.4-0.7,2.8-1,4.2c0,0.2-0.1,0.4-0.1,0.6c-1.4,6-2.5,11.6-3.3,16.3c0,0.1,0,0.1,0,0.2c-0.5,3.1-1,5.7-1.3,7.6c0,0,0,0,0,0.1
		c-0.1,0.7-0.2,1.3-0.3,1.9c0,0,0,0,0,0c-0.1,0.5-0.1,0.9-0.2,1.2c0,0.1,0,0.2,0,0.2c0,0,0,0,0,0c0,0,0,0,0,0c0,0.1,0,0.2,0,0.2l0,0
		c-0.2,1.3-0.5,2.5-0.7,3.7v44.2c12.7-2.7,32.6-6.7,50.4-9c29-3.7,60.3,7.3,60.3,7.3c-3.5-19.3-12.4-78.5-12.4-78.5
		C101.5,338.9,155,307.5,155,307.5z"/>
	<path class="st4" d="M181.3,159c-4.5,2.8-3.9,16.5-6.4,24.2c-3.4,2.9-3.6-2.7-3.4-4.9c0.3-4.1-3.3-8.2-4.2,0
		c-0.9,8.2-3.1,20.3,1.7,23.8c-2.5,42.4-28.8,72.5-28.8,72.5s-14.9,39.9,8.2,30.1c23.1-9.8,32.9-102.6,32.9-102.6s6-14.9,7-23.8
		C189.2,169.4,187,155.5,181.3,159z"/>
	<path class="st18" d="M99.2,310.4c-0.8-3.7-4.4-6.3-9.7-8.1c-11.5,0.3-25.3-1.1-37.5-1.4c-12.5,1.7-24.6,5.1-32.4,9.9
		c-2.7,4-5,9.3-7.2,15.2c2.2,6.1,7.2,15.9,18.1,16.9c16,1.5,28.2-8.2,39.4-6.4C81.2,338.3,103.6,329.6,99.2,310.4z"/>
	<path class="st6" d="M85.6,235.3c0,0,12,5.7,16.5,16.8c4.4,11.1,4.4,33.9-2.9,40.2C92,298.7,75.2,252.4,85.6,235.3z"/>
	<path class="st20" d="M91.5,248.9c0.2,1,0.6,2.1,1.5,2.5c1,0.5,2.2-0.2,3.1-1c2.1-1.9,3.5-4.4,4.2-7.1c0.5-1.9,0.5-4-0.7-5.6
		c-0.8-1.2-2.2-1.8-3.5-2.4c-2.2-1-4.5-1.9-6.9-2.6c-3.7-1.1-2.9,0.2-1.6,2.8C89.7,239.6,90.4,244.4,91.5,248.9z"/>
	<path class="st20" d="M99.2,286c-9.9-15.4-5.5-34.2-5.5-34.2c5.2-5.1,2.4-16.5,2.4-16.5c-46.2-18.4-53.2,15.8-56.4,28.8
		c-2.4,9.8-26.6,5.5-39.7,13.8v34.1c5.1,2.4,11.2,2.3,14.4,3.3c6.7,2.2,4.4,8.6,13.6,17.7c9.2,9.2,18.4,2.5,26.6,0
		c8.2-2.5,15.2,1.6,29.1-1.9C97.7,327.8,105.5,295.7,99.2,286z"/>
	<path class="st21" d="M97.1,282.2c0.8,5.1-0.9,7.8-2.3,8.9c-4.8,3.7-6.9,9.7-9.6,15.1c-2.7,5.4-7,10.9-13,11.3
		c-7.4,0.5-13.8-6.9-21.1-5.9c-3.3,0.5-6.1,2.6-9,4.1c-3,1.5-6.7,2.5-9.5,0.6c-3.1-2.1-3.4-6.5-3.6-10.2c-0.2-3.7-1.1-8.2-4.6-9.5
		c-2.4-0.9-5.2,0.2-7.7-0.5c-3.6-1.1-5.2-5.7-4.1-9.3c1.1-3.6,4.1-6.3,7.1-8.5c5.6-4.1,11-6.3,16.6-10.1c-7.7,4.4-25.6,2.9-36.2,9.6
		v34.2c5.1,2.4,11.2,2.3,14.4,3.3c6.7,2.2,4.4,8.6,13.6,17.7c9.2,9.2,18.4,2.5,26.6,0c8.2-2.5,15.2,1.6,29.1-1.9
		C96.3,328.2,110,297.8,97.1,282.2z"/>
	<path class="st10" d="M0,420.7v3.3v76h26.2c-1.2-7.6-8.5-17,0.3-51.5c5.3-20.8,30.6-32.9,30.8-32.9L0,420.7z"/>
	<path class="st18" d="M20.9,382.4c3.4-25,16.7-40.2,16.7-40.2l-25.2-15.7c-0.1,0.2-0.2,0.4-0.2,0.7c0,0,0,0.1,0,0.1
		c-0.2,0.5-0.3,0.9-0.5,1.4c0,0.1,0,0.1-0.1,0.2c-0.5,1.5-1,2.9-1.4,4.4c-0.1,0.3-0.2,0.6-0.3,0.8c-0.1,0.2-0.1,0.5-0.2,0.7
		c0,0.2-0.1,0.3-0.1,0.5c-0.9,3-1.7,6-2.4,9c0,0.1-0.1,0.3-0.1,0.4c-0.3,1.4-0.7,2.8-1,4.2c0,0.2-0.1,0.4-0.1,0.6
		c-1.4,6-2.5,11.6-3.3,16.3c0,0.1,0,0.1,0,0.2c-0.5,3.1-1,5.7-1.3,7.6c0,0,0,0,0,0.1c-0.1,0.7-0.2,1.3-0.3,1.9c0,0,0,0,0,0
		c-0.1,0.5-0.1,0.9-0.2,1.2c0,0.1,0,0.2,0,0.2c0,0,0,0,0,0c0,0,0,0,0,0c0,0.1,0,0.2,0,0.2l0,0c-0.2,1.3-0.5,2.5-0.7,3.7v44.2
		c10.9-2.3,26.8-5.9,42.3-8.2C42.3,416.9,17.5,407.5,20.9,382.4z"/>
</g>
<g>
	<path class="st22" d="M111,500c0.9-12.6,19.7-94.7,19.7-94.7s1.4-14.8,5-14.6c3.6,0.2,7.5,14.2,7.5,14.2l9.3,0.3
		c0,0,4.8-15.9,7.5-16.1c1.9-0.1,4.4,7.6,5.9,12.3c0.6,2.4,1.3,5.8,2,9.9c0.1,0,0.2-0.1,0.2-0.1s25.3-8.3,27.5-5.6
		c1.9,2.4-17.9,31.6-23.1,39.1c3.2,26.8,5.8,55.1,5.8,55.1H111V500z"/>
	<g>
		<path class="st23" d="M99.1,500c0,0-4-8-3.7-21.9c0.3-13.3,7.6-24.7,7.6-24.7s-12.7,9.2-17.3,23.3c-4.1,12.7-2.1,23.3-2.1,23.3
			L99.1,500L99.1,500z"/>
		<path class="st23" d="M138.9,483.3c8.2-11.4,2.3-18.9-1.6-26.9c-3.9-8,5.4-10.7,3.5-23.1s-15.6-3.8-15.6-3.8l0,0
			c-4.5,20.3-10.6,48.2-13.1,62.6C116.4,492.5,131.9,493.1,138.9,483.3z"/>
	</g>
	<path class="st1" d="M146.6,426.2c14.1,6.6,34.5-3.6,43.8-9.2c-5.8,9.8-14.8,23.1-18,27.8c1.9,16.3,3.7,33.2,4.7,43.9
		C173.6,483.7,128.6,417.8,146.6,426.2z"/>
	<path class="st18" d="M191.5,415.3c0,0,0.7-4.4-2.8-4.4s-3.8-4.3-3.8-4.3s8.4-4.7,10.5-0.7S191.5,415.3,191.5,415.3z"/>
</g>
</svg>
