<?xml version="1.0" encoding="utf-8"?>
<!-- Generator: Adobe Illustrator 21.1.0, SVG Export Plug-In . SVG Version: 6.00 Build 0)  -->
<!DOCTYPE svg PUBLIC "-//W3C//DTD SVG 1.1//EN" "http://www.w3.org/Graphics/SVG/1.1/DTD/svg11.dtd">
<svg version="1.1" id="Layer_1" xmlns="http://www.w3.org/2000/svg" xmlns:xlink="http://www.w3.org/1999/xlink" x="0px" y="0px"
	 viewBox="0 0 327 210" style="enable-background:new 0 0 327 210;" xml:space="preserve">
<style type="text/css">
	.st0{fill:#C6E6FE;}
	.st1{fill:#5395FC;}
	.st2{fill:#0846FB;}
	.st3{fill:#FFFFFF;}
</style>
<g>
	<path class="st0" d="M81.7,58.7H5.3c-2.8,0-5-2.2-5-5v-48c0-2.8,2.2-5,5-5h76.4c2.8,0,5,2.2,5,5v48C86.7,56.5,84.4,58.7,81.7,58.7z
		"/>
	<path class="st1" d="M41.3,16.6H11.1c-1.7,0-3-1.3-3-3s1.3-3,3-3h30.1c1.7,0,3,1.3,3,3S42.9,16.6,41.3,16.6z"/>
	<path class="st1" d="M41.3,37.3H11.1c-0.8,0-1.5-0.7-1.5-1.5s0.7-1.5,1.5-1.5h30.1c0.8,0,1.5,0.7,1.5,1.5S42.1,37.3,41.3,37.3z"/>
	<path class="st1" d="M30.4,27.3H11.7c-0.8,0-1.5-0.7-1.5-1.5s0.7-1.5,1.5-1.5h18.7c0.8,0,1.5,0.7,1.5,1.5S31.2,27.3,30.4,27.3z"/>
	<path class="st0" d="M81.7,130.8H5.3c-2.8,0-5-2.2-5-5v-48c0-2.8,2.2-5,5-5h76.4c2.8,0,5,2.2,5,5v48
		C86.7,128.6,84.4,130.8,81.7,130.8z"/>
	<path class="st1" d="M33.2,88.8h-22c-1.7,0-3-1.3-3-3s1.3-3,3-3h22c1.7,0,3,1.3,3,3S34.8,88.8,33.2,88.8z"/>
	<path class="st1" d="M67.7,88.8h-22c-1.7,0-3-1.3-3-3s1.3-3,3-3h22c1.7,0,3,1.3,3,3S69.3,88.8,67.7,88.8z"/>
	<path class="st1" d="M30.4,109.5H11.1c-0.8,0-1.5-0.7-1.5-1.5s0.7-1.5,1.5-1.5h19.3c0.8,0,1.5,0.7,1.5,1.5S31.2,109.5,30.4,109.5z"
		/>
	<path class="st1" d="M30.4,99.5H11.7c-0.8,0-1.5-0.7-1.5-1.5s0.7-1.5,1.5-1.5h18.7c0.8,0,1.5,0.7,1.5,1.5S31.2,99.5,30.4,99.5z"/>
	<path class="st1" d="M56.7,99.5H38c-0.8,0-1.5-0.7-1.5-1.5s0.7-1.5,1.5-1.5h18.7c0.8,0,1.5,0.7,1.5,1.5S57.5,99.5,56.7,99.5z"/>
	<path class="st0" d="M81.7,201.4H5.3c-2.8,0-5-2.2-5-5v-48c0-2.8,2.2-5,5-5h76.4c2.8,0,5,2.2,5,5v48
		C86.7,199.2,84.4,201.4,81.7,201.4z"/>
	<path class="st1" d="M54.5,159.3H11.1c-1.7,0-3-1.3-3-3s1.3-3,3-3h43.4c1.7,0,3,1.3,3,3S56.2,159.3,54.5,159.3z"/>
	<path class="st1" d="M41.3,180H11.1c-0.8,0-1.5-0.7-1.5-1.5s0.7-1.5,1.5-1.5h30.1c0.8,0,1.5,0.7,1.5,1.5S42.1,180,41.3,180z"/>
	<path class="st1" d="M77.5,180H47.3c-0.8,0-1.5-0.7-1.5-1.5s0.7-1.5,1.5-1.5h30.1c0.8,0,1.5,0.7,1.5,1.5S78.3,180,77.5,180z"/>
	<path class="st1" d="M30.4,170.1H11.7c-0.8,0-1.5-0.7-1.5-1.5s0.7-1.5,1.5-1.5h18.7c0.8,0,1.5,0.7,1.5,1.5S31.2,170.1,30.4,170.1z"
		/>
	<path class="st0" d="M196.1,58.7h-76.4c-2.8,0-5-2.2-5-5v-48c0-2.8,2.2-5,5-5h76.4c2.8,0,5,2.2,5,5v48
		C201.1,56.5,198.8,58.7,196.1,58.7z"/>
	<path class="st1" d="M147.6,16.6h-22c-1.7,0-3-1.3-3-3s1.3-3,3-3h22c1.7,0,3,1.3,3,3S149.2,16.6,147.6,16.6z"/>
	<path class="st1" d="M182.1,16.6h-22c-1.7,0-3-1.3-3-3s1.3-3,3-3h22c1.7,0,3,1.3,3,3S183.7,16.6,182.1,16.6z"/>
	<path class="st1" d="M144.8,37.3h-19.3c-0.8,0-1.5-0.7-1.5-1.5s0.7-1.5,1.5-1.5h19.3c0.8,0,1.5,0.7,1.5,1.5S145.6,37.3,144.8,37.3z
		"/>
	<path class="st1" d="M144.8,27.3h-18.7c-0.8,0-1.5-0.7-1.5-1.5s0.7-1.5,1.5-1.5h18.7c0.8,0,1.5,0.7,1.5,1.5S145.6,27.3,144.8,27.3z
		"/>
	<path class="st1" d="M171.1,27.3h-18.7c-0.8,0-1.5-0.7-1.5-1.5s0.7-1.5,1.5-1.5h18.7c0.8,0,1.5,0.7,1.5,1.5S171.9,27.3,171.1,27.3z
		"/>
	<path class="st0" d="M196.1,129.3h-76.4c-2.8,0-5-2.3-5-5v-48c0-2.8,2.2-5,5-5h76.4c2.8,0,5,2.2,5,5v48
		C201.1,127,198.8,129.3,196.1,129.3z"/>
	<path class="st1" d="M168.9,87.2h-43.4c-1.7,0-3-1.3-3-3s1.3-3,3-3h43.4c1.7,0,3,1.3,3,3S170.6,87.2,168.9,87.2z"/>
	<path class="st1" d="M155.7,107.9h-30.1c-0.8,0-1.5-0.7-1.5-1.5c0-0.8,0.7-1.5,1.5-1.5h30.1c0.8,0,1.5,0.7,1.5,1.5
		C157.2,107.2,156.5,107.9,155.7,107.9z"/>
	<path class="st1" d="M191.9,107.9h-30.1c-0.8,0-1.5-0.7-1.5-1.5c0-0.8,0.7-1.5,1.5-1.5h30.1c0.8,0,1.5,0.7,1.5,1.5
		C193.4,107.2,192.7,107.9,191.9,107.9z"/>
	<path class="st1" d="M144.8,97.9h-18.7c-0.8,0-1.5-0.7-1.5-1.5s0.7-1.5,1.5-1.5h18.7c0.8,0,1.5,0.7,1.5,1.5S145.6,97.9,144.8,97.9z
		"/>
	<path class="st0" d="M307.8,58.7h-76.4c-2.8,0-5-2.2-5-5v-48c0-2.8,2.2-5,5-5h76.4c2.8,0,5,2.2,5,5v48
		C312.8,56.5,310.6,58.7,307.8,58.7z"/>
	<path class="st1" d="M259.3,16.6h-22c-1.7,0-3-1.3-3-3s1.3-3,3-3h22c1.7,0,3,1.3,3,3S261,16.6,259.3,16.6z"/>
	<path class="st1" d="M293.9,16.6h-22c-1.7,0-3-1.3-3-3s1.3-3,3-3h22c1.7,0,3,1.3,3,3S295.5,16.6,293.9,16.6z"/>
	<path class="st1" d="M256.6,37.3h-19.3c-0.8,0-1.5-0.7-1.5-1.5s0.7-1.5,1.5-1.5h19.3c0.8,0,1.5,0.7,1.5,1.5S257.4,37.3,256.6,37.3z
		"/>
	<path class="st1" d="M256.6,27.3h-18.7c-0.8,0-1.5-0.7-1.5-1.5s0.7-1.5,1.5-1.5h18.7c0.8,0,1.5,0.7,1.5,1.5S257.4,27.3,256.6,27.3z
		"/>
	<path class="st1" d="M282.8,27.3h-18.7c-0.8,0-1.5-0.7-1.5-1.5s0.7-1.5,1.5-1.5h18.7c0.8,0,1.5,0.7,1.5,1.5S283.7,27.3,282.8,27.3z
		"/>
	<path class="st0" d="M307.8,129.3h-76.4c-2.8,0-5-2.3-5-5v-48c0-2.8,2.2-5,5-5h76.4c2.8,0,5,2.2,5,5v48
		C312.8,127,310.6,129.3,307.8,129.3z"/>
	<path class="st1" d="M280.7,87.2h-43.4c-1.7,0-3-1.3-3-3s1.3-3,3-3h43.4c1.7,0,3,1.3,3,3S282.3,87.2,280.7,87.2z"/>
	<path class="st1" d="M256.6,107.9h-19.3c-0.8,0-1.5-0.7-1.5-1.5c0-0.8,0.7-1.5,1.5-1.5h19.3c0.8,0,1.5,0.7,1.5,1.5
		C258.1,107.2,257.4,107.9,256.6,107.9z"/>
	<path class="st1" d="M277.1,97.9h-19.3c-0.8,0-1.5-0.7-1.5-1.5s0.7-1.5,1.5-1.5h19.3c0.8,0,1.5,0.7,1.5,1.5S277.9,97.9,277.1,97.9z
		"/>
	<path class="st1" d="M295.7,107.9h-30.1c-0.8,0-1.5-0.7-1.5-1.5c0-0.8,0.7-1.5,1.5-1.5h30.1c0.8,0,1.5,0.7,1.5,1.5
		C297.2,107.2,296.6,107.9,295.7,107.9z"/>
	<path class="st1" d="M250.2,97.9h-12.3c-0.8,0-1.5-0.7-1.5-1.5s0.7-1.5,1.5-1.5h12.3c0.8,0,1.5,0.7,1.5,1.5S251,97.9,250.2,97.9z"
		/>
	<path class="st0" d="M307.8,199.9h-76.4c-2.8,0-5-2.2-5-5v-48c0-2.8,2.2-5,5-5h76.4c2.8,0,5,2.2,5,5v48
		C312.8,197.6,310.6,199.9,307.8,199.9z"/>
	<path class="st1" d="M280.7,157.8h-43.4c-1.7,0-3-1.3-3-3s1.3-3,3-3h43.4c1.7,0,3,1.3,3,3S282.3,157.8,280.7,157.8z"/>
	<path class="st1" d="M254.1,178.5h-16.8c-0.8,0-1.5-0.7-1.5-1.5s0.7-1.5,1.5-1.5h16.8c0.8,0,1.5,0.7,1.5,1.5S255,178.5,254.1,178.5
		z"/>
	<path class="st1" d="M291.1,178.5h-30.1c-0.8,0-1.5-0.7-1.5-1.5s0.7-1.5,1.5-1.5h30.1c0.8,0,1.5,0.7,1.5,1.5
		S291.9,178.5,291.1,178.5z"/>
	<path class="st1" d="M256.6,168.5h-18.7c-0.8,0-1.5-0.7-1.5-1.5s0.7-1.5,1.5-1.5h18.7c0.8,0,1.5,0.7,1.5,1.5
		S257.4,168.5,256.6,168.5z"/>
	<circle class="st2" cx="307.8" cy="47.3" r="17.6"/>
	<path class="st3" d="M306.1,56.1c-0.5,0-0.9-0.2-1.3-0.5l-7.9-6.8c-0.8-0.7-0.9-2-0.2-2.8c0.7-0.8,2-0.9,2.8-0.2l6.3,5.4l9.4-12.4
		c0.7-0.9,1.9-1,2.8-0.4c0.9,0.7,1,1.9,0.4,2.8l-10.7,14.1c-0.3,0.4-0.8,0.7-1.4,0.8C306.2,56.1,306.2,56.1,306.1,56.1z"/>
	<circle class="st2" cx="309.1" cy="120.9" r="17.6"/>
	<path class="st3" d="M307.4,129.8c-0.5,0-0.9-0.2-1.3-0.5l-7.9-6.8c-0.8-0.7-0.9-2-0.2-2.8s2-0.9,2.8-0.2l6.3,5.4l9.4-12.4
		c0.7-0.9,1.9-1.1,2.8-0.4c0.9,0.7,1,1.9,0.4,2.8L309,129c-0.3,0.4-0.8,0.7-1.4,0.8C307.6,129.7,307.5,129.8,307.4,129.8z"/>
	<circle class="st2" cx="309.1" cy="192.4" r="17.6"/>
	<path class="st3" d="M307.4,201.2c-0.5,0-0.9-0.2-1.3-0.5l-7.9-6.8c-0.8-0.7-0.9-2-0.2-2.8c0.7-0.8,2-0.9,2.8-0.2l6.3,5.4l9.4-12.4
		c0.7-0.9,1.9-1.1,2.8-0.4c0.9,0.7,1,1.9,0.4,2.8L309,200.4c-0.3,0.4-0.8,0.7-1.4,0.8C307.6,201.2,307.5,201.2,307.4,201.2z"/>
</g>
</svg>
