<?xml version="1.0" encoding="utf-8"?>
<!-- Generator: Adobe Illustrator 21.1.0, SVG Export Plug-In . SVG Version: 6.00 Build 0)  -->
<!DOCTYPE svg PUBLIC "-//W3C//DTD SVG 1.1//EN" "http://www.w3.org/Graphics/SVG/1.1/DTD/svg11.dtd">
<svg version="1.1" id="Layer_1" xmlns="http://www.w3.org/2000/svg" xmlns:xlink="http://www.w3.org/1999/xlink" x="0px" y="0px"
	 viewBox="0 0 281 206" style="enable-background:new 0 0 281 206;" xml:space="preserve">
<style type="text/css">
	.st0{fill:#087BFB;}
	.st1{fill:#63ACFF;}
	.st2{fill:#A0D6FE;}
	
		.st3{fill:none;stroke:#63ACFF;stroke-width:3;stroke-linecap:round;stroke-linejoin:round;stroke-miterlimit:10;stroke-dasharray:6,10;}
	.st4{fill:#5395FC;}
</style>
<g>
	<g>
		<path class="st0" d="M34.8,205H5.1c-2.8,0-5-2.2-5-5v-29.7c0-2.8,2.2-5,5-5h29.7c2.8,0,5,2.2,5,5V200
			C39.8,202.8,37.5,205,34.8,205z"/>
		<path class="st1" d="M34.8,161H5.1c-2.8,0-5-2.2-5-5v-29.7c0-2.8,2.2-5,5-5h29.7c2.8,0,5,2.2,5,5V156
			C39.8,158.7,37.5,161,34.8,161z"/>
		<path class="st1" d="M114.2,205H84.5c-2.8,0-5-2.2-5-5v-29.7c0-2.8,2.2-5,5-5h29.7c2.8,0,5,2.2,5,5V200
			C119.2,202.8,116.9,205,114.2,205z"/>
		<path class="st1" d="M114.2,161H84.5c-2.8,0-5-2.2-5-5v-29.7c0-2.8,2.2-5,5-5h29.7c2.8,0,5,2.2,5,5V156
			C119.2,158.7,116.9,161,114.2,161z"/>
	</g>
	<path class="st2" d="M119.2,58.3c0-1.7-1.4-3.2-3.2-3.2h-10.7H82.7h-6.4H43h-6.4H19.9H3.3c-1.7,0-3.2,1.4-3.2,3.2v19.6
		c0,0.4,0.1,0.9,0.3,1.3c-0.2,0.4-0.3,0.8-0.3,1.3v33.3c0,1.7,1.4,3.2,3.2,3.2h33.3c1.7,0,3.2-1.4,3.2-3.2V109
		c0.4-9.1,3.1-27.9,19.4-27.9c18.1,0,20.1,23.2,20.3,30.5v2.2c0,1.7,1.4,3.2,3.2,3.2H116c1.7,0,3.2-1.4,3.2-3.2V80.5
		c0-0.4-0.1-0.9-0.3-1.3c0.2-0.4,0.3-0.8,0.3-1.3V58.3z"/>
	<polygon class="st0" points="59.6,-0.2 117.9,47.2 1.4,47.2 	"/>
	<g>
		<path class="st3" d="M192.1,41.2"/>
		<path class="st1" d="M150.2,206c-0.3,0-0.5-0.1-0.7-0.3c-0.2-0.2-0.3-0.4-0.3-0.7v-5.4c0-0.6,0.4-1,1-1s1,0.4,1,1v4.5
			c0.3,0.2,0.6,0.5,0.6,0.9c0,0.6-0.4,1-1,1L150.2,206C150.2,206,150.2,206,150.2,206z M160.7,206c-0.6,0-1-0.4-1-1c0-0.6,0.4-1,1-1
			l6,0c0,0,0,0,0,0c0.6,0,1,0.4,1,1c0,0.6-0.4,1-1,1L160.7,206C160.7,206,160.7,206,160.7,206z M176.7,205.9c-0.6,0-1-0.4-1-1
			c0-0.6,0.4-1,1-1l6,0c0,0,0,0,0,0c0.6,0,1,0.4,1,1c0,0.6-0.4,1-1,1L176.7,205.9C176.7,205.9,176.7,205.9,176.7,205.9z
			 M192.7,205.9c-0.6,0-1-0.4-1-1c0-0.6,0.4-1,1-1l6,0c0,0,0,0,0,0c0.6,0,1,0.4,1,1c0,0.6-0.4,1-1,1L192.7,205.9
			C192.7,205.9,192.7,205.9,192.7,205.9z M208.7,205.8c-0.6,0-1-0.4-1-1c0-0.6,0.4-1,1-1l6,0c0,0,0,0,0,0c0.6,0,1,0.4,1,1
			c0,0.6-0.4,1-1,1L208.7,205.8C208.7,205.8,208.7,205.8,208.7,205.8z M224.7,205.8c-0.6,0-1-0.4-1-1c0-0.6,0.4-1,1-1l6,0
			c0,0,0,0,0,0c0.6,0,1,0.4,1,1c0,0.6-0.4,1-1,1L224.7,205.8C224.7,205.8,224.7,205.8,224.7,205.8z M237.3,202.4c-0.6,0-1-0.4-1-1
			v-6c0-0.6,0.4-1,1-1s1,0.4,1,1v6C238.3,201.9,237.9,202.4,237.3,202.4z M150.2,190.6c-0.6,0-1-0.4-1-1v-6c0-0.6,0.4-1,1-1
			s1,0.4,1,1v6C151.2,190.1,150.7,190.6,150.2,190.6z M237.3,186.4c-0.6,0-1-0.4-1-1v-6c0-0.6,0.4-1,1-1s1,0.4,1,1v6
			C238.3,185.9,237.9,186.4,237.3,186.4z M150.2,174.6c-0.6,0-1-0.4-1-1v-6c0-0.6,0.4-1,1-1s1,0.4,1,1v6
			C151.2,174.1,150.7,174.6,150.2,174.6z M237.3,170.4c-0.6,0-1-0.4-1-1v-6c0-0.6,0.4-1,1-1s1,0.4,1,1v6
			C238.3,169.9,237.9,170.4,237.3,170.4z M150.2,158.6c-0.6,0-1-0.4-1-1v-6c0-0.6,0.4-1,1-1s1,0.4,1,1v6
			C151.2,158.1,150.7,158.6,150.2,158.6z M237.3,154.4c-0.6,0-1-0.4-1-1v-6c0-0.6,0.4-1,1-1s1,0.4,1,1v6
			C238.3,153.9,237.9,154.4,237.3,154.4z M150.2,142.6c-0.6,0-1-0.4-1-1v-6c0-0.6,0.4-1,1-1s1,0.4,1,1v6
			C151.2,142.1,150.7,142.6,150.2,142.6z M237.3,138.4c-0.6,0-1-0.4-1-1v-6c0-0.6,0.4-1,1-1s1,0.4,1,1v6
			C238.3,137.9,237.9,138.4,237.3,138.4z M150.2,126.6c-0.6,0-1-0.4-1-1v-6c0-0.4,0.2-0.7,0.5-0.9c0-0.1,0.1-0.1,0.2-0.2l4.4-4.1
			c0.4-0.4,1-0.4,1.4,0.1c0.4,0.4,0.4,1-0.1,1.4l-4.4,4.1c0,0,0,0-0.1,0.1v5.6C151.2,126.1,150.7,126.6,150.2,126.6z M237.3,122.4
			c-0.6,0-1-0.4-1-1V120l-2.8-2.4c-0.4-0.4-0.5-1-0.1-1.4c0.4-0.4,1-0.5,1.4-0.1l3.2,2.7c0.2,0.2,0.3,0.5,0.3,0.8v1.8
			C238.3,121.9,237.9,122.4,237.3,122.4z M226.6,111.3c-0.2,0-0.5-0.1-0.7-0.2l-4.6-3.9c-0.4-0.4-0.5-1-0.1-1.4
			c0.4-0.4,1-0.5,1.4-0.1l4.6,3.9c0.4,0.4,0.5,1,0.1,1.4C227.1,111.2,226.8,111.3,226.6,111.3z M162.3,109.3c-0.3,0-0.5-0.1-0.7-0.3
			c-0.4-0.4-0.4-1,0.1-1.4l4.4-4.1c0.4-0.4,1-0.4,1.4,0.1c0.4,0.4,0.4,1-0.1,1.4l-4.4,4.1C162.8,109.2,162.6,109.3,162.3,109.3z
			 M214.4,100.9c-0.2,0-0.5-0.1-0.7-0.2l-4.6-3.9c-0.4-0.4-0.5-1-0.1-1.4c0.4-0.4,1-0.5,1.4-0.1l4.6,3.9c0.4,0.4,0.5,1,0.1,1.4
			C215,100.8,214.7,100.9,214.4,100.9z M174,98.5c-0.3,0-0.5-0.1-0.7-0.3c-0.4-0.4-0.4-1,0.1-1.4l4.4-4.1c0.4-0.4,1-0.4,1.4,0.1
			c0.4,0.4,0.4,1-0.1,1.4l-4.4,4.1C174.5,98.4,174.3,98.5,174,98.5z M202.3,90.5c-0.2,0-0.5-0.1-0.7-0.2l-4.6-3.9
			c-0.4-0.4-0.5-1-0.1-1.4c0.4-0.4,1-0.5,1.4-0.1l4.6,3.9c0.4,0.4,0.5,1,0.1,1.4C202.8,90.4,202.5,90.5,202.3,90.5z M185.8,87.6
			c-0.3,0-0.5-0.1-0.7-0.3c-0.4-0.4-0.4-1,0.1-1.4l4.4-4.1c0.4-0.4,1-0.4,1.4,0.1s0.4,1-0.1,1.4l-4.4,4.1
			C186.3,87.5,186,87.6,185.8,87.6z"/>
		<path class="st1" d="M192.1,81.8c-0.6,0-1-0.4-1-1v-6c0-0.6,0.4-1,1-1s1,0.4,1,1v6C193.1,81.3,192.6,81.8,192.1,81.8z M192.1,65.8
			c-0.6,0-1-0.4-1-1v-6c0-0.6,0.4-1,1-1s1,0.4,1,1v6C193.1,65.3,192.6,65.8,192.1,65.8z M223.6,55.9h-6c-0.6,0-1-0.4-1-1s0.4-1,1-1
			h6c0.6,0,1,0.4,1,1S224.1,55.9,223.6,55.9z M207.6,55.9h-6c-0.6,0-1-0.4-1-1s0.4-1,1-1h6c0.6,0,1,0.4,1,1S208.1,55.9,207.6,55.9z
			 M228.7,51c-0.6,0-1-0.4-1-1v-6c0-0.6,0.4-1,1-1s1,0.4,1,1v6C229.7,50.5,229.2,51,228.7,51z M192.1,49.8c-0.6,0-1-0.4-1-1v-6
			c0-0.6,0.4-1,1-1s1,0.4,1,1v6C193.1,49.3,192.6,49.8,192.1,49.8z M228.7,35c-0.6,0-1-0.4-1-1v-0.3H224c-0.6,0-1-0.4-1-1s0.4-1,1-1
			h4.7c0.6,0,1,0.4,1,1V34C229.7,34.5,229.2,35,228.7,35z M192.1,33.7c-0.6,0-1-0.4-1-1v-0.1c0-0.6,0.4-1,1-1h5.9c0.6,0,1,0.4,1,1
			s-0.4,1-1,1h-5.6C192.3,33.7,192.2,33.7,192.1,33.7z M214,33.7h-6c-0.6,0-1-0.4-1-1s0.4-1,1-1h6c0.6,0,1,0.4,1,1
			S214.5,33.7,214,33.7z"/>
	</g>
	<g>
		<path class="st0" d="M228.5,190.5h-29.7c-2.8,0-5-2.2-5-5v-29.7c0-2.8,2.2-5,5-5h29.7c2.8,0,5,2.2,5,5v29.7
			C233.5,188.2,231.2,190.5,228.5,190.5z"/>
		<path class="st1" d="M228.5,146.5h-29.7c-2.8,0-5-2.2-5-5v-29.7c0-2.8,2.2-5,5-5h29.7c2.8,0,5,2.2,5,5v29.7
			C233.5,144.2,231.2,146.5,228.5,146.5z"/>
		<path class="st1" d="M275.9,190.5h-29.7c-2.8,0-5-2.2-5-5v-29.7c0-2.8,2.2-5,5-5h29.7c2.8,0,5,2.2,5,5v29.7
			C280.9,188.2,278.7,190.5,275.9,190.5z"/>
		<path class="st0" d="M275.9,146.5h-29.7c-2.8,0-5-2.2-5-5v-29.7c0-2.8,2.2-5,5-5h29.7c2.8,0,5,2.2,5,5v29.7
			C280.9,144.2,278.7,146.5,275.9,146.5z"/>
		<path class="st1" d="M235.7,50.5c0,0,6.4-4.7,15.1-4.7s12.1,4.7,22.8,4.7V26.4c0,0-8.2,2.6-13.4,0c-5.6-2.8-17.5-4.8-24.5,0.5
			V50.5z"/>
		<polygon class="st0" points="235.7,64.7 277.6,97.9 193.8,97.9 		"/>
		<path class="st4" d="M235.7,66.2c-0.8,0-1.5-0.7-1.5-1.5V26.9c0-0.8,0.7-1.5,1.5-1.5s1.5,0.7,1.5,1.5v37.8
			C237.2,65.5,236.5,66.2,235.7,66.2z"/>
	</g>
</g>
</svg>
