<?xml version="1.0" encoding="utf-8"?>
<!-- Generator: Adobe Illustrator 21.1.0, SVG Export Plug-In . SVG Version: 6.00 Build 0)  -->
<!DOCTYPE svg PUBLIC "-//W3C//DTD SVG 1.1//EN" "http://www.w3.org/Graphics/SVG/1.1/DTD/svg11.dtd">
<svg version="1.1" id="Layer_1" xmlns="http://www.w3.org/2000/svg" xmlns:xlink="http://www.w3.org/1999/xlink" x="0px" y="0px"
	 viewBox="0 0 348 248" style="enable-background:new 0 0 348 248;" xml:space="preserve">
<style type="text/css">
	.st0{fill:#C6E6FE;}
	.st1{fill:#A0D6FE;}
	.st2{fill:#63ACFF;}
	.st3{fill:#459CFF;}
	.st4{fill:#087BFB;}
	.st5{fill:#006EE8;}
	.st6{fill:#288CFB;}
	.st7{fill:#3B96FF;}
	.st8{fill:#0874F0;}
	.st9{fill:#87CBFE;}
	.st10{fill:#0772E8;}
</style>
<g>
	<g>
		<path class="st0" d="M105.2,18.6L33.4,55.9l23.6,72c0,0,0.6,2,12.7,38.6s102.9,57.6,102.9,57.6s60.9-70.7,48.9-107.4
			s-12.7-38.6-12.7-38.6l-23.6-72L105.2,18.6z"/>
		<path class="st1" d="M105.3,18.6l-0.1,0L33.4,55.9l23.6,72c0,0,0.6,2,12.7,38.6s102.9,57.6,102.9,57.6s0,0,0.1-0.1L105.3,18.6z"/>
		<path class="st2" d="M109.5,31.7L46.9,64.3L67.4,127c0,0,0.6,1.7,11,33.7s89.8,50.2,89.8,50.2s53.1-61.6,42.6-93.6
			s-11-33.7-11-33.7l-20.6-62.8L109.5,31.7z"/>
		<path class="st3" d="M109.6,31.7l-0.1,0L46.9,64.3L67.4,127c0,0,0.6,1.7,11,33.7c10.5,32,89.8,50.2,89.8,50.2s0,0,0.1-0.1
			L109.6,31.7z"/>
		<polygon class="st4" points="114.8,109.3 152.6,163.3 77.9,121.4 		"/>
		<polygon class="st5" points="151.2,97.4 152.6,163.3 188.1,85.3 		"/>
		<polygon class="st4" points="114.8,109.3 152.6,163.3 151.2,97.4 		"/>
		<polygon class="st6" points="87.1,87 114.7,109.3 78.1,121.4 		"/>
		<polygon class="st7" points="123.8,75 151.4,97.3 114.7,109.3 		"/>
		<polygon class="st4" points="160.5,63 188.1,85.3 151.4,97.3 		"/>
		<polygon class="st8" points="114.7,109.3 123.8,75 87.1,87 		"/>
		<polygon class="st5" points="151.4,97.3 160.5,63 123.8,75 		"/>
		<polygon class="st8" points="133,103.2 152.3,162.4 114.7,109.2 		"/>
		<polygon class="st6" points="123.8,75 133.1,103.3 114.7,109.3 		"/>
	</g>
	<g>
		<polygon class="st0" points="325.6,67.1 321.4,24.7 321.1,24.6 288.9,52.5 245.5,190.7 254.6,199.8 256.4,195.1 262,197.3 		"/>
		<polygon class="st1" points="252.4,197.6 260.3,192.1 311.5,69.6 311.1,50 295.7,68.8 251.1,188.4 		"/>
		<polygon class="st1" points="321.1,24.6 288.9,52.5 245.5,190.7 252.4,197.7 321.4,24.7 321.4,24.7 		"/>
		<polygon class="st9" points="311.1,50.4 311.1,50 295.7,68.8 251.1,188.4 252.4,197.6 252.5,197.5 		"/>
		<path class="st2" d="M282.8,202.9c-4.1-1.6-8.6-0.8-11.8,1.9l-9.2-3.7l7.7-19.1l-15.6,12l-3.1-19.4l-7.5,19.1l-9.6-3.8
			c-0.5-4.1-3.1-7.9-7.2-9.5c-5.9-2.4-12.7,0.5-15.1,6.5c-2.4,5.9,0.5,12.7,6.5,15.1c3.8,1.5,7.9,0.9,11-1.3l10.1,4l-5.3,13.5
			c-4.2,1.3-7.8,4.5-9.6,8.9c-3.1,7.9,0.7,16.8,8.6,19.9c7.9,3.1,16.8-0.7,19.9-8.6c1.7-4.3,1.3-8.9-0.7-12.7l5.5-13.6l9.7,3.9
			c0.7,3.7,3.3,7,7.1,8.6c5.9,2.4,12.7-0.5,15.1-6.5C291.7,212,288.8,205.2,282.8,202.9z"/>
		<path class="st3" d="M253.9,194l-3-19.3l-7.5,19.1l-9.6-3.8c-0.5-4.1-3.1-7.9-7.2-9.5c-5.9-2.4-12.7,0.5-15.1,6.5
			c-2.4,5.9,0.5,12.7,6.5,15.1c3.8,1.5,7.9,0.9,11-1.3l10.1,4l-5.3,13.5c-4.2,1.3-7.8,4.5-9.6,8.9c-3.1,7.9,0.7,16.8,8.6,19.9
			c0,0,0,0,0.1,0L253.9,194z"/>
		<ellipse transform="matrix(0.3703 -0.9289 0.9289 0.3703 -37.8383 327.1474)" class="st10" cx="222.4" cy="191.5" rx="6" ry="6"/>
		<ellipse transform="matrix(0.3703 -0.9289 0.9289 0.3703 -23.2717 393.417)" class="st4" cx="278.5" cy="213.9" rx="6" ry="6"/>
		<ellipse transform="matrix(0.3703 -0.9289 0.9289 0.3703 -66.046 367.8745)" class="st4" cx="238.3" cy="232.7" rx="6" ry="6"/>
		<path class="st10" d="M232.7,230.4c-1.2,3.1,0.3,6.6,3.4,7.9l4.5-11.2C237.5,225.8,233.9,227.3,232.7,230.4z"/>
	</g>
	<polygon class="st0" points="236.4,0.6 239.1,6 245.1,6.9 240.8,11.1 241.8,17.1 236.4,14.3 231.1,17.1 232.1,11.1 227.7,6.9 
		233.7,6 	"/>
	<polygon class="st0" points="46.9,146.8 49.5,152.2 55.5,153.1 51.2,157.3 52.2,163.3 46.9,160.5 41.5,163.3 42.5,157.3 
		38.2,153.1 44.2,152.2 	"/>
	<polygon class="st0" points="339,113.1 341.6,118.5 347.6,119.4 343.3,123.6 344.3,129.6 339,126.8 333.6,129.6 334.6,123.6 
		330.3,119.4 336.3,118.5 	"/>
	<polygon class="st1" points="240.6,66.7 243.2,72.2 249.2,73 244.9,77.3 245.9,83.2 240.6,80.4 235.2,83.2 236.2,77.3 231.9,73 
		237.9,72.2 	"/>
	<polygon class="st1" points="9,116 11.7,121.5 17.7,122.3 13.4,126.6 14.4,132.5 9,129.7 3.7,132.5 4.7,126.6 0.4,122.3 6.4,121.5 
			"/>
</g>
</svg>
