<?xml version="1.0" encoding="utf-8"?>
<!-- Generator: Adobe Illustrator 21.1.0, SVG Export Plug-In . SVG Version: 6.00 Build 0)  -->
<!DOCTYPE svg PUBLIC "-//W3C//DTD SVG 1.1//EN" "http://www.w3.org/Graphics/SVG/1.1/DTD/svg11.dtd">
<svg version="1.1" id="Layer_1" xmlns="http://www.w3.org/2000/svg" xmlns:xlink="http://www.w3.org/1999/xlink" x="0px" y="0px"
	 viewBox="0 0 223 219" style="enable-background:new 0 0 223 219;" xml:space="preserve">
<style type="text/css">
	.st0{fill:#8DBEF3;}
	.st1{fill:#0846FB;}
	.st2{fill:#2E80D9;}
	.st3{fill:#24B2FF;}
	.st4{fill:#E0F1FE;}
	.st5{fill:#FFFFFF;}
	.st6{fill:#087BFB;}
	.st7{fill:#6AD6FC;}
</style>
<g>
	<path class="st0" d="M220.4,80L148.6,3.1c-2.1-2.3-5.3-3.2-8.3-2.5L37.8,24.2c-3,0.7-5.5,3-6.4,5.9L0.7,130.8c-0.9,3-0.2,6.2,2,8.5
		l71.8,76.9c1.1,1.1,2.4,2,3.8,2.4s3,0.5,4.5,0.2l102.5-23.7c3-0.7,5.5-3,6.4-5.9l30.8-100.6C223.3,85.6,222.5,82.3,220.4,80z"/>
	<path class="st1" d="M207.1,83.7l-63-67.5c-1.9-2-4.7-2.9-7.3-2.2l-90,20.8c-2.7,0.6-4.8,2.6-5.6,5.2l-27,88.3
		c-0.8,2.6-0.1,5.5,1.7,7.5l63,67.5c0.9,1,2.1,1.7,3.4,2.1c1.3,0.4,2.6,0.4,4,0.1l90-20.8c2.7-0.6,4.8-2.6,5.6-5.2l27-88.3
		C209.6,88.5,208.9,85.7,207.1,83.7z"/>
	<path class="st2" d="M79.9,212.6c-0.1,0-0.2,0-0.3-0.1c-1.4-0.5-2.6-1.3-3.6-2.4l-2.8-3c-0.4-0.4-0.4-1,0-1.4c0.4-0.4,1-0.4,1.4,0
		l2.8,3c0.8,0.8,1.7,1.5,2.8,1.9c0.5,0.2,0.8,0.8,0.6,1.3C80.7,212.4,80.3,212.6,79.9,212.6z M90.6,211.5c-0.5,0-0.9-0.3-1-0.8
		c-0.1-0.5,0.2-1.1,0.7-1.2l7.8-1.8c0.5-0.1,1.1,0.2,1.2,0.8c0.1,0.5-0.2,1.1-0.7,1.2l-7.8,1.8C90.8,211.5,90.7,211.5,90.6,211.5z
		 M109.1,207.2c-0.5,0-0.9-0.3-1-0.8c-0.1-0.5,0.2-1.1,0.7-1.2l7.8-1.8c0.5-0.1,1.1,0.2,1.2,0.8c0.1,0.5-0.2,1.1-0.8,1.2l-7.8,1.8
		C109.2,207.2,109.1,207.2,109.1,207.2z M127.5,203c-0.5,0-0.9-0.3-1-0.8c-0.1-0.5,0.2-1.1,0.8-1.2l7.8-1.8c0.5-0.1,1.1,0.2,1.2,0.8
		c0.1,0.5-0.2,1.1-0.8,1.2l-7.8,1.8C127.6,203,127.6,203,127.5,203z M66.5,199.5c-0.3,0-0.5-0.1-0.7-0.3l-5.4-5.8
		c-0.4-0.4-0.4-1,0-1.4s1-0.4,1.4,0l5.4,5.8c0.4,0.4,0.4,1,0,1.4C67,199.5,66.7,199.5,66.5,199.5z M145.9,198.7
		c-0.5,0-0.9-0.3-1-0.8c-0.1-0.5,0.2-1.1,0.8-1.2l7.8-1.8c0.5-0.1,1.1,0.2,1.2,0.8c0.1,0.5-0.2,1.1-0.8,1.2l-7.8,1.8
		C146.1,198.7,146,198.7,145.9,198.7z M164.3,194.5c-0.5,0-0.9-0.3-1-0.8c-0.1-0.5,0.2-1.1,0.8-1.2l7.8-1.8c0.5-0.1,1.1,0.2,1.2,0.8
		c0.1,0.5-0.2,1.1-0.8,1.2l-7.8,1.8C164.5,194.5,164.4,194.5,164.3,194.5z M182.7,189.9c-0.4,0-0.7-0.2-0.9-0.5
		c-0.3-0.5-0.1-1.1,0.4-1.4c1.7-0.9,2.9-2.4,3.4-4.2l0.5-1.6c0.2-0.5,0.7-0.8,1.2-0.7c0.5,0.2,0.8,0.7,0.7,1.2l-0.5,1.6
		c-0.7,2.3-2.3,4.2-4.4,5.4C183,189.9,182.8,189.9,182.7,189.9z M53.6,185.7c-0.3,0-0.5-0.1-0.7-0.3l-5.4-5.8c-0.4-0.4-0.4-1,0-1.4
		c0.4-0.4,1-0.4,1.4,0l5.4,5.8c0.4,0.4,0.4,1,0,1.4C54.1,185.6,53.8,185.7,53.6,185.7z M190.2,173.1c-0.1,0-0.2,0-0.3,0
		c-0.5-0.2-0.8-0.7-0.7-1.2l2.3-7.6c0.2-0.5,0.7-0.8,1.2-0.7c0.5,0.2,0.8,0.7,0.7,1.2l-2.3,7.6C191.1,172.9,190.7,173.1,190.2,173.1
		z M40.7,171.9c-0.3,0-0.5-0.1-0.7-0.3l-5.4-5.8c-0.4-0.4-0.4-1,0-1.4c0.4-0.4,1-0.4,1.4,0l5.4,5.8c0.4,0.4,0.4,1,0,1.4
		C41.2,171.8,40.9,171.9,40.7,171.9z M27.8,158.1c-0.3,0-0.5-0.1-0.7-0.3l-5.4-5.8c-0.4-0.4-0.4-1,0-1.4c0.4-0.4,1-0.4,1.4,0
		l5.4,5.8c0.4,0.4,0.4,1,0,1.4C28.3,158,28,158.1,27.8,158.1z M195.8,155.1c-0.1,0-0.2,0-0.3,0c-0.5-0.2-0.8-0.7-0.7-1.2l2.3-7.6
		c0.2-0.5,0.7-0.8,1.2-0.7c0.5,0.2,0.8,0.7,0.7,1.2l-2.3,7.6C196.6,154.8,196.2,155.1,195.8,155.1z M14.9,144.2
		c-0.3,0-0.5-0.1-0.7-0.3l-5.4-5.8l1.5-1.4l0,0l5.4,5.8c0.4,0.4,0.4,1,0,1.4C15.4,144.1,15.1,144.2,14.9,144.2z M201.3,137
		c-0.1,0-0.2,0-0.3,0c-0.5-0.2-0.8-0.7-0.7-1.2l2.3-7.6c0.2-0.5,0.7-0.8,1.2-0.7c0.5,0.2,0.8,0.7,0.7,1.2l-2.3,7.6
		C202.1,136.7,201.7,137,201.3,137z M8.3,128.2c-0.1,0-0.2,0-0.3,0c-0.5-0.2-0.8-0.7-0.7-1.2l2.3-7.6c0.2-0.5,0.7-0.8,1.2-0.7
		c0.5,0.2,0.8,0.7,0.7,1.2l-2.3,7.6C9.2,127.9,8.8,128.2,8.3,128.2z M206.8,118.9c-0.1,0-0.2,0-0.3,0c-0.5-0.2-0.8-0.7-0.7-1.2
		l2.3-7.6c0.2-0.5,0.7-0.8,1.2-0.7c0.5,0.2,0.8,0.7,0.7,1.2l-2.3,7.6C207.6,118.6,207.2,118.9,206.8,118.9z M13.9,110.1
		c-0.1,0-0.2,0-0.3,0c-0.5-0.2-0.8-0.7-0.7-1.2l2.3-7.6c0.2-0.5,0.7-0.8,1.2-0.7c0.5,0.2,0.8,0.7,0.7,1.2l-2.3,7.6
		C14.7,109.8,14.3,110.1,13.9,110.1z M212.3,100.8c-0.1,0-0.2,0-0.3,0c-0.5-0.2-0.8-0.7-0.7-1.2l2.3-7.6c0.2-0.5,0.7-0.8,1.2-0.7
		c0.5,0.2,0.8,0.7,0.7,1.2l-2.3,7.6C213.2,100.5,212.8,100.8,212.3,100.8z M19.4,92c-0.1,0-0.2,0-0.3,0c-0.5-0.2-0.8-0.7-0.7-1.2
		l2.3-7.6c0.2-0.5,0.7-0.8,1.2-0.7c0.5,0.2,0.8,0.7,0.7,1.2l-2.3,7.6C20.2,91.7,19.8,92,19.4,92z M212.8,82.6L212.8,82.6l-5.4-5.8
		c-0.4-0.4-0.4-1,0-1.4c0.4-0.4,1-0.4,1.4,0l5.4,5.8l-0.7,0.7L212.8,82.6z M24.9,73.9c-0.1,0-0.2,0-0.3,0c-0.5-0.2-0.8-0.7-0.7-1.2
		l2.3-7.6c0.2-0.5,0.7-0.8,1.2-0.7c0.5,0.2,0.8,0.7,0.7,1.2l-2.3,7.6C25.7,73.6,25.3,73.9,24.9,73.9z M200.6,69.1
		c-0.3,0-0.5-0.1-0.7-0.3l-5.4-5.8c-0.4-0.4-0.4-1,0-1.4c0.4-0.4,1-0.4,1.4,0l5.4,5.8c0.4,0.4,0.4,1,0,1.4
		C201.1,69,200.9,69.1,200.6,69.1z M30.4,55.8c-0.1,0-0.2,0-0.3,0c-0.5-0.2-0.8-0.7-0.7-1.2l2.3-7.6c0.2-0.5,0.7-0.8,1.2-0.7
		c0.5,0.2,0.8,0.7,0.7,1.2l-2.3,7.6C31.3,55.6,30.9,55.8,30.4,55.8z M187.7,55.3c-0.3,0-0.5-0.1-0.7-0.3l-5.4-5.8
		c-0.4-0.4-0.4-1,0-1.4c0.4-0.4,1-0.4,1.4,0l5.4,5.8c0.4,0.4,0.4,1,0,1.4C188.2,55.2,188,55.3,187.7,55.3z M174.8,41.4
		c-0.3,0-0.5-0.1-0.7-0.3l-5.4-5.8c-0.4-0.4-0.4-1,0-1.4c0.4-0.4,1-0.4,1.4,0l5.4,5.8c0.4,0.4,0.4,1,0,1.4
		C175.3,41.3,175.1,41.4,174.8,41.4z M36,37.8c-0.1,0-0.2,0-0.3,0c-0.5-0.2-0.8-0.7-0.7-1.2l0.5-1.6c0.7-2.3,2.3-4.2,4.4-5.4
		c0.5-0.3,1.1-0.1,1.4,0.4c0.3,0.5,0.1,1.1-0.4,1.4c-1.7,0.9-2.9,2.4-3.4,4.2L36.9,37C36.8,37.5,36.4,37.8,36,37.8z M50.9,28.7
		c-0.5,0-0.9-0.3-1-0.8c-0.1-0.5,0.2-1.1,0.7-1.2l7.8-1.8c0.5-0.1,1.1,0.2,1.2,0.7c0.1,0.5-0.2,1.1-0.7,1.2l-7.8,1.8
		C51,28.6,51,28.7,50.9,28.7z M162,27.6c-0.3,0-0.5-0.1-0.7-0.3l-5.4-5.8c-0.4-0.4-0.4-1,0-1.4c0.4-0.4,1-0.4,1.4,0l5.4,5.8
		c0.4,0.4,0.4,1,0,1.4C162.4,27.5,162.2,27.6,162,27.6z M69.3,24.4c-0.5,0-0.9-0.3-1-0.8c-0.1-0.5,0.2-1.1,0.7-1.2l7.8-1.8
		c0.5-0.1,1.1,0.2,1.2,0.7c0.1,0.5-0.2,1.1-0.7,1.2l-7.8,1.8C69.5,24.4,69.4,24.4,69.3,24.4z M87.7,20.1c-0.5,0-0.9-0.3-1-0.8
		c-0.1-0.5,0.2-1.1,0.7-1.2l7.8-1.8c0.5-0.1,1.1,0.2,1.2,0.7c0.1,0.5-0.2,1.1-0.7,1.2L88,20.1C87.9,20.1,87.8,20.1,87.7,20.1z
		 M106.2,15.9c-0.5,0-0.9-0.3-1-0.8c-0.1-0.5,0.2-1.1,0.7-1.2l7.8-1.8c0.5-0.1,1.1,0.2,1.2,0.7c0.1,0.5-0.2,1.1-0.8,1.2l-7.8,1.8
		C106.3,15.9,106.2,15.9,106.2,15.9z M149.1,13.8c-0.3,0-0.5-0.1-0.7-0.3l-2.8-3c-0.8-0.8-1.8-1.5-2.8-1.9c-0.5-0.2-0.8-0.8-0.6-1.3
		c0.2-0.5,0.8-0.8,1.3-0.6c1.4,0.5,2.6,1.3,3.6,2.4l2.8,3c0.4,0.4,0.4,1,0,1.4C149.5,13.7,149.3,13.8,149.1,13.8z M124.6,11.6
		c-0.5,0-0.9-0.3-1-0.8c-0.1-0.5,0.2-1.1,0.8-1.2l7.8-1.8c0.5-0.1,1.1,0.2,1.2,0.7c0.1,0.5-0.2,1.1-0.8,1.2l-7.8,1.8
		C124.7,11.6,124.7,11.6,124.6,11.6z"/>
	<g>
		<path class="st3" d="M108.3,54.6c0,0-20.7,3.4-24.6,16.1l12.1,3.7L108.3,54.6z"/>
		<path class="st3" d="M144.9,65.8c0,0,15.2,14.4,11.3,27.1l-12.1-3.7L144.9,65.8z"/>
	</g>
	<path class="st0" d="M135,32.5c-12.8-3.9-36.3,31.2-41.4,47.9l24.5,7.5l24.5,7.5C147.7,78.7,147.8,36.4,135,32.5z"/>
	<path class="st4" d="M176.2,184.6c2.7-0.6,4.8-2.6,5.6-5.2l8.1-26.6c-6.6-1.3-13.2,2.6-15.2,9.2c-0.3,1-0.5,2.1-0.5,3.1
		c-2-0.1-4,0.4-5.8,1.2c-0.7-3.9-3.6-7.3-7.6-8.5c-4.9-1.5-10.1,0.6-12.7,4.8c-0.9-0.6-1.9-1.1-3.1-1.5c-2.1-0.6-4.2-0.6-6.2-0.1
		c0-5.7-3.6-11.1-9.4-12.8c-2.2-0.7-4.4-0.7-6.4-0.3c1.2-5.6-2-11.2-7.6-12.9c-0.5-0.2-1-0.3-1.5-0.3c1.5-0.6,2.7-1.9,3.2-3.5
		c0.9-2.8-0.6-5.7-3.3-6.8l7.2-28.9l-10-3.1l-7.8,20.8c-1.9,0.4-3.6,1.8-4.2,3.8c-0.4,1.2-0.3,2.4,0.1,3.4c-2,0.4-3.7,1.8-4.3,3.8
		c-0.5,1.6-0.2,3.3,0.6,4.6c-0.2-0.1-0.4-0.2-0.7-0.2c-5.6-1.7-11.4,1.2-13.5,6.5c-1.5-1.5-3.4-2.7-5.5-3.3
		c-5.8-1.8-11.8,0.6-15,5.4c-1.3-1.6-3.1-2.8-5.2-3.4c-1.1-0.3-2.3-0.5-3.4-0.5c0.2-4.9-2.9-9.5-7.8-11.1c-4.1-1.2-8.3,0-11.1,2.8
		c-1-1.7-2.5-3.2-4.2-4.2c0.5-0.9,1-1.8,1.3-2.9c2-6.7-1.5-13.8-7.9-16.3l-8.1,26.6c-0.8,2.6-0.1,5.5,1.7,7.5l63,67.5
		c0.9,1,2.1,1.7,3.4,2.1s2.6,0.4,4,0.1L176.2,184.6z"/>
	
		<ellipse transform="matrix(0.2923 -0.9563 0.9563 0.2923 27.9458 165.0791)" class="st5" cx="125.5" cy="63.7" rx="12.9" ry="12.9"/>
	<ellipse transform="matrix(0.2923 -0.9563 0.9563 0.2923 27.9458 165.0791)" class="st6" cx="125.5" cy="63.7" rx="9.1" ry="9.1"/>
	<path class="st3" d="M106.9,84.5l-4.9,6.6c0,0,5.3,3.8,13.5,6.4s14.3,1.6,14.3,1.6l-0.7-7.8L106.9,84.5z"/>
	<path class="st7" d="M53,85.6c-0.1-4.9-4.6-8.6-4.6-8.6s6-0.5,8.6-4.6C56.7,77,61.7,81,61.7,81S56,81.2,53,85.6z"/>
	<path class="st7" d="M161.8,115.1c-0.1-4.9-4.6-8.6-4.6-8.6s6-0.5,8.6-4.6c-0.4,4.7,4.6,8.6,4.6,8.6S164.7,110.8,161.8,115.1z"/>
	<path class="st4" d="M73.5,60.7c-0.1-3.9-3.6-6.8-3.6-6.8s4.7-0.4,6.8-3.6c-0.3,3.7,3.6,6.8,3.6,6.8S75.8,57.3,73.5,60.7z"/>
	<path class="st4" d="M191.7,106.8c-0.1-3.9-3.6-6.8-3.6-6.8s4.7-0.4,6.8-3.6c-0.3,3.7,3.6,6.8,3.6,6.8S194,103.4,191.7,106.8z"/>
	<path class="st7" d="M176.7,85c-0.1-3.9-3.6-6.8-3.6-6.8s4.7-0.4,6.8-3.6c-0.3,3.7,3.6,6.8,3.6,6.8S179,81.6,176.7,85z"/>
	<path class="st5" d="M175.9,176.9c-6-1.8-12.4,1.2-14.8,6.9c-1.5-2-3.6-3.6-6.2-4.4c-3.9-1.2-7.8-0.3-10.9,1.9
		c-1.5-2.6-3.9-4.7-7-5.6c-2.5-0.8-5.1-0.7-7.4,0.1c-0.6-4.3-3.4-8.1-7.6-9.7c0.2-0.5,0.4-1,0.6-1.5c2-6.5-1.7-13.3-8.1-15.3
		c-0.4-0.1-0.7-0.2-1.1-0.3c0,0,0,0,0-0.1c2-6.5-1.7-13.3-8.1-15.3c-6.5-2-13.3,1.7-15.3,8.1c-0.2,0.5-0.3,1-0.4,1.6
		c0,0-0.1,0-0.1,0c-2.1-0.7-4.3-0.7-6.4-0.2c-1.5-2.6-3.9-4.6-7-5.5c-6.1-1.9-12.5,1.2-14.9,7c-1.5-2.1-3.7-3.7-6.3-4.6
		c-4.1-1.2-8.3-0.3-11.4,2.3c-0.6-0.3-1.2-0.6-1.9-0.8c-3.8-1.2-7.7-0.4-10.7,1.7c0.7-5.8-2.8-11.4-8.6-13.2
		c-0.8-0.2-1.5-0.4-2.3-0.5c0.3-0.6,0.5-1.2,0.7-1.8c1.3-4.4,0.1-9-2.9-12.1l-3.9,12.6c-0.8,2.6-0.1,5.5,1.7,7.5l63,67.5
		c0.9,1,2.1,1.7,3.4,2.1s2.6,0.4,4,0.1l90-20.8c2.3-0.5,4.2-2.1,5.2-4.3C180,178.8,178.1,177.5,175.9,176.9z"/>
</g>
</svg>
