<?xml version="1.0" encoding="utf-8"?>
<!-- Generator: Adobe Illustrator 21.1.0, SVG Export Plug-In . SVG Version: 6.00 Build 0)  -->
<!DOCTYPE svg PUBLIC "-//W3C//DTD SVG 1.1//EN" "http://www.w3.org/Graphics/SVG/1.1/DTD/svg11.dtd">
<svg version="1.1" id="Layer_1" xmlns="http://www.w3.org/2000/svg" xmlns:xlink="http://www.w3.org/1999/xlink" x="0px" y="0px"
	 viewBox="0 0 500 500" style="enable-background:new 0 0 500 500;" xml:space="preserve">
<style type="text/css">
	.st0{fill:none;}
	.st1{fill:#D4ECFF;}
	.st2{fill:#BFDDF5;}
	.st3{fill:#FFFFFF;}
	.st4{fill:#EDF7FF;}
	.st5{fill:#0064D9;}
	.st6{fill:#A2D0F5;}
	.st7{fill:#FFD8B5;}
	.st8{fill:#00ADEF;}
	.st9{fill:#9EC9FF;}
	.st10{fill:#8CBFFF;}
	.st11{fill:#00C4FF;}
	.st12{fill:#0076FF;}
	.st13{fill:#FFE4CC;}
	.st14{fill:#F5C59D;}
	.st15{fill:#FFD2A5;}
</style>
<polygon class="st0" points="318.5,427.7 370.6,464.5 318.5,427.7 "/>
<polygon class="st1" points="178.9,385.3 232.4,401.8 232.4,401.8 "/>
<polygon class="st1" points="0,314.3 0,330 141.2,373.6 "/>
<polygon class="st2" points="141.2,373.6 178.9,385.3 141.2,373.6 "/>
<polygon class="st2" points="0,296.4 0,314.3 141.2,373.6 178.9,385.3 232.4,401.8 "/>
<path class="st1" d="M0,175.6v22.4l117.8,76c1.1,5,2.6,9.9,4,14.7L0,202.4l0,0l318.5,225.3l0,0l-96.9-68.5L0,175.6z"/>
<polygon class="st3" points="308.9,421.7 318.4,428.4 232.4,401.8 370.6,464.5 318.5,427.7 "/>
<path class="st3" d="M308.9,421.7L127.6,308.2c1.8,6.8,3,13.5,3,20c0,1.1,0,2.1-0.1,3.2L0,264.5v24.7l258.5,120.7l-26.1-8.1l0,0
	l86,26.6L308.9,421.7z"/>
<polygon class="st3" points="232.4,401.8 258.5,409.9 0,289.2 0,296.4 "/>
<polygon class="st3" points="0,203.2 308.9,421.7 318.5,427.7 0,202.4 "/>
<path class="st3" d="M0,221l126.2,81.9c0.5,1.8,1,3.5,1.5,5.3l181.2,113.5L0,203.2V221z"/>
<path class="st3" d="M68.1,150.7l56,74.4c-4.5,5.9-8,13.3-8.7,22.2L0,159.1v14.3l318.5,254.2h0l52.1,36.9L79.8,140.6
	c0,0-40-12.8-79.8-20.2v13C24.1,138,52.4,144.2,68.1,150.7z"/>
<polygon class="st3" points="221.6,359.2 318.5,427.7 318.5,427.7 0,173.5 0,175.6 "/>
<path class="st4" d="M124.1,225.1l-56-74.4C52.4,144.2,24.1,138,0,133.4v25.7l115.3,88.2C116.1,238.4,119.5,231,124.1,225.1z"/>
<path class="st4" d="M0,264.5l130.5,66.9c0-1,0.1-2.1,0.1-3.2c0.1-6.5-1.2-13.2-3-20L0,228.2V264.5z"/>
<path class="st4" d="M0,221v7.2l127.6,79.9c-0.5-1.8-0.9-3.5-1.5-5.3L0,221z"/>
<path class="st2" d="M117.8,273.9L0,197.9v4.5l121.8,86.1C120.3,283.8,118.9,278.9,117.8,273.9z"/>
<path class="st5" d="M470.1,230.4c0,0,9.1,3,13.5-13.9c4.3-16.5-5.9-19.5-5.9-19.5s-8.5,7.2-11.9,13.2
	C459.6,221.1,470.1,230.4,470.1,230.4z"/>
<polygon class="st4" points="175.1,293 150.1,259.7 149.7,273.6 "/>
<polygon class="st4" points="149.9,341.3 318.5,427.7 150.2,318.5 150.5,325.6 "/>
<polygon class="st2" points="221.6,359.2 149.2,294.2 149.8,308.4 "/>
<path class="st2" d="M151.4,205c0,0-16.7,6.1-27.4,20.1l26,34.6L151.4,205z"/>
<path class="st2" d="M130.5,331.4c-1,22-10.6,28.2-10.6,28.2l29.8-12.1l0.2-6.1L130.5,331.4z"/>
<path class="st2" d="M149.8,308.4l-28-19.8c1.5,4.9,3,9.6,4.4,14.3l24,15.6L149.8,308.4z"/>
<path class="st2" d="M149.7,273.6l-34.4-26.3l0,0c-0.7,9.2,0.4,18,2.4,26.5l31.4,20.3L149.7,273.6z"/>
<path class="st6" d="M150.1,259.7l-26-34.6c-4.5,5.9-8,13.3-8.7,22.2l34.4,26.3L150.1,259.7z"/>
<path class="st6" d="M150.5,325.6l-0.3-7.1l-24-15.6c2.5,8.7,4.5,17.1,4.4,25.3c0,1.1,0,2.1-0.1,3.2l19.4,9.9L150.5,325.6z"/>
<path class="st6" d="M149.2,294.2l-31.4-20.3c1.1,5,2.6,9.9,4,14.7l28,19.8L149.2,294.2z"/>
<path class="st5" d="M143.8,421.8c0,0-1.5,4.9,12.9,8.9c14.4,4,22.5,0.8,22.5,0.8s1.8-13.4-8.8-15.1S143.8,421.8,143.8,421.8z"/>
<path class="st5" d="M341.1,164.3c0,0-1.7,0.5-2.6,2.6s-0.2,4.7-0.2,4.7l131.1,56.8c0,0,8.5,2.8,12.8-9.5
	c5.1-14.7-4.4-19.8-4.4-19.8L341.1,164.3z"/>
<path class="st5" d="M274.7,149.9c-0.2,3.3-2.7,6.2-2.4,9.4c0.2,1.7,1.2,3.2,2.6,4.1c0.4,0.3,0.9,0.5,1.5,0.5c0.7,0,1.3-0.5,1.6-1.1
	c0.4-0.6,0.5-1.2,0.7-1.9c0.6-2.5,1.2-4.9,1.9-7.4c0-0.2,0.1-0.3,0-0.5c-0.1-0.3-0.3-0.4-0.5-0.6c-1.1-0.8-2.1-1.6-3.2-2.4
	c-1.3-1-2.6-2.2-2.4-3.8"/>
<path class="st7" d="M397.8,196.5c0,0,7.6-14.7-1.6-12.4c-9.2,2.3-7.8,19.9-7.8,19.9c-5.1,9.1-36.9,30.4-36.9,30.4
	s-4.9,30.8,7.7,25.9c12.5-5,38.1-44.8,38.1-44.8c9.7,0.3,19.8-9.7,19.8-9.7L397.8,196.5z"/>
<path class="st8" d="M352.7,249.7c-1.6-8.6-1.2-15.3-1.2-15.3s-2.2,1.8-5,2.9c-0.1-1-0.4-2-1.1-2.8c-0.8-0.9-2.3-1.2-3.1-0.3
	c-0.7,0.8-0.8,2.3-1.9,2.3c-0.6,0-1-0.6-1.1-1.1c-0.1-0.6,0-1.2,0.1-1.8c0.1-0.9-0.2-1.9-0.8-2.5c-0.7-0.6-1.8-0.7-2.4,0
	c-0.2,0.3-0.4,0.6-0.6,0.8c-9.1-12.9-27.8-44.2-43.7-44.4c-14.3-0.1-5.6,30.4-5.6,30.4s24.5,35.4,43,47.9c18.5,12.5,36-9.7,36-9.7
	S355.4,263.8,352.7,249.7z"/>
<path class="st7" d="M398.5,178.1c0,0,2,6.4,12.6,12.4c10.6,6,17.4-4.2,17.4-4.2S413.9,175,398.5,178.1z"/>
<path class="st9" d="M151.7,421.3l-12.8,17.8c0,0,3.9,7,10.1,8.8c6.2,1.8,10-5.3,10-5.3l15.3-23.8L151.7,421.3z"/>
<path class="st10" d="M161.6,421.6l-5.5-0.9l-4.4,0.5l-12.8,17.8c0,0,0.5,0.8,1.3,1.9l8.4,3.1C152.2,435.9,161.6,421.6,161.6,421.6z
	"/>
<path class="st5" d="M138.9,439.1c0,0-11.7,6-12.7,12.8c0,0,5.7,7.3,36.8,8.4s37.8-5.7,34.7-12.4c-3.1-6.7-21.7-5.9-38.7-5.2
	S138.9,439.1,138.9,439.1z"/>
<path class="st11" d="M171.4,447.4c-14-0.8-45.1,4.5-45.1,4.5s5.7,7.3,36.8,8.4c24.3,0.8,33.7-3.1,35.2-8.1
	C197.8,452.1,185.2,448.2,171.4,447.4z"/>
<path class="st12" d="M180.3,385.7l-36.5,36.2c0,0,23.3-5.4,35.4,9.7l48-31.4L180.3,385.7z"/>
<path class="st12" d="M45,388.4c0,0-3.5-8.4-15-5.5c-11.6,2.9-11.2,14.2-8.6,22.7s2.6,23.5,3.1,31.9C25.6,456.3,42,460,45.6,452
	c3.6-8.1,2.4-46.5,2.4-46.5L45,388.4z"/>
<path class="st5" d="M45,388.4c0,0-3.5-8.4-15-5.5c-11.6,2.9-11.2,14.2-8.6,22.7c2.6,8.5,2.6,23.5,3.1,31.9c0.4,6,2.3,10.5,4.9,13.5
	l7.4,4.7h0c0,0-10.4-9.5-9.2-27.1c1.2-17.5-1.6-20,1.2-32.6C31.4,383.5,45,388.4,45,388.4z"/>
<path class="st9" d="M60.4,384.3l-23.7,3.3c0,0-3.9,7.8-0.8,15.2c3,7.3,7.9,6.6,7.9,6.6l26.8-6.8L60.4,384.3z"/>
<path class="st10" d="M34.7,396.3c0,0,12.5,2.1,24.6-2.8c2.1-0.8,3.6-1.8,4.6-2.8l-3.5-6.3l-23.7,3.3
	C36.7,387.7,34.8,388.2,34.7,396.3z"/>
<path class="st12" d="M185.6,279.5c3.3-2.7,27,11.5,46.8,31c16.5,16.4,32.1,35.8,32.1,35.8s-3.7-49.9-16.6-70.6
	s-12.9-20.7-12.9-20.7s-73.3-13.7-97-42.4c0,0-22.9,18.7-14.1,55.2c5.7,23.7,11.9,46.5,13.5,63.1c-1.4,1.7-2.2,3.9-2.2,6.1
	c0,2.6,1.1,5.6-0.6,7.6c-0.6,0.8-1.6,1.3-2.2,2.1c-1.2,1.7-0.4,4.6-2,5.9c-1.8,1.4-4.8-0.5-6.8,0.8c-2,1.3-1.5,5.1-3.7,6
	c-0.8,0.3-1.7,0-2.6,0c-1.8,0-3.5,1.4-4,3.2c-24.1,7.7-53.3,12.5-53.3,12.5s-5.9,6.7-2,21.8s11,15.2,11,15.2s79.8,8.1,107.2-48.5
	S179.5,284.6,185.6,279.5z"/>
<path class="st5" d="M138,212.7c0,0-22.9,18.7-14.1,55.2c5.7,23.7,11.9,46.5,13.5,63.1c-1.4,1.7-2.2,3.9-2.2,6.1
	c0,2.6,1.1,5.6-0.6,7.6c-0.6,0.8-1.6,1.3-2.2,2.1c-1.2,1.7-0.4,4.6-2,5.9c-1.8,1.4-4.8-0.5-6.8,0.8c-2,1.3-1.5,5.1-3.7,6
	c-0.8,0.3-1.7,0-2.6,0c-1.8,0-3.5,1.4-4,3.2c-24.1,7.7-53.3,12.5-53.3,12.5s-3.7,4.2-3.3,13.5c18.1,4.3,37.9,1,53.6-9.1
	c1.4-0.9,2.9-1.9,4.5-2.3c3.8-0.9,8.8,1,11.1-2.2c1.1-1.6,0.9-3.9,2.3-5.3c1.6-1.7,4.8-1.1,6.3-2.9c1.8-2.1,0.4-6.3,2.9-7.5
	c0.8-0.4,1.7-0.3,2.5-0.3c5.5-0.4,8.6-6.5,10-11.8c3-11.2,3.8-23.1,2.2-34.6c-2.4-17-9.7-33.1-11.4-50.3c-0.8-8.9,0.8-19.4,8.7-23.7
	c1.7-0.9,3.8-1.7,4.3-3.6c0.2-0.9,0-1.8-0.3-2.6c-0.9-3.2-2.1-6.3-3.5-9.3C145.1,220.1,141.1,216.5,138,212.7z"/>
<path class="st11" d="M264.3,171.7c0,0-41.8-10.4-73.6,3.4S138,212.7,138,212.7s1.6,24,39.8,44.6c7.4,4,57.2-2.3,57.2-2.3
	s37.2-25.1,46.4-28.5c29.4-10.8,22.9-32.8,22.9-32.8S285.4,174.9,264.3,171.7z"/>
<path class="st8" d="M264.3,171.7c0,0-41.8-10.4-73.6,3.4c-31.8,13.8-52.7,37.6-52.7,37.6s0.8,12.1,15,26.6
	c9.6-14.6,23.9-25.5,37.9-35.9c7.7-5.7,15.6-11.6,24.7-14.5c7.2-2.3,14.9-2.7,22.5-3.1c9.3-0.5,18.6-0.9,27.9-1.4
	c-0.8-3.9,0.6-8.2,0.9-12.1C266.1,172,265.2,171.8,264.3,171.7z"/>
<path class="st7" d="M277.5,158.1c0,0-1.4,8-5.1,11s-8.1,2.6-8.1,2.6s-8.5,28.8,11.7,30.3c20.1,1.6,15.9-14.4,15.9-14.4
	S275.7,162.9,277.5,158.1z"/>
<path class="st13" d="M316.2,121.5c-10.3-1.3-20.4,5.6-28.5,13.3c-0.3-3.2-1.7-6.8-7.1-4.3c-8.5,3.9-10,19.3-2.7,22.3
	c-2.8,10.4-3.9,24.6,6.7,33.1c18.1,14.6,44.7-7.6,50-32.4C340,128.7,328.8,123,316.2,121.5z"/>
<path class="st14" d="M279.1,202.1c11.8-0.2,13.2-7.5,13.1-11.7l-19.8-21.3C272.4,169.1,267.3,195.7,279.1,202.1z"/>
<path class="st7" d="M327.8,130.6c-4.7-2.7-9.6-5.3-14.8-6.8c-2.3-0.6-4.6-1-7-1.1c-6.7,2.2-13,7-18.3,12.1c0-0.3-0.1-0.6-0.1-0.9
	c-0.2,0.8-0.4,1.5-0.5,2.3l4.1,6.8c4.9-4.4,12.6-3.3,18.6-0.7c6,2.6,11.7,6.5,18.3,7.2c2.6,0.3,5.6-0.2,7.6-1.8
	c0.5-4.5,0.5-8.2-0.2-11.3C333.5,134,330.5,132.1,327.8,130.6z"/>
<path class="st12" d="M276.9,153.8c-0.9,1.4-1.4,3-1.9,4.6c-1.9,6.3-3.9,13-2,19.3c2.7,8.8,12.2,13.9,21.4,14.9
	c4.8,0.5,9.7,0.2,14.1-1.8s17.1-14.2,18.5-18.7c0.4-1.3-8.3,5.8-8.9,4.6c-1.2-2.5-4.5-2.7-7-3.8c-2.4-1-4.3-3-5.2-5.5
	c-0.4-1.2-0.6-2.6-1.2-3.7c-2.9-5.4-13-3.6-15.1-9.4c-1.5-4.1,2.2-6.8,3.3-10.4c2-6.3,1.1-6.7-1.7-6c-2.6,0.7,0,0-6.7,8.7
	C282.4,149.5,278.8,151,276.9,153.8z"/>
<path class="st5" d="M234.6,289.8c-4.7-8.7-12.4-16.1-21.9-18.9c-4.1-1.2-8.5-1.6-12.8-1.9c-4.2-0.3-9-0.2-11.6,3.1
	c-1.6,2-1.9,4.7-1.5,7.2c6.7,0.7,33.9,23.5,55,41.1C242.2,310.4,239.3,298.5,234.6,289.8z"/>
<path class="st15" d="M324.3,150.4c0,0-3.1,24.1-7.1,27.9s-9.5-1.9-8-5.7C310.7,168.7,324.3,150.4,324.3,150.4z"/>
<path class="st13" d="M236.3,345.4l-7-61.3c0,0-16.6-6-22.5,9.6c0,0,2.7,39,13.3,51.9c0,0-2,16-1.7,22.4c0.2,3.4,2.6,8.2,6.3,11.3
	c4.8,4.9,12.8,10.2,24,7.5c4.6-2-1.2-11.4-5.2-17.1c-2.6-4.2-1.7-9.1-1.7-9.1s9.5,9.3,10.8,7.3C254.1,366,236.3,345.4,236.3,345.4z"
	/>
<path class="st7" d="M244.2,387.5c-13.5-5.6-19.4-18.7-20.1-24.3c-0.7-6,3.4-11.8,2.5-17.8c-0.3-2-1.2-3.8-1.9-5.7
	c-2.2-5.4-3.7-11-4.6-16.8c-0.8-5.1-0.7-10.3-1.3-15.4c-0.7-6.9,0.8-16.2-2.5-18.4c-3.8-2.5-6.5,7.4-8.8,11.1
	c1.3,11.7,4.8,35.7,12.7,45.3c0,0-2,16-1.7,22.4c0.2,3.4,2.6,8.2,6.3,11.3C228.8,383.5,235.3,388,244.2,387.5z"/>
<path class="st12" d="M356,125.3c-2.9-7.4-11.3-11.7-19.2-11.3c-2.5,0.1-5,0.7-7.6,1.1c-0.8-0.3-1.5-0.6-2.3-1
	c-2.4-1.3-4.4-3.1-6.6-4.7c-5.6-4-12.4-6.2-19.3-6.3c-4.1,0-8.6,1-10.9,4.3c-0.9,1.3-1.4,2.8-2.7,3.8c-1.5,1.1-3.5,1.4-5.3,1.9
	c-5.4,1.7-7.1,4.4-7,6.9c-0.4,1.9-0.3,3.9-0.1,5.9c0.3,3.1,0.5,6.1,0.8,9.2c-0.1-1.7,6.8-4.4,8.2-3.9c3.5,1.3,3.3,6.6,4,9.7
	c0.1,0.6,0.3,1.3,0.7,1.8c1.3,1.6,4,0.3,4.9-1.5c0.8-1.9,0.7-4,1.4-6c1.4-3.9,6-5.7,10.1-5.3c4.1,0.4,7.8,2.5,11.4,4.3
	c5.9,3.1,12,5.7,18.2,8c4,1.5,8.3,2.8,12.5,1.8C354.8,142.5,358.9,132.7,356,125.3z"/>
<path class="st5" d="M180.3,385.7l-36.5,36.2c0,0,8.5-2,17.9-0.2c3.2-2.6,6.1-6.9,9.2-9.3c8.5-6.6,19.4-13.8,27.6-21L180.3,385.7z"
	/>
<path class="st8" d="M232,257.9c-1.2-1.8,1.1-3.8,1.9-5.8c0.8-2-0.1-4.2-0.4-6.3c-0.1-0.7-0.2-1.4-0.2-2.1
	c8.4-20.4,40.6-72.3,9.1-69.8c-16.1,1.3-35.3,26.8-38.4,62.2c-3.1,34.8-5.1,56.4,3.6,65.2c0,0,7.7-5.9,13.7-6.5
	c6-0.6,9.8,2.1,9.8,2.1s-1.3-8.2-1.9-18.5c0.8-2.8,1.5-5.6,1.4-8.4c-0.1-1.5-0.3-3.1,0.3-4.4c0.5-1.1,1.5-1.8,2.2-2.7
	c0.7-0.9,1.2-2.3,0.5-3.2C233.1,258.8,232.4,258.5,232,257.9z"/>
<path class="st8" d="M181.4,252.5c3.1,0.8,6.3,0.9,9.5,1c6,0.1,11.9,0.3,17.9,0.4c-0.4-2.2-2.3-3.9-4.5-4.6
	c-2.1-0.7-4.4-0.6-6.7-0.5c-7.2,0.3-14.8,0.4-21.2-2.8c-7.6-3.8-13-13.4-21.3-15.4c1.2,3.9,8.6,9.2,11.7,12.3
	C171.2,247.1,175.7,251,181.4,252.5z"/>
<path class="st8" d="M182.9,244.5c2.6,3.2,6.5,5.3,10.6,5.6c-3.1-2.2-6.3-4.5-8.2-7.7c-1.1-1.8-1.7-3.9-2.7-5.8
	c-1.6-3-4.6-6.1-7.9-6.9C174.7,233.4,180.5,241.6,182.9,244.5z"/>
<path class="st8" d="M267.7,204.7c4.7,2,9.9,1.8,14.9,1.6c-1.5,1.9-4.1,2.4-6.5,2.7c-2.4,0.3-4.9,0.4-7.2-0.1
	c-4.3-0.9-10.3-5.8-10.2-10.7c0.1-4.2,1.1-0.7,2.5,0.7C263.3,201.2,264.6,203.4,267.7,204.7z"/>
<path class="st5" d="M322.6,117c-2.5-1.3-4.7-3.3-7.1-4.8c-1.6-1-3.2-1.9-5-2.7c-3.6-1.5-7.7-2.3-11.5-1.3s-7.1,4.2-7.4,8.1
	c0.8-1.4,2.3-2.5,3.9-3s3.4-0.3,4.8,0.5c1.9,1,3.1,2.7,4.8,4c1.3,0.9,2.7,1.6,4.2,2.2c3,1.2,6.2,2.3,9.4,2.7s6.6,0.1,9.6-1.3
	c0.6-0.3,1.3-0.7,1.7-1.2c0.4-0.5,0.9-1.3,0.7-1.9C327.7,118.7,325.2,118.4,322.6,117z"/>
<path class="st5" d="M279.5,119c-1.5,1.1-2,3.2-1.7,5.1s1,3.6,1.4,5.4c0.7-1.9-0.4-4.6,1.2-6c0.8-0.7,2-0.7,3-1.1
	c2-0.7,3.8-2.9,3-4.9C284.3,117.8,281.3,117.7,279.5,119z"/>
<path class="st5" d="M305.3,191.4c0.1-1.9-2.2-2.8-4-3.1c-4.3-0.8-8.8-1.2-12.7-3.2c-3.9-2-7.3-5.9-7-10.3c0.1-1.5,0.6-3,0.3-4.5
	c-0.4-2.2-2.4-3.7-3.3-5.7c-1.8-3.9,0.8-8.3,3.5-11.5c2.6-3.1,5.7-6.6,5.6-10.6c-0.7,1.1-1.7,2.5-3.2,4.4c-2.1,2.7-5.7,4.2-7.6,7
	c-0.9,1.4-1.4,3-1.9,4.6c-1.9,6.3-3.9,13-2,19.3c2.7,8.8,12.2,13.9,21.4,14.9c3.6,0.4,7.2,0.3,10.7-0.6
	C305.2,191.9,305.3,191.7,305.3,191.4z"/>
<path class="st5" d="M299.1,120c1.5,0.6,2.7,1.8,4,2.8s2.7,2,4.3,2.1c0.9,0.1,1.7-0.1,2.5,0.1c-2.9,2-7.1,1.6-9.6-0.8
	c-0.8-0.8-1.5-1.8-2.4-2.6c-0.8-0.7-1.9-1-2.9-1.3C296.2,119.3,297.9,119.5,299.1,120z"/>
<path class="st5" d="M160.5,359.9c-0.5,3-3.5,5.3-6.5,5.1c-1.1-0.1-2.5-0.4-3.3,0.4c-1.2,1.3,0.5,3.3,2.1,4.1c1.6,0.8,3.5,2.5,2.5,4
	c-1,1.6-3.9,0.3-5.4,1.6c-1.3,1.1-0.4,3.4,1.1,4.3c2.5,1.4,5.8,0.3,7.7-1.9c1.8-2.2,2.4-5.1,2.6-8c0.1-2.8-0.2-5.7,0-8.5"/>
<path class="st11" d="M216,251.9c3.8-1.5,8-2.9,11.8-1.5c0.6,0.2,1.3,0.5,1.9,0.6c0.7,0.1,1.4-0.2,1.8-0.8c0.1-0.3,0.2-0.6,0.2-0.8
	c0.1-0.7,0.1-1.4-0.2-1.9c-0.4-0.7-1.3-1-2.1-1.2c-4.4-1-9.2-0.2-13.1,2.1c-1.6,0.9-3.5,2.6-3,4.5
	C214.2,252.6,215.1,252.3,216,251.9z"/>
<ellipse transform="matrix(0.2616 -0.9652 0.9652 0.2616 143.0432 613.7356)" class="st11" cx="472.6" cy="213.4" rx="14.4" ry="7"/>
<path class="st11" d="M215.7,255.6c3.1-0.1,5.8,2.3,8.9,2.3c0.8,0,1.6-0.1,2.3,0.1c0.8,0.2,1.4,1,1.1,1.8c-0.2,0.6-0.9,0.8-1.5,0.9
	c-2.7,0.4-5.3-0.8-7.8-1.8c-1.7-0.7-3.5-1.3-5.4-1.3c-1.4,0.1-2.8,0.8-4,0.6C210.7,256.8,213.7,255.7,215.7,255.6z"/>
<path class="st12" d="M445.2,189.4c0,0-4.6,3.4-7.1,11.6c-2.4,7.7-0.5,14.5-0.5,14.5l32.5,14.9c0,0-4.8-6.8-0.5-20.7
	c2.7-8.7,8.1-12.7,8.1-12.7L445.2,189.4z"/>
<path class="st4" d="M474.6,203c0,0,1.6,3.1,1.1,8.5c-0.5,5.4-2.5,9.3-2.5,9.3s5-4.4,5.3-11.4C478.8,204.5,474.6,203,474.6,203z"/>
<path class="st14" d="M397.8,196.5c0,0-2.3,7.5,2.4,11s16.9-1.8,16.9-1.8L397.8,196.5z"/>
</svg>
