<?xml version="1.0" encoding="utf-8"?>
<!-- Generator: Adobe Illustrator 21.1.0, SVG Export Plug-In . SVG Version: 6.00 Build 0)  -->
<!DOCTYPE svg PUBLIC "-//W3C//DTD SVG 1.1//EN" "http://www.w3.org/Graphics/SVG/1.1/DTD/svg11.dtd">
<svg version="1.1" id="Layer_1" xmlns="http://www.w3.org/2000/svg" xmlns:xlink="http://www.w3.org/1999/xlink" x="0px" y="0px"
	 viewBox="0 0 904 478" style="enable-background:new 0 0 904 478;" xml:space="preserve">
<style type="text/css">
	.st0{fill:#D4ECFF;}
	.st1{fill:#BFDDF5;}
	.st2{fill:#FFFFFF;}
	.st3{fill:#0064D9;}
	.st4{fill:#EDF7FF;}
	.st5{fill:#A2D0F5;}
	.st6{fill:#FFD8B5;}
	.st7{fill:#00ADEF;}
	.st8{fill:#9EC9FF;}
	.st9{fill:#8CBFFF;}
	.st10{fill:#00C4FF;}
	.st11{fill:#0076FF;}
	.st12{fill:#FFE4CC;}
	.st13{fill:#F5C59D;}
	.st14{fill:#FFD2A5;}
</style>
<g>
	<polygon class="st0" points="128.6,57 109,269.4 694.9,428.1 	"/>
	<polygon class="st1" points="112.4,232.8 459,364.2 615.1,406.4 115.5,194.5 	"/>
	<g>
		<polygon class="st0" points="171,38.5 161,118.5 694.9,427.1 		"/>
		<path class="st2" d="M128.6,56l636.6,417.2L0.4,158.3C0.4,158.3,72.3,78,128.6,56z"/>
		<path class="st2" d="M171,38.5l393.1,302.9l201.1,131.8L367.2,60.2C367.2,60.2,216.4,17.6,171,38.5z"/>
	</g>
	<path class="st3" d="M885.4,160.2c0,0,12.1,3.5,17.1-18.9c4.9-21.9-8.7-25.4-8.7-25.4s-10.9,9.8-15.1,18
		C871,148.5,885.4,160.2,885.4,160.2z"/>
	<g>
		<polygon class="st4" points="499.9,256.5 465.3,213.7 465.5,232 		"/>
		<path class="st4" d="M352.2,74c-41.3-15.5-147.7-27.1-147.7-27.1L419,199.1c0.5-11.8,4.7-21.6,10.4-29.7L352.2,74z"/>
		<polygon class="st4" points="468.9,321.2 694.9,427.1 468.2,291.1 468.9,300.5 		"/>
		<path class="st4" d="M442.9,304.9c-0.3-10.8-3.3-21.8-7-33.1L126,85.9c-40.8,4.9-61.3,46-61.3,46L442.9,309
			C442.9,307.7,442.9,306.3,442.9,304.9z"/>
		<polygon class="st1" points="564.1,341.3 465.8,259.1 467.2,277.8 		"/>
		<path class="st1" d="M166.8,81l262.6,172.1c-2.2-6.3-4.3-12.7-6-19.2L166.8,81z"/>
		<path class="st1" d="M464.5,141.6c0,0-21.6,8.8-35.1,27.7l35.9,44.3L464.5,141.6z"/>
		<path class="st1" d="M442.9,309c-0.4,29-12.7,37.6-12.7,37.6l38.7-17.3v-8.1L442.9,309z"/>
		<path class="st1" d="M467.2,277.8l-37.8-24.8c2.2,6.3,4.4,12.5,6.5,18.6l32.3,19.4L467.2,277.8z"/>
		<path class="st1" d="M465.5,232l-46.5-33l0,0c-0.5,12.1,1.4,23.7,4.4,34.8l42.4,25.2L465.5,232z"/>
		<path class="st5" d="M465.3,213.7l-35.9-44.3c-5.7,8-9.9,17.9-10.4,29.7l46.5,33L465.3,213.7z"/>
		<path class="st5" d="M468.9,300.5l-0.7-9.3l-32.3-19.4c3.7,11.3,6.7,22.3,7,33.1c0,1.4,0,2.8,0,4.2l26,12.2V300.5z"/>
		<path class="st5" d="M465.8,259.1l-42.4-25.2c1.7,6.5,3.8,12.9,6,19.2l37.8,24.8L465.8,259.1z"/>
	</g>
	<path class="st3" d="M464.6,427.5c0,0-1.8,6.6,17.4,11.2s29.7,0,29.7,0s1.8-17.7-12.3-19.4S464.6,427.5,464.6,427.5z"/>
	<path class="st3" d="M712.5,79.1c0,0-2.2,0.7-3.3,3.6c-1.1,2.9,0,6.2,0,6.2l175.3,68.7c0,0,11.4,3.3,16.4-13.1
		c6-19.6-6.8-25.8-6.8-25.8L712.5,79.1z"/>
	<path class="st3" d="M624.3,63.3c-0.2,4.3-3.3,8.2-2.7,12.5c0.3,2.2,1.7,4.2,3.6,5.3c0.6,0.3,1.3,0.6,2,0.5
		c0.9-0.1,1.6-0.7,2.1-1.5c0.4-0.8,0.6-1.7,0.8-2.5c0.7-3.3,1.4-6.5,2.1-9.8c0-0.2,0.1-0.4,0-0.6c-0.1-0.3-0.4-0.5-0.7-0.7
		c-1.4-1-2.9-2-4.3-3c-1.7-1.2-3.6-2.8-3.3-4.9"/>
	<path class="st6" d="M788.6,119c0,0,9.3-19.7-2.7-16.3c-12.1,3.4-9.4,26.6-9.4,26.6c-6.3,12.2-47.1,41.7-47.1,41.7
		s-5,40.8,11.3,33.7c16.3-7.1,48.1-60.8,48.1-60.8c12.7-0.1,25.7-13.7,25.7-13.7L788.6,119z"/>
	<path class="st7" d="M731.7,191c-2.5-11.2-2.3-20.1-2.3-20.1s-2.8,2.5-6.4,4c-0.2-1.3-0.6-2.6-1.5-3.6c-1.1-1.1-3.1-1.4-4.1-0.3
		c-0.9,1.1-1,3.1-2.4,3.2c-0.8,0-1.4-0.7-1.6-1.5s0-1.5,0-2.3c0-1.2-0.3-2.4-1.2-3.2c-0.9-0.8-2.4-0.8-3.2,0.1
		c-0.3,0.3-0.5,0.8-0.7,1.1c-12.6-16.6-38.7-56.9-59.6-56.4c-18.8,0.5-6,40.3-6,40.3s33.9,45.5,58.8,61
		c24.9,15.6,46.9-14.4,46.9-14.4S735.8,209.5,731.7,191z"/>
	<path class="st6" d="M788.6,94.6c0,0,2.9,8.4,17.2,15.7c14.3,7.4,22.8-6.4,22.8-6.4S808.7,89.9,788.6,94.6z"/>
	<path class="st8" d="M475,426.4l-16,24c0,0,5.5,9.1,13.8,11.1s12.9-7.5,12.9-7.5l19-32.1L475,426.4z"/>
	<path class="st9" d="M488.1,426.4l-7.3-0.9l-5.8,0.9l-16,24c0,0,0.6,1,1.8,2.5l11.2,3.7C476.4,445.7,488.1,426.4,488.1,426.4z"/>
	<path class="st3" d="M459,450.4c0,0-15.1,8.5-16.1,17.4c0,0,7.8,9.4,48.8,9.3c41.1-0.1,49.5-9.3,45.1-18
		c-4.4-8.7-28.8-6.8-51.2-5.1S459,450.4,459,450.4z"/>
	<path class="st10" d="M502.1,459.9c-18.5-0.4-59.2,8-59.2,8s7.8,9.4,48.8,9.3c32-0.1,44.2-5.7,45.9-12.3
		C537.1,464.8,520.4,460.3,502.1,459.9z"/>
	<path class="st11" d="M511,378.2l-46.4,49.3c0,0,30.4-8.3,47,11.2l61.7-43.6L511,378.2z"/>
	<path class="st11" d="M333,388.1c0,0-5-10.9-20-6.5s-14.1,19.2-10.3,30.3s4.6,30.8,5.6,41.9c2.3,24.6,24.1,28.7,28.5,17.9
		c4.3-10.8,1-61.3,1-61.3L333,388.1z"/>
	<path class="st3" d="M333,388.1c0,0-5-10.9-20-6.5c-15.1,4.4-14.1,19.2-10.3,30.3c3.8,11.1,4.6,30.8,5.6,41.9
		c0.7,7.9,3.5,13.7,7,17.5l10,5.8h0c0,0-14.1-12.1-13.4-35.2c0.7-23.1-3-26.2,0-43C314.9,382.2,333,388.1,333,388.1z"/>
	<path class="st8" d="M353.1,382l-31.1,5.5c0,0-4.8,10.5-0.4,20s10.7,8.3,10.7,8.3l34.9-10.2L353.1,382z"/>
	<path class="st9" d="M319.8,399c0,0,16.5,2.1,32.3-4.8c2.7-1.2,4.6-2.5,5.9-3.9l-4.9-8.2l-31.1,5.5
		C322,387.6,319.6,388.3,319.8,399z"/>
	<path class="st11" d="M513,238.2c4.2-3.8,36.1,13.9,63,38.7c22.5,20.8,44,45.6,44,45.6s-7.2-65.5-25.2-92.1s-18-26.6-18-26.6
		s-97.1-14.6-129.7-51.3c0,0-29.3,25.6-16,73.4c8.6,30.9,17.9,60.7,20.8,82.5c-1.8,2.3-2.8,5.3-2.6,8.2c0.2,3.4,1.7,7.3-0.4,10.1
		c-0.8,1.1-2.1,1.7-2.8,2.9c-1.5,2.4-0.3,6-2.4,7.8c-2.4,2-6.4-0.4-8.9,1.4c-2.6,1.9-1.7,6.8-4.6,8c-1.1,0.4-2.3,0.1-3.5,0.2
		c-2.4,0.1-4.5,2.1-5.2,4.4c-31.4,11.3-69.7,19-69.7,19s-7.5,9.2-1.6,28.8c5.9,19.7,15.2,19.5,15.2,19.5s105.5,6.9,138.9-68.9
		S505.2,245.2,513,238.2z"/>
	<path class="st3" d="M447.2,152.4c0,0-29.3,25.6-16,73.4c8.6,30.9,17.9,60.7,20.8,82.5c-1.8,2.3-2.8,5.3-2.6,8.2
		c0.2,3.4,1.7,7.3-0.4,10.1c-0.8,1.1-2.1,1.7-2.8,2.9c-1.5,2.4-0.3,6-2.4,7.8c-2.4,2-6.4-0.4-8.9,1.4c-2.6,1.9-1.7,6.8-4.6,8
		c-1.1,0.4-2.3,0.1-3.5,0.2c-2.4,0.1-4.5,2.1-5.2,4.4c-31.4,11.3-69.7,19-69.7,19s-4.7,5.8-3.7,18c24,4.9,50-0.4,70.1-14.5
		c1.8-1.3,3.7-2.7,5.8-3.3c5-1.4,11.7,1,14.5-3.4c1.4-2.2,1-5.2,2.7-7.1c2.1-2.3,6.2-1.7,8.2-4.1c2.3-2.8,0.2-8.3,3.5-10
		c1-0.5,2.2-0.5,3.3-0.6c7.2-0.7,11-8.9,12.6-16c3.5-15,3.9-30.6,1.2-45.7c-3.9-22.3-14.4-43.2-17.3-65.7
		c-1.5-11.7,0.2-25.6,10.3-31.6c2.2-1.3,5-2.5,5.5-4.9c0.2-1.1-0.1-2.3-0.5-3.4c-1.3-4.2-3-8.2-5-12.1
		C456.9,161.7,451.5,157.3,447.2,152.4z"/>
	<path class="st10" d="M611.6,92.5c0,0-55.5-11.7-96.7,7.9c-41.3,19.6-67.7,52-67.7,52s3.2,31.5,54.5,56.9
		c9.9,4.9,75.2-5.7,75.2-5.7s47.8-34.8,59.8-39.7c38.2-15.6,28.7-44.2,28.7-44.2S639.6,95.7,611.6,92.5z"/>
	<path class="st7" d="M611.6,92.5c0,0-55.5-11.7-96.7,7.9s-67.7,52-67.7,52s1.6,15.9,21,34.3c11.9-19.7,30.3-34.6,48.3-49.1
		c9.9-7.9,20-16,31.8-20.3c9.4-3.4,19.5-4.3,29.5-5.1c12.2-1.1,24.5-2.1,36.7-3.2c-1.2-5.1,0.4-10.8,0.6-16
		C613.9,92.8,612.8,92.6,611.6,92.5z"/>
	<path class="st6" d="M628.4,74c0,0-1.5,10.7-6.2,14.7s-10.6,3.8-10.6,3.8s-9.8,38.3,16.8,39.4s20.3-19.7,20.3-19.7
		S626.1,80.4,628.4,74z"/>
	<path class="st12" d="M677.6,23.9c-13.7-1.2-26.7,8.3-36.9,18.9c-0.5-4.2-2.5-8.8-9.6-5.3c-11,5.5-12.3,25.9-2.4,29.5
		c-3.2,13.8-4,32.6,10.3,43.3c24.6,18.3,58.5-12.1,64.4-45C709.2,32.3,694.2,25.4,677.6,23.9z"/>
	<path class="st13" d="M632.6,131.8c15.5-0.8,17.1-10.5,16.7-16l-27.1-27.1C622.2,88.7,616.7,123.9,632.6,131.8z"/>
	<path class="st6" d="M693.3,35.3c-6.4-3.3-12.8-6.6-19.8-8.3c-3-0.7-6.1-1.1-9.2-1.1c-8.7,3.2-16.7,9.8-23.6,16.9
		c0-0.4-0.1-0.8-0.2-1.2c-0.3,1-0.5,2-0.6,3.1l5.7,8.7c6.2-6,16.4-5,24.5-1.8c8.1,3.2,15.7,8,24.4,8.6c3.5,0.2,7.3-0.5,9.9-2.7
		c0.5-5.9,0.2-10.8-0.7-14.8C700.9,39.6,697,37.3,693.3,35.3z"/>
	<path class="st11" d="M627.4,68.4c-1.2,1.9-1.7,4-2.3,6.2c-2.3,8.4-4.5,17.4-1.7,25.6c3.9,11.5,16.8,17.7,28.9,18.6
		c6.3,0.5,12.8-0.3,18.5-3s21.8-19.4,23.4-25.5c0.5-1.7-10.6,8.1-11.5,6.4c-1.6-3.2-6-3.4-9.4-4.6c-3.2-1.2-5.8-3.8-7.1-6.9
		c-0.6-1.6-0.9-3.4-1.8-4.9c-4.1-7-17.3-4.1-20.4-11.6c-2.2-5.4,2.6-9.1,3.8-13.8c2.3-8.4,1.1-8.9-2.5-7.8c-3.4,1,0,0-8.5,11.8
		C634.4,62.4,629.7,64.6,627.4,68.4z"/>
	<path class="st3" d="M578,249.4c-6.6-11.2-17.1-20.6-29.7-23.9c-5.5-1.4-11.2-1.7-16.9-1.9c-5.5-0.1-11.8,0.2-15.1,4.6
		c-2,2.7-2.3,6.2-1.6,9.6c8.9,0.6,45.8,29.3,74.3,51.5C589,276.2,584.7,260.7,578,249.4z"/>
	<path class="st14" d="M689.7,61.6c0,0-3,31.9-8,37c-5.1,5.1-12.6-2.1-10.8-7.2C672.6,86.3,689.7,61.6,689.7,61.6z"/>
	<path class="st12" d="M582.9,322.5l-12-80.3c0,0-22.2-7.1-29.2,13.6c0,0,5.4,51.2,20,67.7c0,0-1.9,21.1-1.2,29.6
		c0.4,4.5,3.8,10.6,8.9,14.6c6.5,6.2,17.3,12.8,32,8.7c5.9-2.9-2.1-15-7.7-22.3c-3.6-5.5-2.7-11.9-2.7-11.9s12.9,11.8,14.6,9.1
		S582.9,322.5,582.9,322.5z"/>
	<path class="st6" d="M595.2,377.6c-18-6.8-26.5-23.7-27.6-31.1c-1.2-7.9,4-15.7,2.4-23.5c-0.5-2.6-1.7-5-2.8-7.4
		c-3.2-7-5.4-14.3-6.8-21.8c-1.3-6.7-1.4-13.5-2.4-20.2c-1.3-9,0.3-21.4-4.2-24.1c-5.1-3.1-8.2,10.1-11,15.1
		c2.3,15.3,8,46.8,18.8,59c0,0-1.9,21.1-1.2,29.6c0.4,4.5,3.8,10.6,8.9,14.6C574.8,373.1,583.6,378.7,595.2,377.6z"/>
	<path class="st11" d="M730.2,27.1c-4.2-9.6-15.4-14.9-25.9-14c-3.3,0.3-6.6,1.1-9.9,1.9c-1-0.3-2.1-0.7-3-1.2
		c-3.2-1.6-6-3.9-8.9-5.9c-7.6-5-16.7-7.6-25.7-7.4c-5.4,0.2-11.3,1.7-14.2,6.2c-1.1,1.7-1.7,3.8-3.3,5.1c-1.9,1.6-4.6,1.9-6.9,2.8
		c-7.1,2.5-9.2,6.2-8.9,9.5c-0.5,2.5-0.2,5.2,0.1,7.8c0.5,4,1,8.1,1.4,12.1c-0.3-2.3,8.8-6.2,10.7-5.5c4.6,1.5,4.7,8.5,5.7,12.6
		c0.2,0.8,0.4,1.7,1,2.3c1.8,2,5.3,0.3,6.4-2.2c1-2.5,0.7-5.3,1.5-7.9c1.6-5.1,7.6-7.8,13-7.5c5.4,0.3,10.3,2.9,15.2,5.2
		c7.9,3.8,16,7,24.4,9.7c5.4,1.7,11.1,3.3,16.5,1.8C729.4,49.8,734.4,36.7,730.2,27.1z"/>
	<path class="st3" d="M511,378.2l-46.4,49.3c0,0,11.1-3,23.5-1.1c4-3.6,7.7-9.4,11.7-12.7c10.9-9.1,24.9-19.1,35.4-28.9L511,378.2z"
		/>
	<path class="st7" d="M573.1,207.5c-1.7-2.3,1.3-5,2.3-7.7c1-2.7-0.3-5.5-0.9-8.3c-0.2-0.9-0.3-1.9-0.4-2.8
		c10.1-27.3,50.1-97.2,8.8-92.4c-21.1,2.5-45.2,37-47.7,83.7c-2.4,45.9-4.1,74.5,7.8,85.6c0,0,9.8-8.1,17.7-9.2
		c7.9-1.1,13,2.3,13,2.3s-2.1-10.7-3.4-24.3c1-3.7,1.7-7.4,1.4-11.2c-0.1-2-0.6-4,0.2-5.8c0.6-1.4,1.8-2.5,2.7-3.7
		c0.9-1.2,1.4-3,0.5-4.3C574.7,208.7,573.6,208.3,573.1,207.5z"/>
	<path class="st7" d="M506.3,202.8c4.1,0.9,8.4,0.9,12.6,0.9c7.9-0.1,15.7-0.2,23.6-0.3c-0.6-2.9-3.3-5-6.1-5.8
		c-2.8-0.8-5.9-0.6-8.8-0.3c-9.5,0.7-19.4,1.2-28.1-2.7c-10.2-4.6-17.7-17-28.8-19.3c1.8,5.1,11.7,11.7,16,15.6
		C492.5,196.1,498.6,201,506.3,202.8z"/>
	<path class="st7" d="M507.8,192.2c3.6,4.1,8.9,6.6,14.3,6.8c-4.2-2.7-8.5-5.6-11.2-9.8c-1.5-2.4-2.4-5.1-3.8-7.5
		c-2.2-3.8-6.3-7.9-10.7-8.7C496.5,177.9,504.5,188.5,507.8,192.2z"/>
	<path class="st7" d="M617.6,135.8c6.2,2.4,13.1,1.9,19.8,1.4c-1.9,2.5-5.3,3.4-8.4,3.9c-3.2,0.5-6.4,0.8-9.5,0.2
		c-5.7-1-13.8-7.2-14-13.6c-0.1-5.6,1.5-1,3.3,0.8C611.7,131.4,613.5,134.2,617.6,135.8z"/>
	<path class="st3" d="M685.8,17.7c-3.4-1.7-6.4-4.1-9.6-6c-2.1-1.3-4.3-2.4-6.7-3.3c-4.8-1.8-10.2-2.7-15.2-1.2
		c-4.9,1.5-9.2,5.9-9.4,11.1c1.1-1.9,2.9-3.4,4.9-4.1c2.1-0.7,4.4-0.5,6.4,0.4c2.5,1.2,4.3,3.4,6.5,5c1.7,1.2,3.6,2,5.6,2.7
		c4,1.5,8.2,2.7,12.5,3.1c4.3,0.4,8.7-0.2,12.6-2.2c0.8-0.4,1.6-1,2.2-1.7c0.5-0.6,1.1-1.8,0.8-2.6
		C692.7,19.7,689.3,19.4,685.8,17.7z"/>
	<path class="st3" d="M629.2,22.3c-2,1.5-2.4,4.3-2.1,6.7c0.4,2.4,1.5,4.7,2,7.1c0.9-2.6-0.7-6,1.3-7.9c1-1,2.6-1.1,3.9-1.6
		c2.6-1,4.8-4,3.7-6.6C635.4,20.6,631.5,20.6,629.2,22.3z"/>
	<path class="st3" d="M666.5,116.6c0.1-2.5-3-3.6-5.4-4c-5.7-0.8-11.6-1.2-16.9-3.6c-5.3-2.4-9.9-7.4-9.7-13.2c0-2,0.6-4,0.2-6
		c-0.7-2.8-3.4-4.7-4.7-7.4c-2.5-5,0.7-10.9,4.1-15.4c3.3-4.3,7.2-8.9,6.9-14.2c-0.9,1.5-2.2,3.4-3.9,5.9c-2.6,3.6-7.3,5.8-9.6,9.6
		c-1.2,1.9-1.7,4-2.3,6.2c-2.3,8.4-4.5,17.4-1.7,25.6c3.9,11.5,16.8,17.7,28.9,18.6c4.7,0.3,9.5,0,14.1-1.3
		C666.4,117.2,666.5,116.9,666.5,116.6z"/>
	<path class="st3" d="M655,22.7c2,0.7,3.7,2.2,5.4,3.5c1.7,1.3,3.7,2.5,5.8,2.5c1.1,0,2.3-0.2,3.4,0c-3.7,2.8-9.3,2.5-12.7-0.6
		c-1.1-1-2-2.3-3.2-3.3c-1.1-0.9-2.6-1.2-3.8-1.6C651.1,22,653.4,22.1,655,22.7z"/>
	<path class="st3" d="M483.8,345.2c-0.5,3.9-4.3,7.2-8.3,7.1c-1.5,0-3.3-0.4-4.3,0.7c-1.6,1.8,0.9,4.3,3,5.3c2.1,1,4.7,3.1,3.5,5.1
		c-1.3,2.2-5.1,0.6-7,2.3c-1.7,1.5-0.4,4.5,1.6,5.6c3.3,1.7,7.7,0.1,10-2.8c2.3-2.9,3-6.9,3-10.6s-0.6-7.5-0.4-11.2"/>
	<path class="st10" d="M551.7,200.4c4.9-2.1,10.4-4.2,15.5-2.6c0.9,0.3,1.7,0.7,2.6,0.7s1.9-0.3,2.3-1.1c0.2-0.3,0.2-0.7,0.2-1.1
		c0.1-0.9,0.1-1.8-0.4-2.5c-0.6-0.9-1.8-1.3-2.9-1.5c-5.9-1.1-12.2,0.2-17.2,3.4c-2,1.3-4.5,3.5-3.8,6.1
		C549.4,201.4,550.5,200.9,551.7,200.4z"/>
	
		<ellipse transform="matrix(0.2271 -0.9739 0.9739 0.2271 552.1965 971.0582)" class="st10" cx="887.9" cy="137.6" rx="19" ry="9.3"/>
	<path class="st10" d="M551.5,205.3c4.1-0.2,7.8,2.8,11.9,2.6c1,0,2.1-0.3,3.1,0s1.9,1.3,1.6,2.3c-0.3,0.8-1.2,1.1-2,1.2
		c-3.5,0.6-7-0.8-10.4-2c-2.2-0.8-4.7-1.6-7.1-1.4c-1.8,0.1-3.6,1.2-5.3,1C545,207,548.8,205.4,551.5,205.3z"/>
	<path class="st11" d="M850.7,107.4c0,0-5.8,4.7-8.8,15.6c-2.8,10.3,0,19.2,0,19.2l43.5,18.1c0,0-6.7-8.7-1.7-27.2
		c3.1-11.6,10.1-17.1,10.1-17.1L850.7,107.4z"/>
	<path class="st4" d="M890,123.8c0,0,2.2,4.1,1.8,11.1c-0.4,7.1-2.8,12.4-2.8,12.4s6.4-6,6.5-15.2C895.6,125.7,890,123.8,890,123.8z
		"/>
	<path class="st13" d="M788.6,119c0,0-2.6,10,3.7,14.4c6.3,4.3,22.1-3.1,22.1-3.1L788.6,119z"/>
</g>
</svg>
