<?xml version="1.0" encoding="utf-8"?>
<!-- Generator: Adobe Illustrator 21.1.0, SVG Export Plug-In . SVG Version: 6.00 Build 0)  -->
<!DOCTYPE svg PUBLIC "-//W3C//DTD SVG 1.1//EN" "http://www.w3.org/Graphics/SVG/1.1/DTD/svg11.dtd">
<svg version="1.1" id="Layer_1" xmlns="http://www.w3.org/2000/svg" xmlns:xlink="http://www.w3.org/1999/xlink" x="0px" y="0px"
	 viewBox="0 0 1575 590" style="enable-background:new 0 0 1575 590;" xml:space="preserve">
<style type="text/css">
	.st0{fill:#94C4FF;}
	.st1{fill:#88BEFF;}
	.st2{fill:#D1EAFF;}
	.st3{fill:#7AB6FF;}
	.st4{fill:#B8DEFF;}
	.st5{fill:#EDF7FF;}
	.st6{fill:#C7E0FF;}
	.st7{fill:#A1CBFF;}
	.st8{fill:#FFFFFF;}
	.st9{fill:#A8CFFF;}
	.st10{fill:#D1EBFF;}
	.st11{fill:#00C4FF;}
	.st12{fill:#0076FF;}
	.st13{fill:#00E1FF;}
	.st14{fill:#5291FF;}
	.st15{fill:#0064D9;}
	.st16{fill:#FFD8B5;}
	.st17{fill:#00B6ED;}
	.st18{fill:#EDBA96;}
	.st19{fill:#FFE4CC;}
	.st20{fill:#8FBEF7;}
	.st21{fill:#77B0F7;}
	.st22{fill:#F5C59D;}
	.st23{fill:#58AAED;}
	.st24{fill:#7BC1FA;}
	.st25{fill:#9EC9FF;}
	.st26{fill:#94CBF2;}
	.st27{fill:#C2E5FF;}
	.st28{fill:#FFD2A5;}
	.st29{fill:#B0DDFF;}
</style>
<g>
	<path class="st0" d="M373.4,378.2h-51.5c-3.3,0-6,2.7-6,6V525c0,3.3,2.7,6,6,6h51.5V378.2z"/>
	<path class="st1" d="M560.1,502.4c0-0.8,0.7-1.5,1.5-1.5h1.9V384.2c0-3.3-2.7-6-6-6H426.3v4c0,0.8-0.7,1.5-1.5,1.5
		s-1.5-0.7-1.5-1.5v-4h-49.9V531h184.1c3.3,0,6-2.7,6-6v-21.1h-1.9C560.7,503.9,560.1,503.3,560.1,502.4z M423.3,397.2
		c0-0.8,0.7-1.5,1.5-1.5s1.5,0.7,1.5,1.5v9c0,0.8-0.7,1.5-1.5,1.5s-1.5-0.7-1.5-1.5V397.2z M423.3,421.1c0-0.8,0.7-1.5,1.5-1.5
		s1.5,0.7,1.5,1.5v9c0,0.8-0.7,1.5-1.5,1.5s-1.5-0.7-1.5-1.5V421.1z M423.3,445.1c0-0.8,0.7-1.5,1.5-1.5s1.5,0.7,1.5,1.5v9
		c0,0.8-0.7,1.5-1.5,1.5s-1.5-0.7-1.5-1.5V445.1z M423.3,469c0-0.8,0.7-1.5,1.5-1.5s1.5,0.7,1.5,1.5v9c0,0.8-0.7,1.5-1.5,1.5
		s-1.5-0.7-1.5-1.5V469z M428.3,502.1c-0.3,0.4-0.7,0.6-1.2,0.6c-0.3,0-0.6-0.1-0.9-0.3c-1.9-1.4-2.9-3.6-2.9-5.9V493
		c0-0.8,0.7-1.5,1.5-1.5s1.5,0.7,1.5,1.5v3.5c0,1.4,0.6,2.7,1.8,3.6C428.7,500.5,428.8,501.5,428.3,502.1z M450.8,503.9h-9
		c-0.8,0-1.5-0.7-1.5-1.5s0.7-1.5,1.5-1.5h9c0.8,0,1.5,0.7,1.5,1.5S451.6,503.9,450.8,503.9z M474.8,503.9h-9
		c-0.8,0-1.5-0.7-1.5-1.5s0.7-1.5,1.5-1.5h9c0.8,0,1.5,0.7,1.5,1.5S475.6,503.9,474.8,503.9z M498.7,503.9h-9
		c-0.8,0-1.5-0.7-1.5-1.5s0.7-1.5,1.5-1.5h9c0.8,0,1.5,0.7,1.5,1.5S499.5,503.9,498.7,503.9z M522.7,503.9h-9
		c-0.8,0-1.5-0.7-1.5-1.5s0.7-1.5,1.5-1.5h9c0.8,0,1.5,0.7,1.5,1.5S523.5,503.9,522.7,503.9z M546.6,503.9h-9
		c-0.8,0-1.5-0.7-1.5-1.5s0.7-1.5,1.5-1.5h9c0.8,0,1.5,0.7,1.5,1.5S547.4,503.9,546.6,503.9z"/>
	<path class="st2" d="M1031.1,590V55.2c0-5.5-4.5-10-10-10H383.4c-5.5,0-10,4.5-10,10V590H1031.1z"/>
	<path class="st0" d="M1113.8,0.2H761.6c-3.3,0-6,2.7-6,6v39h265.5c5.5,0,10,4.5,10,10v151.2h82.7c3.3,0,6-2.7,6-6V6.2
		C1119.8,2.9,1117.1,0.2,1113.8,0.2z"/>
	<path class="st3" d="M560.1,502.4c0-0.8,0.7-1.5,1.5-1.5h1.9V384.2c0-3.3-2.7-6-6-6H426.3v4c0,0.8-0.7,1.5-1.5,1.5
		s-1.5-0.7-1.5-1.5v-4h-49.9V531h184.1c3.3,0,6-2.7,6-6v-21.1h-1.9C560.7,503.9,560.1,503.3,560.1,502.4z M423.3,397.2
		c0-0.8,0.7-1.5,1.5-1.5s1.5,0.7,1.5,1.5v9c0,0.8-0.7,1.5-1.5,1.5s-1.5-0.7-1.5-1.5V397.2z M423.3,421.1c0-0.8,0.7-1.5,1.5-1.5
		s1.5,0.7,1.5,1.5v9c0,0.8-0.7,1.5-1.5,1.5s-1.5-0.7-1.5-1.5V421.1z M423.3,445.1c0-0.8,0.7-1.5,1.5-1.5s1.5,0.7,1.5,1.5v9
		c0,0.8-0.7,1.5-1.5,1.5s-1.5-0.7-1.5-1.5V445.1z M423.3,469c0-0.8,0.7-1.5,1.5-1.5s1.5,0.7,1.5,1.5v9c0,0.8-0.7,1.5-1.5,1.5
		s-1.5-0.7-1.5-1.5V469z M428.3,502.1c-0.3,0.4-0.7,0.6-1.2,0.6c-0.3,0-0.6-0.1-0.9-0.3c-1.9-1.4-2.9-3.6-2.9-5.9V493
		c0-0.8,0.7-1.5,1.5-1.5s1.5,0.7,1.5,1.5v3.5c0,1.4,0.6,2.7,1.8,3.6C428.7,500.5,428.8,501.5,428.3,502.1z M450.8,503.9h-9
		c-0.8,0-1.5-0.7-1.5-1.5s0.7-1.5,1.5-1.5h9c0.8,0,1.5,0.7,1.5,1.5S451.6,503.9,450.8,503.9z M474.8,503.9h-9
		c-0.8,0-1.5-0.7-1.5-1.5s0.7-1.5,1.5-1.5h9c0.8,0,1.5,0.7,1.5,1.5S475.6,503.9,474.8,503.9z M498.7,503.9h-9
		c-0.8,0-1.5-0.7-1.5-1.5s0.7-1.5,1.5-1.5h9c0.8,0,1.5,0.7,1.5,1.5S499.5,503.9,498.7,503.9z M522.7,503.9h-9
		c-0.8,0-1.5-0.7-1.5-1.5s0.7-1.5,1.5-1.5h9c0.8,0,1.5,0.7,1.5,1.5S523.5,503.9,522.7,503.9z M546.6,503.9h-9
		c-0.8,0-1.5-0.7-1.5-1.5s0.7-1.5,1.5-1.5h9c0.8,0,1.5,0.7,1.5,1.5S547.4,503.9,546.6,503.9z"/>
	<path class="st4" d="M520,103.3H373.4v216.4H520c5.5,0,10-4.5,10-10V113.3C530,107.8,525.5,103.3,520,103.3z"/>
	<path class="st5" d="M730.3,82.4h-9c-0.8,0-1.5,0.7-1.5,1.5s0.7,1.5,1.5,1.5h9c0.8,0,1.5-0.7,1.5-1.5S731.2,82.4,730.3,82.4z"/>
	<path class="st5" d="M726.8,288.6h-9c-0.8,0-1.5,0.7-1.5,1.5s0.7,1.5,1.5,1.5h9c0.8,0,1.5-0.7,1.5-1.5S727.6,288.6,726.8,288.6z"/>
	<path class="st5" d="M750.8,288.6h-9c-0.8,0-1.5,0.7-1.5,1.5s0.7,1.5,1.5,1.5h9c0.8,0,1.5-0.7,1.5-1.5S751.6,288.6,750.8,288.6z"/>
	<path class="st5" d="M682.3,82.4h-9c-0.8,0-1.5,0.7-1.5,1.5s0.7,1.5,1.5,1.5h9c0.8,0,1.5-0.7,1.5-1.5S683.2,82.4,682.3,82.4z"/>
	<path class="st5" d="M706.3,82.4h-9c-0.8,0-1.5,0.7-1.5,1.5s0.7,1.5,1.5,1.5h9c0.8,0,1.5-0.7,1.5-1.5S707.2,82.4,706.3,82.4z"/>
	<path class="st5" d="M918.8,288.6h-9c-0.8,0-1.5,0.7-1.5,1.5s0.7,1.5,1.5,1.5h9c0.8,0,1.5-0.7,1.5-1.5S919.6,288.6,918.8,288.6z"/>
	<path class="st5" d="M702.8,288.6h-9c-0.8,0-1.5,0.7-1.5,1.5s0.7,1.5,1.5,1.5h9c0.8,0,1.5-0.7,1.5-1.5S703.6,288.6,702.8,288.6z"/>
	<path class="st5" d="M894.8,288.6h-9c-0.8,0-1.5,0.7-1.5,1.5s0.7,1.5,1.5,1.5h9c0.8,0,1.5-0.7,1.5-1.5S895.6,288.6,894.8,288.6z"/>
	<path class="st5" d="M870.8,288.6h-9c-0.8,0-1.5,0.7-1.5,1.5s0.7,1.5,1.5,1.5h9c0.8,0,1.5-0.7,1.5-1.5S871.6,288.6,870.8,288.6z"/>
	<path class="st5" d="M846.8,288.6h-9c-0.8,0-1.5,0.7-1.5,1.5s0.7,1.5,1.5,1.5h9c0.8,0,1.5-0.7,1.5-1.5S847.6,288.6,846.8,288.6z"/>
	<path class="st5" d="M798.8,288.6h-9c-0.8,0-1.5,0.7-1.5,1.5s0.7,1.5,1.5,1.5h9c0.8,0,1.5-0.7,1.5-1.5S799.6,288.6,798.8,288.6z"/>
	<path class="st5" d="M822.8,288.6h-9c-0.8,0-1.5,0.7-1.5,1.5s0.7,1.5,1.5,1.5h9c0.8,0,1.5-0.7,1.5-1.5S823.6,288.6,822.8,288.6z"/>
	<path class="st5" d="M658.3,82.4h-9c-0.8,0-1.5,0.7-1.5,1.5s0.7,1.5,1.5,1.5h9c0.8,0,1.5-0.7,1.5-1.5S659.2,82.4,658.3,82.4z"/>
	<path class="st5" d="M632.6,239.3c0.8,0,1.5-0.7,1.5-1.5v-9c0-0.8-0.7-1.5-1.5-1.5s-1.5,0.7-1.5,1.5v9
		C631.1,238.6,631.8,239.3,632.6,239.3z"/>
	<path class="st5" d="M632.6,191.3c0.8,0,1.5-0.7,1.5-1.5v-9c0-0.8-0.7-1.5-1.5-1.5s-1.5,0.7-1.5,1.5v9
		C631.1,190.6,631.8,191.3,632.6,191.3z"/>
	<path class="st5" d="M632.6,215.3c0.8,0,1.5-0.7,1.5-1.5v-9c0-0.8-0.7-1.5-1.5-1.5s-1.5,0.7-1.5,1.5v9
		C631.1,214.6,631.8,215.3,632.6,215.3z"/>
	<path class="st5" d="M678.8,288.6h-9c-0.8,0-1.5,0.7-1.5,1.5s0.7,1.5,1.5,1.5h9c0.8,0,1.5-0.7,1.5-1.5S679.6,288.6,678.8,288.6z"/>
	<path class="st5" d="M632.6,167.3c0.8,0,1.5-0.7,1.5-1.5v-9c0-0.8-0.7-1.5-1.5-1.5s-1.5,0.7-1.5,1.5v9
		C631.1,166.6,631.8,167.3,632.6,167.3z"/>
	<path class="st5" d="M632.6,143.3c0.8,0,1.5-0.7,1.5-1.5v-9c0-0.8-0.7-1.5-1.5-1.5s-1.5,0.7-1.5,1.5v9
		C631.1,142.6,631.8,143.3,632.6,143.3z"/>
	<path class="st5" d="M632.6,119.3c0.8,0,1.5-0.7,1.5-1.5v-9c0-0.8-0.7-1.5-1.5-1.5s-1.5,0.7-1.5,1.5v9
		C631.1,118.6,631.8,119.3,632.6,119.3z"/>
	<path class="st5" d="M654.8,288.6h-9c-0.8,0-1.5,0.7-1.5,1.5s0.7,1.5,1.5,1.5h9c0.8,0,1.5-0.7,1.5-1.5S655.6,288.6,654.8,288.6z"/>
	<path class="st5" d="M633.7,84.3c-1.7,1.4-2.6,3.5-2.6,5.7v3.8c0,0.8,0.7,1.5,1.5,1.5s1.5-0.7,1.5-1.5v-3.8c0-1.3,0.6-2.6,1.6-3.4
		c0.6-0.5,0.7-1.5,0.2-2.1C635.3,83.8,634.3,83.7,633.7,84.3z"/>
	<path class="st5" d="M632.6,263.3c0.8,0,1.5-0.7,1.5-1.5v-9c0-0.8-0.7-1.5-1.5-1.5s-1.5,0.7-1.5,1.5v9
		C631.1,262.6,631.8,263.3,632.6,263.3z"/>
	<path class="st5" d="M634.1,284.1v-7.4c0-0.8-0.7-1.5-1.5-1.5s-1.5,0.7-1.5,1.5v7.4c0,0.7,0.1,1.4,0.3,2c0.2,0.7,0.8,1.1,1.4,1.1
		c0.1,0,0.3,0,0.4-0.1c0.8-0.2,1.3-1.1,1-1.9C634.1,285,634.1,284.6,634.1,284.1z"/>
	<path class="st5" d="M774.8,288.6h-9c-0.8,0-1.5,0.7-1.5,1.5s0.7,1.5,1.5,1.5h9c0.8,0,1.5-0.7,1.5-1.5S775.6,288.6,774.8,288.6z"/>
	<path class="st5" d="M996.8,217.6c-0.8,0-1.5,0.7-1.5,1.5v9c0,0.8,0.7,1.5,1.5,1.5s1.5-0.7,1.5-1.5v-9
		C998.3,218.2,997.6,217.6,996.8,217.6z"/>
	<path class="st5" d="M996.8,241.6c-0.8,0-1.5,0.7-1.5,1.5v9c0,0.8,0.7,1.5,1.5,1.5s1.5-0.7,1.5-1.5v-9
		C998.3,242.2,997.6,241.6,996.8,241.6z"/>
	<path class="st5" d="M942.8,288.6h-9c-0.8,0-1.5,0.7-1.5,1.5s0.7,1.5,1.5,1.5h9c0.8,0,1.5-0.7,1.5-1.5S943.6,288.6,942.8,288.6z"/>
	<path class="st5" d="M754.3,82.4h-9c-0.8,0-1.5,0.7-1.5,1.5s0.7,1.5,1.5,1.5h9c0.5,0,1-0.3,1.2-0.7v-1.7
		C755.3,82.7,754.9,82.4,754.3,82.4z"/>
	<path class="st5" d="M966.8,288.6h-9c-0.8,0-1.5,0.7-1.5,1.5s0.7,1.5,1.5,1.5h9c0.8,0,1.5-0.7,1.5-1.5S967.6,288.6,966.8,288.6z"/>
	<path class="st5" d="M992.6,288.3c-0.6,0.3-1.2,0.4-1.8,0.4h-9c-0.8,0-1.5,0.7-1.5,1.5s0.7,1.5,1.5,1.5h9c1.1,0,2.1-0.2,3-0.6
		c0.8-0.3,1.1-1.2,0.8-2C994.3,288.3,993.4,287.9,992.6,288.3z"/>
	<path class="st5" d="M996.8,265.6c-0.8,0-1.5,0.7-1.5,1.5v9c0,0.8,0.7,1.5,1.5,1.5s1.5-0.7,1.5-1.5v-9
		C998.3,266.2,997.6,265.6,996.8,265.6z"/>
	<path class="st3" d="M1021.1,45.2H755.6v37.9c0.2,0.2,0.3,0.5,0.3,0.8s-0.1,0.6-0.3,0.8v115.6c0,3.3,2.7,6,6,6h269.5V55.2
		C1031.1,49.7,1026.6,45.2,1021.1,45.2z M778.3,85.4h-9c-0.8,0-1.5-0.7-1.5-1.5s0.7-1.5,1.5-1.5h9c0.8,0,1.5,0.7,1.5,1.5
		S779.2,85.4,778.3,85.4z M802.3,85.4h-9c-0.8,0-1.5-0.7-1.5-1.5s0.7-1.5,1.5-1.5h9c0.8,0,1.5,0.7,1.5,1.5S803.2,85.4,802.3,85.4z
		 M826.3,85.4h-9c-0.8,0-1.5-0.7-1.5-1.5s0.7-1.5,1.5-1.5h9c0.8,0,1.5,0.7,1.5,1.5S827.2,85.4,826.3,85.4z M850.3,85.4h-9
		c-0.8,0-1.5-0.7-1.5-1.5s0.7-1.5,1.5-1.5h9c0.8,0,1.5,0.7,1.5,1.5S851.2,85.4,850.3,85.4z M874.3,85.4h-9c-0.8,0-1.5-0.7-1.5-1.5
		s0.7-1.5,1.5-1.5h9c0.8,0,1.5,0.7,1.5,1.5S875.2,85.4,874.3,85.4z M898.3,85.4h-9c-0.8,0-1.5-0.7-1.5-1.5s0.7-1.5,1.5-1.5h9
		c0.8,0,1.5,0.7,1.5,1.5S899.2,85.4,898.3,85.4z M922.3,85.4h-9c-0.8,0-1.5-0.7-1.5-1.5s0.7-1.5,1.5-1.5h9c0.8,0,1.5,0.7,1.5,1.5
		S923.2,85.4,922.3,85.4z M946.3,85.4h-9c-0.8,0-1.5-0.7-1.5-1.5s0.7-1.5,1.5-1.5h9c0.8,0,1.5,0.7,1.5,1.5S947.2,85.4,946.3,85.4z
		 M970.3,85.4h-9c-0.8,0-1.5-0.7-1.5-1.5s0.7-1.5,1.5-1.5h9c0.8,0,1.5,0.7,1.5,1.5S971.2,85.4,970.3,85.4z M994.1,86.5
		c-0.3,0-0.6-0.1-0.8-0.3c-0.7-0.5-1.6-0.8-2.5-0.8h-5.5c-0.8,0-1.5-0.7-1.5-1.5s0.7-1.5,1.5-1.5h5.5c1.5,0,2.9,0.4,4.2,1.3
		c0.7,0.5,0.9,1.4,0.4,2.1C995.1,86.2,994.6,86.5,994.1,86.5z M998.3,204.1c0,0.8-0.7,1.5-1.5,1.5s-1.5-0.7-1.5-1.5v-9
		c0-0.8,0.7-1.5,1.5-1.5s1.5,0.7,1.5,1.5V204.1z M998.3,180.1c0,0.8-0.7,1.5-1.5,1.5s-1.5-0.7-1.5-1.5v-9c0-0.8,0.7-1.5,1.5-1.5
		s1.5,0.7,1.5,1.5V180.1z M998.3,156.1c0,0.8-0.7,1.5-1.5,1.5s-1.5-0.7-1.5-1.5v-9c0-0.8,0.7-1.5,1.5-1.5s1.5,0.7,1.5,1.5V156.1z
		 M998.3,132.1c0,0.8-0.7,1.5-1.5,1.5s-1.5-0.7-1.5-1.5v-9c0-0.8,0.7-1.5,1.5-1.5s1.5,0.7,1.5,1.5V132.1z M998.3,108.1
		c0,0.8-0.7,1.5-1.5,1.5s-1.5-0.7-1.5-1.5v-9c0-0.8,0.7-1.5,1.5-1.5s1.5,0.7,1.5,1.5V108.1z"/>
	<path class="st3" d="M755.6,83.1v1.7c0.2-0.2,0.3-0.5,0.3-0.8S755.7,83.3,755.6,83.1z"/>
	<g>
		<path class="st6" d="M996.8,145.6c-0.8,0-1.5,0.7-1.5,1.5v9c0,0.8,0.7,1.5,1.5,1.5s1.5-0.7,1.5-1.5v-9
			C998.3,146.2,997.6,145.6,996.8,145.6z"/>
		<path class="st6" d="M996.8,169.6c-0.8,0-1.5,0.7-1.5,1.5v9c0,0.8,0.7,1.5,1.5,1.5s1.5-0.7,1.5-1.5v-9
			C998.3,170.2,997.6,169.6,996.8,169.6z"/>
		<path class="st6" d="M996.8,193.6c-0.8,0-1.5,0.7-1.5,1.5v9c0,0.8,0.7,1.5,1.5,1.5s1.5-0.7,1.5-1.5v-9
			C998.3,194.2,997.6,193.6,996.8,193.6z"/>
		<path class="st6" d="M970.3,82.4h-9c-0.8,0-1.5,0.7-1.5,1.5s0.7,1.5,1.5,1.5h9c0.8,0,1.5-0.7,1.5-1.5S971.2,82.4,970.3,82.4z"/>
		<path class="st6" d="M995,83.7c-1.2-0.8-2.7-1.3-4.2-1.3h-5.5c-0.8,0-1.5,0.7-1.5,1.5s0.7,1.5,1.5,1.5h5.5c0.9,0,1.8,0.3,2.5,0.8
			c0.3,0.2,0.5,0.3,0.8,0.3c0.5,0,1-0.2,1.2-0.7C995.8,85.1,995.7,84.2,995,83.7z"/>
		<path class="st6" d="M996.8,121.6c-0.8,0-1.5,0.7-1.5,1.5v9c0,0.8,0.7,1.5,1.5,1.5s1.5-0.7,1.5-1.5v-9
			C998.3,122.2,997.6,121.6,996.8,121.6z"/>
		<path class="st6" d="M996.8,97.6c-0.8,0-1.5,0.7-1.5,1.5v9c0,0.8,0.7,1.5,1.5,1.5s1.5-0.7,1.5-1.5v-9
			C998.3,98.2,997.6,97.6,996.8,97.6z"/>
		<path class="st6" d="M778.3,82.4h-9c-0.8,0-1.5,0.7-1.5,1.5s0.7,1.5,1.5,1.5h9c0.8,0,1.5-0.7,1.5-1.5S779.2,82.4,778.3,82.4z"/>
		<path class="st6" d="M850.3,82.4h-9c-0.8,0-1.5,0.7-1.5,1.5s0.7,1.5,1.5,1.5h9c0.8,0,1.5-0.7,1.5-1.5S851.2,82.4,850.3,82.4z"/>
		<path class="st6" d="M826.3,82.4h-9c-0.8,0-1.5,0.7-1.5,1.5s0.7,1.5,1.5,1.5h9c0.8,0,1.5-0.7,1.5-1.5S827.2,82.4,826.3,82.4z"/>
		<path class="st6" d="M802.3,82.4h-9c-0.8,0-1.5,0.7-1.5,1.5s0.7,1.5,1.5,1.5h9c0.8,0,1.5-0.7,1.5-1.5S803.2,82.4,802.3,82.4z"/>
		<path class="st6" d="M946.3,82.4h-9c-0.8,0-1.5,0.7-1.5,1.5s0.7,1.5,1.5,1.5h9c0.8,0,1.5-0.7,1.5-1.5S947.2,82.4,946.3,82.4z"/>
		<path class="st6" d="M874.3,82.4h-9c-0.8,0-1.5,0.7-1.5,1.5s0.7,1.5,1.5,1.5h9c0.8,0,1.5-0.7,1.5-1.5S875.2,82.4,874.3,82.4z"/>
		<path class="st6" d="M922.3,82.4h-9c-0.8,0-1.5,0.7-1.5,1.5s0.7,1.5,1.5,1.5h9c0.8,0,1.5-0.7,1.5-1.5S923.2,82.4,922.3,82.4z"/>
		<path class="st6" d="M898.3,82.4h-9c-0.8,0-1.5,0.7-1.5,1.5s0.7,1.5,1.5,1.5h9c0.8,0,1.5-0.7,1.5-1.5S899.2,82.4,898.3,82.4z"/>
	</g>
	<path class="st3" d="M990.2,562.8H799.6c-5.5,0-10-4.5-10-10v-181c0-5.5,4.5-10,10-10h190.5c5.5,0,10,4.5,10,10v181
		C1000.2,558.3,995.7,562.8,990.2,562.8z"/>
	<path class="st5" d="M442.7,351.2h9c0.8,0,1.5-0.7,1.5-1.5s-0.7-1.5-1.5-1.5h-9c-0.8,0-1.5,0.7-1.5,1.5S441.9,351.2,442.7,351.2z"
		/>
	<path class="st5" d="M466.7,351.2h9c0.8,0,1.5-0.7,1.5-1.5s-0.7-1.5-1.5-1.5h-9c-0.8,0-1.5,0.7-1.5,1.5S465.8,351.2,466.7,351.2z"
		/>
	<path class="st5" d="M514.6,351.2h9c0.8,0,1.5-0.7,1.5-1.5s-0.7-1.5-1.5-1.5h-9c-0.8,0-1.5,0.7-1.5,1.5S513.7,351.2,514.6,351.2z"
		/>
	<path class="st5" d="M490.6,351.2h9c0.8,0,1.5-0.7,1.5-1.5s-0.7-1.5-1.5-1.5h-9c-0.8,0-1.5,0.7-1.5,1.5S489.8,351.2,490.6,351.2z"
		/>
	<path class="st5" d="M424.8,359.7c0.8,0,1.5-0.7,1.5-1.5v-2.6c0-1.6,0.9-3.1,2.3-3.9c0.7-0.4,1-1.3,0.6-2c-0.4-0.7-1.3-1-2-0.6
		c-2.4,1.3-3.9,3.8-3.9,6.6v2.6C423.3,359.1,423.9,359.7,424.8,359.7z"/>
	<path class="st5" d="M426.3,373.2c0-0.8-0.7-1.5-1.5-1.5s-1.5,0.7-1.5,1.5v5h3V373.2z"/>
	<path class="st5" d="M672.4,480.3c-0.8,0-1.5,0.7-1.5,1.5v9c0,0.8,0.7,1.5,1.5,1.5s1.5-0.7,1.5-1.5v-9
		C673.9,481,673.2,480.3,672.4,480.3z"/>
	<path class="st5" d="M672.4,456.4c-0.8,0-1.5,0.7-1.5,1.5v9c0,0.8,0.7,1.5,1.5,1.5s1.5-0.7,1.5-1.5v-9
		C673.9,457.1,673.2,456.4,672.4,456.4z"/>
	<path class="st5" d="M672.4,432.4c-0.8,0-1.5,0.7-1.5,1.5v9c0,0.8,0.7,1.5,1.5,1.5s1.5-0.7,1.5-1.5v-9
		C673.9,433.1,673.2,432.4,672.4,432.4z"/>
	<path class="st5" d="M667.5,348.2c-0.4-0.1-0.7-0.1-1.1-0.1h-8.1c-0.8,0-1.5,0.7-1.5,1.5s0.7,1.5,1.5,1.5h8.1c0.2,0,0.5,0,0.7,0
		c0.1,0,0.2,0,0.2,0c0.7,0,1.4-0.5,1.5-1.3C668.9,349.1,668.3,348.4,667.5,348.2z"/>
	<path class="st5" d="M666.4,500.9h-9c-0.8,0-1.5,0.7-1.5,1.5s0.7,1.5,1.5,1.5h9.1c0.8,0,1.5-0.7,1.5-1.5S667.2,500.9,666.4,500.9z"
		/>
	<path class="st5" d="M672.4,360.6c-0.8,0-1.5,0.7-1.5,1.5v9c0,0.8,0.7,1.5,1.5,1.5s1.5-0.7,1.5-1.5v-9
		C673.9,361.3,673.2,360.6,672.4,360.6z"/>
	<path class="st5" d="M538.5,351.2h9c0.8,0,1.5-0.7,1.5-1.5s-0.7-1.5-1.5-1.5h-9c-0.8,0-1.5,0.7-1.5,1.5S537.7,351.2,538.5,351.2z"
		/>
	<path class="st5" d="M672.4,384.5c-0.8,0-1.5,0.7-1.5,1.5v9c0,0.8,0.7,1.5,1.5,1.5s1.5-0.7,1.5-1.5v-9
		C673.9,385.2,673.2,384.5,672.4,384.5z"/>
	<path class="st5" d="M672.4,408.5c-0.8,0-1.5,0.7-1.5,1.5v9c0,0.8,0.7,1.5,1.5,1.5s1.5-0.7,1.5-1.5v-9
		C673.9,409.2,673.2,408.5,672.4,408.5z"/>
	<path class="st5" d="M643.3,348.2h-9c-0.8,0-1.5,0.7-1.5,1.5s0.7,1.5,1.5,1.5h9c0.8,0,1.5-0.7,1.5-1.5S644.1,348.2,643.3,348.2z"/>
	<path class="st5" d="M571.4,348.2h-9c-0.8,0-1.5,0.7-1.5,1.5s0.7,1.5,1.5,1.5h9c0.8,0,1.5-0.7,1.5-1.5S572.3,348.2,571.4,348.2z"/>
	<path class="st5" d="M642.4,500.9h-9c-0.8,0-1.5,0.7-1.5,1.5s0.7,1.5,1.5,1.5h9c0.8,0,1.5-0.7,1.5-1.5S643.2,500.9,642.4,500.9z"/>
	<path class="st5" d="M570.6,500.9h-7.1v3h7.1c0.8,0,1.5-0.7,1.5-1.5S571.4,500.9,570.6,500.9z"/>
	<path class="st5" d="M594.5,500.9h-9c-0.8,0-1.5,0.7-1.5,1.5s0.7,1.5,1.5,1.5h9c0.8,0,1.5-0.7,1.5-1.5S595.3,500.9,594.5,500.9z"/>
	<path class="st5" d="M619.3,348.2h-9c-0.8,0-1.5,0.7-1.5,1.5s0.7,1.5,1.5,1.5h9c0.8,0,1.5-0.7,1.5-1.5S620.2,348.2,619.3,348.2z"/>
	<path class="st5" d="M595.4,348.2h-9c-0.8,0-1.5,0.7-1.5,1.5s0.7,1.5,1.5,1.5h9c0.8,0,1.5-0.7,1.5-1.5S596.2,348.2,595.4,348.2z"/>
	<path class="st5" d="M618.5,500.9h-9c-0.8,0-1.5,0.7-1.5,1.5s0.7,1.5,1.5,1.5h9c0.8,0,1.5-0.7,1.5-1.5S619.3,500.9,618.5,500.9z"/>
	<path class="st5" d="M474.8,500.9h-9c-0.8,0-1.5,0.7-1.5,1.5s0.7,1.5,1.5,1.5h9c0.8,0,1.5-0.7,1.5-1.5S475.6,500.9,474.8,500.9z"/>
	<path class="st5" d="M450.8,500.9h-9c-0.8,0-1.5,0.7-1.5,1.5s0.7,1.5,1.5,1.5h9c0.8,0,1.5-0.7,1.5-1.5S451.6,500.9,450.8,500.9z"/>
	<path class="st5" d="M546.6,500.9h-9c-0.8,0-1.5,0.7-1.5,1.5s0.7,1.5,1.5,1.5h9c0.8,0,1.5-0.7,1.5-1.5S547.4,500.9,546.6,500.9z"/>
	<path class="st5" d="M522.7,500.9h-9c-0.8,0-1.5,0.7-1.5,1.5s0.7,1.5,1.5,1.5h9c0.8,0,1.5-0.7,1.5-1.5S523.5,500.9,522.7,500.9z"/>
	<path class="st5" d="M498.7,500.9h-9c-0.8,0-1.5,0.7-1.5,1.5s0.7,1.5,1.5,1.5h9c0.8,0,1.5-0.7,1.5-1.5S499.5,500.9,498.7,500.9z"/>
	<path class="st5" d="M424.8,431.6c0.8,0,1.5-0.7,1.5-1.5v-9c0-0.8-0.7-1.5-1.5-1.5s-1.5,0.7-1.5,1.5v9
		C423.3,430.9,423.9,431.6,424.8,431.6z"/>
	<path class="st5" d="M424.8,383.7c0.8,0,1.5-0.7,1.5-1.5v-4h-3v4C423.3,383,423.9,383.7,424.8,383.7z"/>
	<path class="st5" d="M424.8,407.6c0.8,0,1.5-0.7,1.5-1.5v-9c0-0.8-0.7-1.5-1.5-1.5s-1.5,0.7-1.5,1.5v9
		C423.3,407,423.9,407.6,424.8,407.6z"/>
	<path class="st5" d="M428,500c-1.1-0.9-1.8-2.2-1.8-3.6V493c0-0.8-0.7-1.5-1.5-1.5s-1.5,0.7-1.5,1.5v3.5c0,2.3,1.1,4.5,2.9,5.9
		c0.3,0.2,0.6,0.3,0.9,0.3c0.4,0,0.9-0.2,1.2-0.6C428.8,501.5,428.7,500.5,428,500z"/>
	<path class="st5" d="M424.8,455.5c0.8,0,1.5-0.7,1.5-1.5v-9c0-0.8-0.7-1.5-1.5-1.5s-1.5,0.7-1.5,1.5v9
		C423.3,454.9,423.9,455.5,424.8,455.5z"/>
	<path class="st5" d="M424.8,479.5c0.8,0,1.5-0.7,1.5-1.5v-9c0-0.8-0.7-1.5-1.5-1.5s-1.5,0.7-1.5,1.5v9
		C423.3,478.8,423.9,479.5,424.8,479.5z"/>
	<path class="st5" d="M561.6,500.9c-0.8,0-1.5,0.7-1.5,1.5s0.7,1.5,1.5,1.5h1.9v-3H561.6z"/>
	<g>
		<path class="st7" d="M474.8,500.9h-9c-0.8,0-1.5,0.7-1.5,1.5s0.7,1.5,1.5,1.5h9c0.8,0,1.5-0.7,1.5-1.5S475.6,500.9,474.8,500.9z"
			/>
		<path class="st7" d="M450.8,500.9h-9c-0.8,0-1.5,0.7-1.5,1.5s0.7,1.5,1.5,1.5h9c0.8,0,1.5-0.7,1.5-1.5S451.6,500.9,450.8,500.9z"
			/>
		<path class="st7" d="M546.6,500.9h-9c-0.8,0-1.5,0.7-1.5,1.5s0.7,1.5,1.5,1.5h9c0.8,0,1.5-0.7,1.5-1.5S547.4,500.9,546.6,500.9z"
			/>
		<path class="st7" d="M522.7,500.9h-9c-0.8,0-1.5,0.7-1.5,1.5s0.7,1.5,1.5,1.5h9c0.8,0,1.5-0.7,1.5-1.5S523.5,500.9,522.7,500.9z"
			/>
		<path class="st7" d="M498.7,500.9h-9c-0.8,0-1.5,0.7-1.5,1.5s0.7,1.5,1.5,1.5h9c0.8,0,1.5-0.7,1.5-1.5S499.5,500.9,498.7,500.9z"
			/>
		<path class="st7" d="M424.8,431.6c0.8,0,1.5-0.7,1.5-1.5v-9c0-0.8-0.7-1.5-1.5-1.5s-1.5,0.7-1.5,1.5v9
			C423.3,430.9,423.9,431.6,424.8,431.6z"/>
		<path class="st7" d="M424.8,383.7c0.8,0,1.5-0.7,1.5-1.5v-4h-3v4C423.3,383,423.9,383.7,424.8,383.7z"/>
		<path class="st7" d="M424.8,407.6c0.8,0,1.5-0.7,1.5-1.5v-9c0-0.8-0.7-1.5-1.5-1.5s-1.5,0.7-1.5,1.5v9
			C423.3,407,423.9,407.6,424.8,407.6z"/>
		<path class="st7" d="M428,500c-1.1-0.9-1.8-2.2-1.8-3.6V493c0-0.8-0.7-1.5-1.5-1.5s-1.5,0.7-1.5,1.5v3.5c0,2.3,1.1,4.5,2.9,5.9
			c0.3,0.2,0.6,0.3,0.9,0.3c0.4,0,0.9-0.2,1.2-0.6C428.8,501.5,428.7,500.5,428,500z"/>
		<path class="st7" d="M424.8,455.5c0.8,0,1.5-0.7,1.5-1.5v-9c0-0.8-0.7-1.5-1.5-1.5s-1.5,0.7-1.5,1.5v9
			C423.3,454.9,423.9,455.5,424.8,455.5z"/>
		<path class="st7" d="M424.8,479.5c0.8,0,1.5-0.7,1.5-1.5v-9c0-0.8-0.7-1.5-1.5-1.5s-1.5,0.7-1.5,1.5v9
			C423.3,478.8,423.9,479.5,424.8,479.5z"/>
		<path class="st7" d="M561.6,500.9c-0.8,0-1.5,0.7-1.5,1.5s0.7,1.5,1.5,1.5h1.9v-3H561.6z"/>
	</g>
	<g>
		<path class="st8" d="M979.2,395H805.7c-2.2,0-4-1.8-4-4v-0.3c0-2.2,1.8-4,4-4h173.5c2.2,0,4,1.8,4,4v0.3
			C983.2,393.2,981.4,395,979.2,395z"/>
		<path class="st9" d="M933.7,395.2h-128c-2.2,0-4-1.8-4-4v-0.5c0-2.2,1.8-4,4-4h128c2.2,0,4,1.8,4,4v0.5
			C937.7,393.4,935.9,395.2,933.7,395.2z"/>
	</g>
	<path class="st10" d="M373.4,103.3H232.3c-5.5,0-10,4.5-10,10v196.4c0,5.5,4.5,10,10,10h141.1V103.3z"/>
	<path class="st11" d="M399.1,149.5H269c-4.7,0-8.5-3.8-8.5-8.5v0c0-4.7,3.8-8.5,8.5-8.5h130.1c4.7,0,8.5,3.8,8.5,8.5v0
		C407.5,145.7,403.7,149.5,399.1,149.5z"/>
	<path class="st11" d="M438.5,258h-85.9c-4.7,0-8.5-3.8-8.5-8.5v0c0-4.7,3.8-8.5,8.5-8.5h85.9c4.7,0,8.5,3.8,8.5,8.5v0
		C447,254.2,443.2,258,438.5,258z"/>
	<path class="st12" d="M475.4,149.5h-49.3c-4.7,0-8.5-3.8-8.5-8.5v0c0-4.7,3.8-8.5,8.5-8.5h49.3c4.7,0,8.5,3.8,8.5,8.5v0
		C483.8,145.7,480,149.5,475.4,149.5z"/>
	<path class="st12" d="M321.2,293.4h-49.3c-4.7,0-8.5-3.8-8.5-8.5v0c0-4.7,3.8-8.5,8.5-8.5h49.3c4.7,0,8.5,3.8,8.5,8.5v0
		C329.6,289.6,325.8,293.4,321.2,293.4z"/>
	<path class="st11" d="M334.1,187.5H269c-4.7,0-8.5-3.8-8.5-8.5v0c0-4.7,3.8-8.5,8.5-8.5l65.1,0c4.7,0,8.5,3.8,8.5,8.5v0
		C342.5,183.7,338.7,187.5,334.1,187.5z"/>
	<path class="st8" d="M450.7,187.5h-86.3c-4.7,0-8.5-3.8-8.5-8.5v0c0-4.7,3.8-8.5,8.5-8.5h86.3c4.7,0,8.5,3.8,8.5,8.5v0
		C459.1,183.7,455.3,187.5,450.7,187.5z"/>
	<path class="st12" d="M399.1,225.5H269c-4.7,0-8.5-3.8-8.5-8.5v0c0-4.7,3.8-8.5,8.5-8.5h130.1c4.7,0,8.5,3.8,8.5,8.5v0
		C407.5,221.7,403.7,225.5,399.1,225.5z"/>
	<path class="st11" d="M475.4,225.5h-49.3c-4.7,0-8.5-3.8-8.5-8.5v0c0-4.7,3.8-8.5,8.5-8.5h49.3c4.7,0,8.5,3.8,8.5,8.5v0
		C483.8,221.7,480,225.5,475.4,225.5z"/>
	<path class="st8" d="M320.1,256.3h-49.3c-4.7,0-8.5-3.8-8.5-8.5v0c0-4.7,3.8-8.5,8.5-8.5h49.3c4.7,0,8.5,3.8,8.5,8.5v0
		C328.6,252.5,324.8,256.3,320.1,256.3z"/>
	<circle class="st8" cx="401.5" cy="63" r="6"/>
	<circle class="st8" cx="423.6" cy="63" r="6"/>
	<circle class="st8" cx="445.7" cy="63" r="6"/>
	<g>
		<g>
			<path class="st12" d="M885.3,529.9c-21.3-3.6-38.8-18.5-45.8-38.9c-5.1-14.9-4.1-30.8,2.8-45c6.9-14.1,18.9-24.7,33.8-29.8
				c14.9-5.1,30.8-4.1,45,2.8c14.1,6.9,24.7,18.9,29.8,33.8c1.3,3.8,2.2,7.7,2.7,11.6l-9.9,1.3c-0.4-3.3-1.2-6.5-2.3-9.6
				c-8.7-25.5-36.6-39.1-62.1-30.3c-12.3,4.2-22.3,13-28,24.7c-5.7,11.7-6.6,25-2.3,37.3c5.8,16.9,20.4,29.3,38,32.3L885.3,529.9z"
				/>
			<path class="st13" d="M909.4,508.2l-3.9-9.2c10.3-4.4,17-14.5,17-25.7c0-15.4-12.5-27.9-27.9-27.9c-7.5,0-14.6,3-19.9,8.3l-7.1-7
				c7.2-7.3,16.8-11.3,27-11.3c20.9,0,37.9,17,37.9,37.9C932.5,488.6,923.4,502.2,909.4,508.2z"/>
		</g>
		<circle class="st5" cx="894.9" cy="471.5" r="9.3"/>
	</g>
	<path class="st14" d="M1038.8,31H901.3c-2.2,0-4-1.8-4-4v0c0-2.2,1.8-4,4-4h137.5c2.2,0,4,1.8,4,4v0C1042.8,29.2,1041,31,1038.8,31
		z"/>
	<path class="st14" d="M951.1,53.5h-49.8c-2.2,0-4-1.8-4-4v0c0-2.2,1.8-4,4-4h49.8c2.2,0,4,1.8,4,4v0
		C955.1,51.7,953.3,53.5,951.1,53.5z"/>
	<path class="st14" d="M1017.4,53.5h-49.8c-2.2,0-4-1.8-4-4v0c0-2.2,1.8-4,4-4h49.8c2.2,0,4,1.8,4,4v0
		C1021.4,51.7,1019.6,53.5,1017.4,53.5z"/>
	<circle class="st5" cx="880.3" cy="27" r="5.1"/>
	<circle class="st5" cx="880.3" cy="49.5" r="5.1"/>
	<path class="st14" d="M983.6,79.9h-82.3c-2.2,0-4-1.8-4-4v0c0-2.2,1.8-4,4-4h82.3c2.2,0,4,1.8,4,4v0
		C987.6,78.1,985.8,79.9,983.6,79.9z"/>
	<path class="st14" d="M528.8,413.4H421.6c-2.2,0-4-1.8-4-4l0,0c0-2.2,1.8-4,4-4h107.2c2.2,0,4,1.8,4,4l0,0
		C532.8,411.6,531,413.4,528.8,413.4z"/>
	<path class="st14" d="M440.2,435.8h-49.8c-2.2,0-4-1.8-4-4v0c0-2.2,1.8-4,4-4h49.8c2.2,0,4,1.8,4,4v0
		C444.2,434,442.4,435.8,440.2,435.8z"/>
	<path class="st8" d="M519.5,435.8h-49.8c-2.2,0-4-1.8-4-4v0c0-2.2,1.8-4,4-4h49.8c2.2,0,4,1.8,4,4v0
		C523.5,434,521.7,435.8,519.5,435.8z"/>
	<path class="st8" d="M403.5,413.4h-13.1c-2.2,0-4-1.8-4-4l0,0c0-2.2,1.8-4,4-4h13.1c2.2,0,4,1.8,4,4l0,0
		C407.5,411.6,405.7,413.4,403.5,413.4z"/>
	<path class="st8" d="M520,462.2h-13.1c-2.2,0-4-1.8-4-4l0,0c0-2.2,1.8-4,4-4H520c2.2,0,4,1.8,4,4l0,0
		C524,460.4,522.2,462.2,520,462.2z"/>
	<path class="st8" d="M402.1,512.9H389c-2.2,0-4-1.8-4-4v0c0-2.2,1.8-4,4-4h13.1c2.2,0,4,1.8,4,4v0
		C406.1,511.1,404.3,512.9,402.1,512.9z"/>
	<path class="st8" d="M431.3,512.9h-13.1c-2.2,0-4-1.8-4-4v0c0-2.2,1.8-4,4-4h13.1c2.2,0,4,1.8,4,4v0
		C435.3,511.1,433.5,512.9,431.3,512.9z"/>
	<path class="st14" d="M544.6,491.5h-49.8c-2.2,0-4-1.8-4-4v0c0-2.2,1.8-4,4-4h49.8c2.2,0,4,1.8,4,4v0
		C548.6,489.7,546.8,491.5,544.6,491.5z"/>
	<path class="st14" d="M492.8,462.2h-82.3c-2.2,0-4-1.8-4-4l0,0c0-2.2,1.8-4,4-4h82.3c2.2,0,4,1.8,4,4l0,0
		C496.8,460.4,495,462.2,492.8,462.2z"/>
	<path class="st14" d="M470.8,491.5h-82.3c-2.2,0-4-1.8-4-4v0c0-2.2,1.8-4,4-4h82.3c2.2,0,4,1.8,4,4v0
		C474.8,489.7,473,491.5,470.8,491.5z"/>
	<circle class="st5" cx="880.3" cy="75.9" r="5.1"/>
	<rect x="329.6" y="390.9" class="st14" width="38.9" height="127.2"/>
	<rect x="780.5" y="19.5" class="st5" width="68.4" height="68.4"/>
	<rect x="778.1" y="103.3" class="st14" width="322.9" height="83.8"/>
	<path class="st12" d="M1090,175.5c-14.7,0-21.4-11.1-28.6-22.8c-9-14.7-18.3-30-44.4-30c-18.1,0-30.7,11.5-44.1,23.6
		c-13.9,12.6-28.2,25.5-49.2,25.5c-19.4,0-30.9-10.5-42.1-20.7c-11.4-10.4-22.2-20.2-41.3-20.2c-24,0-46.3,31.7-46.6,32
		c-0.8,1.1-2.3,1.4-3.5,0.6c-1.1-0.8-1.4-2.3-0.6-3.5c1-1.4,24-34.2,50.7-34.2c21,0,33,11,44.7,21.6c10.9,10,21.3,19.4,38.7,19.4
		c19.1,0,32.1-11.8,45.9-24.2c13.5-12.2,27.5-24.9,47.5-24.9c29,0,39.9,18,48.7,32.4c7.1,11.6,12.6,20.8,25,20.4c0,0,0.1,0,0.1,0
		c1.3,0,2.5,1.1,2.5,2.4c0,1.4-1,2.5-2.4,2.6C1090.6,175.4,1090.3,175.5,1090,175.5z"/>
	<path class="st13" d="M796.1,173.1c-0.4,0-0.8-0.1-1.2-0.3c-1.2-0.7-1.6-2.2-0.9-3.4c0.3-0.5,7.5-13.1,21-25.8
		c18.1-16.9,38.9-25.9,60.3-25.9c29,0,46.4,13,61.9,24.4c13.1,9.7,24.5,18.2,40.6,17.7c20.8-0.5,29.6-9.7,39.7-20.4
		c12.3-12.9,26.2-27.5,64-29.3c1.4-0.1,2.5,1,2.6,2.4c0.1,1.4-1,2.5-2.4,2.6c-35.8,1.7-48.4,14.9-60.6,27.7
		c-10.4,11-20.3,21.3-43.2,21.9c-17.9,0.5-30.4-8.9-43.7-18.7c-15.5-11.5-31.6-23.4-58.9-23.4c-48.6,0-76.7,48.7-77,49.2
		C797.8,172.6,797,173.1,796.1,173.1z"/>
	<g>
		<path class="st15" d="M110.2,181.3c-7.5,8.3-5.8,21-7,32.1c-1.4,13-7.5,25.6-17.7,33.8s-24.4,11.4-36.8,7.4
			c6.5,1.2,13.2-0.8,19.1-3.7c5.4-2.7,10.6-6.2,14.3-11c3.1-4.1,5.1-8.9,7.1-13.6c5-12.2,10.1-24.4,15.1-36.6"/>
		<path class="st16" d="M230,128.4c0,0,25.1-29,35.6-34.2c10.5-5.1,35.3-10.7,50.3-0.8c13.5,8.8-2.2,16.4-13.3,13.9
			c-11.1-2.5-14.5-2.9-17.2-0.5c-2.7,2.4,4.4,2,9.8,5.5s5.8,6.7,1.1,5.6c-4.8-1.1-10.7-3.8-25.4-5.4c-11.1,5.3-27.3,31.7-27.3,31.7
			S227.4,141,230,128.4z"/>
		<path class="st17" d="M189.5,175c22.6-26,23.3-22.8,40.5-46.6c0.7,10.7,6.7,12.6,13.6,15.6c1.6,0.7-43.2,60.8-76.9,88.4
			c-9.3,7.7-14.4,23.4-27.8,20.1c-9.5-2.4-26.6-12.4-20.7-21.4c5.3-8,26.8-22.2,34.9-29.1C164.7,192.1,178.8,187.3,189.5,175z"/>
		<path class="st15" d="M191.6,129.7c1.5,2.6,1.8,5.6,2.2,8.5c0.2,1.8,0.5,3.6,0.7,5.5c0.2,1.8,0.1,4.2-1.7,4.6
			c-1.3,0.3-2.5-0.6-3.4-1.5c-3.3-3.2-6.7-6.6-7.6-11c-1-5,0.3-12.1,3.8-11.8C187.1,124,190.2,127.2,191.6,129.7z"/>
		<path class="st18" d="M193.3,148c0,0,9.3,21.5,10.3,27.9c1.1,6.4-11.6,6-11.6,6L193.3,148z"/>
		<path class="st16" d="M195.2,145.2c-8.6-26.6-21.1-25.5-34.6-24.2c-16.9,1.6-25.9,16.9-29.3,34.4c-2.1,10.9,1.3,29.7,12.5,41.8
			c0.4,6.9,0.6,20.6-3,24.2l30,18.5c0,0-3.2-23.2-0.2-31.4c0.9,0,1.9,0,2.9-0.1C192.8,207,203.7,171.8,195.2,145.2z"/>
		<path class="st12" d="M185.6,123.9c0,0,0.2,8.9-5.2,16.5s-7.7,16.3-7.7,16.3s-16.6-3.2-14.2,9.5c2.4,12.7,10.9,7.8,10.9,7.8
			s-1.5,17.8-12.6,24.3c-6.4,3.7-14.9,2.3-14.9,2.3s-22.1-10.3-23-37.4S144.4,106.7,185.6,123.9z"/>
		<path class="st11" d="M118.2,231.1c0,0,11.2-9.3,22.4-9.7c11.2-0.3,35.9,7.5,46.4,16.2c10.5,8.7,18.4,26.1,16.5,41.3
			c-1.9,15.3-8.1,47.7-10.7,58.4c-3.2,13.1-0.6,25.5-0.6,25.5s-32.8,19.7-55.7,13.9c-22.9-5.8-28.9-12.6-28.9-12.6
			s12.9-33.2,8.1-55.5C109,277.8,111.5,236,118.2,231.1z"/>
		<path class="st15" d="M168.3,180.1c-6.4,2.7-13.5,3.8-20.3,2.6c-7.5-1.4-14.6-6.1-18-12.9c-2.8-5.7-7.1-17.3-3.1-32
			c0.1-0.2-0.4-0.1-0.6-0.1c-5,7.6-7.6,16.7-7.3,25.5c0.9,27.2,23,37.4,23,37.4s8.6,1.4,14.9-2.3
			C163.7,194.3,166.9,185.9,168.3,180.1z"/>
		<path class="st19" d="M340.9,222c-5.9-6.5-12.4,0.2-18.1,5.6c-3.1,2.9-7.6,5.1-11.6,7.6c0.3-2.1,0.7-5,1.2-7.6c1-4.9,3.1-8.3,0-11
			s-4.3,8.8-6.5,13.8c-5.5,12-5.4,26.7-5.4,26.7s-0.2,0.4-0.4,1c-4.3,10-19.6,25.7-19.6,25.7s8,26.2,10.9,21.6
			c2.9-4.6,18.3-44.4,18.3-44.4C324,254.3,346.7,228.5,340.9,222z"/>
		<path class="st20" d="M147.4,523.7l14.2,66.3h49c0,0,6-78.7-3.1-106.7C198.4,455.2,147.4,523.7,147.4,523.7z"/>
		<path class="st20" d="M103.4,511.8l-50,78.2c-8.5,0-53.3,0-53.3,0s42.3-99.3,53.3-113C64.4,463.3,103.4,511.8,103.4,511.8z"/>
		<path class="st21" d="M95.7,502.9l-49.2-14.6C30.6,518.2,0,590,0,590s15,0,29.2,0l38.2-67.8c7.5,3.8,15.9,6.6,24.8,7l11.1-17.3
			C103.4,511.8,100.3,508,95.7,502.9z"/>
		<path class="st21" d="M184.4,590l-5.4-53.9c11.8-1.2,23.8-4.3,33.3-10.4c-0.2-7-0.5-13.8-1.1-20.2l-52.8,4.3
			c-6.6,7.8-11.1,13.9-11.1,13.9l14.2,66.3H184.4z"/>
		<path class="st11" d="M175.7,232.8c-15.5,4.7-7.6,28.6-1.7,46.5c5.8,17.9,21.1,52.7,64.1,56.6c43,3.9,57.5-40.1,57.5-40.1
			s-13.4-3.3-15.2-12c0,0-25.1,27.8-39.1,25c-14.1-2.8-27.7-19.6-32.9-32.5C203.1,263.4,190.2,228.5,175.7,232.8z"/>
		<path class="st12" d="M107.6,364.1L43.3,493c0,0,38.2,31.7,104,30.7s77.5-15.2,77.5-15.2l-32.6-145.6c0,0-33.5,8.7-51.7,7.6
			S107.6,364.1,107.6,364.1z"/>
		<path class="st11" d="M120.1,164l-0.2,5.1c0,0,1.6,5.4,5.8,4.3c4.2-1.1,4.1-7.3,2.2-9.7S122.9,160.5,120.1,164z"/>
		<path class="st15" d="M160.2,369.2c-7.1,1-14.1,1.6-19.7,1.2c-18.2-1.1-32.9-6.4-32.9-6.4L43.3,493c0,0,8,6.6,22.9,13.7
			c10.2-34.6,34.8-85.9,47.2-108.6C126.4,374.3,160.2,369.2,160.2,369.2L160.2,369.2z"/>
		<path class="st16" d="M168.6,157.2c0,0-11.5-4.3-10.1,9c1.4,13.3,12.5,14,12.5,14"/>
		<path class="st12" d="M53.6,216.5c-17,13.1-34.3,12.3-48.2,1.7c0,0,10.1,27.1,34,30c23.9,2.9,45.1-6.2,53.7-21.6
			s16.8-57.9,30.9-59.2c0,0-7.2-7.7-25.7,3.3C79.9,181.7,70.7,203.4,53.6,216.5"/>
		<path class="st12" d="M166,139.3c0.8,10.2,5.8,11.3,7.5,24.6c1.2,9.4-2,22.5,1.2,31.4c2.5-9,5-17.9,7.5-26.9
			c1.4-5,1.3-10.6,3.5-15.3c3.2-6.9,4-27.7,0-29.2"/>
		<path class="st17" d="M168.2,239.3c-4.3,9.5,1.4,26.5,5.8,40c4.9,15.1,16.5,42.2,45.7,52.6c8.9,1.5,17.6,3,25,4.2
			c0.9,0,1.7-0.1,2.6-0.1C193.9,325.8,173.5,260.7,168.2,239.3z"/>
		<path class="st15" d="M93.8,181.5c-3.6,5-5.9,10.9-9.2,16.2c-7.1,11.7-23.8,27.2-37,30.8c12.3,3.4,30.3-10.7,38.5-20.5
			c10.3-12.3,15.2-31.9,29.2-40.5C106.8,169.2,98.9,174.4,93.8,181.5z"/>
		<path class="st15" d="M30.4,233c2.5,1.6,4.6,3.7,7,5.3c5,3.4,11.2,4.7,17.3,4.5c6.4-0.2,12.8-2.1,17.7-6.1
			c4.9-4,8.1-10.4,7.4-16.7c-3,4.7-6.7,9-11.3,12.1c-4.6,3.1-10.4,4.8-15.9,3.9c-4-0.6-7.7-2.6-11.6-3.9c-5.2-1.7-11.6-2.8-16.9-1.5
			C26.2,231,28.5,231.7,30.4,233z"/>
		<path class="st22" d="M173.6,205c-3.4-1.3-6.4-3.4-9.2-5.7c-0.8-0.6-1.7-1.3-2.6-1.1c-1.4,0.3-1.6,2.2-1.5,3.6
			c0.5,4.4,3.4,16.7,8.7,18c0,0,0.1,0,0.1,0c0-4.4,0.3-8.6,1.3-11.2c0.9,0,1.9,0,2.9-0.1c2.7-0.2,5.1-1,7.4-2.4
			C178.3,206.3,175.9,205.8,173.6,205z"/>
		<path class="st17" d="M140.6,221.4c-11.2,0.3-22.4,9.7-22.4,9.7c-6.7,5-9.2,46.7-2.5,77.5c4.7,21.4-7,52.6-8,55.3
			c0,0,3.2,2.1,10.3,3.6s12.6,1.9,12.6,1.9s13.3-41.4,10-55.2c-3.3-13.8-14.7-31.1-13.7-55C128,235.3,140.6,221.4,140.6,221.4z"/>
		<polygon class="st15" points="138.5,408.3 129.2,416.3 105.4,504.4 103.4,511.8 		"/>
		<polygon class="st15" points="160.2,396.1 170.5,515.8 177.2,505.4 166.7,404.2 		"/>
		<polygon class="st15" points="181.5,421 203.7,511.8 188.4,429 		"/>
	</g>
	<g>
		<path class="st23" d="M1367.1,531.7c1.9-29.5,10.5-90.5,10.5-90.5l51.7,21.8c29.9-3.4,59.8-6.8,89.8-10.3
			c28.1-3.2,24.7,30.2,30.9,48.8c10,30,21.5,58.6,22.1,87.7H1482c-6.6-15.3-13.3-31.3-17.8-46.4l0,0c0,0,0,0,0,0
			c-1.1-3.6-2.1-7.2-2.9-10.7c-2.6-7.9-6.9-17.3-12.6-16.9c-3.4,0.2-5.3,5.6-6.4,12.6v61.3l-75.9,0.7
			C1366.3,590,1365.5,557.4,1367.1,531.7z"/>
		<path class="st24" d="M1509.1,535.4c17.5,22.9,22.4,46.8,23.5,53.9H1482c-6.6-15.3-13.3-31.3-17.8-46.4l0,0c0,0,0,0,0,0
			c-1.1-3.6-2.1-7.2-2.9-10.7c-1.5-4.4-3.4-9.2-5.9-12.6C1455.4,519.6,1488.2,508,1509.1,535.4z"/>
		<path class="st24" d="M1373.2,474.4c8.9,1.8,22.5,17.6,31,38.8c10.2,25.5,23.9,75.9,23.9,75.9l-1.6,0.3l-60.2,0.6
			c0,0-0.8-32.6,0.8-58.3C1368.1,516.7,1370.8,493.5,1373.2,474.4z"/>
		<polygon class="st16" points="1363.3,293.3 1357.5,341.9 1384.7,367.7 1387.9,326.1 1388.5,299.2 		"/>
		<path class="st20" d="M1390,219c0,0-14.5,7.5-19.7,30.3c-5.2,22.8-12.8,44-12.8,44s19,7.8,25.5,6.7S1390,219,1390,219z"/>
		<path class="st16" d="M1431.4,200.6c0,0,0,27.7-1.5,37.3c4,9.6,23.8,1.7,38.4-0.2c14.6-1.9,16.9-20.1,7.4-28.1
			c4.8-10.7,9-29.2,9-29.2L1431.4,200.6z"/>
		<path class="st22" d="M1431.2,217.4c0.1-5.6,0.2-10.7,0.2-13.8l51.5-18.1c0,0-23,35.4-38.2,37.4
			C1438.5,223.7,1434.1,221,1431.2,217.4z"/>
		<path class="st25" d="M1478.3,204.3c0,0-13.7,23.9-32.6,25.4c-15.1,1.1-14.3-26-14.3-26s-27.9,5.2-41.4,15.4
			c-10.6,7.9-12,104.8-12,104.8s-2.4,40.8-4.9,53.3c-7.1,34.5,2.7,78.4,0.7,87.5c-2,9.1,59.4,20.1,96.2,16.7
			c36.8-3.3,77.8-24.4,77.8-24.4s-0.6-18.8-8.4-26.8c-6.8-7,0.4-25.5-5.8-33.9c-6.2-8.4-9.9-65.8-8.7-78.9
			c1.2-13.1-8.9-90.4-8.9-90.4S1512.7,221.9,1478.3,204.3z"/>
		<path class="st19" d="M1553.9,286c0,0,14.7,31.5,20.2,52.3c5.5,20.8-16.4,34.5-43.4,36.2c-27,1.7-146-6.8-146-6.8
			s1.6-11.9,17.2-18.9c15.6-7,32.5,1.9,43.8,2.5s34.8-6.7,53.4-8s24.8-7.5,24.8-7.5l-15.1-23L1553.9,286z"/>
		<path class="st20" d="M1373.7,464.6c2-9.1-7.8-53-0.7-87.5c0.3-1.6,0.7-3.7,1-6.2c2.2,3.7,4.2,7.5,7,10.8
			c12.4,15.1,34.7,17.1,51.3,27.5c10.9,6.9,19,17.2,27.9,26.5c8.9,9.3,19.4,18,32.1,20.1c18.3,3,36.5-8.6,54.8-7
			c0.7,4.6,0.8,8,0.8,8s-41,21.1-77.8,24.4C1433.1,484.6,1371.7,473.6,1373.7,464.6z"/>
		<path class="st16" d="M1530.7,374.5c-11,0.7-37.1-0.3-64.4-1.7c32.4-3.5,87.8-11.5,95.4-26.2c10.9-20.9-10.5-53.3-10.5-53.3
			l2.6-7.3c0,0,14.7,31.5,20.2,52.3C1579.6,359.1,1557.7,372.8,1530.7,374.5z"/>
		<path class="st25" d="M1561.8,286c0,0-25.2,32.8-53,26.8c0,0-25.7-49.8-15.7-73.8c10-24.1,30.1-13.3,43-1
			C1549,250.3,1561.8,286,1561.8,286z"/>
		
			<rect x="1245.9" y="375.1" transform="matrix(-1 -4.487578e-11 4.487578e-11 -1 2693.9932 770.3388)" class="st8" width="202.1" height="20.2"/>
		<polygon class="st8" points="1228.7,590 1294,395.4 1283.3,395.4 1217.7,590 		"/>
		<polygon class="st8" points="1457.9,589.3 1393.1,395.4 1403.7,395.4 1469.1,589.3 		"/>
		<path class="st26" d="M1342.1,374.9c0,0,94.9,0,100.8,0s7.4-8.7,7.4-8.7h-108.2V374.9z"/>
		<path class="st27" d="M1239.9,374.9h137.6c4,0,9.7,0,7.2-7.2l-42.4-90.6c-2.4-5.4-7.6-6.7-11.5-6.7l-133.2-0.5
			c-4,0-8.7,2.8-7.2,7.2l42.4,90.6C1235.2,372.8,1236,374.9,1239.9,374.9z"/>
		<path class="st20" d="M1438.5,233.9c-15.6-4.8-21.3-17.6-32-18.1c-4.8-0.2-9.6,0.4-13.5,1.1c14.3-8.9,38.4-13.4,38.4-13.4
			s-0.8,27.2,14.3,26c18.8-1.4,32.6-25.4,32.6-25.4c34.3,17.6,37.7,22.6,37.7,22.6s0.7,5.4,1.7,13.5c-3.4,0.5-7.7,0.4-13-1.1
			c-19-5.3-26.6-12-38.4-12C1454.7,227.2,1454.1,238.8,1438.5,233.9z"/>
		<path class="st24" d="M1558.9,524.3c-0.3,0-0.7,0-1,0c0,0,0,0,0,0C1558.2,524.3,1558.6,524.3,1558.9,524.3
			C1558.9,524.3,1558.9,524.3,1558.9,524.3L1558.9,524.3z"/>
		<path class="st19" d="M1464.7,116.5c21.3,7.6,29.6,21.9,25.5,50.4s-46.5,48.5-69.4,38.5s-2.3-71.1,7.2-80.2
			C1437.4,116.2,1445.5,109.7,1464.7,116.5z"/>
		<path class="st28" d="M1427,143.2c0,0-6.8,15-11.2,22c-4.4,7.1-5.8,14.2,4.2,15.8C1429.9,182.7,1427,143.2,1427,143.2z"/>
		<path class="st16" d="M1425.9,127.8c6.6-1.7,13.8-1.1,20.1,1.7c7.2,3.2,13.4,9.2,16.8,16.4c1.3,2.7,9.1,11.6,4.8,12.8
			c-3,0.8-14.3-6.3-17.5-6.8c-5.5-1-11.2-1.2-16.3-3.6c-3.1-1.4-5.9-3.6-9.3-4c-2.4-0.3-4.7,0.3-6.9,1.3
			C1420.3,138,1423.3,131.6,1425.9,127.8z"/>
		<path class="st12" d="M1410.6,123c1.8-2.3,5.2-2.3,8.1-1.9c4,0.5,8,1.3,11.5,3.2c0.5,0.3,1.1,0.6,1.6,1c9.7,0.5,62.7,30,62.7,30
			s1.3,5.9-1.9,17.3c-3.2,11.4-12.8,15.8-12.8,15.8s-4-1.3-2.3-6.9c1.6-5.7,7.3-24.1,4.4-24.7c-6.6-1.5-11.3,12.3-11.3,12.3
			s-8.1-0.4-8.2-8.8c-0.1-8.4,4.9-10.3-2.6-14.6c-4.7-2.7-15-6.1-26.2-9.1c-4.1-1.1-14.4,1.5-18.5,0.8c-2.8-0.5-6.9-3.5-7.5-6
			C1406.9,128.5,1408.9,125.2,1410.6,123z"/>
		<path class="st19" d="M1475.7,159.6c0,0,8.4-8.1,10.7,2.6s-9.6,23.7-16.5,20.8"/>
		<path class="st11" d="M1494.6,155.2c0,0-17.1-8.3-30.5-14.8c-13.5-6.4-36.1-15.3-36.1-15.3s11.4-31,47.9-16
			C1509.4,122.9,1494.6,155.2,1494.6,155.2z"/>
		<path class="st17" d="M1457.1,137.3c-3.2-4.7-33.5-10.7-20.3-24.4c0,0-41.1-22.1-47.2-9.8C1383.5,115.4,1450.3,136.6,1457.1,137.3
			z"/>
		<path class="st20" d="M1530.1,232.8L1530.1,232.8c0,0-6.3,11.7-25.3,6.4c-3.8-1.1-7.2-2.2-10.2-3.3
			C1503.3,219,1518.3,223.8,1530.1,232.8z"/>
		<path class="st20" d="M1496.8,428.8c-3.8-1.2-7.2-3.3-10.8-4.9c-7.4-3.3-15.6-4.5-23.6-3.6c4.5-5.8,12.8-7.1,20-5.9
			c7.2,1.2,13.9,4.6,20.9,6.5c4.6,1.2,9.3,1.9,14,2.5c2.2,0.3,4.4,0.5,6.5,1.1C1522.2,431.4,1502.2,430.5,1496.8,428.8z"/>
		<polygon class="st2" points="1448,385.2 1245.9,395.3 1448,395.3 		"/>
		<polygon class="st2" points="1286.3,395.3 1229.1,588.7 1294,395.3 		"/>
		<polygon class="st2" points="1397.1,395.4 1464.5,589.3 1469.1,589.3 1403.7,395.4 		"/>
		<path class="st29" d="M1239.9,374.9c-4,0-4.8-2.1-7.2-7.2l-42.4-90.6l151.8,97.8H1239.9z"/>
	</g>
</g>
</svg>
