<?xml version="1.0" encoding="utf-8"?>
<!-- Generator: Adobe Illustrator 21.1.0, SVG Export Plug-In . SVG Version: 6.00 Build 0)  -->
<!DOCTYPE svg PUBLIC "-//W3C//DTD SVG 1.1//EN" "http://www.w3.org/Graphics/SVG/1.1/DTD/svg11.dtd">
<svg version="1.1" id="Layer_1" xmlns="http://www.w3.org/2000/svg" xmlns:xlink="http://www.w3.org/1999/xlink" x="0px" y="0px"
	 viewBox="0 0 500 500" style="enable-background:new 0 0 500 500;" xml:space="preserve">
<style type="text/css">
	.st0{fill:#D1EAFF;}
	.st1{fill:#EDF7FF;}
	.st2{fill:#94C4FF;}
	.st3{fill:#88BEFF;}
	.st4{fill:#7AB6FF;}
	.st5{fill:#B8DEFF;}
	.st6{fill:#A1CBFF;}
	.st7{fill:#D1EBFF;}
	.st8{fill:#00C4FF;}
	.st9{fill:#0076FF;}
	.st10{fill:#FFFFFF;}
	.st11{fill:#5291FF;}
	.st12{fill:#0064D9;}
	.st13{fill:#FFD8B5;}
	.st14{fill:#00B6ED;}
	.st15{fill:#EDBA96;}
	.st16{fill:#FFE4CC;}
	.st17{fill:#8FBEF7;}
	.st18{fill:#77B0F7;}
	.st19{fill:#F5C59D;}
</style>
<path class="st0" d="M498.2,425.7h-6.1v-2.6h6.1c0.7,0,1.3,0.6,1.3,1.3V293.8c-0.2,0.1-0.3,0.1-0.5,0.1h-7.8c-0.7,0-1.3-0.6-1.3-1.3
	c0-0.7,0.6-1.3,1.3-1.3h7.8c0.2,0,0.4,0,0.5,0.1V29.9H336.7c-4.7,0-8.6,3.9-8.6,8.6V500h171.4v-75.6
	C499.5,425.2,498.9,425.7,498.2,425.7z"/>
<path class="st1" d="M491.2,291.3c-0.7,0-1.3,0.6-1.3,1.3c0,0.7,0.6,1.3,1.3,1.3h7.8c0.2,0,0.4,0,0.5-0.1v-2.4
	c-0.2-0.1-0.3-0.1-0.5-0.1H491.2z"/>
<path class="st1" d="M498.2,423.2h-6.1v2.6h6.1c0.7,0,1.3-0.6,1.3-1.3C499.5,423.7,498.9,423.2,498.2,423.2z"/>
<path class="st0" d="M500.3,292.6c0-0.5-0.3-1-0.8-1.2v2.4C500,293.6,500.3,293.1,500.3,292.6z"/>
<path class="st2" d="M328.1,317.2h-44.4c-2.8,0-5.2,2.3-5.2,5.2v121.5c0,2.8,2.3,5.2,5.2,5.2h44.4V317.2z"/>
<path class="st3" d="M489.2,424.4c0-0.7,0.6-1.3,1.3-1.3h1.7V322.4c0-2.8-2.3-5.2-5.2-5.2H373.7v3.4c0,0.7-0.6,1.3-1.3,1.3
	c-0.7,0-1.3-0.6-1.3-1.3v-3.4h-43.1v131.9h158.9c2.8,0,5.2-2.3,5.2-5.2v-18.2h-1.7C489.7,425.7,489.2,425.2,489.2,424.4z
	 M371.1,333.6c0-0.7,0.6-1.3,1.3-1.3c0.7,0,1.3,0.6,1.3,1.3v7.7c0,0.7-0.6,1.3-1.3,1.3c-0.7,0-1.3-0.6-1.3-1.3V333.6z M371.1,354.3
	c0-0.7,0.6-1.3,1.3-1.3c0.7,0,1.3,0.6,1.3,1.3v7.8c0,0.7-0.6,1.3-1.3,1.3c-0.7,0-1.3-0.6-1.3-1.3V354.3z M371.1,374.9
	c0-0.7,0.6-1.3,1.3-1.3c0.7,0,1.3,0.6,1.3,1.3v7.8c0,0.7-0.6,1.3-1.3,1.3c-0.7,0-1.3-0.6-1.3-1.3V374.9z M371.1,395.6
	c0-0.7,0.6-1.3,1.3-1.3c0.7,0,1.3,0.6,1.3,1.3v7.8c0,0.7-0.6,1.3-1.3,1.3c-0.7,0-1.3-0.6-1.3-1.3V395.6z M375.5,424.2
	c-0.3,0.3-0.6,0.5-1,0.5c-0.3,0-0.6-0.1-0.8-0.3c-1.6-1.2-2.5-3.1-2.5-5.1v-3c0-0.7,0.6-1.3,1.3-1.3c0.7,0,1.3,0.6,1.3,1.3v3
	c0,1.2,0.6,2.3,1.5,3.1C375.8,422.8,375.9,423.6,375.5,424.2z M394.9,425.7h-7.8c-0.7,0-1.3-0.6-1.3-1.3s0.6-1.3,1.3-1.3h7.8
	c0.7,0,1.3,0.6,1.3,1.3S395.6,425.7,394.9,425.7z M415.5,425.7h-7.8c-0.7,0-1.3-0.6-1.3-1.3s0.6-1.3,1.3-1.3h7.8
	c0.7,0,1.3,0.6,1.3,1.3S416.2,425.7,415.5,425.7z M436.2,425.7h-7.8c-0.7,0-1.3-0.6-1.3-1.3s0.6-1.3,1.3-1.3h7.8
	c0.7,0,1.3,0.6,1.3,1.3S436.9,425.7,436.2,425.7z M456.9,425.7h-7.8c-0.7,0-1.3-0.6-1.3-1.3s0.6-1.3,1.3-1.3h7.8
	c0.7,0,1.3,0.6,1.3,1.3S457.6,425.7,456.9,425.7z M477.5,425.7h-7.8c-0.7,0-1.3-0.6-1.3-1.3s0.6-1.3,1.3-1.3h7.8
	c0.7,0,1.3,0.6,1.3,1.3S478.3,425.7,477.5,425.7z"/>
<path class="st4" d="M489.2,424.4c0-0.7,0.6-1.3,1.3-1.3h1.7V322.4c0-2.8-2.3-5.2-5.2-5.2H373.7v3.4c0,0.7-0.6,1.3-1.3,1.3
	c-0.7,0-1.3-0.6-1.3-1.3v-3.4h-43.1v131.9h158.9c2.8,0,5.2-2.3,5.2-5.2v-18.2h-1.7C489.7,425.7,489.2,425.2,489.2,424.4z
	 M371.1,333.6c0-0.7,0.6-1.3,1.3-1.3c0.7,0,1.3,0.6,1.3,1.3v7.7c0,0.7-0.6,1.3-1.3,1.3c-0.7,0-1.3-0.6-1.3-1.3V333.6z M371.1,354.3
	c0-0.7,0.6-1.3,1.3-1.3c0.7,0,1.3,0.6,1.3,1.3v7.8c0,0.7-0.6,1.3-1.3,1.3c-0.7,0-1.3-0.6-1.3-1.3V354.3z M371.1,374.9
	c0-0.7,0.6-1.3,1.3-1.3c0.7,0,1.3,0.6,1.3,1.3v7.8c0,0.7-0.6,1.3-1.3,1.3c-0.7,0-1.3-0.6-1.3-1.3V374.9z M371.1,395.6
	c0-0.7,0.6-1.3,1.3-1.3c0.7,0,1.3,0.6,1.3,1.3v7.8c0,0.7-0.6,1.3-1.3,1.3c-0.7,0-1.3-0.6-1.3-1.3V395.6z M375.5,424.2
	c-0.3,0.3-0.6,0.5-1,0.5c-0.3,0-0.6-0.1-0.8-0.3c-1.6-1.2-2.5-3.1-2.5-5.1v-3c0-0.7,0.6-1.3,1.3-1.3c0.7,0,1.3,0.6,1.3,1.3v3
	c0,1.2,0.6,2.3,1.5,3.1C375.8,422.8,375.9,423.6,375.5,424.2z M394.9,425.7h-7.8c-0.7,0-1.3-0.6-1.3-1.3s0.6-1.3,1.3-1.3h7.8
	c0.7,0,1.3,0.6,1.3,1.3S395.6,425.7,394.9,425.7z M415.5,425.7h-7.8c-0.7,0-1.3-0.6-1.3-1.3s0.6-1.3,1.3-1.3h7.8
	c0.7,0,1.3,0.6,1.3,1.3S416.2,425.7,415.5,425.7z M436.2,425.7h-7.8c-0.7,0-1.3-0.6-1.3-1.3s0.6-1.3,1.3-1.3h7.8
	c0.7,0,1.3,0.6,1.3,1.3S436.9,425.7,436.2,425.7z M456.9,425.7h-7.8c-0.7,0-1.3-0.6-1.3-1.3s0.6-1.3,1.3-1.3h7.8
	c0.7,0,1.3,0.6,1.3,1.3S457.6,425.7,456.9,425.7z M477.5,425.7h-7.8c-0.7,0-1.3-0.6-1.3-1.3s0.6-1.3,1.3-1.3h7.8
	c0.7,0,1.3,0.6,1.3,1.3S478.3,425.7,477.5,425.7z"/>
<path class="st5" d="M454.6,80H328.1v186.7h126.6c4.7,0,8.6-3.9,8.6-8.6V88.6C463.2,83.8,459.4,80,454.6,80z"/>
<path class="st1" d="M387.9,293.9h7.8c0.7,0,1.3-0.6,1.3-1.3s-0.6-1.3-1.3-1.3h-7.8c-0.7,0-1.3,0.6-1.3,1.3S387.2,293.9,387.9,293.9
	z"/>
<path class="st1" d="M408.6,293.9h7.8c0.7,0,1.3-0.6,1.3-1.3s-0.6-1.3-1.3-1.3h-7.8c-0.7,0-1.3,0.6-1.3,1.3S407.8,293.9,408.6,293.9
	z"/>
<path class="st1" d="M449.9,293.9h7.8c0.7,0,1.3-0.6,1.3-1.3s-0.6-1.3-1.3-1.3h-7.8c-0.7,0-1.3,0.6-1.3,1.3S449.2,293.9,449.9,293.9
	z"/>
<path class="st1" d="M429.2,293.9h7.8c0.7,0,1.3-0.6,1.3-1.3s-0.6-1.3-1.3-1.3h-7.8c-0.7,0-1.3,0.6-1.3,1.3S428.5,293.9,429.2,293.9
	z"/>
<path class="st1" d="M372.4,301.3c0.7,0,1.3-0.6,1.3-1.3v-2.2c0-1.4,0.8-2.7,2-3.4c0.6-0.3,0.8-1.1,0.5-1.8
	c-0.3-0.6-1.1-0.8-1.8-0.5c-2.1,1.1-3.3,3.3-3.3,5.7v2.2C371.1,300.7,371.7,301.3,372.4,301.3z"/>
<path class="st1" d="M373.7,312.9c0-0.7-0.6-1.3-1.3-1.3c-0.7,0-1.3,0.6-1.3,1.3v4.3h2.6V312.9z"/>
<path class="st1" d="M470.6,293.9h7.8c0.7,0,1.3-0.6,1.3-1.3s-0.6-1.3-1.3-1.3h-7.8c-0.7,0-1.3,0.6-1.3,1.3S469.8,293.9,470.6,293.9
	z"/>
<path class="st1" d="M415.5,423.2h-7.8c-0.7,0-1.3,0.6-1.3,1.3s0.6,1.3,1.3,1.3h7.8c0.7,0,1.3-0.6,1.3-1.3S416.2,423.2,415.5,423.2z
	"/>
<path class="st1" d="M394.9,423.2h-7.8c-0.7,0-1.3,0.6-1.3,1.3s0.6,1.3,1.3,1.3h7.8c0.7,0,1.3-0.6,1.3-1.3S395.6,423.2,394.9,423.2z
	"/>
<path class="st1" d="M477.5,423.2h-7.8c-0.7,0-1.3,0.6-1.3,1.3s0.6,1.3,1.3,1.3h7.8c0.7,0,1.3-0.6,1.3-1.3S478.3,423.2,477.5,423.2z
	"/>
<path class="st1" d="M456.9,423.2h-7.8c-0.7,0-1.3,0.6-1.3,1.3s0.6,1.3,1.3,1.3h7.8c0.7,0,1.3-0.6,1.3-1.3S457.6,423.2,456.9,423.2z
	"/>
<path class="st1" d="M436.2,423.2h-7.8c-0.7,0-1.3,0.6-1.3,1.3s0.6,1.3,1.3,1.3h7.8c0.7,0,1.3-0.6,1.3-1.3S436.9,423.2,436.2,423.2z
	"/>
<path class="st1" d="M372.4,363.3c0.7,0,1.3-0.6,1.3-1.3v-7.8c0-0.7-0.6-1.3-1.3-1.3c-0.7,0-1.3,0.6-1.3,1.3v7.8
	C371.1,362.7,371.7,363.3,372.4,363.3z"/>
<path class="st1" d="M372.4,322c0.7,0,1.3-0.6,1.3-1.3v-3.4h-2.6v3.4C371.1,321.4,371.7,322,372.4,322z"/>
<path class="st1" d="M372.4,342.6c0.7,0,1.3-0.6,1.3-1.3v-7.7c0-0.7-0.6-1.3-1.3-1.3c-0.7,0-1.3,0.6-1.3,1.3v7.7
	C371.1,342.1,371.7,342.6,372.4,342.6z"/>
<path class="st1" d="M375.2,422.3c-1-0.7-1.5-1.9-1.5-3.1v-3c0-0.7-0.6-1.3-1.3-1.3c-0.7,0-1.3,0.6-1.3,1.3v3c0,2,0.9,3.9,2.5,5.1
	c0.2,0.2,0.5,0.3,0.8,0.3c0.4,0,0.8-0.2,1-0.5C375.9,423.6,375.8,422.8,375.2,422.3z"/>
<path class="st1" d="M372.4,384c0.7,0,1.3-0.6,1.3-1.3v-7.8c0-0.7-0.6-1.3-1.3-1.3c-0.7,0-1.3,0.6-1.3,1.3v7.8
	C371.1,383.4,371.7,384,372.4,384z"/>
<path class="st1" d="M372.4,404.6c0.7,0,1.3-0.6,1.3-1.3v-7.8c0-0.7-0.6-1.3-1.3-1.3c-0.7,0-1.3,0.6-1.3,1.3v7.8
	C371.1,404.1,371.7,404.6,372.4,404.6z"/>
<path class="st1" d="M490.5,423.2c-0.7,0-1.3,0.6-1.3,1.3s0.6,1.3,1.3,1.3h1.7v-2.6H490.5z"/>
<g>
	<path class="st6" d="M415.5,423.2h-7.8c-0.7,0-1.3,0.6-1.3,1.3s0.6,1.3,1.3,1.3h7.8c0.7,0,1.3-0.6,1.3-1.3S416.2,423.2,415.5,423.2
		z"/>
	<path class="st6" d="M394.9,423.2h-7.8c-0.7,0-1.3,0.6-1.3,1.3s0.6,1.3,1.3,1.3h7.8c0.7,0,1.3-0.6,1.3-1.3S395.6,423.2,394.9,423.2
		z"/>
	<path class="st6" d="M477.5,423.2h-7.8c-0.7,0-1.3,0.6-1.3,1.3s0.6,1.3,1.3,1.3h7.8c0.7,0,1.3-0.6,1.3-1.3S478.3,423.2,477.5,423.2
		z"/>
	<path class="st6" d="M456.9,423.2h-7.8c-0.7,0-1.3,0.6-1.3,1.3s0.6,1.3,1.3,1.3h7.8c0.7,0,1.3-0.6,1.3-1.3S457.6,423.2,456.9,423.2
		z"/>
	<path class="st6" d="M436.2,423.2h-7.8c-0.7,0-1.3,0.6-1.3,1.3s0.6,1.3,1.3,1.3h7.8c0.7,0,1.3-0.6,1.3-1.3S436.9,423.2,436.2,423.2
		z"/>
	<path class="st6" d="M372.4,363.3c0.7,0,1.3-0.6,1.3-1.3v-7.8c0-0.7-0.6-1.3-1.3-1.3c-0.7,0-1.3,0.6-1.3,1.3v7.8
		C371.1,362.7,371.7,363.3,372.4,363.3z"/>
	<path class="st6" d="M372.4,322c0.7,0,1.3-0.6,1.3-1.3v-3.4h-2.6v3.4C371.1,321.4,371.7,322,372.4,322z"/>
	<path class="st6" d="M372.4,342.6c0.7,0,1.3-0.6,1.3-1.3v-7.7c0-0.7-0.6-1.3-1.3-1.3c-0.7,0-1.3,0.6-1.3,1.3v7.7
		C371.1,342.1,371.7,342.6,372.4,342.6z"/>
	<path class="st6" d="M375.2,422.3c-1-0.7-1.5-1.9-1.5-3.1v-3c0-0.7-0.6-1.3-1.3-1.3c-0.7,0-1.3,0.6-1.3,1.3v3c0,2,0.9,3.9,2.5,5.1
		c0.2,0.2,0.5,0.3,0.8,0.3c0.4,0,0.8-0.2,1-0.5C375.9,423.6,375.8,422.8,375.2,422.3z"/>
	<path class="st6" d="M372.4,384c0.7,0,1.3-0.6,1.3-1.3v-7.8c0-0.7-0.6-1.3-1.3-1.3c-0.7,0-1.3,0.6-1.3,1.3v7.8
		C371.1,383.4,371.7,384,372.4,384z"/>
	<path class="st6" d="M372.4,404.6c0.7,0,1.3-0.6,1.3-1.3v-7.8c0-0.7-0.6-1.3-1.3-1.3c-0.7,0-1.3,0.6-1.3,1.3v7.8
		C371.1,404.1,371.7,404.6,372.4,404.6z"/>
	<path class="st6" d="M490.5,423.2c-0.7,0-1.3,0.6-1.3,1.3s0.6,1.3,1.3,1.3h1.7v-2.6H490.5z"/>
</g>
<path class="st7" d="M328.1,80H206.3c-4.7,0-8.6,3.9-8.6,8.6V258c0,4.7,3.9,8.6,8.6,8.6h121.7V80z"/>
<path class="st8" d="M350.2,119.9H238c-4,0-7.3-3.3-7.3-7.3v0c0-4,3.3-7.3,7.3-7.3h112.3c4,0,7.3,3.3,7.3,7.3v0
	C357.5,116.6,354.2,119.9,350.2,119.9z"/>
<path class="st8" d="M384.3,213.5h-74.2c-4,0-7.3-3.3-7.3-7.3v0c0-4,3.3-7.3,7.3-7.3h74.2c4,0,7.3,3.3,7.3,7.3v0
	C391.6,210.2,388.3,213.5,384.3,213.5z"/>
<path class="st9" d="M416.1,119.9h-42.5c-4,0-7.3-3.3-7.3-7.3v0c0-4,3.3-7.3,7.3-7.3h42.5c4,0,7.3,3.3,7.3,7.3v0
	C423.4,116.6,420.1,119.9,416.1,119.9z"/>
<path class="st9" d="M283,244.1h-42.5c-4,0-7.3-3.3-7.3-7.3v0c0-4,3.3-7.3,7.3-7.3H283c4,0,7.3,3.3,7.3,7.3v0
	C290.3,240.8,287,244.1,283,244.1z"/>
<path class="st8" d="M294.1,152.7H238c-4,0-7.3-3.3-7.3-7.3v0c0-4,3.3-7.3,7.3-7.3h56.2c4,0,7.3,3.3,7.3,7.3v0
	C301.4,149.4,298.2,152.7,294.1,152.7z"/>
<path class="st10" d="M394.8,152.7h-74.4c-4,0-7.3-3.3-7.3-7.3v0c0-4,3.3-7.3,7.3-7.3h74.4c4,0,7.3,3.3,7.3,7.3v0
	C402.1,149.4,398.8,152.7,394.8,152.7z"/>
<path class="st9" d="M350.2,185.5H238c-4,0-7.3-3.3-7.3-7.3v0c0-4,3.3-7.3,7.3-7.3h112.3c4,0,7.3,3.3,7.3,7.3v0
	C357.5,182.2,354.2,185.5,350.2,185.5z"/>
<path class="st8" d="M416.1,185.5h-42.5c-4,0-7.3-3.3-7.3-7.3v0c0-4,3.3-7.3,7.3-7.3h42.5c4,0,7.3,3.3,7.3,7.3v0
	C423.4,182.2,420.1,185.5,416.1,185.5z"/>
<path class="st10" d="M282.1,212h-42.5c-4,0-7.3-3.3-7.3-7.3v0c0-4,3.3-7.3,7.3-7.3h42.5c4,0,7.3,3.3,7.3,7.3v0
	C289.4,208.7,286.1,212,282.1,212z"/>
<circle class="st10" cx="352.4" cy="45.3" r="5.2"/>
<circle class="st10" cx="371.4" cy="45.3" r="5.2"/>
<circle class="st10" cx="390.5" cy="45.3" r="5.2"/>
<path class="st11" d="M462.2,347.6h-92.5c-1.9,0-3.5-1.6-3.5-3.5l0,0c0-1.9,1.6-3.5,3.5-3.5h92.5c1.9,0,3.5,1.6,3.5,3.5l0,0
	C465.6,346,464.1,347.6,462.2,347.6z"/>
<path class="st11" d="M385.7,367h-42.9c-1.9,0-3.5-1.6-3.5-3.5l0,0c0-1.9,1.6-3.5,3.5-3.5h42.9c1.9,0,3.5,1.6,3.5,3.5l0,0
	C389.1,365.4,387.6,367,385.7,367z"/>
<path class="st10" d="M454.1,367h-42.9c-1.9,0-3.5-1.6-3.5-3.5l0,0c0-1.9,1.6-3.5,3.5-3.5h42.9c1.9,0,3.5,1.6,3.5,3.5l0,0
	C457.6,365.4,456,367,454.1,367z"/>
<path class="st10" d="M354.1,347.6h-11.3c-1.9,0-3.5-1.6-3.5-3.5l0,0c0-1.9,1.6-3.5,3.5-3.5h11.3c1.9,0,3.5,1.6,3.5,3.5l0,0
	C357.5,346,356,347.6,354.1,347.6z"/>
<path class="st10" d="M454.6,389.7h-11.3c-1.9,0-3.5-1.6-3.5-3.5l0,0c0-1.9,1.6-3.5,3.5-3.5h11.3c1.9,0,3.5,1.6,3.5,3.5l0,0
	C458,388.2,456.5,389.7,454.6,389.7z"/>
<path class="st10" d="M352.9,433.5h-11.3c-1.9,0-3.5-1.6-3.5-3.5v0c0-1.9,1.6-3.5,3.5-3.5h11.3c1.9,0,3.5,1.6,3.5,3.5v0
	C356.3,431.9,354.8,433.5,352.9,433.5z"/>
<path class="st10" d="M378.1,433.5h-11.3c-1.9,0-3.5-1.6-3.5-3.5v0c0-1.9,1.6-3.5,3.5-3.5h11.3c1.9,0,3.5,1.6,3.5,3.5v0
	C381.5,431.9,380,433.5,378.1,433.5z"/>
<path class="st11" d="M475.8,415h-42.9c-1.9,0-3.5-1.6-3.5-3.5l0,0c0-1.9,1.6-3.5,3.5-3.5h42.9c1.9,0,3.5,1.6,3.5,3.5l0,0
	C479.2,413.5,477.7,415,475.8,415z"/>
<path class="st11" d="M431.1,389.7h-71c-1.9,0-3.5-1.6-3.5-3.5l0,0c0-1.9,1.6-3.5,3.5-3.5h71c1.9,0,3.5,1.6,3.5,3.5l0,0
	C434.6,388.2,433,389.7,431.1,389.7z"/>
<path class="st11" d="M412.1,415h-71c-1.9,0-3.5-1.6-3.5-3.5l0,0c0-1.9,1.6-3.5,3.5-3.5h71c1.9,0,3.5,1.6,3.5,3.5l0,0
	C415.5,413.5,414,415,412.1,415z"/>
<rect x="290.3" y="328.2" class="st11" width="33.6" height="109.7"/>
<g>
	<path class="st12" d="M101,147.3c-6.4,7.2-5,18.1-6.1,27.7c-1.2,11.2-6.5,22.1-15.3,29.1s-21.1,9.9-31.8,6.4
		c5.6,1.1,11.4-0.7,16.5-3.2c4.7-2.3,9.1-5.4,12.3-9.5c2.7-3.5,4.4-7.7,6.1-11.8c4.3-10.5,8.7-21.1,13-31.6"/>
	<path class="st13" d="M204.3,101.7c0,0,21.7-25.1,30.7-29.5c9.1-4.4,30.4-9.2,43.4-0.7c11.6,7.6-1.9,14.1-11.4,12
		c-9.6-2.2-12.5-2.5-14.9-0.4c-2.4,2.1,3.8,1.7,8.4,4.7c4.7,3,5,5.8,0.9,4.8c-4.1-1-9.3-3.3-21.9-4.7c-9.6,4.6-23.6,27.4-23.6,27.4
		S202.1,112.5,204.3,101.7z"/>
	<path class="st14" d="M169.4,141.9c19.5-22.4,20.1-19.7,34.9-40.2c0.6,9.2,5.8,10.8,11.7,13.5c1.4,0.6-37.3,52.4-66.4,76.3
		c-8,6.6-12.5,20.2-24,17.3c-8.2-2-23-10.7-17.8-18.5c4.6-6.9,23.2-19.2,30.1-25.1C148,156.6,160.2,152.5,169.4,141.9z"/>
	<path class="st12" d="M171.2,102.8c1.3,2.2,1.6,4.8,1.9,7.3c0.2,1.6,0.4,3.1,0.6,4.7c0.2,1.5,0.1,3.6-1.4,4
		c-1.1,0.3-2.1-0.6-2.9-1.3c-2.8-2.7-5.8-5.7-6.6-9.5c-0.9-4.3,0.3-10.5,3.3-10.2C167.3,97.9,170,100.6,171.2,102.8z"/>
	<path class="st15" d="M172.7,118.6c0,0,8,18.6,8.9,24.1c0.9,5.5-10,5.2-10,5.2L172.7,118.6z"/>
	<path class="st13" d="M174.3,116.2c-7.4-23-18.2-22-29.9-20.9c-14.5,1.4-22.4,14.6-25.3,29.7c-1.8,9.4,1.1,25.7,10.7,36.1
		c0.3,6,0.5,17.8-2.6,20.9l25.9,16c0,0-2.8-20-0.2-27.1c0.8,0,1.6,0,2.5-0.1C172.2,169.5,181.6,139.1,174.3,116.2z"/>
	<path class="st9" d="M166,97.8c0,0,0.2,7.7-4.5,14.2c-4.7,6.5-6.7,14.1-6.7,14.1s-14.3-2.7-12.2,8.2c2.1,10.9,9.4,6.7,9.4,6.7
		s-1.3,15.4-10.9,20.9c-5.5,3.2-12.9,2-12.9,2s-19-8.9-19.8-32.3S130.5,82.9,166,97.8z"/>
	<path class="st8" d="M107.8,190.3c0,0,9.7-8.1,19.3-8.3s31,6.5,40,14c9.1,7.5,15.9,22.5,14.3,35.7c-1.6,13.2-7,41.1-9.2,50.4
		c-2.8,11.3-0.5,22-0.5,22s-28.3,17-48.1,12s-24.9-10.9-24.9-10.9s11.2-28.6,7-47.9C99.9,230.6,102,194.6,107.8,190.3z"/>
	<path class="st12" d="M151.1,146.3c-5.5,2.3-11.7,3.3-17.5,2.2c-6.5-1.2-12.6-5.2-15.5-11.1c-2.5-4.9-6.1-14.9-2.7-27.7
		c0.1-0.2-0.4-0.1-0.6-0.1c-4.4,6.6-6.6,14.4-6.3,22c0.8,23.5,19.8,32.3,19.8,32.3s7.4,1.2,12.9-2
		C147.1,158.5,149.9,151.3,151.1,146.3z"/>
	<path class="st16" d="M300,182.4c-5.1-5.6-10.7,0.2-15.6,4.8c-2.7,2.5-6.6,4.4-10,6.6c0.2-1.8,0.6-4.3,1.1-6.6
		c0.8-4.2,2.6-7.2,0-9.5c-2.6-2.3-3.7,7.6-5.6,11.9c-4.8,10.3-4.6,23.1-4.6,23.1s-0.2,0.4-0.4,0.9c-3.7,8.6-17,22.2-17,22.2
		s6.9,22.6,9.4,18.7c2.5-3.9,15.8-38.3,15.8-38.3C285.5,210.3,305.1,188,300,182.4z"/>
	<path class="st17" d="M133,442.8l12.3,57.2h42.3c0,0,5.2-67.9-2.7-92.1C177,383.7,133,442.8,133,442.8z"/>
	<path class="st17" d="M95.1,432.5L51.9,500c-7.3,0-46,0-46,0s36.5-85.7,46-97.5S95.1,432.5,95.1,432.5z"/>
	<path class="st18" d="M88.4,424.8L46,412.2C32.3,438,5.9,500,5.9,500s12.9,0,25.2,0l33-58.5c6.5,3.3,13.7,5.7,21.4,6l9.6-15
		C95.1,432.5,92.4,429.3,88.4,424.8z"/>
	<path class="st18" d="M165,500l-4.6-46.5c10.2-1.1,20.5-3.7,28.8-9c-0.1-6-0.4-11.9-0.9-17.4l-45.6,3.7c-5.7,6.7-9.6,12-9.6,12
		l12.3,57.2H165z"/>
	<path class="st8" d="M157.5,191.8c-13.4,4-6.5,24.7-1.5,40.1c5,15.4,18.2,45.5,55.3,48.9s49.6-34.6,49.6-34.6s-11.6-2.8-13.1-10.4
		c0,0-21.6,24-33.8,21.6c-12.1-2.4-23.9-16.9-28.4-28C181.1,218.2,169.9,188,157.5,191.8z"/>
	<path class="st9" d="M98.7,305.1L43.2,416.3c0,0,32.9,27.3,89.8,26.5s66.8-13.1,66.8-13.1L171.7,304c0,0-28.9,7.5-44.6,6.6
		C111.4,309.6,98.7,305.1,98.7,305.1z"/>
	<path class="st8" d="M109.4,132.4l-0.2,4.4c0,0,1.4,4.7,5,3.7c3.6-1,3.5-6.3,1.9-8.3S111.9,129.4,109.4,132.4z"/>
	<path class="st12" d="M144.1,309.5c-6.1,0.8-12.2,1.4-17,1.1c-15.7-1-28.4-5.5-28.4-5.5L43.2,416.3c0,0,6.9,5.7,19.7,11.8
		c8.8-29.8,30-74.1,40.7-93.7C114.9,313.8,144.1,309.5,144.1,309.5L144.1,309.5z"/>
	<path class="st13" d="M151.3,126.5c0,0-9.9-3.7-8.7,7.8s10.8,12.1,10.8,12.1"/>
	<path class="st9" d="M52.1,177.7c-14.7,11.3-29.6,10.6-41.6,1.5c0,0,8.7,23.4,29.3,25.9c20.6,2.5,38.9-5.4,46.3-18.6
		c7.4-13.2,14.5-50,26.7-51.1c0,0-6.2-6.6-22.1,2.8S66.8,166.4,52.1,177.7"/>
	<path class="st9" d="M149.1,111c0.6,8.8,5,9.8,6.4,21.2c1,8.1-1.7,19.4,1,27.1c2.2-7.7,4.3-15.5,6.5-23.2c1.2-4.3,1.1-9.1,3-13.2
		c2.8-6,3.5-23.9,0-25.2"/>
	<path class="st14" d="M151,197.3c-3.7,8.2,1.2,22.9,5,34.6c4.2,13,14.3,36.4,39.5,45.4c7.7,1.3,15.2,2.6,21.5,3.6
		c0.7,0,1.5-0.1,2.2-0.1C173.2,272,155.6,215.8,151,197.3z"/>
	<path class="st12" d="M86.8,147.4c-3.1,4.3-5.1,9.4-7.9,13.9C72.8,171.5,58.3,184.9,47,188c10.6,3,26.2-9.2,33.2-17.7
		c8.9-10.6,13.1-27.5,25.2-35C98,136.9,91.2,141.4,86.8,147.4z"/>
	<path class="st12" d="M32.1,191.9c2.1,1.4,3.9,3.2,6,4.6c4.3,2.9,9.7,4,14.9,3.8c5.5-0.2,11-1.8,15.3-5.3c4.2-3.5,7-9,6.4-14.4
		c-2.6,4-5.8,7.8-9.8,10.5s-8.9,4.1-13.7,3.4c-3.5-0.5-6.7-2.2-10-3.3c-4.5-1.5-10-2.4-14.6-1.3C28.5,190.2,30.4,190.8,32.1,191.9z"
		/>
	<path class="st19" d="M155.7,167.7c-2.9-1.1-5.5-2.9-8-4.9c-0.7-0.5-1.4-1.1-2.3-0.9c-1.2,0.3-1.4,1.9-1.3,3.1
		c0.4,3.8,2.9,14.4,7.5,15.5c0,0,0.1,0,0.1,0c0-3.8,0.3-7.4,1.1-9.7c0.8,0,1.6,0,2.5-0.1c2.3-0.2,4.4-0.9,6.4-2
		C159.7,168.8,157.6,168.5,155.7,167.7z"/>
	<path class="st14" d="M127.2,181.9c-9.7,0.3-19.3,8.3-19.3,8.3c-5.8,4.3-8,40.3-2.2,66.9c4,18.4-6,45.4-6.9,47.7
		c0,0,2.8,1.8,8.9,3.1c6.1,1.3,10.8,1.7,10.8,1.7s11.5-35.8,8.6-47.6c-2.9-11.9-12.7-26.9-11.8-47.5
		C116.3,193.9,127.2,181.9,127.2,181.9z"/>
	<polygon class="st12" points="125.3,343.2 117.3,350.1 96.8,426.1 95.1,432.5 	"/>
	<polygon class="st12" points="144.1,332.7 153,436 158.7,427 149.7,339.7 	"/>
	<polygon class="st12" points="162.5,354.2 181.6,432.5 168.4,361.1 	"/>
</g>
</svg>
