<?xml version="1.0" encoding="utf-8"?>
<!-- Generator: Adobe Illustrator 21.1.0, SVG Export Plug-In . SVG Version: 6.00 Build 0)  -->
<!DOCTYPE svg PUBLIC "-//W3C//DTD SVG 1.1//EN" "http://www.w3.org/Graphics/SVG/1.1/DTD/svg11.dtd">
<svg version="1.1" id="Layer_1" xmlns="http://www.w3.org/2000/svg" xmlns:xlink="http://www.w3.org/1999/xlink" x="0px" y="0px"
	 viewBox="0 0 500 500" style="enable-background:new 0 0 500 500;" xml:space="preserve">
<style type="text/css">
	.st0{fill:#FFFFFF;}
	.st1{fill:#BFDDF5;}
	.st2{fill:#EDF7FF;}
	.st3{fill:#D3E6F5;}
	.st4{fill:#0076FF;}
	.st5{fill:#0064D9;}
	.st6{fill:#0058BF;}
	.st7{fill:#00C4FF;}
	.st8{fill:#00B6ED;}
	.st9{fill:#FFD8B5;}
	.st10{fill:#F5C59D;}
	.st11{fill:#FFE4CC;}
	.st12{fill:#FFD2A5;}
</style>
<path class="st0" d="M500,441.8c-15.2,6-30.3,11.9-45.5,17.9c-1.2,0.5-1.7-1.5-0.5-1.9c15.3-6,30.7-12.1,46-18.1v-21.2
	c-1.8,0.6-3.5,1.2-5.3,1.8c-1.2,0.4-1.8-1.5-0.5-1.9c1.9-0.6,3.9-1.3,5.8-1.9v-9.6c-2.5,1.1-5.1,2.3-7.6,3.4c-1.2,0.5-2.2-1.2-1-1.7
	c2.9-1.3,5.7-2.6,8.6-3.9v-21.6c-16,6.2-32,12.2-48.1,18c-1.2,0.4-1.8-1.5-0.5-1.9c16.3-5.9,32.5-12,48.6-18.2v-16.6
	c-3.7,1.3-7.4,2.6-11.1,3.9c-1.2,0.4-1.8-1.5-0.5-1.9c3.9-1.4,7.8-2.8,11.6-4.1v-19.5c-0.3,0.1-0.7,0.3-1,0.4
	c-6.4,3-11.9,9.5-9.3,16.9c0.3,0.7-0.5,1.4-1.2,1.2c-5.6-1.5-9.8-5.4-11.8-10.7c-10.5,4.7-21.2,8.7-32.2,11.8
	c-1.3,0.4-1.8-1.6-0.5-1.9c11.2-3.2,22.2-7.3,32.8-12.1c0.6-0.3,1.3-0.1,1.5,0.6c1.4,4.6,4.7,8.1,9,9.8c-1.9-8.7,5.2-14.8,12.8-18.1
	v-13.6c-14.9,4.7-29.5,10.2-43.8,16.4c-1.2,0.5-2.2-1.2-1-1.7c14.7-6.4,29.6-12,44.9-16.8v-11.4c-18.2,6.5-36.3,13.2-54.4,19.9
	c-1.2,0.5-1.7-1.5-0.5-1.9c14.1-5.3,28.3-10.5,42.4-15.6c4.2-1.5,8.4-3,12.6-4.5v-28.3c-19.7,6.6-39.1,14.2-57.6,24.1
	c-1.1,0.6-2.2-1.1-1-1.7c13.4-7.2,27.4-13.3,41.7-18.6c5.6-2.1,11.2-4,16.9-5.9v-6.6c-12.3,3.2-24.7,6.4-37.1,9.3
	c-1.3,0.3-1.8-1.6-0.5-1.9c12.6-3,25.1-6.2,37.6-9.5V167.4c-20.4,5.1-40.7,10.2-61.1,15.4c-1.3,0.3-1.8-1.6-0.5-1.9
	c20.5-5.2,41.1-10.3,61.6-15.5v-30.8l-87.1,20.3l8.3,345.2l78.8-5.4V441.8z"/>
<path class="st1" d="M500,129.6l-84.3,17.1l-2.8,8.1c0,0,41.5-10.7,87.1-22V129.6z"/>
<path class="st1" d="M500,132.8c-45.6,11.3-87.1,22-87.1,22l87.1-20.3V132.8z"/>
<polygon class="st2" points="421.2,500 500,500 500,494.6 "/>
<path class="st3" d="M438.4,180.8c-1.3,0.3-0.7,2.3,0.5,1.9c20.4-5.1,40.7-10.2,61.1-15.4v-2.1C479.5,170.4,458.9,175.6,438.4,180.8
	z"/>
<path class="st3" d="M483.1,286.7c-14.3,5.3-28.2,11.4-41.7,18.6c-1.1,0.6-0.1,2.4,1,1.7c18.5-9.9,37.8-17.6,57.6-24.1v-2.2
	C494.3,282.6,488.7,284.6,483.1,286.7z"/>
<path class="st3" d="M462.4,281.6c-1.3,0.3-0.7,2.3,0.5,1.9c12.4-3,24.7-6.1,37.1-9.3v-2.1C487.5,275.4,475,278.5,462.4,281.6z"/>
<path class="st3" d="M487.4,315.8c-14.2,5.1-28.3,10.3-42.4,15.6c-1.2,0.5-0.7,2.4,0.5,1.9c18.1-6.7,36.3-13.4,54.4-19.9v-2.1
	C495.8,312.8,491.6,314.3,487.4,315.8z"/>
<path class="st3" d="M454,457.7c-1.2,0.5-0.7,2.4,0.5,1.9c15.2-6,30.3-11.9,45.5-17.9v-2.2C484.7,445.6,469.3,451.7,454,457.7z"/>
<path class="st3" d="M489,359.1c-0.6-0.2-1.2-0.4-1.7-0.6c0.1,0.6,0.3,1.2,0.5,1.8C488.1,359.9,488.6,359.5,489,359.1z"/>
<path class="st3" d="M487.2,358.5c0.6,0.2,1.1,0.4,1.7,0.6c-0.4,0.4-0.8,0.8-1.2,1.2C487.5,359.7,487.3,359.1,487.2,358.5
	c-4.4-1.7-7.6-5.1-9-9.8c-0.2-0.7-0.9-0.9-1.5-0.6c-10.6,4.9-21.6,8.9-32.8,12.1c-1.2,0.4-0.7,2.3,0.5,1.9
	c11-3.2,21.8-7.1,32.2-11.8c-0.1-0.4-0.3-0.7-0.4-1.1c0.5,0.2,1,0.4,1.5,0.6c-0.4,0.2-0.7,0.3-1.1,0.5c2,5.3,6.2,9.2,11.8,10.7
	c0.7,0.2,1.5-0.5,1.2-1.2c-2.6-7.4,3-13.9,9.3-16.9c0.3-0.2,0.7-0.3,1-0.4v-2C492.4,343.7,485.4,349.8,487.2,358.5z"/>
<path class="st3" d="M476.2,349.3c0.1,0.4,0.2,0.7,0.4,1.1c0.4-0.2,0.7-0.3,1.1-0.5C477.2,349.7,476.7,349.5,476.2,349.3z"/>
<path class="st3" d="M451.4,398.9c-1.2,0.4-0.7,2.4,0.5,1.9c16.1-5.8,32.1-11.8,48.1-18v-2.2C483.8,387,467.6,393.1,451.4,398.9z"/>
<path class="st3" d="M491.4,408.4c-1.2,0.5-0.2,2.3,1,1.7c2.5-1.2,5.1-2.3,7.6-3.4v-2.2C497.1,405.8,494.2,407,491.4,408.4z"/>
<path class="st3" d="M494.2,418.2c-1.2,0.4-0.7,2.4,0.5,1.9c1.8-0.6,3.5-1.2,5.3-1.8v-2.1C498.1,416.9,496.1,417.6,494.2,418.2z"/>
<path class="st3" d="M488.4,366.1c-1.2,0.4-0.7,2.4,0.5,1.9c3.7-1.3,7.4-2.6,11.1-3.9V362C496.1,363.4,492.2,364.7,488.4,366.1z"/>
<path class="st3" d="M455.1,341.5c-1.2,0.5-0.2,2.3,1,1.7c14.3-6.2,29-11.7,43.8-16.4v-2.1C484.8,329.6,469.8,335.2,455.1,341.5z"/>
<path class="st4" d="M162.4,138.2c-0.9-2.9-2-5.9-3.8-8.4c-2.1-2.9-5.1-4.9-8.2-6.7c-5-2.9-10.4-5.2-16.1-5.9
	c-5.7-0.7-11.7,0.3-16.5,3.6c-1.3,0.9-2.6,2-4.1,2.5c-1.7,0.6-3.5,0.5-5.3,0.5c-10.1,0.2-19.9,6-24.9,14.7c-1.7,2.9-2.8,6-3.5,9.2
	c-1.6,4.2-1.8,8.9-4.3,12.6c-2.6,3.8-7,5.8-11,8.1s-8,5.8-8.2,10.4c-0.3,5.5,4.9,10.8,3,16c-0.7,1.9-2.1,3.3-3.1,5
	c-0.2,0.4-0.4,0.9-0.6,1.4c-0.5,0.6-1,1.2-1.5,1.9c-3.6,5.5-2,13.3,2.5,18.1c4.5,4.8,11.2,6.9,17.7,7.3c4.1,0.2,8.2-0.2,12.1,1
	c5.5,1.6,9.7,5.8,14.8,8.4c8.5,4.4,19.2,3.6,27.7-0.9c8.5-4.5,14.8-12.5,18.5-21.3l2-16.8c16-0.4,15.2-16.6,16.7-27.7
	C168,160,165.8,148.8,162.4,138.2z"/>
<path class="st5" d="M151.9,339c0,0-32.8,49-43.6,64.6C97.4,419.3,31.7,500,31.7,500h51.8c0,0,73-51,102.6-96.3
	c17.9-2,34.5,11.5,34.5,11.5s18.1-62.9,16.6-74.5S151.9,339,151.9,339z"/>
<path class="st6" d="M145.2,407.6c-20.7,23.4-42.9,45.4-65,67.5c-6.7,6.7-33.8,24.8-33.9,25h37.2c0,0,67.4-47.2,98.8-90.9
	c0.2-0.6,0.4-1.3,0.6-1.9c4-13.8,6.4-57,7.1-71.4C174.4,360.1,159,392,145.2,407.6z"/>
<path class="st5" d="M86.4,190.6c-2.1,2.8-5.3,4.3-8.2,6.2c-2.9,1.8-5.8,4.4-6.2,7.9c-0.5,3.7,2.1,7.1,4.9,9.4c2,1.7,4.4,3.1,7,3.6
	c2.1,0.4,4.2,0.3,6.3,0.7c8.4,1.8,12.4,12.2,20.6,15.1c5.8,2.1,12.2-0.2,17.6-3.1c12.1-6.3,23.4-16.3,26.3-29.6
	c0.6-2.5,0.8-5.1,1.3-7.6c1.2-7,3.7-13.7,5.5-20.6c1.8-6.9,2.8-14.2,1.1-21.1s-6.7-13.3-13.7-15c-3.8-0.9-7.7-0.4-11.5-1
	c-4.4-0.7-8.8-2.8-13.2-2.1c-5,0.8-8.6,4.9-11.8,8.8c-2.4,2.9-4.7,5.7-7.7,7.9c-3.3,2.4-7.1,3.9-9.4,7.4c-2,3-2.9,7-3.7,10.5
	C90.1,175,90.7,184.7,86.4,190.6z"/>
<path class="st7" d="M129,355.2c0,0,18.9-29.6,7.9-49.4c-11-19.8-38.4-47.9-38.4-47.9s-8.4-37,49.2-62.6s112.6-43.9,112.6-43.9
	l11.4,25.8c0,0-67.4,32.5-69,45c-1.6,12.5,25.8,60.1,28.2,73.7c2.4,13.5,6.3,44.8,6.3,44.8s-23-2.5-58.1,9.7
	C156.1,358.4,129,355.2,129,355.2z"/>
<path class="st8" d="M179.7,350.2c4.1-1.4,8-2.6,11.7-3.7c2-4.1,2.6-8.7,3.1-13.3c3.8-32.7,7.7-65.7,3.6-98.3
	c-2.3-18.4-7.1-36.6-7.1-55.2l-6.4,0c-2.3,0.9-4.6,1.9-7,2.9C182.4,238.3,183.1,294.3,179.7,350.2z"/>
<path class="st9" d="M192,258.1c-0.2,3.6-0.4,7.2-0.7,10.8c0,0.7-0.1,1.4-0.3,2c-0.5,1.8-2,3-3.2,4.4c-1.5,1.7-2.6,3.7-3.7,5.7
	C184.9,269.5,188.2,263,192,258.1z"/>
<path class="st8" d="M132.7,237.6c2.1,0.9,4.4,1.2,6.7,1.2c13.1,0.4,26.2-6.7,32.9-17.9c-1.9,4.9-3.9,9.9-7.9,13.4
	c-3,2.6-6.8,4-10.6,5.1c-5.3,1.6-10.9,2.9-16.4,2.2c-4.3-0.6-9.3-2.7-11.5-6.5C128.5,234.4,130.2,236.5,132.7,237.6z"/>
<path class="st8" d="M129.2,249.8c0,0,7.1,20,10.2,29.4"/>
<path class="st8" d="M142.5,288.6c0,0-2-28.7-10.9-38.7"/>
<line class="st8" x1="139.4" y1="279.2" x2="131.6" y2="249.8"/>
<path class="st8" d="M183.8,212c0.4-10.4-0.3-20.8-2-31c-11,4.5-22.5,9.3-34.1,14.5c-23,10.2-35.5,22.3-42.2,33.1
	c0.4,2.5,2.7,3.6,8.4,1.5c3.2-1.2,5.8-3.5,8.5-5.6c8.2-6.7,17.2-12.4,26.7-17.1c5.9-2.9,12.3-5.4,18.9-5.2
	C174.5,202.4,181.3,205.8,183.8,212z"/>
<path class="st0" d="M171.6,500l22.3-183.2c0,0-17.2-177.4-6.8-210.5l217.3,43.4c0,0,38.4,171,42,221.7
	C450,422.1,420.9,500,420.9,500H171.6z"/>
<polygon class="st1" points="187.1,106.3 412.9,154.8 415.7,146.7 "/>
<polygon class="st1" points="193.9,316.8 171.6,500 163.5,500 "/>
<polygon class="st1" points="404.4,149.7 420.9,500 415.7,146.7 "/>
<polygon class="st2" points="171.6,500 214.2,335.8 416.3,398.6 420.9,500 "/>
<polygon class="st2" points="418.1,459.2 359.6,154.8 404.4,162.1 "/>
<polygon class="st2" points="210.2,304.9 226.8,323.2 238.8,319.9 "/>
<polygon class="st2" points="199.9,296.8 227.5,294.4 239.4,279.7 "/>
<polygon class="st2" points="203.8,283.6 231.4,269.8 237,250.7 "/>
<path class="st3" d="M268.2,169c-14.3,7.3-15.6,25-10.4,38.5c2.6,6.6,6.4,13.4,12.2,17.7c6,4.4,13.7,5,20.9,4.3
	c13.5-1.3,24.5-10.9,28.2-23.9c3.6-12.8-1.7-26.3-12-34.4c-14.3-11.3-33.2-8.5-47.4,1.5c-1.1,0.7,0,2.5,1,1.7
	c11.3-7.9,26.1-11.8,39.1-5.5c10.7,5.3,18.7,16.5,18.5,28.7c-0.2,12.1-8.3,24.1-19.8,28.2c-6.3,2.3-14.5,2.7-21,0.8
	c-6.7-1.9-11.4-7.4-14.6-13.2c-7.5-13.5-9.9-34.5,6.4-42.7C270.4,170.2,269.4,168.4,268.2,169L268.2,169z"/>
<path class="st3" d="M280.4,178.9c-6.5,3.1-10,11.2-7.1,18c2.9,6.6,11.5,9.9,18,6.8c6.5-3,9.6-11.8,6.2-18.2
	c-3.4-6.6-12.1-8.7-18.4-5.3c-1.1,0.6-0.1,2.4,1,1.7c5.4-2.9,12.8-1,15.7,4.6c2.9,5.6-0.3,13.6-6.2,15.7c-5.7,2-12.9-1.3-14.8-7.1
	c-1.9-5.7,1.4-11.9,6.6-14.5C282.6,180.1,281.6,178.4,280.4,178.9L280.4,178.9z"/>
<path class="st3" d="M275.9,200.2c-3.4,7.8-4.2,16.1-2.3,24.4c0.3,1.3,2.2,0.7,1.9-0.5c-1.8-7.8-1.1-15.6,2.1-22.9
	C278.2,200.1,276.4,199,275.9,200.2L275.9,200.2z"/>
<path class="st3" d="M291.9,203.9c4,6.5,6,13.5,6,21.1c0,1.3,2,1.3,2,0c0-7.9-2.1-15.4-6.3-22.1C293,201.8,291.2,202.8,291.9,203.9
	L291.9,203.9z"/>
<path class="st3" d="M264.4,189.5c0.4,4.8,1.4,9.3,3.1,13.8c0.5,1.2,2.2,0.7,1.9-0.5c-1.3-7.9-3.7-15.4-7.2-22.6
	c-0.5-1.1-2-0.3-1.8,0.8c1.2,6.6,2.3,13.1,3.5,19.7c0.2,1.3,2.1,0.7,1.9-0.5c-0.9-5.9-2.3-11.6-4.2-17.2c-0.4-1.1-1.9-0.9-2,0.3
	c-0.2,5.2,0.1,10.2,1,15.3c0.2,1.2,1.9,0.8,2-0.3c0.2-4.2-0.7-8.1-2.7-11.8c-0.5-1-1.8-0.4-1.9,0.5c-0.5,4.9-0.3,9.8,0.6,14.6
	c0.2,1,1.8,1,1.9,0c0.6-3.9,0.4-7.4-1-11.1c-0.4-1.1-1.9-0.9-2,0.3c-0.5,5.5,0.5,10.5,3,15.4c0.6,1.2,2.4,0.1,1.7-1
	c-2.4-4.5-3.3-9.3-2.8-14.4c-0.7,0.1-1.3,0.2-2,0.3c1.2,3.3,1.5,6.5,1,10.1c0.6,0,1.3,0,1.9,0c-0.9-4.7-1.1-9.3-0.6-14.1
	c-0.6,0.2-1.3,0.3-1.9,0.5c1.8,3.5,2.5,6.9,2.4,10.8c0.7-0.1,1.3-0.2,2-0.3c-0.9-4.9-1.1-9.8-0.9-14.8c-0.7,0.1-1.3,0.2-2,0.3
	c1.9,5.6,3.3,11.3,4.2,17.2c0.6-0.2,1.3-0.4,1.9-0.5c-1.2-6.6-2.3-13.1-3.5-19.7c-0.6,0.3-1.2,0.5-1.8,0.8c3.4,7,5.7,14.4,7,22.1
	c0.6-0.2,1.3-0.4,1.9-0.5c-1.6-4.3-2.6-8.7-3-13.3C266.3,188.2,264.3,188.2,264.4,189.5L264.4,189.5z"/>
<path class="st3" d="M257.7,192.3c-0.9,6.1,0.3,11.8,3.8,16.9c0.6,0.9,2.1,0.4,1.8-0.8c-1.5-6.2-3.5-12.2-6-18
	c-0.4-0.9-1.9-0.4-1.9,0.5c0.4,8.7,3.5,16.7,9.2,23.3c0.7,0.8,2-0.1,1.7-1c-1.4-4.1-3.5-7.5-6.7-10.4c-0.7-0.6-2,0-1.7,1
	c2.2,6.3,5.2,12.1,9.2,17.5c0.5,0.7,2,0.6,1.9-0.5c-0.2-2.2-0.9-3.7-2.5-5.1c-0.8-0.7-2.2,0.2-1.6,1.2c1.3,2,2.5,4,3.8,6
	c0.6,1,2.1,0.3,1.8-0.8c-0.7-3.9-2.3-7.1-4.7-10.2c-0.5,0.5-1,1-1.4,1.4c1.4,1.5,2.7,3,3.8,4.7c0.7,1.1,2.3,0.2,1.7-1
	c-1.4-3.1-2.7-6.2-4.1-9.3c-0.6,0.3-1.2,0.7-1.7,1c2.8,4.9,4.9,10,6.4,15.4c0.3,1.1,2.1,0.9,2-0.3c-0.4-4.1-0.7-8.1-1.1-12.2
	c-0.7,0.1-1.3,0.2-2,0.3c0.8,3.4,1.7,6.8,2.5,10.2c0.3,1.1,2,0.9,2-0.3c0-3.5-0.3-7-0.9-10.5c-0.2-1.1-2.1-0.9-2,0.3
	c0.3,3.3,0.6,6.7,0.9,10c0.7,0,1.3,0,2,0c-0.8-7.3-1-14.6-0.7-22c-0.6,0.2-1.3,0.3-1.9,0.5c1.1,1.4,1.5,3,1.1,4.8
	c0.7,0.1,1.3,0.2,2,0.3c0.2-4.4-1.4-8.4-2.8-12.5c-1.7-5.1-2.5-10.3-2.6-15.7c-0.7,0-1.3,0-2,0c0.4,8.5,2.6,16.6,6.6,24.1
	c0.5-0.4,1.1-0.8,1.6-1.2c-4.2-5-6.3-11-6.1-17.6c0-1.3-2-1.3-2,0c-0.2,7.1,2.1,13.6,6.7,19c0.8,0.9,2.1-0.3,1.6-1.2
	c-3.8-7.2-6-14.9-6.4-23.1c-0.1-1.3-2-1.3-2,0c0,4.6,0.6,9.1,1.8,13.6c1.4,4.9,3.8,9.4,3.5,14.7c0,1.1,1.8,1.4,2,0.3
	c0.4-2.4,0.1-4.3-1.3-6.3c-0.6-0.8-1.8-0.5-1.9,0.5c-0.3,7.4,0,14.7,0.7,22c0.1,1.3,2.1,1.3,2,0c-0.3-3.3-0.6-6.7-0.9-10
	c-0.7,0.1-1.3,0.2-2,0.3c0.6,3.3,0.9,6.6,0.9,9.9c0.7-0.1,1.3-0.2,2-0.3c-0.8-3.4-1.7-6.8-2.5-10.2c-0.3-1.1-2.1-0.9-2,0.3
	c0.4,4.1,0.7,8.1,1.1,12.2c0.7-0.1,1.3-0.2,2-0.3c-1.6-5.6-3.8-10.8-6.6-15.9c-0.7-1.2-2.3-0.1-1.7,1c1.4,3.1,2.7,6.2,4.1,9.3
	c0.6-0.3,1.2-0.7,1.7-1c-1.2-1.9-2.5-3.5-4.1-5.1c-0.9-1-2.2,0.4-1.4,1.4c2.2,2.8,3.5,5.8,4.2,9.3c0.6-0.3,1.2-0.5,1.8-0.8
	c-1.3-2-2.5-4-3.8-6c-0.5,0.4-1.1,0.8-1.6,1.2c1.2,0.8,1.9,2.1,2,3.7c0.6-0.2,1.3-0.3,1.9-0.5c-3.9-5.2-6.9-10.8-9-17
	c-0.6,0.3-1.1,0.7-1.7,1c2.9,2.7,4.9,5.8,6.2,9.5c0.6-0.3,1.1-0.7,1.7-1c-5.3-6.2-8.2-13.7-8.6-21.9c-0.6,0.2-1.3,0.3-1.9,0.5
	c2.4,5.7,4.3,11.5,5.8,17.5c0.6-0.3,1.2-0.5,1.8-0.8c-3.2-4.6-4.4-9.8-3.6-15.3C259.8,191.6,257.9,191.1,257.7,192.3L257.7,192.3z"
	/>
<path class="st3" d="M266.3,176.8c-1.6,2.4-2.4,4.9-2.5,7.8c0,0.8,1.2,1.4,1.7,0.7c1.7-2.2,2.2-4.6,1.3-7.2c-0.3-0.8-1.4-1-1.8-0.2
	c-0.8,1.4-1.6,2.8-2.5,4.1c-0.7,1.1,1,2.1,1.7,1c1.2-1.9,1.9-3.8,2.3-6c0.2-1.1-1.2-1.7-1.8-0.8c-1.1,1.5-2.1,2.9-3.2,4.4
	c0.6,0.3,1.2,0.5,1.8,0.8c0.5-1.5,1-2.9,1.5-4.4c0.3-1-1-1.7-1.7-1c-1.2,1.2-2.3,2.5-3.2,3.9c0.6,0.3,1.2,0.5,1.8,0.8
	c0.5-1.3,1-2.5,1.4-3.8c0.4-1.1-1.2-1.7-1.8-0.8c-1.7,2.5-3,5.2-3.9,8.1c-0.4,1.1,1.2,1.7,1.8,0.8c1.2-1.7,1.7-3.5,1.9-5.6
	c0.1-1.2-1.6-1.2-2-0.3c-1.7,4.3-2.4,8.7-2.1,13.3c0.1,0.9,1.1,1.3,1.7,0.7c1.4-1.2,2.2-2.5,2.8-4.2c0.4-1.2-1.5-1.8-1.9-0.5
	c-0.5,1.4-1.2,2.4-2.3,3.3c0.6,0.2,1.2,0.5,1.7,0.7c-0.3-4.4,0.4-8.6,2-12.7c-0.7-0.1-1.3-0.2-2-0.3c-0.1,1.7-0.7,3.1-1.6,4.6
	c0.6,0.3,1.2,0.5,1.8,0.8c0.9-2.8,2.1-5.2,3.7-7.6c-0.6-0.3-1.2-0.5-1.8-0.8c-0.5,1.3-1,2.5-1.4,3.8c-0.4,1.1,1.3,1.7,1.8,0.8
	c0.8-1.3,1.8-2.4,2.9-3.5c-0.6-0.3-1.1-0.7-1.7-1c-0.5,1.5-1,2.9-1.5,4.4c-0.4,1.2,1.2,1.6,1.8,0.8c1.1-1.5,2.1-2.9,3.2-4.4
	c-0.6-0.3-1.2-0.5-1.8-0.8c-0.3,2-1,3.8-2.1,5.5c0.6,0.3,1.2,0.7,1.7,1c0.8-1.4,1.6-2.8,2.5-4.1c-0.6-0.1-1.2-0.2-1.8-0.2
	c0.7,1.9,0.5,3.6-0.8,5.3c0.6,0.2,1.2,0.5,1.7,0.7c0.1-2.5,0.8-4.7,2.2-6.8C268.8,176.8,267.1,175.8,266.3,176.8L266.3,176.8z"/>
<path class="st3" d="M261.5,178.6c-1,6-2,12-2.9,18.1c0.7,0.1,1.3,0.2,2,0.3c0.5-3.8,0.5-7.5,0.2-11.3c-0.1-1-1.8-1.5-2-0.3
	c-1.1,5.8-1,11.5,0.5,17.2c0.3,1.2,1.9,0.8,2-0.3c0.3-3.3,0.1-6.4-0.8-9.7c-0.3-1.1-1.9-0.8-2,0.3c-0.5,6.1,1.1,11.8,4.7,16.9
	c0.5,0.7,1.6,0.7,1.8-0.2c1.2-5.2,0.4-10.2-2.6-14.7c-0.5-0.8-1.8-0.5-1.9,0.5c-0.1,4.1,0.7,7.8,2.5,11.4c0.5,0.9,1.9,0.5,1.9-0.5
	c-0.1-3.8-1-7.3-2.9-10.6c-0.5-0.9-1.9-0.5-1.9,0.5c0,4.1,1,7.8,3.1,11.3c0.4,0.7,1.7,0.6,1.8-0.2c0.9-4.8,0.5-9.3-1.1-13.9
	c-0.4-1.2-2.2-0.7-1.9,0.5c0.3,1.6,0.6,3.2,1,4.8c0.3,1.3,2.2,0.7,1.9-0.5c-0.3-1.6-0.6-3.2-1-4.8c-0.6,0.2-1.3,0.4-1.9,0.5
	c1.5,4.2,1.9,8.4,1.1,12.8c0.6-0.1,1.2-0.2,1.8-0.2c-1.9-3.2-2.8-6.5-2.8-10.3c-0.6,0.2-1.3,0.3-1.9,0.5c1.7,3.1,2.5,6.1,2.6,9.6
	c0.6-0.2,1.3-0.3,1.9-0.5c-1.7-3.3-2.4-6.7-2.2-10.4c-0.6,0.2-1.3,0.3-1.9,0.5c2.6,4,3.4,8.4,2.4,13.1c0.6-0.1,1.2-0.2,1.8-0.2
	c-3.4-4.7-4.8-10-4.4-15.8c-0.7,0.1-1.3,0.2-2,0.3c0.8,3,1,6,0.7,9.1c0.7-0.1,1.3-0.2,2-0.3c-1.4-5.4-1.6-10.7-0.5-16.1
	c-0.7-0.1-1.3-0.2-2-0.3c0.3,3.8,0.3,7.5-0.2,11.3c-0.1,1.1,1.8,1.4,2,0.3c0.9-6,1.9-12.1,2.9-18.1
	C263.7,177.8,261.7,177.3,261.5,178.6L261.5,178.6z"/>
<path class="st3" d="M262.8,195.5c1.5,5.2,3.5,10.3,5.9,15.1c0.6-0.3,1.2-0.7,1.7-1c-2.2-4.2-4.3-8.3-6.5-12.5
	c-0.5-1-2.2-0.3-1.8,0.8c1.5,5.2,3.7,10,6.6,14.5c0.6,0.9,2.2,0.4,1.8-0.8c-1.6-5-3.3-10.1-4.9-15.1c-0.4-1.2-2.3-0.7-1.9,0.5
	c1.3,4.4,2.9,8.6,4.8,12.8c0.5,1.1,2,0.3,1.8-0.8c-0.9-5.8-2.7-11.2-5.3-16.4c-0.6-1.2-2.2-0.1-1.7,1c1.9,4.5,3.8,8.9,5.7,13.4
	c0.5,1.1,2.1,0.3,1.8-0.8c-1.4-6.5-3.5-12.7-6.2-18.7c-0.5-1-2.2-0.3-1.8,0.8c1.7,5.5,3.9,10.8,6.6,15.9c0.5,1,2.2,0.3,1.8-0.8
	c-1.9-5.7-3.7-11.4-5.6-17.1c-0.6,0.2-1.3,0.4-1.9,0.5c1.7,4.6,3.4,9.2,5.1,13.7c0.4,1.2,2.3,0.7,1.9-0.5c-1.2-4.9-2.4-9.9-3.6-14.8
	c-0.3-1.3-2.2-0.7-1.9,0.5c0.9,4.6,2.7,8.8,5.2,12.8c0.7,1.1,2.5,0.1,1.7-1c-2.5-3.8-4.1-7.9-5-12.3c-0.6,0.2-1.3,0.4-1.9,0.5
	c1.2,4.9,2.4,9.9,3.6,14.8c0.6-0.2,1.3-0.4,1.9-0.5c-1.7-4.6-3.4-9.2-5.1-13.7c-0.4-1.2-2.4-0.7-1.9,0.5c1.9,5.7,3.7,11.4,5.6,17.1
	c0.6-0.3,1.2-0.5,1.8-0.8c-2.6-4.9-4.7-10.1-6.4-15.4c-0.6,0.3-1.2,0.5-1.8,0.8c2.6,5.9,4.6,11.9,6,18.2c0.6-0.3,1.2-0.5,1.8-0.8
	c-1.9-4.5-3.8-8.9-5.7-13.4c-0.6,0.3-1.2,0.7-1.7,1c2.5,5.1,4.2,10.3,5.1,15.9c0.6-0.3,1.2-0.5,1.8-0.8c-1.9-4-3.4-8.1-4.6-12.3
	c-0.6,0.2-1.3,0.4-1.9,0.5c1.6,5,3.3,10.1,4.9,15.1c0.6-0.3,1.2-0.5,1.8-0.8c-2.9-4.4-5-9-6.4-14c-0.6,0.3-1.2,0.5-1.8,0.8
	c2.2,4.2,4.3,8.3,6.5,12.5c0.6,1.2,2.3,0.1,1.7-1c-2.4-4.7-4.3-9.6-5.7-14.6C264.3,193.7,262.4,194.2,262.8,195.5L262.8,195.5z"/>
<path class="st3" d="M265.2,180.6c0.9,7.3,2.5,14.3,5,21.2c0.4,1,2.1,0.9,2-0.3c-0.3-3.3-1-6.5-2-9.6c-0.4-1.3-2.2-0.7-1.9,0.5
	c0.7,4.1,1.5,8.3,2.2,12.4c0.2,1,1.7,0.9,1.9,0c0.4-1.6,0.4-2.6-0.1-4.1c-0.3-1.1-2-0.9-2,0.3c0,2.9,0,5.7,0,8.6c0,1.3,2,1.3,2,0
	c0-1.8,0-3.5,0-5.3c0-1.3-2-1.3-2,0c0,1.8-0.3,3.4-0.8,5.1c0.7,0.1,1.3,0.2,2,0.3c-0.3-5.5-0.5-11-0.8-16.5c-0.1-1.3-2-1.3-2,0
	c0,3.3,0,6.6-0.1,9.9c0.7-0.1,1.3-0.2,2-0.3c-1.8-6.1-3.6-12.2-5.3-18.2c-0.3-1.1-1.9-0.9-2,0.3c-0.3,5.6,0.3,10.9,1.8,16.3
	c0.3,1.1,1.9,0.9,2-0.3c0.3-6.3-0.9-12.2-3.6-17.9c-0.3-0.7-1.7-0.6-1.8,0.2c-1,7.6-0.2,14.9,2.6,22c0.5,1.2,2.4,0.7,1.9-0.5
	c-2.7-6.7-3.6-13.8-2.6-20.9c-0.6,0.1-1.2,0.2-1.8,0.2c2.5,5.4,3.6,11,3.3,16.9c0.7-0.1,1.3-0.2,2-0.3c-1.5-5.2-2-10.4-1.7-15.8
	c-0.7,0.1-1.3,0.2-2,0.3c1.8,6.1,3.6,12.2,5.3,18.2c0.3,1.1,2,0.9,2-0.3c0-3.3,0-6.6,0.1-9.9c-0.7,0-1.3,0-2,0
	c0.3,5.5,0.5,11,0.8,16.5c0.1,1.1,1.6,1.4,2,0.3c0.6-1.9,0.9-3.6,0.9-5.6c-0.7,0-1.3,0-2,0c0,1.8,0,3.5,0,5.3c0.7,0,1.3,0,2,0
	c0-2.9,0-5.7,0-8.6c-0.7,0.1-1.3,0.2-2,0.3c0,1,0.1,2,0.1,3.1c0.6,0,1.3,0,1.9,0c-0.7-4.1-1.5-8.3-2.2-12.4
	c-0.6,0.2-1.3,0.4-1.9,0.5c1,3,1.6,6,1.9,9.1c0.7-0.1,1.3-0.2,2-0.3c-2.4-6.7-4-13.6-4.9-20.7C267,179.3,265,179.3,265.2,180.6
	L265.2,180.6z"/>
<path class="st3" d="M259.4,186.7c-1.7,7-0.8,14,2.9,20.3c0.4,0.8,1.6,0.6,1.8-0.2c2-6.8,0.9-13.8-3-19.7c-0.5-0.7-1.6-0.6-1.8,0.2
	c-2.7,8-0.7,16.6,5.2,22.7c0.4,0.4,1.3,0.4,1.6-0.2c0.8-1.7,1.5-3.4,2.3-5.2c0.5-1.2-1.2-2.2-1.7-1c-0.8,1.7-1.5,3.4-2.3,5.2
	c0.5-0.1,1.1-0.1,1.6-0.2c-5.4-5.6-7.1-13.4-4.7-20.7c-0.6,0.1-1.2,0.2-1.8,0.2c3.7,5.5,4.7,11.8,2.8,18.2c0.6-0.1,1.2-0.2,1.8-0.2
	c-3.3-5.8-4.3-12.2-2.7-18.7C261.6,185.9,259.7,185.4,259.4,186.7L259.4,186.7z"/>
<path class="st3" d="M263.7,188.4c-1.5,7.7,0.3,15.1,5.1,21.3c0.8,1,2.2-0.4,1.4-1.4c-4.3-5.6-5.9-12.4-4.6-19.3
	C265.9,187.6,264,187.1,263.7,188.4L263.7,188.4z"/>
<path class="st3" d="M269.4,197.5c0,3.2,0,6.4-0.1,9.6c0,1.2,1.7,1.3,2,0.3c0.5-1.6,1-3.3,1.5-4.9c-0.7-0.1-1.3-0.2-2-0.3
	c0.1,1.9,0.1,3.8,0.2,5.7c0,1.3,2.1,1.3,2,0c0-2,0.2-3.9,0.8-5.8c-0.7-0.1-1.3-0.2-2-0.3c0.1,2.8-0.2,5.5-0.8,8.2
	c0.7,0.1,1.3,0.2,2,0.3c0.2-2.6,0.7-5,1.5-7.4c-0.7-0.1-1.3-0.2-2-0.3c0,2.9-0.4,5.5-1.3,8.3c0.6,0.2,1.3,0.4,1.9,0.5
	c0.5-2.6,1-5.1,1.5-7.7c0.3-1.3-1.6-1.8-1.9-0.5c-2,6.9-2.6,13.9-1.9,21c0.1,1.3,2.1,1.3,2,0c-0.7-7-0.1-13.8,1.9-20.5
	c-0.6-0.2-1.3-0.4-1.9-0.5c-0.5,2.6-1,5.1-1.5,7.7c-0.3,1.3,1.6,1.8,1.9,0.5c0.9-2.9,1.4-5.7,1.4-8.8c0-1.2-1.6-1.3-2-0.3
	c-0.9,2.6-1.4,5.2-1.6,8c-0.1,1.1,1.7,1.4,2,0.3c0.7-2.9,1-5.8,0.9-8.8c0-1.1-1.7-1.4-2-0.3c-0.6,2.1-0.9,4.1-0.8,6.3
	c0.7,0,1.3,0,2,0c-0.1-1.9-0.1-3.8-0.2-5.7c0-1.1-1.6-1.4-2-0.3c-0.5,1.6-1,3.3-1.5,4.9c0.7,0.1,1.3,0.2,2,0.3c0-3.2,0-6.4,0.1-9.6
	C271.5,196.2,269.4,196.2,269.4,197.5L269.4,197.5z"/>
<path class="st3" d="M308.2,192.7c0.3,3.9,1.2,7.5,3,11c0.4,0.9,2,0.5,1.9-0.5c-0.8-6.4-2.6-12.3-5.5-18.1c-0.5-0.9-1.9-0.5-1.9,0.5
	c0.1,5.1,1.1,9.9,3.2,14.6c0.5,1.1,2,0.3,1.8-0.8c-0.9-5.5-2.9-10.4-6.1-15c-0.6-0.9-2.2-0.4-1.8,0.8c0.9,2.6,1.8,5.2,2.6,7.8
	c0.4,1.3,2.1,0.7,1.9-0.5c-0.9-6.8-5.1-12.5-11.3-15.6c-1.1-0.5-1.9,0.7-1.2,1.6c5.5,7,10.3,19.4,0.2,25c0.5,0.5,0.9,0.9,1.4,1.4
	c0.5-0.7,0.9-1.3,1.4-2c0.7-1-0.8-2-1.6-1.2c-0.7,0.6-1.3,1.2-2,1.8c0.5,0.5,1,1,1.4,1.4c3.4-3.4,4.7-7.7,3.8-12.5
	c-0.2-1.3-2.2-0.7-1.9,0.5c0,0.2,0.1,0.5,0.1,0.7c0.2,1.3,2.2,0.7,1.9-0.5c0-0.2-0.1-0.5-0.1-0.7c-0.6,0.2-1.3,0.4-1.9,0.5
	c0.7,4-0.4,7.6-3.3,10.5c-0.9,0.9,0.5,2.3,1.4,1.4c0.7-0.6,1.3-1.2,2-1.8c-0.5-0.4-1.1-0.8-1.6-1.2c-0.5,0.7-0.9,1.3-1.4,2
	c-0.6,0.9,0.5,1.9,1.4,1.4c11.3-6.3,6.5-20.2,0.2-28.2c-0.4,0.5-0.8,1.1-1.2,1.6c5.8,2.8,9.5,8,10.3,14.4c0.6-0.2,1.3-0.4,1.9-0.5
	c-0.9-2.6-1.8-5.2-2.6-7.8c-0.6,0.3-1.2,0.5-1.8,0.8c3,4.4,5,9.2,5.9,14.5c0.6-0.3,1.2-0.5,1.8-0.8c-1.9-4.4-2.8-8.8-2.9-13.6
	c-0.6,0.2-1.3,0.3-1.9,0.5c2.8,5.4,4.5,11,5.3,17.1c0.6-0.2,1.3-0.3,1.9-0.5c-1.6-3.2-2.5-6.4-2.8-10
	C310.2,191.4,308.1,191.4,308.2,192.7L308.2,192.7z"/>
<path class="st3" d="M293.8,204.6c3.7,4.8,6,10.3,6.5,16.4c0.1,1.3,2.1,1.3,2,0c-0.6-6.4-2.8-12.3-6.8-17.4
	C294.7,202.5,293,203.5,293.8,204.6L293.8,204.6z"/>
<path class="st3" d="M301.8,204.8c-0.2,2.7,0.1,5.2,0.9,7.8c0.3,1.1,1.9,0.9,2-0.3c0.2-2.8,0-5.5-0.6-8.2c-0.2-1-1.7-0.9-1.9,0
	c-0.7,3.1-0.3,5.9,1.4,8.6c0.4,0.7,1.7,0.7,1.8-0.2c0.5-2.8,0.4-5.5-0.2-8.3c-0.2-0.8-1.2-1-1.7-0.4c-0.8,0.8-2,3.5-1.6,4.5
	c-0.3-0.7-1.7-0.6-1.8,0.2c-0.3,2.2,0.1,7,3.5,6c4.2-1.2,4.4-10.3,4.5-13.6c0-1.3-2-1.3-2,0c-0.1,2.5-0.2,5-0.3,7.5
	c0,1,1.4,1.4,1.9,0.5c1.4-2.8,2-5.4,1.9-8.5c-0.1-1.3-2-1.3-2,0c0,3.5,0,7.1,0,10.6c0.7,0,1.3,0,2,0c-0.1-6.3-1.4-12.1-3.9-17.9
	c-0.6,0.3-1.2,0.7-1.7,1c3.2,6.7,4,13.9,2.3,21.1c-0.2,0.9,1,1.8,1.7,1c7.1-8.1,9.8-18.9,7.3-29.4c-0.3-1.1-2-0.9-2,0.3
	c0,4.4,0,8.8,0,13.3c0,1.1,1.8,1.4,2,0.3c0.3-2.2,0.7-4.5,1-6.7c0.2-1.3-1.7-1.8-1.9-0.5c-1.2,5.5-2.4,11-3.6,16.5
	c-0.2,0.9,1,1.8,1.7,1c12.7-15.4-1.7-38-18.5-42.3c-9.3-2.4-19.7-0.2-27.2,5.7c-5.9,4.6-10.5,14.3-2.6,19.5c0.5,0.4,1.3,0,1.5-0.6
	c1.8-7.2,6-14,12.9-17.3c6.7-3.1,14.9-1.9,19.9,3.5c0.9,1,2.3-0.5,1.4-1.4c-5.3-5.8-13.9-7.3-21.1-4.4c-8,3.2-13,10.9-15.1,19
	c0.5-0.2,1-0.4,1.5-0.6c-9.3-6.1,2-16.6,8.1-19.5c7.5-3.5,16.3-4,24-0.7c13.3,5.6,24.4,24.7,13.8,37.6c0.6,0.3,1.1,0.7,1.7,1
	c1.2-5.5,2.4-11,3.6-16.5c-0.6-0.2-1.3-0.4-1.9-0.5c-0.3,2.2-0.7,4.5-1,6.7c0.7,0.1,1.3,0.2,2,0.3c0-4.4,0-8.8,0-13.3
	c-0.7,0.1-1.3,0.2-2,0.3c2.3,9.8-0.2,19.9-6.8,27.5c0.6,0.3,1.1,0.7,1.7,1c1.9-7.8,1-15.5-2.5-22.7c-0.6-1.2-2.3-0.1-1.7,1
	c2.4,5.4,3.6,11,3.6,16.8c0,1.3,2,1.3,2,0c0-3.5,0-7.1,0-10.6c-0.7,0-1.3,0-2,0c0.1,2.8-0.3,5-1.6,7.5c0.6,0.2,1.3,0.3,1.9,0.5
	c0.1-2.5,0.2-5,0.3-7.5c-0.7,0-1.3,0-2,0c-0.1,2.4-0.4,4.8-1,7.2c-0.2,0.8-0.4,2.2-1,2.9c-0.1,1.2-0.6,1.3-1.3,0.2
	c-1-0.4-1.3-1.1-0.8-2.1c-0.6,0.1-1.2,0.2-1.8,0.2c0.5,1.1,1.6,1.3,2.7,0.7c2.1-1.1,0.6-3.4,2.1-4.8c-0.6-0.1-1.1-0.3-1.7-0.4
	c0.5,2.5,0.6,4.7,0.2,7.2c0.6-0.1,1.2-0.2,1.8-0.2c-1.4-2.3-1.8-4.4-1.2-7c-0.6,0-1.3,0-1.9,0c0.5,2.6,0.7,5.1,0.5,7.7
	c0.7-0.1,1.3-0.2,2-0.3c-0.7-2.4-1-4.8-0.8-7.3C303.9,203.5,301.8,203.5,301.8,204.8L301.8,204.8z"/>
<path class="st3" d="M276,183.6c-0.6-1.7-2.2-1.5-3.4-0.4c-0.8,0.8-1.1,1.7-1.4,2.8c-0.5,1.8-1.1,3.7-1.6,5.5
	c-0.3,1.1,1.3,1.8,1.8,0.8c1.1-1.8,1.6-3.7,1.7-5.7c-0.7,0-1.3,0-2,0c0,2.1,0,4.3,0,6.4c0,1.1,1.3,1.3,1.9,0.5
	c1.1-1.5,1.3-3.3,0.8-5.1c-0.2-0.7-1.5-1.1-1.8-0.2c-0.8,1.9-1,3.6-0.7,5.7c0.2,1.3,2.2,0.7,1.9-0.5c-0.2-1.4-0.1-2.8,0.5-4.1
	c-0.6-0.1-1.2-0.2-1.8-0.2c0.4,1.3,0.2,2.4-0.6,3.5c0.6,0.2,1.3,0.3,1.9,0.5c0-2.1,0-4.3,0-6.4c0-1.3-2-1.3-2,0
	c0,1.7-0.5,3.2-1.4,4.7c0.6,0.3,1.2,0.5,1.8,0.8c0.4-1.5,0.9-2.9,1.3-4.4c0.2-0.7,0.3-1.6,0.6-2.2c0.1-0.2,0.3-0.4,0.4-0.6
	c0.5-0.2,0.6-0.4,0.2-0.6C274.5,185.3,276.5,184.8,276,183.6L276,183.6z"/>
<path class="st3" d="M272,186.8c-1.9,6.6,0.6,13.1,0.4,19.8c0,1.3,2,1.3,2,0c0.2-6.4-2.3-12.9-0.5-19.2
	C274.4,186.1,272.4,185.6,272,186.8L272,186.8z"/>
<path class="st3" d="M291.1,204c0.2,0.5,0.3,1,0.5,1.5c0.2,0.1,0.3,0.3,0.5,0.4c0.4,0.4,0.8,0.8,1.2,1.2c0.7,0.7,1.4,1.5,2.1,2.3
	c1.4,1.7,2.5,3.6,3.4,5.5c0.6,1.2,2.3,0.1,1.7-1c-1.8-3.8-4.5-7.4-7.8-10c-0.8-0.7-2.2-1.5-3.1-0.4c-0.6,0.7-0.4,1.9,0.4,2.3
	C291.3,206.3,292.3,204.5,291.1,204L291.1,204z"/>
<path class="st3" d="M291.8,206.4c1.6,0.9,2.8,2.2,3.6,3.8c0.5,1.2,2.3,0.2,1.7-1c-0.9-1.9-2.4-3.5-4.3-4.6
	C291.7,204,290.7,205.8,291.8,206.4L291.8,206.4z"/>
<path class="st3" d="M214.6,172c15.3,1.5,30.3,4.4,45.1,8.6c1.3,0.4,1.8-1.6,0.5-1.9c-14.9-4.2-30.2-7.1-45.6-8.6
	C213.4,169.8,213.4,171.9,214.6,172L214.6,172z"/>
<path class="st3" d="M318.1,193.9c21.8,2.1,43.3,5.9,64.5,11.6c1.3,0.3,1.8-1.6,0.5-1.9c-21.3-5.7-43.1-9.6-65-11.7
	C316.8,191.8,316.8,193.8,318.1,193.9L318.1,193.9z"/>
<path class="st3" d="M211.8,173.3c-0.3,29.4-0.6,58.8-0.9,88.1c0,1.3,2,1.3,2,0c0.3-29.4,0.6-58.8,0.9-88.1
	C213.8,172,211.8,172,211.8,173.3L211.8,173.3z"/>
<path class="st3" d="M210.6,274.2c0,38.2-0.2,76.8-10,114c-0.3,1.3,1.6,1.8,1.9,0.5c9.8-37.4,10-76.2,10.1-114.5
	C212.6,272.9,210.6,272.9,210.6,274.2L210.6,274.2z"/>
<path class="st3" d="M384.7,209.7c2,67.1,3.9,134.2,5.9,201.3c0,1.3,2.1,1.3,2,0c-2-67.1-3.9-134.2-5.9-201.3
	C386.7,208.4,384.7,208.4,384.7,209.7L384.7,209.7z"/>
<path class="st3" d="M205.3,396.5c34.3,7.3,68.5,14.6,102.8,22c1.3,0.3,1.8-1.7,0.5-1.9c-34.3-7.3-68.5-14.6-102.8-22
	C204.6,394.2,204.1,396.2,205.3,396.5L205.3,396.5z"/>
<path class="st3" d="M334.9,428c13.5,4.1,27.4,6.8,41.5,8.2c3.7,0.4,10.9,2.4,13.6-1.2c2.9-4,2.8-12,2.7-16.7c0-1.3-2-1.3-2,0
	c0.1,5.2,0.5,15.3-5.9,16.5c-2.2,0.4-5.4-0.4-7.6-0.6c-3-0.3-6-0.6-9-1c-11.1-1.5-22-3.9-32.7-7.2
	C334.2,425.7,333.7,427.6,334.9,428L334.9,428z"/>
<path class="st3" d="M199.8,412.8c2.2,0.4,4.5,0.9,6.7,1.3c1.2,0.2,2.5,0.5,3.7,0.7c2.1,0.4,2.8,0.1,3.7,2.3
	c1.7,4.1-0.7,10.9-1.3,15.3c-0.2,1.3,1.8,1.8,1.9,0.5c0.6-4,1.2-8,1.8-12c0.2-1.6,1.1-4.3,0.2-5.8c-0.9-1.5-2.8-1.6-4.3-1.9
	c-4-0.8-8-1.6-11.9-2.4C199.1,410.6,198.6,412.6,199.8,412.8L199.8,412.8z"/>
<path class="st3" d="M196.4,412.3c-0.5,3.2-1,6.4-1.5,9.6c-0.2,1.6-1.3,4.5-0.5,6.2c0.6,1.3,2.2,1.5,3.4,1.9c3.1,1,6.2,1.8,9.4,2.8
	c1.3,0.4,1.8-1.6,0.5-1.9c-2-0.6-4-1.2-6-1.8c-2.5-0.7-5.2-0.6-5.3-3.8c-0.1-3.9,1.3-8.5,1.9-12.4
	C198.6,411.6,196.6,411,196.4,412.3L196.4,412.3z"/>
<path class="st3" d="M227.4,422c8.6,1.6,17.2,3.2,25.7,4.7c1.3,0.2,1.8-1.7,0.5-1.9c-8.6-1.6-17.2-3.2-25.7-4.7
	C226.7,419.8,226.1,421.7,227.4,422L227.4,422z"/>
<path class="st3" d="M223.3,432c14.9,4,30,7.3,45.2,9.8c1.3,0.2,1.8-1.7,0.5-1.9c-15.2-2.5-30.3-5.7-45.2-9.8
	C222.6,429.7,222.1,431.6,223.3,432L223.3,432z"/>
<path class="st3" d="M228.2,355c0.1,0,0.2-0.1,0.3-0.1c0.3-0.1,0.5-0.6,0.5-0.9c-0.1-0.8-0.2-1.1-0.9-1.6c-0.3-0.2-0.7-0.2-1,0
	c-2.5,1.7-2.7,6.5-3.4,9.2c-1.2,5-2.2,10-3.1,15c-0.2,1.3,1.7,1.8,1.9,0.5c0.7-3.8,1.4-7.5,2.2-11.3c0.4-1.7,0.8-3.5,1.2-5.2
	c0.1-0.6,1.7-7.6,1.1-7.4C225.9,353.8,227,355.5,228.2,355L228.2,355z"/>
<path class="st3" d="M222.4,378.3c23,11.3,49,13.6,74,17.1c6.8,0.9,13.7,1.9,20.5,2.8c3.4,0.5,6.8,0.9,10.2,1.4
	c2.9,0.4,5.9,1.2,8.8,1.2c4.8-0.1,4.9-5.3,5.6-9c1.3-6.5,1.9-13,1.9-19.6c0-1.3-2-1.3-2,0c-0.1,6.4-0.6,12.8-1.8,19.1
	c-0.2,1.2-0.3,2.7-0.8,3.8c0,1.6-0.8,2.4-2.6,2.5c-1.2,1-2.4,1.2-3.8,0.8c-2.8,0-5.9-0.8-8.7-1.2c-11.8-1.6-23.6-3.3-35.5-4.9
	c-22.1-3.1-44.6-5.8-64.9-15.7C222.3,376,221.2,377.7,222.4,378.3L222.4,378.3z"/>
<path class="st3" d="M226.8,356.4c38.2,3.6,76.2,9.5,113.7,17.8c1.3,0.3,1.8-1.7,0.5-1.9c-37.7-8.3-75.8-14.2-114.2-17.8
	C225.5,354.3,225.5,356.3,226.8,356.4L226.8,356.4z"/>
<path class="st3" d="M230.2,304.7c-1.6,7.4-2.9,14.9-3.7,22.4c0,0.4,0.3,0.9,0.7,1c38.4,9.9,77.4,17.5,116.7,22.7c0.6,0.1,1-0.5,1-1
	c0.2-7.4,1-14.7,2.5-21.9c0.3-1.3-1.7-1.8-1.9-0.5c-1.5,7.4-2.4,14.9-2.6,22.4c0.3-0.3,0.7-0.7,1-1c-23.1-3.1-46.1-7-69-11.7
	c-11.2-2.3-22.4-4.8-33.5-7.5c-2.5-0.6-5.1-1.2-7.6-1.9c-0.7-0.2-4-0.6-4.5-1.2c-1-1-0.4-2.5-0.3-3.7c0.8-5.9,1.8-11.8,3.1-17.6
	C232.4,304,230.5,303.4,230.2,304.7L230.2,304.7z"/>
<path class="st3" d="M231.5,306c37.8,5.4,75.5,11.5,113.1,18.3c1.3,0.2,1.8-1.7,0.5-1.9c-37.6-6.8-75.3-12.9-113.1-18.3
	C230.7,303.9,230.2,305.8,231.5,306L231.5,306z"/>
<path class="st3" d="M234.5,257.9c-1,5.9-2,11.9-3,17.8c-0.2,1.3,1.7,1.8,1.9,0.5c1-5.9,2-11.9,3-17.8
	C236.6,257.1,234.7,256.6,234.5,257.9L234.5,257.9z"/>
<path class="st3" d="M231.3,278.9c38.1,7.4,76.4,13.8,114.9,19.2c1.3,0.2,1.8-1.8,0.5-1.9c-38.4-5.4-76.7-11.8-114.9-19.2
	C230.6,276.7,230,278.7,231.3,278.9L231.3,278.9z"/>
<path class="st3" d="M238.1,257.4c22.6,2,45.1,5.3,67.3,9.8c10.6,2.2,21.2,4.6,31.7,7.4c2.5,0.6,6,1,8.2,2.2c2.3,1.3,0.9,5,0.6,7.4
	c-0.8,6.1-1.8,12.2-2.8,18.3c-0.2,1.3,1.7,1.8,1.9,0.5c1.6-8.8,2.8-17.7,3.8-26.5c0-0.4-0.3-0.9-0.7-1
	c-36-10.1-72.8-16.8-110.1-20.1C236.8,255.2,236.8,257.3,238.1,257.4L238.1,257.4z"/>
<path class="st3" d="M237.8,246.1c10.5,2,21.1,3.2,31.8,3.5c1.3,0,1.3-2,0-2c-10.5-0.3-20.9-1.4-31.2-3.4
	C237.1,243.9,236.6,245.9,237.8,246.1L237.8,246.1z"/>
<path class="st3" d="M234.1,300.5c14.8,1,29.5,2.7,44.1,4.9c1.3,0.2,1.8-1.7,0.5-1.9c-14.8-2.3-29.7-4-44.6-5
	C232.8,298.4,232.8,300.5,234.1,300.5L234.1,300.5z"/>
<path class="st3" d="M357.8,288.7c-0.2-1-0.4-1.9-0.6-2.9c-0.6,0.3-1.2,0.5-1.8,0.8c1.2,2.7,2.2,6.6,4.1,8.8c0.8,1,1.7,1.4,2.9,1
	c2.2-0.6,4-3.7,5.4-5.3c2.3-2.6,4.6-5.3,6.8-8c0.8-1-0.6-2.4-1.4-1.4c-2.8,3.4-5.6,6.7-8.5,9.9c-0.4,0.5-1.2,1.7-1.8,1.9
	c-2.2,0.9-2.3-0.6-2.9-1.8c-1-2.1-1.9-4.2-2.9-6.2c-0.5-1.1-2.1-0.3-1.8,0.8c0.2,1,0.4,1.9,0.6,2.9
	C356.1,290.5,358.1,289.9,357.8,288.7L357.8,288.7z"/>
<path class="st3" d="M352.7,337.2c1.7,3,3.3,6.1,5,9.1c0.3,0.6,1.1,0.6,1.6,0.2c5.2-4.6,9.7-9.8,13.5-15.6c0.7-1.1-1-2.1-1.7-1
	c-3.7,5.7-8.1,10.7-13.2,15.2c0.5,0.1,1.1,0.1,1.6,0.2c-1.7-3-3.3-6.1-5-9.1C353.8,335,352.1,336.1,352.7,337.2L352.7,337.2z"/>
<path class="st3" d="M241.5,321.2c0-0.3,0-0.5,0-0.8c0-1.3-2-1.3-2,0c0,0.3,0,0.5,0,0.8C239.5,322.5,241.5,322.5,241.5,321.2
	L241.5,321.2z"/>
<g>
	<g>
		<path class="st3" d="M251,323.3c1.6,0,1.6-2.5,0-2.5C249.4,320.8,249.4,323.3,251,323.3L251,323.3z"/>
	</g>
</g>
<g>
	<g>
		<path class="st3" d="M261.5,325.7c1.6,0,1.6-2.5,0-2.5C259.9,323.2,259.9,325.7,261.5,325.7L261.5,325.7z"/>
	</g>
</g>
<g>
	<g>
		<path class="st3" d="M273.7,328.1c1.6,0,1.6-2.5,0-2.5C272.1,325.6,272.1,328.1,273.7,328.1L273.7,328.1z"/>
	</g>
</g>
<path class="st3" d="M283.4,328.3c-0.3,0-0.5,0-0.8,0c-1.3,0-1.3,2,0,2c0.3,0,0.5,0,0.8,0C284.7,330.3,284.7,328.3,283.4,328.3
	L283.4,328.3z"/>
<path class="st3" d="M297.3,332.6c0-0.3,0-0.5,0-0.8c0-1.3-2-1.3-2,0c0,0.3,0,0.5,0,0.8C295.3,333.9,297.3,333.9,297.3,332.6
	L297.3,332.6z"/>
<path class="st3" d="M227.1,373.4c18.7,3.1,37.3,6.1,56,9.2c9.2,1.5,18.4,3,27.6,4.5c8.7,1.4,17.3,3,26.1,2.5c0.5,0,0.8-0.3,1-0.7
	c0.8-2.1,1-3.9,0.6-6.2c-0.1-0.3-0.4-0.6-0.7-0.7c-18.9-3.6-37.7-7.2-56.6-10.9c-8.5-1.6-17.1-3.5-25.8-3.8
	c-9.3-0.4-18.8,0.6-27.7-2.8c-0.5-0.2-1.2,0.2-1.2,0.7c-0.2,1.7-0.5,3.4-0.7,5.1c-0.2,1.3,1.8,1.8,1.9,0.5c0.2-1.7,0.5-3.4,0.7-5.1
	c-0.4,0.2-0.8,0.5-1.2,0.7c6,2.3,12.3,2.7,18.7,2.8c7.4,0.1,14.6,0.3,22,1.5c14.1,2.3,28.2,5.3,42.3,8c7.2,1.4,14.5,2.8,21.7,4.2
	c1.7,0.3,4.5,0.2,4.9,2.4c0.5,2.6-1.9,2.5-3.6,2.5c-3.8,0-7.5-0.4-11.2-0.9c-14.9-2-29.7-4.8-44.5-7.2c-16.6-2.7-33.1-5.4-49.7-8.1
	C226.4,371.2,225.9,373.2,227.1,373.4L227.1,373.4z"/>
<path class="st3" d="M305.3,219.9c0.6-1.3,1.1-2.5,1.7-3.8c-0.6-0.3-1.2-0.5-1.8-0.8c-0.1,0.8-0.3,1.6-0.6,2.4
	c-0.1,0.3-0.2,0.7-0.3,1c-0.1,0.3-0.2,0.5-0.3,0.8c-0.3,0.5-0.1,1,0.5,1.5c-0.3,0-0.5,0.1-0.8,0.1c0,0,0.1,0,0.1,0
	c1.2,0.5,1.7-1.5,0.5-1.9c-1.8-0.7-2.2,3,0,2.6c1-0.2,1.4-1.2,1.7-2.1c0.5-1.2,0.8-2.5,1-3.8c0.2-1-1.4-1.9-1.8-0.8
	c-0.6,1.3-1.1,2.5-1.7,3.8C303,220,304.7,221.1,305.3,219.9L305.3,219.9z"/>
<path class="st3" d="M264,171.4c-3.9,0.1-7.2,2.7-8.2,6.5c-0.3,1.3,1.6,1.8,1.9,0.5c0.8-2.9,3.3-4.9,6.3-5
	C265.3,173.4,265.3,171.3,264,171.4L264,171.4z"/>
<path class="st3" d="M258.9,172.7c-2.8,3.8-4.3,8.1-4.7,12.8c-0.1,1.3,1.9,1.3,2,0c0.4-4.3,1.9-8.2,4.5-11.7
	C261.4,172.6,259.7,171.6,258.9,172.7L258.9,172.7z"/>
<path class="st3" d="M200.9,391.3c0.5,0.8,1.1,1.6,1.6,2.4c0.3,0.5,0.9,0.6,1.4,0.4c0.5-0.3,0.7-0.9,0.4-1.4
	c-0.5-0.8-1.1-1.6-1.6-2.4c-0.3-0.5-0.9-0.6-1.4-0.4C200.8,390.1,200.6,390.8,200.9,391.3L200.9,391.3z"/>
<path class="st3" d="M439,191c-1.7,3-1.1,6.5-1.1,9.8c0.1,5.1,0.1,10.2,0.2,15.4c0.1,10,0.2,19.9,0.3,29.9
	c0.2,19.9,0.4,39.9,0.6,59.8c0,1.3,2,1.3,2,0c-0.2-18.9-0.4-37.7-0.6-56.6c-0.1-9.2-0.2-18.3-0.3-27.5c0-4.9-0.1-9.7-0.1-14.6
	c0-2.2,0-4.3-0.1-6.5c0-2.7-0.6-6.3,0.8-8.8C441.4,190.9,439.7,189.9,439,191L439,191z"/>
<path class="st3" d="M450.5,276c0,3.7,0,7.4,0,11c0,1.1,1.7,1.4,2,0.3c0.6-3-2.2-12.7,3.2-12.5c-0.3-0.2-0.6-0.5-1-0.7
	c1.5,4.8,1.8,9.7,1,14.7c-0.2,1.3,1.7,1.8,1.9,0.5c0.9-5.3,0.6-10.6-1-15.8c-0.1-0.4-0.5-0.7-1-0.7c-7.6-0.3-4.3,10-5.1,14
	c0.7,0.1,1.3,0.2,2,0.3c0-3.7,0-7.4,0-11C452.5,274.7,450.5,274.7,450.5,276L450.5,276z"/>
<path class="st3" d="M441.9,328.5c0.1,41.8,2.1,83.7,6,125.3c0.1,1.3,2.1,1.3,2,0c-4-41.7-6-83.5-6-125.3
	C443.9,327.2,441.9,327.2,441.9,328.5L441.9,328.5z"/>
<path class="st3" d="M453,373.8c-0.3,3.3,0,6.5,0.8,9.7c0.3,1.1,2,0.9,2-0.3c0-2.8-1.4-9.7,1.2-11.5c1.3-1,3.8-1.3,5.4-1.8
	c1.7-0.5,3.4-1.1,5.1-1.6c-0.4-0.3-0.9-0.6-1.3-1c0.3,3.1,2.5,10-0.2,12.2c-1.3,1-3.4,1.7-4.8,2.4c-2,1-4,2-6.1,3
	c-1.2,0.6-0.1,2.3,1,1.7c2.4-1.2,4.8-2.4,7.3-3.6c1.6-0.8,4.4-1.6,5.4-3.2c0.8-1.2,0.6-2.4,0.4-3.8c-0.3-3-0.7-5.9-1-8.9
	c-0.1-0.6-0.6-1.2-1.3-1c-2.5,0.8-5.1,1.6-7.6,2.4c-1.6,0.5-3.4,0.9-4.5,2.2c-0.8,0.9-0.9,1.9-1,3.1c-0.2,3,0,6.1,0.1,9.1
	c0.7-0.1,1.3-0.2,2-0.3c-0.8-3-1-6-0.8-9.1C455.1,372.5,453.1,372.5,453,373.8L453,373.8z"/>
<path class="st3" d="M454.2,375.7c3.9-1.8,7.8-3.5,11.7-5.3c1.1-0.5,0.2-2-0.8-1.8c-3.8,0.5-7.1,2.3-9.7,5.2c-0.8,0.9,0.2,2,1.2,1.6
	c2.6-1.1,5.2-2.2,7.8-3.3c-0.4-0.5-0.8-1.1-1.2-1.6c-2.2,1.9-4.5,3.5-7,5c-1,0.6-0.3,2.2,0.8,1.8c3-1,5.7-2.2,8.4-3.8
	c-0.4-0.5-0.8-1.1-1.2-1.6c-2.2,1.9-4.4,3.8-6.7,5.7c-0.9,0.8,0.2,2.1,1.2,1.6c2-1.1,4-1.7,6.3-1.9c-0.2-0.6-0.5-1.2-0.7-1.7
	c-1.9,1.6-4,2.8-6.2,3.7c0.3,0.6,0.5,1.2,0.8,1.8c2.5-1.3,5-2.2,7.7-3c-0.3-0.6-0.7-1.1-1-1.7c-2.5,2.1-5.1,3.9-7.9,5.5
	c-1,0.5-0.3,2.3,0.8,1.8c2-0.8,4-1.6,6-2.3c-0.4-0.5-0.8-1-1.1-1.5c-0.9,1.8-3.2,2.3-4.8,1.1c-2.2-1.6-1.4-4.6-0.1-6.5
	c-0.6-0.3-1.2-0.5-1.8-0.8c-0.6,1.7-1.3,3.4-1.9,5.1c0.6-0.1,1.2-0.2,1.8-0.2c-0.5-0.8-0.9-1.7-1.4-2.5c-0.4-0.7-1.7-0.6-1.8,0.2
	c-0.3,1.2-0.3,2,0,3.2c0.2,0.8,1.4,1,1.8,0.2c0.8-1.3,1.5-2.6,2.3-3.9c0.7-1.1-1.1-2.1-1.7-1c-0.8,1.3-1.5,2.6-2.3,3.9
	c0.6,0.1,1.2,0.2,1.8,0.2c0-0.7,0-1.4,0-2.1c-0.6,0.1-1.2,0.2-1.8,0.2c0.5,0.8,0.9,1.7,1.4,2.5c0.5,0.8,1.6,0.5,1.8-0.2
	c0.6-1.7,1.3-3.4,1.9-5.1c0.4-1.1-1.2-1.6-1.8-0.8c-2,2.8-2.3,7.3,0.9,9.3c2.5,1.6,6.1,0.8,7.5-1.9c0.4-0.7-0.3-1.8-1.1-1.5
	c-2,0.8-4,1.6-6,2.3c0.3,0.6,0.5,1.2,0.8,1.8c3-1.7,5.7-3.6,8.3-5.8c0.8-0.7-0.1-1.9-1-1.7c-2.8,0.8-5.6,1.8-8.2,3.2
	c-1,0.5-0.3,2.3,0.8,1.8c2.6-1.1,4.9-2.5,7.1-4.3c0.7-0.5,0.1-1.8-0.7-1.7c-2.6,0.3-5,1-7.3,2.2c0.4,0.5,0.8,1.1,1.2,1.6
	c2.2-1.9,4.4-3.8,6.7-5.7c0.9-0.8-0.3-2.2-1.2-1.6c-2.5,1.5-5.2,2.7-7.9,3.6c0.3,0.6,0.5,1.2,0.8,1.8c2.6-1.5,5.1-3.3,7.4-5.3
	c0.9-0.8-0.3-2-1.2-1.6c-2.6,1.1-5.2,2.2-7.8,3.3c0.4,0.5,0.8,1.1,1.2,1.6c2.4-2.6,5.3-4.2,8.8-4.7c-0.3-0.6-0.5-1.2-0.8-1.8
	c-3.9,1.8-7.8,3.5-11.7,5.3C452,374.5,453,376.2,454.2,375.7L454.2,375.7z"/>
<path class="st3" d="M464.2,370.6c0.1,2.1,0.1,4.2,0.2,6.3c0,1.1,1.7,1.4,2,0.3c0.5-1.7,1-3.5,1.6-5.2c-0.6,0-1.3,0-1.9,0
	c0.4,1.8,0.9,3.5,1.3,5.3c0.2,0.9,1.7,1,1.9,0c0.5-2.3-0.2-4.6-2-6.2c-0.5-0.5-1.6-0.4-1.7,0.4c-0.2,1.4-0.2,2.7,0.3,4
	c0.4,1.1,1.9,0.9,2-0.3c0.2-1.7-0.1-3.2-0.8-4.7c-0.5-1-1.8-0.4-1.9,0.5c-0.1,1.4-0.1,2.8-0.2,4.2c0.4-0.3,0.9-0.6,1.3-1
	c0.7,0.2-0.8,1.6-1,1.9c-1,0.9,0.5,2.3,1.4,1.4c0.8-0.7,1.5-1.6,1.4-2.8c-0.1-0.9-0.8-1.7-1.8-1.8c-1.8-0.1-2.3,2.7-0.5,3.2
	c0.7,0.2,1.3-0.3,1.3-1c0.1-1.4,0.1-2.8,0.2-4.2c-0.6,0.2-1.3,0.3-1.9,0.5c0.6,1.2,0.7,2.4,0.6,3.7c0.7-0.1,1.3-0.2,2-0.3
	c-0.4-1-0.5-1.9-0.3-3c-0.6,0.1-1.1,0.3-1.7,0.4c1.2,1.1,1.8,2.6,1.5,4.2c0.6,0,1.3,0,1.9,0c-0.4-1.8-0.9-3.5-1.3-5.3
	c-0.3-1-1.7-0.9-1.9,0c-0.5,1.7-1,3.5-1.6,5.2c0.7,0.1,1.3,0.2,2,0.3c-0.1-2.1-0.1-4.2-0.2-6.3C466.2,369.3,464.2,369.3,464.2,370.6
	L464.2,370.6z"/>
<path class="st3" d="M456.1,375.9c-0.6,2.4-1.1,4.9-1.7,7.3c0.6,0,1.3,0,1.9,0c-0.8-2.7-0.9-5.5-0.4-8.3c-0.6,0.1-1.2,0.2-1.8,0.2
	c1,2.1,1.4,4.2,1.2,6.6c0.7,0,1.3,0,2,0c-0.2-2.8-0.7-5.4-1.7-8c-0.4-1-2-0.9-2,0.3c0,1.6,0,3.1,0,4.7c0,1.3,2,1.3,2,0
	c0-1.6,0-3.1,0-4.7c-0.7,0.1-1.3,0.2-2,0.3c0.9,2.4,1.5,4.9,1.6,7.5c0.1,1.3,1.9,1.3,2,0c0.2-2.7-0.3-5.2-1.5-7.6
	c-0.4-0.8-1.7-0.6-1.8,0.2c-0.6,3.2-0.5,6.3,0.4,9.4c0.3,0.9,1.7,1,1.9,0c0.6-2.4,1.1-4.9,1.7-7.3
	C458.4,375.2,456.4,374.7,456.1,375.9L456.1,375.9z"/>
<path class="st3" d="M457.8,421.5c-0.1,3.9,0.5,7.6,1.9,11.2c0.3,0.9,1.7,1,1.9,0c0.5-1.8,0.7-3.7,0.7-5.6c-0.1-2.1-1.2-4.1-1.4-6.1
	c-0.3-4.1,9.9-7.1,13.3-8.7c-0.5-0.2-1-0.4-1.5-0.6c0.8,5.2,1.5,10.3,2.2,15.5c0.2,1.3,2.2,1.3,2,0c-0.7-5.4-1.4-10.7-2.2-16
	c-0.1-0.7-1-0.9-1.5-0.6c-2.7,1.3-5.5,2.6-8.2,3.9c-1.6,0.8-4.8,1.6-5.9,3.3c-0.8,1.3-0.5,2.4-0.1,3.8c1.1,3.7,1.7,6.7,0.7,10.6
	c0.6,0,1.3,0,1.9,0c-1.3-3.5-1.9-6.9-1.8-10.7C459.9,420.2,457.8,420.2,457.8,421.5L457.8,421.5z"/>
<path class="st3" d="M463.6,418.6c-0.7,1.1-1.3,2.2-2,3.2c-0.6,1,0.8,2.1,1.6,1.2c1.2-1.3,2.4-2.6,3.6-3.9c-0.5-0.4-1.1-0.8-1.6-1.2
	c-1.6,2.1-3.1,4.1-4.7,6.2c0.6,0.3,1.2,0.7,1.7,1c2-3,4.3-5.7,6.8-8.3c-0.5-0.4-1.1-0.8-1.6-1.2c-1.5,2.8-3,5.6-4.6,8.4
	c-0.5,1,0.8,2.1,1.6,1.2c1.9-2,3.7-4.1,5.6-6.1c-0.5-0.4-1.1-0.8-1.6-1.2c-1.3,2.8-2.6,5.6-3.9,8.4c-0.5,1.2,1.1,2.2,1.7,1
	c2.2-3.6,4.4-7.1,6.5-10.7c-0.6-0.3-1.2-0.5-1.8-0.8c-1.5,4.2-3.5,8.2-5.8,12.1c-0.6,1,0.9,2.1,1.6,1.2c2.9-3.7,5.4-7.7,7.4-12
	c-0.6-0.3-1.2-0.5-1.8-0.8c-1.4,4.2-3.2,8.3-5.2,12.3c-0.5,1,0.8,2.1,1.6,1.2c2-2.4,3.7-4.9,5.2-7.7c-0.6-0.3-1.2-0.5-1.8-0.8
	c-0.7,2.1-1.5,4.1-2.2,6.2c-0.4,1.2,1.5,1.8,1.9,0.5c0.7-2.1,1.5-4.1,2.2-6.2c0.4-1.1-1.3-1.8-1.8-0.8c-1.4,2.6-3,5-4.9,7.3
	c0.5,0.4,1.1,0.8,1.6,1.2c2.2-4.1,4-8.4,5.4-12.8c0.4-1.1-1.4-1.8-1.8-0.8c-1.9,4.1-4.3,8-7.1,11.6c0.5,0.4,1.1,0.8,1.6,1.2
	c2.4-4,4.4-8.2,6-12.6c0.4-1.1-1.3-1.7-1.8-0.8c-2.2,3.6-4.4,7.1-6.5,10.7c0.6,0.3,1.2,0.7,1.7,1c1.3-2.8,2.6-5.6,3.9-8.4
	c0.4-1-0.8-2.1-1.6-1.2c-1.9,2-3.7,4.1-5.6,6.1c0.5,0.4,1.1,0.8,1.6,1.2c1.5-2.8,3-5.6,4.6-8.4c0.5-1-0.8-2.1-1.6-1.2
	c-2.6,2.7-5,5.6-7.1,8.7c-0.7,1.1,1,2,1.7,1c1.6-2.1,3.1-4.1,4.7-6.2c0.7-0.9-0.8-2.1-1.6-1.2c-1.2,1.3-2.4,2.6-3.6,3.9
	c0.5,0.4,1.1,0.8,1.6,1.2c0.7-1.1,1.3-2.2,2-3.2C466,418.5,464.3,417.4,463.6,418.6L463.6,418.6z"/>
<path class="st3" d="M470.7,415c0.4,4,0.8,8,1.3,11.9c0.7-0.1,1.3-0.2,2-0.3c-0.8-4.1-0.7-7.9,0.3-11.9c-0.6,0-1.3,0-1.9,0
	c0.6,3.7,1.1,7.4,1.7,11.1c0.2,1.1,2.1,0.9,2-0.3c-0.1-0.5-0.1-0.9-0.2-1.4c-0.6,0.2-1.3,0.3-1.9,0.5c2,3.7-6.8,3.8-9,4.4
	c-2.4,0.7-4.6,1.9-6.7,3.3c0.5,0.3,1,0.6,1.5,0.9c0.3-4.4,0.5-8.7,0.8-13.1c-0.7,0-1.3,0-2,0c0.2,2,0.7,3.7,1.6,5.5
	c0.5,1,1.8,0.4,1.9-0.5c0.1-1.4,0.2-2.8,0.3-4.2c-0.7,0.1-1.3,0.2-2,0.3c0.8,2,1.6,4,2.3,5.9c0.3,0.8,1.8,1.1,1.9,0
	c0.3-2.1,2.5-3.9,4.6-3.8c1.3,0.1,1.3-2,0-2c-3.4-0.2-6.1,1.9-6.6,5.3c0.6,0,1.3,0,1.9,0c-0.8-2-1.6-4-2.3-5.9c-0.4-1-1.9-0.9-2,0.3
	c-0.1,1.4-0.2,2.8-0.3,4.2c0.6-0.2,1.3-0.3,1.9-0.5c-0.7-1.4-1.2-2.9-1.3-4.5c-0.2-1.3-1.9-1.3-2,0c-0.3,4.4-0.5,8.7-0.8,13.1
	c0,0.7,0.9,1.3,1.5,0.9c2.3-1.6,4.7-2.8,7.3-3.4c2.2-0.5,4.8-0.3,6.9-1.3c2.3-1.1,3.4-3.5,2.1-5.8c-0.5-0.8-2-0.5-1.9,0.5
	c0.1,0.5,0.1,0.9,0.2,1.4c0.7-0.1,1.3-0.2,2-0.3c-0.6-3.7-1.1-7.4-1.7-11.1c-0.2-1-1.7-0.9-1.9,0c-1,4.4-1.1,8.6-0.3,13
	c0.2,1.1,2.1,0.9,2-0.3c-0.4-4-0.8-8-1.3-11.9C472.6,413.7,470.6,413.7,470.7,415L470.7,415z"/>
<path class="st3" d="M439.5,184.2c0.1,0,0.2,0,0.3,0c0.4,0,0.9-0.3,1-0.7c0.1-0.8,0.1-1.2-0.5-1.7c-0.5-0.4-1-0.4-1.4,0
	c-2.4,1.9-1.8,8-2.1,10.7c0.7,0,1.3,0,2,0c0.3-3,0.6-5.9,0.8-8.9c-0.7,0-1.3,0-2,0c0,8.2,0,16.4,0,24.5c0,1.3,2,1.3,2,0
	c0-8.2,0-16.4,0-24.5c0-1.3-1.9-1.3-2,0c-0.3,3-0.6,5.9-0.8,8.9c-0.1,1.3,1.9,1.3,2,0c0.2-1.9,0-8.1,1.5-9.2c-0.5,0-1,0-1.4,0
	c0.2-0.3,0.5-0.7,0.7-1C438.2,182.2,438.2,184.2,439.5,184.2L439.5,184.2z"/>
<path class="st3" d="M438.7,185.5c0.2-1.3-0.6-2.5-2.1-2.1c-2.5,0.8-1.2,5.8-1.2,7.5c0.5,10.9,0.9,21.8,1.3,32.6
	c0.8,22,1.3,44.1,1.6,66.1c0,1.3,2,1.3,2,0c-0.2-17.5-0.6-35-1.1-52.6c-0.3-8.5-0.5-17-0.9-25.5c-0.2-4.5-0.4-9-0.5-13.5
	c-0.1-2.1-0.2-4.2-0.3-6.4c0-1.1-0.1-2.1-0.1-3.2c0-0.9-0.7-3-0.6-3.6C436.5,186.3,438.5,186.8,438.7,185.5L438.7,185.5z"/>
<path class="st3" d="M230.8,360c0.1-1,0.2-2,0.3-3c0.5-5.2-7.6-5.1-8.1,0c-0.6,6.1-1.9,12.6-1.8,18.7c0.1,5.3,4.3,6.8,8.7,8.1
	c11.5,3.5,23.2,6,35.1,7.7c23.8,3.4,47.8,4,71.7,4.5c1.6,0,3.7-1.3,3.9-3c1-7.1,1.3-14.1,0.6-21.3c-0.2-2.2-1.7-4-4-4
	c-18.6-0.5-37.1-1.3-55.6-2.6c-9-0.6-18-1.3-27-2c-4.8-0.4-9.5-0.8-14.3-1.3c-2.3-0.2-7.4-0.3-8.5-2.8c-1.3,1.7-2.6,3.4-3.9,5.1
	c8-1,16,0.2,23.9,1.3c7.7,1.1,15.4,2.2,23.2,3.3c15.7,2.2,31.4,4.3,47.1,6.6c2.8,0.4,5.5,0.7,6.9,3.4c1.2,2.3,1.3,5.2,1.4,7.8
	c0,2.3,0.5,5.9-2.2,6.5c-3.1,0.6-7.7-0.7-10.9-1.1c-14.5-1.6-29-3.5-43.3-6.3c-16.1-3.2-32-7.8-47-14.8c-0.7,2.5-1.4,5-2,7.5
	c12.6-0.7,25.2,0,37.6,2.4c5.1,1,7-6,2.1-7.8c-8.4-3.2-17.1-5.1-26.1-6.2c-4.1-0.5-5.4,5.7-2,7.5c10.8,5.8,22.4,9.7,34.6,11.4
	c4.3,0.6,7.4-4.9,3.1-7.4c-8.5-5.1-17.8-8.6-27.5-10.3c-4.3-0.8-7.3,4.9-3.1,7.4c10.1,6,21.2,9.9,32.9,11.5c4,0.6,7.7-5.4,3.1-7.4
	c-9.6-4.2-19.4-6.9-29.8-8.3c-4.5-0.6-5.4,6.9-1.1,7.9c14.8,3.5,29.5,7,44.3,10.5c4.2,1,7.5-5.4,3.1-7.4c-8.8-4-17.8-7-27.2-8.8
	c-5.2-1-6.9,5.8-2.1,7.8c11.5,4.8,23.4,8.3,35.6,10.7c4.5,0.9,6.9-4.7,3.1-7.4c-8.4-5.9-17.8-10.2-27.7-12.8
	c-5.2-1.4-6.8,5.8-2.1,7.8c10.1,4.3,20.6,7.1,31.4,8.6c5.1,0.7,7.2-6,2.1-7.8c-7.2-2.6-14.3-5.2-21.5-7.8c-4.3-1.5-7.3,5.5-3.1,7.4
	c11.5,5.1,23.4,8.4,35.9,10.1c3.5,0.5,5.4-4.7,2.9-6.9c-4.3-3.7-9.1-6.4-14.5-8.2c-4.3-1.4-7.1,5.2-3.1,7.4c5.8,3.1,12,5.3,18.6,6.3
	c3.3,0.5,6.5-2.6,4.6-5.9c-1-1.7-1.9-3.3-2.9-5c-2.6-4.5-9.6-0.4-7,4.1c1.9,3.4,4.9,5.6,8.7,6.5c3.1,0.7,5.6-1.9,5-5
	c-0.5-2.3-1.3-4.4-2.6-6.3c-2.5-3.7-8.6-1.5-7.4,3.1c0.9,3.2,2.7,5.6,5.5,7.4c3.6,2.2,7.3-2.1,5.5-5.5c-3.3-6.4-9.4-10.2-16.5-10.8
	c-4.1-0.3-5.4,5.7-2,7.5c1,0.6,2.1,1.1,3.1,1.7c1.4-2.3,2.7-4.7,4.1-7c-7.9-3.3-16-4.2-24.3-2.1c-4.4,1.1-3.5,8,1.1,7.9
	c3.6,0,7.1,0,10.7-0.1c5.2,0,5.2-7.9,0-8.1c-18.2-0.8-36.4-1.5-54.6-2.3c0.7,2.5,1.4,5,2,7.5c4.6-2.4,9.5-3.6,14.7-3.7
	c4.4,0,5.7-7.1,1.1-7.9c-11.5-2-23.1-3.2-34.7-3.4c-3.8-0.1-10.9-1.3-13.8,1.8c-2.9,3.1-0.4,8,3.6,8c5.2-0.1,5.2-8.1,0-8.1
	c-0.2,0-0.3,0-0.5,0c1.2,0.7,2.3,1.3,3.5,2c0.1,0.3,0.2,0.6,0.3,0.9c-0.7,1.2-1.3,2.3-2,3.5c1.1-0.7,6.6-0.1,8.9-0.1
	c3.6,0.1,7.2,0.2,10.8,0.5c7.3,0.5,14.6,1.4,21.8,2.6c0.4-2.6,0.7-5.3,1.1-7.9c-6.7,0.1-12.9,1.7-18.8,4.8c-3.7,1.9-1.8,7.4,2,7.5
	c18.2,0.8,36.4,1.5,54.6,2.3c0-2.7,0-5.4,0-8.1c-3.6,0-7.1,0-10.7,0.1c0.4,2.6,0.7,5.3,1.1,7.9c6-1.5,12.3-1.1,18.1,1.3
	c4.6,2,8.8-4.4,4.1-7c-1-0.6-2.1-1.1-3.1-1.7c-0.7,2.5-1.4,5-2,7.5c4.3,0.4,7.6,3,9.5,6.8c1.8-1.8,3.7-3.7,5.5-5.5
	c-1.1-0.7-1.5-1.3-1.8-2.5c-2.5,1-4.9,2.1-7.4,3.1c0.9,1.4,1.5,2.7,1.8,4.4c1.7-1.7,3.3-3.3,5-5c-1.9-0.4-2.9-1.1-3.8-2.8
	c-2.3,1.4-4.7,2.7-7,4.1c1,1.7,1.9,3.3,2.9,5c1.5-2,3-4,4.6-5.9c-5.9-0.9-11.4-2.6-16.7-5.4c-1,2.5-2.1,4.9-3.1,7.4
	c4,1.3,7.7,3.4,10.9,6.2c1-2.3,1.9-4.6,2.9-6.9c-10.9-1.4-21.7-4.5-31.8-9c-1,2.5-2.1,4.9-3.1,7.4c7.2,2.6,14.3,5.2,21.5,7.8
	c0.7-2.6,1.4-5.2,2.1-7.8c-10.8-1.5-21.3-4.4-31.4-8.6c-0.7,2.6-1.4,5.2-2.1,7.8c9.3,2.5,17.8,6.5,25.7,12c1-2.5,2.1-4.9,3.1-7.4
	c-12.2-2.4-24.1-5.9-35.6-10.7c-0.7,2.6-1.4,5.2-2.1,7.8c8.7,1.7,17.2,4.3,25.3,8c1-2.5,2.1-4.9,3.1-7.4c-14.8-3.5-29.5-7-44.3-10.5
	c-0.4,2.6-0.7,5.3-1.1,7.9c8.8,1.1,17.5,3.6,25.7,7.2c1-2.5,2.1-4.9,3.1-7.4c-11-1.6-21.4-5.1-30.9-10.7c-1,2.5-2.1,4.9-3.1,7.4
	c9.1,1.6,17.7,4.7,25.6,9.5c1-2.5,2.1-4.9,3.1-7.4c-11.5-1.6-22.4-5.2-32.6-10.6c-0.7,2.5-1.4,5-2,7.5c8.2,0.9,16.2,3,23.9,5.9
	c0.7-2.6,1.4-5.2,2.1-7.8c-13.1-2.4-26.4-3.4-39.8-2.6c-3.7,0.2-5.9,5.7-2,7.5c31,14.5,65.1,19.1,98.8,22.7
	c6.9,0.8,14.1,1.1,16.2-7.1c1.5-5.6,0.9-13.6-1.9-18.8c-3.7-6.8-11.3-7.1-18.1-8c-9.3-1.3-18.6-2.6-28-3.9
	c-10.4-1.5-20.8-2.9-31.1-4.4c-10.2-1.4-20.6-3.5-30.9-2.3c-2.3,0.3-5,2.4-3.9,5.1c3.1,7.5,10.6,8.2,17.8,8.9
	c10.6,1,21.1,1.9,31.7,2.6c21.2,1.5,42.3,2.5,63.5,3.1c-1.3-1.3-2.7-2.7-4-4c0.6,6.4,0.6,12.8-0.3,19.1c1.3-1,2.6-2,3.9-3
	c-21.3-0.4-42.7-0.9-64-3.4c-10.6-1.3-21.1-3.1-31.4-5.8c-2.7-0.7-5.3-1.4-8-2.2c-0.9-0.3-1.9-0.7-2.9-0.9c-1.2-0.8-1.6-0.9-1.4-0.2
	c0.1,0.6,0.2,0.4,0.1-0.7c1.2-5.7,1.1-11.9,1.7-17.6c-2.7,0-5.4,0-8.1,0c-0.1,1-0.2,2-0.3,3C222.3,365.2,230.4,365.2,230.8,360
	L230.8,360z"/>
<path class="st3" d="M256.5,193.9c1.6,8.3,5.2,15.7,10.6,22.2c3,3.7,8.4-1,6.3-4.9c-5.7-10.8-12.8-27.4,1.5-34.8
	c-1.6-2.1-3.3-4.2-4.9-6.3c-3.6,4.6-6.1,9.5-7.5,15.2c-1.1,4.4,5.1,7.2,7.4,3.1c3.6-6.3,10.6-9.4,17.7-9.8c3.7-0.2,7.7,0.1,10.3,3.1
	c2.2,2.7,3.1,6.5,3.4,9.9c2.6-0.4,5.3-0.7,7.9-1.1c-1.2-3.1-2.8-5.7-5.2-8.1c-3.7-3.7-9.4,2-5.7,5.7c1.3,1.4,2.4,2.8,3.1,4.5
	c1.5,3.9,8.4,3.9,7.9-1.1c-1.1-11.5-6.9-20.8-19.4-21.1c-10.6-0.2-21.6,4.4-27,13.9c2.5,1,4.9,2.1,7.4,3.1c1-4.2,2.7-8.2,5.4-11.7
	c2.7-3.5-0.6-8.6-4.9-6.3c-7.6,3.9-12.2,11.4-12.6,19.9c-0.4,9.2,4,18,8.1,25.9c2.1-1.6,4.2-3.3,6.3-4.9c-4.5-5.4-7.3-11.8-8.5-18.7
	C263.3,186.7,255.5,188.9,256.5,193.9L256.5,193.9z"/>
<path class="st3" d="M289.1,181.9c4.3,0.6,7,3.7,8.4,7.7c0.9,2.5,2.1,9.1-1.4,10.5c-3,1.1-3.8,4.3-1.8,6.8c3.2,3.8,4.4,8.7,3.5,13.5
	c-0.7,3.9,3.7,6.8,6.8,3.9c10.2-9.4,22.7-24.7,12.3-38.7c-2.4-3.3-7.2-2.1-7.5,2c-0.6,7.1-2.7,13.9-6,20.2c2.5,0.7,5,1.4,7.5,2
	c0.5-4.2,0.9-8.4,1.4-12.5c0.4-3.3,1.4-7.2,1.1-10.5c-0.6-5.5-7.9-7.3-9.7-1.4c-1.5,5,6.3,7.1,7.8,2.1c0.1-0.2,0.1-0.4,0.2-0.5
	c-0.9,0.9-1.9,1.9-2.8,2.8c-0.3,0-0.6,0-0.9,0c-0.8-0.6-1.6-1.2-2.4-1.9c0.1,0.2-0.6,3.8-0.7,4.6c-0.2,1.8-0.4,3.7-0.6,5.5
	c-0.4,3.9-0.9,7.8-1.3,11.8c-0.5,4,5.8,5.4,7.5,2c4-7.6,6.3-15.7,7.1-24.3c-2.5,0.7-5,1.4-7.5,2c7.9,10.7-3.6,22-11.1,28.9
	c2.3,1.3,4.5,2.6,6.8,3.9c1.5-7.9-0.5-15.2-5.6-21.4c-0.6,2.3-1.2,4.5-1.8,6.8c15.5-5.9,7.2-31.8-7.1-33.8
	C286.2,173.4,284,181.2,289.1,181.9L289.1,181.9z"/>
<path class="st3" d="M315.2,209.9c2-9.5,2.9-18.4-1.5-27.4c-3.6-7.5-10.3-13.6-18-16.8c-16.8-6.8-35.7,2.7-43.6,18.2
	c2.5,0.7,5,1.4,7.5,2c-0.5-4.4,10.9-7.7,14.2-8.8c4.9-1.7,3-8.9-2.1-7.8c-11,2.4-18,12.8-19,23.6c-1.2,12.9,6.8,24.8,15.9,33.2
	c3.8,3.5,9.5-2.2,5.7-5.7c-7.1-6.5-13.7-15.2-13.6-25.3c0-8.1,5-16.2,13.2-18c-0.7-2.6-1.4-5.2-2.1-7.8c-7.2,2.4-21.1,6.9-20.1,16.6
	c0.4,3.6,5.5,5.9,7.5,2c6.1-11.9,20.2-20.1,33.5-14.9c5.9,2.3,10.8,6.9,13.7,12.5c3.8,7.2,2.8,14.6,1.2,22.2
	C306.4,212.8,314.2,214.9,315.2,209.9L315.2,209.9z"/>
<path class="st3" d="M275.5,183.2c3.5-4.1,8-6.3,13.4-6.1c0-2.7,0-5.4,0-8.1c-11.2,0.9-24.3,11-23.8,23.2c0.2,5.2,8.3,5.2,8.1,0
	c-0.3-7.5,8.7-14.5,15.7-15.1c5.1-0.4,5.3-7.9,0-8.1c-7.3-0.2-14.4,2.8-19.1,8.5C266.4,181.5,272.1,187.2,275.5,183.2L275.5,183.2z"
	/>
<path class="st3" d="M459,419.4c-0.1,2.8-0.2,5.6-0.3,8.3c-0.2,4.9,6.4,5.1,7.9,1.1c0.5-1.3,0.5-2.7,0.2-4.1
	c-0.2-0.8-0.6-2.7-1.2-3.2c-0.1-0.2-0.1-0.4-0.2-0.6c-0.9,1.3-1,1.7-0.3,1.2c0.6,0,1.6-0.9,2.2-1.2c1.9-1,3.7-2,5.6-3
	c-2-0.8-4-1.6-5.9-2.4c0.3,1.9,0.6,3.7,0.9,5.6c0.8,5.1,8.6,2.9,7.8-2.1c-0.3-1.9-0.6-3.7-0.9-5.6c-0.4-2.7-3.9-3.6-5.9-2.4
	c-3.4,1.9-9.1,3.7-10.9,7.4c-0.8,1.7-0.8,3.6-0.2,5.4c0.2,0.7,0.5,1.5,0.9,2.1c0.1,0.3,0.2,0.5,0.3,0.8c0.2-0.6,0.1-0.6-0.1,0.1
	c2.6,0.4,5.3,0.7,7.9,1.1c0.1-2.8,0.2-5.6,0.3-8.3C467.3,414.1,459.2,414.2,459,419.4L459,419.4z"/>
<path class="st3" d="M340.8,385.4c28.8,8.3,59.6-3.9,74.8-29.7c0.7-1.1-1.1-2.1-1.7-1c-14.8,25-44.6,36.8-72.5,28.7
	C340.1,383.1,339.6,385,340.8,385.4L340.8,385.4z"/>
<path class="st3" d="M417.4,354.4c3.4-19.6,10.9-38.1,22.1-54.5c0.7-1.1-1-2.1-1.7-1c-11.3,16.6-18.9,35.3-22.3,55
	C415.2,355.1,417.2,355.6,417.4,354.4L417.4,354.4z"/>
<path class="st3" d="M432,298c3.1,0.5,6,1.4,8.9,2.6c-0.2-0.4-0.5-0.8-0.7-1.2c-0.7,4.7-1.4,9.3-2.1,14c-0.2,1.3,1.8,1.8,1.9,0.5
	c0.7-4.7,1.4-9.3,2.1-14c0.1-0.6-0.1-1-0.7-1.2c-2.9-1.2-5.8-2.1-8.9-2.6C431.3,295.8,430.7,297.7,432,298L432,298z"/>
<path class="st3" d="M274.5,201.2c-0.3,0.5-0.5,1-0.8,1.5c-0.6,1.1,1.1,2.2,1.7,1c0.3-0.5,0.5-1,0.8-1.5
	C276.9,201.1,275.1,200.1,274.5,201.2L274.5,201.2z"/>
<path class="st3" d="M296.7,200.5c0.6-1.8,1.5-3.5,2.6-5.1c-0.6-0.2-1.3-0.3-1.9-0.5c0,0.6-0.1,0.9-0.6,1.2c-1,0.8,0.4,2.3,1.4,1.4
	c0.8-0.7,1.2-1.6,1.1-2.7c0-1.1-1.3-1.3-1.9-0.5c-1.2,1.7-2.2,3.6-2.8,5.6C294.3,201.2,296.3,201.7,296.7,200.5L296.7,200.5z"/>
<path class="st3" d="M311,182.9c1.1,0.8,2.3,1.6,3.4,2.5c0.7,0.5,1.5-0.2,1.5-0.9c0.1-1.2,0-2.3-0.2-3.5c-0.6,0.2-1.3,0.4-1.9,0.5
	c0.3,1.2,0.5,2.3,0.8,3.5c0.3,1.3,2.2,0.7,1.9-0.5c-0.3-1.2-0.5-2.3-0.8-3.5c-0.3-1.3-2.2-0.7-1.9,0.5c0.2,1,0.2,2,0.1,3
	c0.5-0.3,1-0.6,1.5-0.9c-1.1-0.8-2.3-1.6-3.4-2.5C311,180.4,310,182.2,311,182.9L311,182.9z"/>
<path class="st3" d="M270.5,227.7c4.1,1.4,8.4,1.9,12.7,1.6c1.3-0.1,1.3-2.1,0-2c-4.2,0.3-8.2-0.2-12.2-1.6
	C269.8,225.3,269.3,227.3,270.5,227.7L270.5,227.7z"/>
<path class="st3" d="M257.8,175.4c-5,3.8-6.8,9.9-7.2,16c-0.5,7.8,3.2,14.2,7.3,20.5c0.7,1.1,2.4,0.1,1.7-1
	c-3.3-5.1-6.6-10.4-7-16.6c-0.4-6,1.2-13.3,6.2-17.2C259.8,176.4,258.8,174.6,257.8,175.4L257.8,175.4z"/>
<path class="st3" d="M252.9,186.3c-0.6,2.4-1.1,4.8-1.6,7.2c0.7,0.1,1.3,0.2,2,0.3c0.1-2.1,0.3-4.2,0.4-6.3c-0.7,0-1.3,0-2,0
	c0,2.2,0,4.3,0,6.5c0,0.9,1.5,1.5,1.9,0.5c0.1-0.3,0.3-0.6,0.4-0.9c0.5-1.2-1.2-2.2-1.7-1c-0.1,0.3-0.3,0.6-0.4,0.9
	c0.6,0.2,1.3,0.3,1.9,0.5c0-2.2,0-4.3,0-6.5c0-1.3-1.9-1.3-2,0c-0.1,2.1-0.3,4.2-0.4,6.3c-0.1,1.1,1.8,1.4,2,0.3
	c0.5-2.4,1-4.8,1.6-7.2C255.2,185.5,253.3,185,252.9,186.3L252.9,186.3z"/>
<path class="st8" d="M107.7,297.2c0,0,7.9,4.8,21.7,0c13.8-4.8,13.1-8.6,13.1-8.6S120,281.4,107.7,297.2z"/>
<path class="st10" d="M300.8,118.2c0,0-8.4,3.6-12.5,2.3c-4.1-1.3-9.8-5.6-12.6-1.4c-2.8,4.2,9.1,10.9,13.7,8.4
	C293.9,125.2,300.8,118.2,300.8,118.2z"/>
<path class="st11" d="M136,284.9l9.5,23.3c0,0,16-4.8,24-10.6c6-4.3,19.2-13.4,19.2-13.4l1.4,17.2c0,0-36,46-48.9,42.7
	c-13.3-3.4-30.4-46.5-30.7-54.2C110.3,282.1,136,284.9,136,284.9z"/>
<path class="st9" d="M138,332.1c0,0-1.1-11.6,7.5-24l-9.5-23.3l-18.2,1.5L138,332.1z"/>
<path class="st7" d="M109.7,236.2c-8.2,2.6-13.5,6.6-10.5,26.4s8.5,34.5,8.5,34.5s9.4-5,16.5-7.4c7.1-2.4,18.3-1.2,18.3-1.2
	s-9.9-30.1-13.4-38.7C125.8,241.3,119.5,233.1,109.7,236.2z"/>
<path class="st9" d="M288.8,135.2c1.1,5,18.9,1.8,26.3,0c7.4-1.8,13.8-2.2,13.8-2.2s-6.2-15.1-15.3-15.5
	C304.5,117.1,284.9,117.5,288.8,135.2z"/>
<path class="st11" d="M192.2,269.3c0,0-4.4,2.4-7.9,10.7c-3.5,8.3,5.7,21.5,5.7,21.5s5.7,0,8.5-5.6c2.8-5.7,2.5-18.5,6.3-26.1
	C208.7,262.1,197.4,263.8,192.2,269.3z"/>
<path class="st9" d="M170.5,196.2c-2.2-0.8-8.6,0.4-15.8,2.3c-2-3.8-3.9-8.4-3.1-10.8c1.5-4.7-36.5,4.1-36.5,4.1s4.8,8,11.2,16
	c-1.5,1.5-3.7,5.6-3.8,11.6c-0.2,14,19.8,20.1,37.3,9.1S176.6,198.5,170.5,196.2z"/>
<path class="st10" d="M151.5,190.4l-30,9.7c0,0,21.5,25.5,31.8,19c6.4-3.3,5-12,5-12l-3.3-8.6c-0.1,0-0.2,0.1-0.3,0.1
	C153.3,195.9,151.9,192.8,151.5,190.4z"/>
<path class="st11" d="M153.9,153.9c-4.9-21.1-15.1-27.5-35.3-23.6c-9.4,1.8-24.4,11.7-21.1,33.3c-3.2-0.9-6.9-0.9-7.8,3.3
	c-1.4,6.7,9.9,19.7,15.2,17.4c9.9,17.5,24.9,23.4,37.6,18.5C158,197,158.7,175,153.9,153.9z"/>
<path class="st12" d="M134.5,153.9c0,0,11.4,19.3,11.2,23.4c-0.2,4-8.5,6.7-9.3,2.1C135.7,174.8,136.9,159.7,134.5,153.9z"/>
<path class="st9" d="M120.4,130c-4.8,2.2-9.3,5.7-13.5,9c-2.2,1.7-4.4,3.3-6.5,5c-2.7,5-4.1,11.5-2.8,19.7c-3.2-0.9-6.9-0.9-7.8,3.3
	c-0.8,3.6,2.2,9.1,5.9,12.9c1.3-2.7,2.1-6.8,3.5-8.5c3.2-3.8,8.7-4.1,13.5-5.6c4.6-1.4,8.9-4,12.2-7.6c3.1-3.4,5.6-7.7,9.9-9.5
	c1.7-0.7,3.5-1,5.3-1c4.7-0.1,9.4,1.3,13.3,3.9C148.4,132.9,138.7,126.9,120.4,130z"/>
<path class="st4" d="M119.4,128.9c0,0,10.6,8.2,20.5,8.8c9.8,0.6,20.3,5.5,25,13.8s-12.3-20.9-12.3-20.9l-8.8-4.5h-7.3l-9.2,0.8
	L119.4,128.9z"/>
<path class="st4" d="M123.1,127.9c3.5,1.5,4.6,21.4-11.2,26.9c-10.9,3.8-15.3,4.7-19.4,13s-11.9,25.5-11.9,25.5s-2.2-14.6,6.6-32.5
	S105.4,126.5,123.1,127.9z"/>
<path class="st4" d="M94,157.7c0,0,0.9,10.3,7.5,15.6c0,0,0.6-17.4,3.4-21.8C107.8,147,94,157.7,94,157.7z"/>
<path class="st5" d="M113.3,144.2c-2.5,3.7-6.7,5.8-10.9,7.4c-4.2,1.6-8.6,2.8-12.2,5.4s-6.4,7.1-5.4,11.5c1.6-4.6,5.1-8.5,9.5-10.5
	c3.4-1.5,7.1-2,10.4-3.6c6.9-3.3,11.9-11.7,13-19C115.4,136.5,114.8,142,113.3,144.2z"/>
<path class="st5" d="M78.5,187.9c-3.4,2.7-7.5,4.6-10.2,8c-4,5.1-3.5,13.4,1.6,17.3c-3.3-0.6-6.1-3.3-7.2-6.5s-0.5-6.9,1.2-9.8
	c2.5-4.2,7-6.7,11-9.4c3.6-2.4,7.1-5.3,8.7-9.5C84.6,181.7,81.1,185.8,78.5,187.9z"/>
<path class="st5" d="M136.1,131.6c5.6,1,11.8-0.6,16.7,2.3c3.3,2,5.3,5.7,6.8,9.2c0.3-5-2.6-10.2-7.1-12.4
	c-7.1-3.5-15.7-0.7-23.1-2.9C129.3,130.2,134.2,131.2,136.1,131.6z"/>
<path class="st9" d="M190.1,301.4c-4.4-3.6-5.9-9.5-5.9-9.5s-6.4,11.4-15.5,21.6c-9.1,10.1-27.5,30.6-27.5,30.6l6.1-1.1
	C162.9,336,190.1,301.4,190.1,301.4z"/>
<path class="st5" d="M153.5,196.2l2.1,3.9c0,0,9.9,12-4.1,20.1s-23.6-3.2-24.8-6.1c-1.1-2.9-0.5-6.3-0.5-6.3l-1-1.3
	c0,0-3.2,9.1,6.5,15.6c9.6,6.5,18.7,1.9,20.6,1s9.8-6.9,7.6-15.8C157.9,198.4,153.5,196.2,153.5,196.2z"/>
<circle class="st5" cx="153" cy="225.6" r="2.9"/>
<circle class="st5" cx="153" cy="225.6" r="1.6"/>
<g>
	<g>
		<path class="st2" d="M425,312.5c3.2,0,3.2-5,0-5C421.8,307.5,421.8,312.5,425,312.5L425,312.5z"/>
	</g>
</g>
</svg>
