<?xml version="1.0" encoding="utf-8"?>
<!-- Generator: Adobe Illustrator 21.1.0, SVG Export Plug-In . SVG Version: 6.00 Build 0)  -->
<!DOCTYPE svg PUBLIC "-//W3C//DTD SVG 1.1//EN" "http://www.w3.org/Graphics/SVG/1.1/DTD/svg11.dtd">
<svg version="1.1" id="Layer_1" xmlns="http://www.w3.org/2000/svg" xmlns:xlink="http://www.w3.org/1999/xlink" x="0px" y="0px"
	 viewBox="0 0 453 245" style="enable-background:new 0 0 453 245;" xml:space="preserve">
<style type="text/css">
	.st0{fill:#BAD9FF;}
	.st1{fill:#9EC9FF;}
	.st2{fill:#00C4FF;}
	.st3{fill:#0064D9;}
	.st4{fill:#FFFFFF;}
	.st5{fill:#76ACF0;}
</style>
<g>
	<path class="st0" d="M330.1,245c2.2-7.4,3.9-15.5,5.1-24.1c8.8-63.7-49.4-98.2-49.4-98.2c-20.9-13.8-91.1-23.4-128.5,16.5
		c-35.3,37.7-44.1,79.9-38.5,105.8H330.1z"/>
	<path class="st1" d="M148.4,245c-2.8-6.8-4.6-14-5.1-21.8c-2.7-43,19.6-79.9,36.9-101c-8.4,4.2-16.2,9.8-22.9,17
		c-35.3,37.7-44.1,79.9-38.5,105.8H148.4z"/>
	<path class="st2" d="M286.9,73.9c0,0,7.7-2.4,16,0c8.4,2.4,9.8,9.1,20.1,10c10.3,0.9,18,0,18,0l-7.2,26.7c0,0-11.2,2.8-22.5,0
		s-20.3-14.7-32.1-10L286.9,73.9z"/>
	<path class="st3" d="M272.6,126.1c-0.2,0-0.4,0-0.5-0.1c-1.1-0.3-1.7-1.4-1.4-2.5l16-56.4c0.3-1.1,1.4-1.7,2.5-1.4
		c1.1,0.3,1.7,1.4,1.4,2.5l-16,56.4C274.3,125.5,273.5,126.1,272.6,126.1z"/>
	<g>
		<path class="st0" d="M7.4,135.1c-0.4,0-0.8-0.1-1.1-0.4l-5.5-5.5c-0.6-0.6-0.6-1.5,0-2.1s1.5-0.6,2.1,0l5.5,5.5
			c0.6,0.6,0.6,1.5,0,2.1C8.1,135,7.7,135.1,7.4,135.1z"/>
		<path class="st0" d="M1.9,135.1c-0.4,0-0.8-0.1-1.1-0.4c-0.6-0.6-0.6-1.5,0-2.1l5.5-5.5c0.6-0.6,1.5-0.6,2.1,0s0.6,1.5,0,2.1
			L3,134.7C2.7,135,2.3,135.1,1.9,135.1z"/>
	</g>
	<g>
		<path class="st0" d="M163.4,32.3c-0.4,0-0.8-0.1-1.1-0.4l-5.5-5.5c-0.6-0.6-0.6-1.5,0-2.1c0.6-0.6,1.5-0.6,2.1,0l5.5,5.5
			c0.6,0.6,0.6,1.5,0,2.1C164.2,32.1,163.8,32.3,163.4,32.3z"/>
		<path class="st0" d="M158,32.3c-0.4,0-0.8-0.1-1.1-0.4c-0.6-0.6-0.6-1.5,0-2.1l5.5-5.5c0.6-0.6,1.5-0.6,2.1,0
			c0.6,0.6,0.6,1.5,0,2.1l-5.5,5.5C158.7,32.1,158.4,32.3,158,32.3z"/>
	</g>
	<g>
		<path class="st0" d="M35.2,230.2c-0.4,0-0.8-0.1-1.1-0.4l-5.5-5.5c-0.6-0.6-0.6-1.5,0-2.1s1.5-0.6,2.1,0l5.5,5.5
			c0.6,0.6,0.6,1.5,0,2.1C35.9,230,35.5,230.2,35.2,230.2z"/>
		<path class="st0" d="M29.7,230.2c-0.4,0-0.8-0.1-1.1-0.4c-0.6-0.6-0.6-1.5,0-2.1l5.5-5.5c0.6-0.6,1.5-0.6,2.1,0s0.6,1.5,0,2.1
			l-5.5,5.5C30.5,230,30.1,230.2,29.7,230.2z"/>
	</g>
	<g>
		<path class="st0" d="M99,125.6c-0.4,0-0.8-0.1-1.1-0.4l-5.5-5.5c-0.6-0.6-0.6-1.5,0-2.1s1.5-0.6,2.1,0l5.5,5.5
			c0.6,0.6,0.6,1.5,0,2.1C99.8,125.5,99.4,125.6,99,125.6z"/>
		<path class="st0" d="M93.5,125.6c-0.4,0-0.8-0.1-1.1-0.4c-0.6-0.6-0.6-1.5,0-2.1l5.5-5.5c0.6-0.6,1.5-0.6,2.1,0s0.6,1.5,0,2.1
			l-5.5,5.5C94.3,125.5,93.9,125.6,93.5,125.6z"/>
	</g>
	<g>
		<path class="st0" d="M121.4,75.5c-0.4,0-0.8-0.1-1.1-0.4l-8.3-8.3c-0.6-0.6-0.6-1.5,0-2.1s1.5-0.6,2.1,0l8.3,8.3
			c0.6,0.6,0.6,1.5,0,2.1C122.2,75.4,121.8,75.5,121.4,75.5z"/>
		<path class="st0" d="M113.1,75.5c-0.4,0-0.8-0.1-1.1-0.4c-0.6-0.6-0.6-1.5,0-2.1l8.3-8.3c0.6-0.6,1.5-0.6,2.1,0s0.6,1.5,0,2.1
			l-8.3,8.3C113.9,75.4,113.5,75.5,113.1,75.5z"/>
	</g>
	<g>
		<path class="st0" d="M451.1,96.7c-0.4,0-0.8-0.1-1.1-0.4l-5.5-5.5c-0.6-0.6-0.6-1.5,0-2.1s1.5-0.6,2.1,0l5.5,5.5
			c0.6,0.6,0.6,1.5,0,2.1C451.9,96.5,451.5,96.7,451.1,96.7z"/>
		<path class="st0" d="M445.6,96.7c-0.4,0-0.8-0.1-1.1-0.4c-0.6-0.6-0.6-1.5,0-2.1l5.5-5.5c0.6-0.6,1.5-0.6,2.1,0s0.6,1.5,0,2.1
			l-5.5,5.5C446.4,96.5,446,96.7,445.6,96.7z"/>
	</g>
	<g>
		<path class="st0" d="M437.1,142.1c-0.4,0-0.8-0.1-1.1-0.4l-5.5-5.5c-0.6-0.6-0.6-1.5,0-2.1s1.5-0.6,2.1,0l5.5,5.5
			c0.6,0.6,0.6,1.5,0,2.1C437.9,142,437.5,142.1,437.1,142.1z"/>
		<path class="st0" d="M431.6,142.1c-0.4,0-0.8-0.1-1.1-0.4c-0.6-0.6-0.6-1.5,0-2.1l5.5-5.5c0.6-0.6,1.5-0.6,2.1,0s0.6,1.5,0,2.1
			l-5.5,5.5C432.4,142,432,142.1,431.6,142.1z"/>
	</g>
	<g>
		<path class="st0" d="M395.1,137.9c-0.4,0-0.8-0.1-1.1-0.4l-5.5-5.5c-0.6-0.6-0.6-1.5,0-2.1s1.5-0.6,2.1,0l5.5,5.5
			c0.6,0.6,0.6,1.5,0,2.1C395.9,137.7,395.5,137.9,395.1,137.9z"/>
		<path class="st0" d="M389.6,137.9c-0.4,0-0.8-0.1-1.1-0.4c-0.6-0.6-0.6-1.5,0-2.1l5.5-5.5c0.6-0.6,1.5-0.6,2.1,0s0.6,1.5,0,2.1
			l-5.5,5.5C390.4,137.7,390,137.9,389.6,137.9z"/>
	</g>
	<g>
		<path class="st0" d="M367.1,12.3c-0.4,0-0.8-0.1-1.1-0.4l-8.3-8.3c-0.6-0.6-0.6-1.5,0-2.1c0.6-0.6,1.5-0.6,2.1,0l8.3,8.3
			c0.6,0.6,0.6,1.5,0,2.1C367.9,12.1,367.5,12.3,367.1,12.3z"/>
		<path class="st0" d="M358.8,12.3c-0.4,0-0.8-0.1-1.1-0.4c-0.6-0.6-0.6-1.5,0-2.1l8.3-8.3c0.6-0.6,1.5-0.6,2.1,0
			c0.6,0.6,0.6,1.5,0,2.1l-8.3,8.3C359.6,12.1,359.2,12.3,358.8,12.3z"/>
	</g>
	<path class="st4" d="M295.7,82.9c-1.3,3.6-2.7,7.2-4,10.9c-0.6,1.5,1.9,2.2,2.4,0.7c1.3-3.6,2.7-7.2,4-10.9
		C298.7,82,296.3,81.4,295.7,82.9L295.7,82.9z"/>
	<path class="st4" d="M294.4,90.9c2.2,0.1,4.4,0.6,6.5,1.3c1.5,0.5,2.2-1.9,0.7-2.4c-2.3-0.8-4.7-1.3-7.2-1.4
		C292.8,88.3,292.8,90.8,294.4,90.9L294.4,90.9z"/>
	<path class="st4" d="M304,83.8c-2.1,4.1-3.7,8.4-4.8,12.8c-0.4,1.6,2,2.2,2.4,0.7c1-4.3,2.5-8.3,4.5-12.2
		C306.9,83.7,304.7,82.4,304,83.8L304,83.8z"/>
	<path class="st4" d="M307.9,90.8c-1.3,2.6-2.2,5.2-2.7,8c-0.3,1.6,2.1,2.2,2.4,0.7c0.5-2.6,1.3-5.1,2.5-7.4
		C310.8,90.6,308.6,89.3,307.9,90.8L307.9,90.8z"/>
	<g>
		<g>
			<path class="st4" d="M311.6,88.8c1.6,0,1.6-2.5,0-2.5C310,86.3,310,88.8,311.6,88.8L311.6,88.8z"/>
		</g>
	</g>
	<path class="st4" d="M320.6,103.4c0-0.1,0-0.2,0-0.3c0-1.6-2.5-1.6-2.5,0c0,0.1,0,0.2,0,0.3C318.1,105,320.6,105,320.6,103.4
		c0-0.1,0-0.2,0-0.3c0-1.6-2.5-1.6-2.5,0c0,0.1,0,0.2,0,0.3C318.1,105,320.6,105,320.6,103.4L320.6,103.4z"/>
	<path class="st4" d="M322.3,97c0-2.8,0.5-5.4,1.5-7.9c0.6-1.5-1.8-2.1-2.4-0.7c-1.1,2.8-1.6,5.6-1.6,8.6
		C319.8,98.6,322.3,98.6,322.3,97L322.3,97z"/>
	<g>
		<path class="st5" d="M266.3,168c3.2,2.5,6.7,5,8.6,8.6c2.4,4.6,2.1,10.7,6,14c3,2.6,7.5,2.5,11.5,2c2.4-0.3,4.9-0.8,6.7-2.4
			c1.7-1.5,2.5-3.8,3-6c3-13.2-2.9-28-14.1-35.6C272,137.8,246.7,152.4,266.3,168z"/>
		<path class="st5" d="M260,177.2c4.1,3.5,6.9,8.3,8,13.5c0.4,1.7,0.5,3.6-0.2,5.3c-0.7,1.7-2.3,3-4.1,2.8c-1.4-0.2-2.6-1.2-3.5-2.3
			c-3.6-4.2-5.8-9.6-5.9-15.2c0-1.5,0.1-3.1,1-4.3c0.9-1.2,2.9-1.6,3.9-0.5"/>
		<path class="st5" d="M311.7,198.1c-3.5,3.7-5.5,8.9-5.3,14.1c0.1,1.8,0.4,3.7,1.5,5.2c2.6,3.7,8.9,3.3,11.9-0.2
			c3-3.5,3.1-8.7,1.7-13c-0.7-2.1-1.8-4.1-3.5-5.4S313.6,197,311.7,198.1"/>
		<path class="st5" d="M157.3,139.2c-7.8,8.3-14.2,16.8-19.5,25.3c1.4,1.9,3.5,3.2,5.8,3.1c6.4-0.1,10.3-9.7,16.6-8.5
			c2.6,0.5,4.5,2.8,6.7,4.1c4.2,2.5,9.9,1.6,13.8-1.3s6.3-7.6,7.4-12.3c0.7-3.1,1.1-6.5,3.2-8.9c1.3-1.5,3.1-2.4,4.8-3.4
			c4.9-2.7,9.7-6.4,11.5-11.7c2.3-6.7-3-9.4-9.2-10.5C183.2,119.4,168.7,127,157.3,139.2z"/>
		<path class="st5" d="M215.3,137.2c-3.4,2.3-7,5.3-7,9.4c0.1,3.7,3.7,6.8,7.4,6.7c3.7-0.1,7-2.9,8.3-6.4c0.9-2.5,0.7-5.4-0.8-7.5
			S217.6,136,215.3,137.2"/>
		<path class="st5" d="M197.2,172.4c-6.2,3-4.1,13.9-1,19.7s9.3,9.7,15.8,10c3.4,0.2,7.1-0.7,9.5-3.1c2.1-2.1,3.1-5.1,3.3-8.1
			c0.5-6.7-2.9-13.5-8.4-17.2C210.8,169.9,203.2,169.4,197.2,172.4"/>
		<path class="st5" d="M231.6,203.3c-3.4,1.3-4.6,6-3,9.3c1.6,3.3,5.4,5.1,9,5.4c2.6,0.2,5.6-0.3,7.2-2.4c2.3-2.9,1-7.5-1.9-9.9
			C240.2,203.2,235.6,202.2,231.6,203.3"/>
		<path class="st5" d="M149.6,245c-1.9-2.6-2.8-5.8-4.5-8.6c-1.8-2.9-5.2-5.3-8.4-4.2c-5.7,2-5.9,7.7-4.3,12.8H149.6z"/>
		<path class="st5" d="M163.9,245h7.6c1.1-0.9,1.9-2.2,1.8-3.6c0-1.4-0.7-2.7-1.5-3.8c-1.2-1.9-3-3.6-5.2-3.9
			c-2.2-0.3-4.4,1.1-5.2,3.1l-0.7,1.2C160.7,240.6,161.9,243.4,163.9,245z"/>
	</g>
</g>
</svg>
