<?xml version="1.0" encoding="utf-8"?>
<!-- Generator: Adobe Illustrator 21.1.0, SVG Export Plug-In . SVG Version: 6.00 Build 0)  -->
<!DOCTYPE svg PUBLIC "-//W3C//DTD SVG 1.1//EN" "http://www.w3.org/Graphics/SVG/1.1/DTD/svg11.dtd">
<svg version="1.1" id="Layer_1" xmlns="http://www.w3.org/2000/svg" xmlns:xlink="http://www.w3.org/1999/xlink" x="0px" y="0px"
	 viewBox="0 0 1136 417" style="enable-background:new 0 0 1136 417;" xml:space="preserve">
<style type="text/css">
	.st0{fill:#5291FF;}
	.st1{fill:#FFFFFF;}
	.st2{fill:#D1EAFF;}
	.st3{fill:#3374E6;}
	.st4{fill:#94C4FF;}
	.st5{fill:#0076FF;}
	.st6{fill:#FFE4CC;}
	.st7{fill:#94AFCC;}
	.st8{fill:#FFD8B5;}
	.st9{fill:#7BC1FA;}
	.st10{fill:#EDF7FF;}
	.st11{fill:#FFD2A5;}
	.st12{fill:#58AAED;}
	.st13{fill:#7AB6FF;}
	.st14{fill:#4794FA;}
	.st15{fill:#005BFF;}
	.st16{fill:#94A6B5;}
	.st17{fill:#00E1FF;}
	.st18{fill:#9EC9FF;}
	.st19{fill:#8FBEF7;}
	.st20{fill:#0064D9;}
	.st21{fill:#8ABEFF;}
	.st22{fill:#EDBA96;}
	.st23{fill:#00C4FF;}
	.st24{fill:#00B6ED;}
	.st25{fill:#F5C59D;}
	.st26{fill:#3383ED;}
</style>
<g>
	<path class="st0" d="M671.1,416.5c0.2-2.4,0.3-4.8,0.3-7.3c0-54-43.8-97.8-97.8-97.8s-97.8,43.8-97.8,97.8c0,2.5,0.1,4.9,0.3,7.3
		H671.1z"/>
	<path class="st1" d="M796.6,18.2c-0.4,0-0.8-0.1-1.1-0.3c-8.5-4.4-17.3-8.6-26.1-12.5c-1.3-0.6-1.8-2-1.3-3.3
		c0.6-1.3,2-1.8,3.3-1.3c8.9,4,17.8,8.2,26.4,12.7c1.2,0.6,1.7,2.1,1.1,3.4C798.4,17.7,797.5,18.2,796.6,18.2z"/>
	<path class="st1" d="M836.5,41.2c-0.5,0-0.9-0.1-1.3-0.4c-8.6-5.5-17.6-10.9-26.5-15.9c-1.2-0.7-1.6-2.2-1-3.4
		c0.7-1.2,2.2-1.6,3.4-1c9.1,5,18.1,10.4,26.8,16c1.2,0.7,1.5,2.3,0.8,3.5C838.2,40.8,837.3,41.2,836.5,41.2z"/>
	<path class="st1" d="M1059.1,411.7c-1.3,0-2.4-1-2.5-2.3c-5.9-70.7-27.8-140.7-63.2-202.3c-36-62.7-86.4-117.3-145.8-158
		c-1.1-0.8-1.4-2.3-0.6-3.5c0.8-1.1,2.3-1.4,3.5-0.6c60,41.2,110.9,96.4,147.3,159.7c35.8,62.3,57.9,133,63.9,204.4
		c0.1,1.4-0.9,2.6-2.3,2.7C1059.2,411.7,1059.1,411.7,1059.1,411.7z"/>
	<path class="st1" d="M1081.9,357.7c-1.2,0-2.2-0.8-2.5-2c-10.5-55.6-30.4-108.4-59.1-157.2c-0.7-1.2-0.3-2.7,0.9-3.4
		c1.2-0.7,2.7-0.3,3.4,0.9c29,49.2,49.1,102.7,59.7,158.8c0.3,1.4-0.6,2.7-2,2.9C1082.2,357.7,1082,357.7,1081.9,357.7z"/>
	<path class="st1" d="M1088.3,403.2c-1.3,0-2.4-1-2.5-2.3c-0.8-8.8-1.9-17.7-3.2-26.4c-0.2-1.4,0.7-2.6,2.1-2.8
		c1.4-0.2,2.6,0.7,2.8,2.1c1.3,8.8,2.4,17.8,3.2,26.7c0.1,1.4-0.9,2.6-2.3,2.7C1088.4,403.2,1088.3,403.2,1088.3,403.2z"/>
	<path class="st1" d="M158.8,357.7c-0.1,0-0.3,0-0.4,0c-1.4-0.2-2.3-1.5-2-2.9c13.6-78.7,48.2-152.5,100.1-213.3
		c53.4-62.6,123.2-109,201.9-134.2c1.3-0.4,2.7,0.3,3.1,1.6c0.4,1.3-0.3,2.7-1.6,3.1c-77.8,25-146.9,70.8-199.6,132.7
		c-51.3,60.2-85.5,133.1-98.9,210.9C161.1,356.9,160,357.7,158.8,357.7z"/>
	<path class="st2" d="M325.8,416.5c-0.1-3.2-0.2-6.4-0.2-9.6c0-136.9,111-248,248-248s248,111,248,248c0,3.2-0.1,6.4-0.2,9.6h137.9
		c0.1-3.2,0.1-6.4,0.1-9.6c0-213.1-172.7-385.8-385.8-385.8S187.8,193.8,187.8,406.9c0,3.2,0,6.4,0.1,9.6H325.8z"/>
	<path class="st2" d="M455.4,416.5c-0.1-2.4-0.2-4.9-0.2-7.3c0-65.4,53-118.4,118.4-118.4S692,343.8,692,409.2
		c0,2.5-0.1,4.9-0.2,7.3H811c0.1-2.4,0.1-4.9,0.1-7.3c0-131.2-106.4-237.6-237.6-237.6S336,278,336,409.2c0,2.4,0,4.9,0.1,7.3H455.4
		z"/>
	<path class="st3" d="M632.7,416.5c0.1-1.5,0.2-2.9,0.2-4.4c0-32.8-26.6-59.3-59.3-59.3s-59.3,26.6-59.3,59.3c0,1.5,0.1,3,0.2,4.4
		H632.7z"/>
	<path class="st4" d="M720.8,15.7L681.9,148c79.2,24.2,141.6,86.9,165.2,166.4l130.7-44.2C939.8,148.4,843.1,52.5,720.8,15.7z"/>
	<path class="st5" d="M958.5,148.5c0.2-0.4,0.4-0.9,0.7-1.2c0.6-0.6,1.7-0.7,2.5-0.4c0.8,0.3,1.6,0.8,2.2,1.4
		c-1.3-0.5-1.8-2.1-1.8-3.5c0-0.9,0-1.8,0.5-2.6c1-1.8,3.4-2.2,5.3-1.4c1.9,0.7,3.2,2.3,4.6,3.8c1,1.1,2,2.5,1.5,3.9
		c-0.4,1.4-2,1.9-3.4,2.3c-1.7,0.6-3.3,1.4-4.8,2.3c-1.3,0.9-2.7,2.7-4.2,3.2C957.4,157.7,957.5,150.9,958.5,148.5z"/>
	<path class="st5" d="M921,381.2l-1,35.3h42.4c0,0,1-10.6,5.5-9.9s7.4,10,7.4,10l50.9-0.1l-8.1-36.5C1018.2,380,934.1,385,921,381.2
		z"/>
	<path class="st6" d="M936,217.5c0,0-24.8-22.1-28.5-47.7s-7.7-54.4-7.7-54.4l-16.5-17c0,0-5.3,51-4.5,79.2s50.4,81.8,50.4,81.8
		L936,217.5z"/>
	<path class="st7" d="M878.9,177.6c0.8,28.2,50.4,81.8,50.4,81.8l6.8-41.9c0,0-24.8-22.1-28.5-47.7c-1.8-12.3-3.6-25.3-5-35.5
		c-6.5-7.6-13.3-15-20.4-22.1C880.6,129.4,878.3,158.7,878.9,177.6z"/>
	<path class="st5" d="M989.7,204.2c1-2.2,0.9-4.7,1.9-6.9c0.9-2,2.5-3.6,4-5.3c3-3.3,5-7.4,7.4-11.2c9.3-14.3,5.4-21.5,4.3-23.5
		c-0.9-1.7-6.5,14.3-8.5,14.3c-5.3-0.2-10,3.9-12.2,8.7c-2.2,4.8-2.5,10.3-2.7,15.6c-0.1,1.7-1.5,9.1,0,10.4
		C985.8,208.1,988.8,206.3,989.7,204.2z"/>
	<path class="st8" d="M991.9,184.1c0,0-9.1,22.1-6.2,33.4c2.9,11.3-0.6,16-0.6,16l-40.2-9.4c0,0,11.4-3.8,12.8-9.1
		c1.5-5.9-0.1-10.4,0.8-15.8C960.5,187.9,991.9,184.1,991.9,184.1z"/>
	<path class="st9" d="M1017.8,377.8C1017.8,377.8,1017.8,377.8,1017.8,377.8c0.5-1.6-0.3-3.1-0.6-4.6c-0.6-2.9-1.5-5.8-0.6-8.6
		s1.4-6.1-0.2-8.6c-1-1.6-0.7-2.6-1.5-4.3c-1.7-3.5-0.8-7.7-1.8-11.4c-0.7-2.5-1.1-4.5-2.6-6.6c-1.9-13.4-3.3-26.5-2.9-34.3
		c0.9-21,2.9-73.9,2.9-73.9l-24.6-8c0,0-2.4,10.7-12.7,10.5c-23.2-0.4-16.8-10.5-16.8-10.5H945c0,0-32.4-32.4-34.3-45.5l-31.6,10
		c-2.5,14.7,27.6,50.2,36.2,62c3.5,4.8,6.2,10.9,8.2,16.6c0.6,31.5-5.1,115.7-2.5,120.6c32.4,19.6,97.2-1.2,97.2-1.2
		S1018,379.2,1017.8,377.8z"/>
	<path class="st6" d="M1000.6,178c5.5-11.3,7.4-25-9.4-32.3c-15.1-6.6-28.6,5-37,19.6c-8.5,14.6-6.1,28,0.8,37.1
		c7,9,28-0.3,33.9-7.2c0,0,10.4,0.1,15.6-7.7C1012.8,174.9,1000.6,178,1000.6,178z"/>
	<path class="st10" d="M960.4,290.4l-15.2-9.7c0,0-0.1,13.1,0.4,13.8c0.5,0.7,8.2,7.4,9.7,7.9c1.5,0.5,4,0.3,4,0.3s2.5,0.6,4,0.3
		c1.5-0.2,10.2-5.6,10.9-6.1c0.7-0.6,2.8-13.5,2.8-13.5L960.4,290.4z"/>
	<path class="st5" d="M972.1,258.5c-2.4,1.2-15.7,0.1-17.9-1.5c-2.2-1.6-6.9-9.7-6.9-9.7l-3,35.1l12.2,6.1l3.8,2.8l4.2-2.1l13-4
		l3-35.1C980.5,250.1,974.5,257.2,972.1,258.5z"/>
	<path class="st5" d="M972.1,258.5c-2.4,1.2-15.7,0.1-17.9-1.5c-2.2-1.6-6.9-9.7-6.9-9.7l-3,35.1l12.2,6.1l3.8,2.8l4.2-2.1l13-4
		l3-35.1C980.5,250.1,974.5,257.2,972.1,258.5z"/>
	<path class="st10" d="M957.3,283c0,0-2.9-7.1-7.7-7.5c-2,1.9-0.4,4.2-0.4,4.2L957.3,283z"/>
	<path class="st10" d="M964.7,283.6c0,0,4.1-6.5,8.9-6.1c1.6,2.2-0.4,4.2-0.4,4.2L964.7,283.6z"/>
	<path class="st11" d="M971.5,165c0,0-14.7,9.5-15.2,14.6c-0.4,5.1,5.9,4.3,5.9,4.3S966.1,173.2,971.5,165z"/>
	<path class="st6" d="M1010.4,225.5c0,0-0.2,53.3-32.7,66.4S905,300,905,300l-19.3,6.7c0,0,60.9,26.3,97.7,10.7
		c36.9-15.7,38.4-25.9,46.2-47.2S1021.2,233.4,1010.4,225.5z"/>
	<path class="st9" d="M973,287.9l15.9,30.7c0,0,35-9.3,41.2-42c6.3-32.7-1.3-52.8-19.8-51.1C994.6,226.9,1020.2,265,973,287.9z"/>
	<path class="st12" d="M974.4,314.2c0.3,2.2,0.8,4.4,2.2,6.1c1.4,1.7,4,2.6,5.8,1.3c0.8-0.6,1.4-1.5,2.3-2c2.1-1.1,5.2,0.8,7-0.8
		c1.1-1,1.4-3,2.8-3c0.3,0,0.7,0.1,1,0.2c1.9,0.5,3.9-0.7,4.8-2.4c0.9-1.7,0.8-3.8,0.2-5.7c-0.6-1.9-1.6-3.6-2.4-5.3
		c-1.8-3.5-3.1-7.3-3.9-11.1c-0.6-2.7-0.9-5.6-2.6-7.9c-1.6-2.2-5.2-3.4-7.2-1.6c-1.2,1-1.9,2.9-3.4,3c-1.1,0.1-2.1-0.9-3.2-1
		c-2.4-0.4-4.1,2.7-6.6,2.9c-1.8,0.1-5.6-2.4-5.6,0.8c0,2.1,3.4,5.5,4.3,7.5C972.7,301.1,973.4,307.8,974.4,314.2z"/>
	<path class="st12" d="M1017.2,373.2c0,0-32.4,5.6-55.7,6.8c-22.3,1.1-40-8.1-41.5-8.9c0.1,3.8,0.4,7.2,1,10.1
		c11.1,6.7,26,8.7,40.8,8.4c0,0,13.8,0.2,18.1-0.4c5.9-0.8,37.1-6.3,38.3-9.2C1019.3,377.2,1017.2,373.2,1017.2,373.2z"/>
	<path class="st5" d="M991.9,184.1c2-4,3.7-12.2,2.4-16.5c-1.4-4.7-6.2-7.3-10.7-9.4c-2.1-1-4.2-2-6.3-3c-3.6-1.7-7.4-3.7-9.2-7.2
		c-1-2-1.3-4.3-1.1-6.5c0.3-3.2,1.9-6.5,4.8-7.8c2.9-1.3,7.1,0.6,7.2,3.9c-1-2.8,2.2-6,5.1-5.3c2.9,0.7,4.6,4.3,3.5,7.1
		c0.9-1.3,1.9-2.7,2.8-4c0.4-0.6,0.9-1.3,1.7-1.4c1-0.2,1.9,0.7,2.5,1.6c1.7,2.6,2.6,5.8,2.3,9c-0.7-0.9,0.3-2.4,1.5-2.4
		c1.2,0,2.1,1,2.6,2c0.5,1.1,0.6,2.2,0.9,3.3c0.8,2.4,2.7,4.3,4.1,6.5c3.1,4.8,0.5,15.3-2.3,20.4
		C1000.9,179.4,997.2,180.7,991.9,184.1z"/>
	<path class="st8" d="M734,112.9c-7.7-5.6-21.4,9.1-27.1,16.9c-5.7,7.8-8.9,18.8-8.9,18.8s-14.3,10.4-34,45.7
		c-19.7,35.3-13.3,58.2-13.3,58.2l28,9.1c0,0-3.7-39.2-1.2-54.1c2.5-14.8,32.5-55.9,32.5-55.9c1.9-2.6,12.8-7.8,19.2-12.3
		c6.4-4.5,3.4-8.3-1.8-4.9c-5.2,3.4-6.8,1.8-6.8,1.8C722.1,131.9,741.7,118.5,734,112.9z"/>
	<path class="st8" d="M165.6,236.2c0,0,43.3-2,56.9-9.4c13.5-7.4,49.6-49.3,49.6-49.3l6.7,6.9c0,0-35,61.2-54.2,67.9
		c-19.2,6.7-63.9,10.7-63.9,10.7L165.6,236.2z"/>
	<path class="st6" d="M905,300c0,0-6.3-12.4-11.1-11.4c-4.8,1,2.5,9,2.5,9L905,300z"/>
	<path class="st0" d="M573.6,21.1L573.6,21.1c-148.8,0-277.9,84.2-342.3,207.6l120.9,66.3C393.1,214.3,476.9,159,573.6,159h0V21.1z"
		/>
	<path class="st13" d="M711.7,46.6L681.9,148c79.2,24.2,141.6,86.9,165.2,166.4l92-31.1C902.4,174.5,818.4,87.5,711.7,46.6z"/>
	<path class="st7" d="M893.9,288.6c-4.8,1,2.5,9,2.5,9l0,0l6-2C900.2,292.2,896.8,288,893.9,288.6z"/>
	<path class="st14" d="M977.8,270.1c-4.7-15-10.3-29.7-16.7-43.9c-8.6-3-4.9-8.8-4.9-8.8H945c0,0-32.4-32.4-34.3-45.5l-25.1,8l0,0
		l-6.5,2.1c-2.5,14.7,27.6,50.2,36.2,62c3.5,4.8,6.2,10.9,8.2,16.6c0.1,7.2,0,17-0.4,28.1l16-5.4l0,0L977.8,270.1z"/>
	<path class="st15" d="M977.8,270.1c-1.3-4.3-2.8-8.5-4.2-12.8c-0.6,0.5-1.1,0.9-1.5,1.1c-2.4,1.2-15.7,0.1-17.9-1.5
		c-2.2-1.6-6.9-9.7-6.9-9.7l-2.9,34.2L977.8,270.1z"/>
	<path class="st16" d="M734,112.9c-7.7-5.6-21.4,9.1-27.1,16.9c-5.7,7.8-8.9,18.8-8.9,18.8s-1.4,1-3.9,3.5c4.1,1.5,8.2,3.1,12.2,4.8
		c2.3-3.3,3.8-5.3,3.8-5.3c1.9-2.6,12.8-7.8,19.2-12.3c6.4-4.5,3.4-8.3-1.8-4.9c-5.2,3.4-6.8,1.8-6.8,1.8
		C722.1,131.9,741.7,118.5,734,112.9z"/>
	<path class="st13" d="M536.4,296.7l-33.9-114.3C406,212.6,336,302.7,336,409.2c0,2.4,0,4.9,0.1,7.3h119.3c-0.1-2.4-0.2-4.9-0.2-7.3
		C455.1,356.8,489.2,312.3,536.4,296.7z"/>
	<path class="st1" d="M396.2,411.7c-1.4,0-2.5-1.1-2.5-2.5c0-5.8,0.3-11.6,0.8-17.3c0.1-1.4,1.4-2.4,2.7-2.3
		c1.4,0.1,2.4,1.4,2.3,2.7c-0.5,5.6-0.8,11.2-0.8,16.8C398.7,410.6,397.6,411.7,396.2,411.7z"/>
	<path class="st1" d="M399.2,378.8c-0.2,0-0.3,0-0.5,0c-1.4-0.3-2.3-1.6-2-2.9c1.2-6.7,2.9-13.3,4.9-19.8c0.4-1.3,1.8-2.1,3.1-1.7
		c1.3,0.4,2.1,1.8,1.7,3.1c-1.9,6.3-3.5,12.7-4.7,19.2C401.5,378,400.4,378.8,399.2,378.8z"/>
	<path class="st1" d="M410.1,342.8c-0.3,0-0.7-0.1-1-0.2c-1.3-0.5-1.9-2-1.3-3.3c24.4-57.8,78.1-99.3,140.1-108.2
		c1.4-0.2,2.6,0.8,2.8,2.1s-0.8,2.6-2.1,2.8c-60.3,8.6-112.4,48.9-136.2,105.2C412,342.2,411,342.8,410.1,342.8z"/>
	<path class="st17" d="M433.9,352.7c-0.3,0-0.7-0.1-1-0.2c-1.3-0.5-1.9-2-1.3-3.3c24.2-57.1,79.9-94.1,141.9-94.1
		c1.4,0,2.5,1.1,2.5,2.5s-1.1,2.5-2.5,2.5c-60,0-113.9,35.7-137.3,91C435.8,352.1,434.9,352.7,433.9,352.7z"/>
	<path class="st17" d="M833.7,206.1c-0.7,0-1.4-0.3-1.9-0.9c-37.7-46.4-87.5-81.5-144-101.5c-58-20.5-120.5-24-180.8-10.2
		c-1.3,0.3-2.7-0.5-3-1.9c-0.3-1.3,0.5-2.7,1.9-3C567.1,74.6,630.6,78.2,689.5,99c57.3,20.3,107.9,55.9,146.2,103
		c0.9,1.1,0.7,2.6-0.4,3.5C834.8,205.9,834.3,206.1,833.7,206.1z"/>
	<path class="st17" d="M867.1,255.9c-0.9,0-1.7-0.5-2.2-1.3c-5.5-10-11.5-19.9-18-29.3c-0.8-1.1-0.5-2.7,0.6-3.5
		c1.1-0.8,2.7-0.5,3.5,0.6c6.6,9.5,12.7,19.6,18.3,29.7c0.7,1.2,0.2,2.7-1,3.4C867.9,255.8,867.5,255.9,867.1,255.9z"/>
	<path class="st17" d="M904.9,389.8c-1.3,0-2.4-1-2.5-2.2c-2.2-21.6-6.6-43-13-63.6c-0.4-1.3,0.3-2.7,1.6-3.1
		c1.3-0.4,2.7,0.3,3.1,1.6c6.5,20.9,10.9,42.6,13.2,64.6c0.1,1.4-0.9,2.6-2.2,2.7C905.1,389.7,905,389.8,904.9,389.8z"/>
	<path class="st1" d="M309,186.3c-0.5,0-1.1-0.2-1.5-0.5c-1.1-0.8-1.3-2.4-0.5-3.5c36-47.6,84.3-84.7,139.7-107.3
		C503.6,51.8,565.9,45,626.8,55.2c1.4,0.2,2.3,1.5,2,2.9c-0.2,1.4-1.5,2.3-2.9,2C566,50,504.6,56.8,448.6,79.6
		c-54.5,22.2-102.1,58.8-137.6,105.7C310.5,185.9,309.7,186.3,309,186.3z"/>
	<g>
		<path class="st18" d="M1115.9,416.5c-0.7-9.1-14.2-68.1-14.2-68.1s-1-10.6-3.6-10.5c-2.6,0.2-5.4,10.2-5.4,10.2
			c0,0-6.7,0.2-6.7,0.2s-3.4-11.5-5.4-11.5c-1.4-0.1-3.2,5.5-4.2,8.9c-0.5,1.7-0.9,4.2-1.4,7.1c-0.1,0-0.1,0-0.1,0s-18.2-6-19.8-4
			c-1.4,1.7,12.9,22.7,16.6,28.1c-2.3,19.3-4.2,39.6-4.2,39.6H1115.9z"/>
		<g>
			<path class="st19" d="M1124.4,416.5c0,0,2.9-5.8,2.7-15.7c-0.2-9.6-5.5-17.8-5.5-17.8s9.2,6.6,12.5,16.8c3,9.1,1.5,16.8,1.5,16.8
				H1124.4z"/>
			<path class="st19" d="M1095.8,404.5c-5.9-8.2-1.7-13.6,1.1-19.3c2.8-5.8-3.9-7.7-2.5-16.6c1.4-8.9,11.2-2.7,11.2-2.7l0,0
				c3.2,14.6,7.6,34.7,9.4,45C1112,411.1,1100.8,411.5,1095.8,404.5z"/>
		</g>
		<path class="st1" d="M1090.2,363.4c-10.1,4.7-24.8-2.6-31.5-6.6c4.2,7.1,10.6,16.6,13,20c-1.4,11.8-2.6,23.9-3.4,31.6
			C1070.8,404.8,1103.2,357.4,1090.2,363.4z"/>
		<path class="st20" d="M1057.9,355.6c0,0-0.5-3.2,2-3.2s2.7-3.1,2.7-3.1s-6-3.4-7.6-0.5C1053.5,351.6,1057.9,355.6,1057.9,355.6z"
			/>
	</g>
	<path class="st21" d="M949.5,275.5c-2,1.9-0.4,4.2-0.4,4.2l0.2,0.1l4.8-1.6C953,276.8,951.4,275.6,949.5,275.5z"/>
	<path class="st20" d="M618.9,351.6c0,0,25.6,14.9,66.1,12.4s45.7-16.6,45.7-16.6s-17.1-25.2-57.5-18.2S618.9,351.6,618.9,351.6z"/>
	<path class="st20" d="M770.8,242.8c0,0,2.9-5.1-1.1-14.1c-3.9-9-12.4-15.6-12.4-15.6S759.2,238.7,770.8,242.8z"/>
	<path class="st9" d="M642.9,328c0,0-28.5,38-28.5,88.5h106.1l-5-81.7L642.9,328z"/>
	<path class="st22" d="M721.6,189.9l7.4,11.7c0,0-0.5,5.7-3.7,7.7C722.2,211.3,721.6,189.9,721.6,189.9z"/>
	<path class="st12" d="M682.6,340.3l-50.4,4.8c-8.3,16.8-17.9,40.6-17.9,71.4h40.2c-1.1-6.9-7.7-15.4,0.3-46.5
		C659.6,351.3,682.5,340.3,682.6,340.3z"/>
	<path class="st6" d="M794.5,108.7c-4.1,2.5-3.5,14.9-5.8,21.9c-3.1,2.6-3.2-2.5-3.1-4.4c0.3-3.7-3-7.4-3.8,0
		c-0.8,7.4-2.8,18.3,1.5,21.4c-2.3,38.3-26,65.5-26,65.5s-13.4,36,7.4,27.2s29.7-92.7,29.7-92.7s5.4-13.4,6.3-21.4
		S799.7,105.5,794.5,108.7z"/>
	<path class="st5" d="M770.8,242.8c-8.3-4.6-13.4-29.7-13.4-29.7s-23.5,16.5-34.1,18.2c-18,2.8-54.8,0.1-69.4,9
		c-0.3,0.2-0.6,0.4-0.9,0.6c-0.3,0.2-0.7,0.5-1,0.8c-0.3,0.2-0.5,0.5-0.8,0.8c-0.1,0.1-0.1,0.1-0.2,0.2c-0.3,0.4-0.7,0.8-1,1.2
		c-0.1,0.2-0.3,0.4-0.4,0.5c-0.1,0.1-0.2,0.2-0.3,0.3c0,0.1-0.1,0.1-0.1,0.2c-0.2,0.2-0.3,0.5-0.5,0.7c0,0,0,0.1-0.1,0.1
		c-0.4,0.6-0.8,1.2-1.1,1.8c0,0,0,0.1-0.1,0.1c-0.4,0.6-0.7,1.3-1.1,1.9c-0.1,0.2-0.3,0.5-0.4,0.7c-0.1,0.1-0.1,0.2-0.2,0.4
		c-0.1,0.2-0.2,0.5-0.3,0.7c-0.1,0.1-0.1,0.3-0.2,0.4c-0.3,0.6-0.6,1.3-0.9,1.9c-0.4,1-0.8,1.9-1.2,3c-0.1,0.1-0.1,0.3-0.2,0.4
		c-0.4,1.1-0.9,2.3-1.3,3.5c0,0,0,0.1,0,0.1c-0.1,0.4-0.3,0.8-0.4,1.2c0,0.1,0,0.1-0.1,0.2c-0.4,1.3-0.9,2.6-1.3,4
		c-0.1,0.3-0.2,0.5-0.2,0.8c-0.1,0.2-0.1,0.4-0.2,0.6c0,0.1-0.1,0.3-0.1,0.4c-0.8,2.7-1.5,5.4-2.2,8.1c0,0.1-0.1,0.2-0.1,0.4
		c-0.3,1.3-0.6,2.5-0.9,3.8c0,0.2-0.1,0.4-0.1,0.5c-1.2,5.4-2.2,10.5-3,14.7c0,0.1,0,0.1,0,0.2c-0.5,2.8-0.9,5.1-1.1,6.9
		c0,0,0,0,0,0.1c-0.1,0.6-0.2,1.2-0.2,1.7c0,0,0,0,0,0c-0.1,0.5-0.1,0.8-0.1,1.1c0,0.1,0,0.2,0,0.2c0,0,0,0,0,0c0,0,0,0,0,0
		c0,0.1,0,0.2,0,0.2l0,0c-5.9,30.5-12.6,45.9-12.6,45.9s31.3-7.5,57.4-10.8c26.1-3.3,54.4,6.6,54.4,6.6
		c-3.1-17.4-11.2-70.9-11.2-70.9C722.4,271.1,770.8,242.8,770.8,242.8z"/>
	<path class="st20" d="M720.4,245.4c-0.8-3.3-4-5.7-8.8-7.3c-10.4,0.3-22.8-1-33.9-1.3c-11.3,1.5-22.2,4.6-29.2,9
		c-2.4,3.6-4.6,8.4-6.5,13.7c1.9,5.6,6.5,14.3,16.3,15.3c14.4,1.4,25.4-7.4,35.6-5.8C704.2,270.6,724.4,262.7,720.4,245.4z"/>
	<path class="st8" d="M708.1,177.6c0,0,10.9,5.1,14.9,15.2c4,10,4,30.6-2.6,36.3C713.9,234.8,698.7,193,708.1,177.6z"/>
	<path class="st23" d="M717.6,177.6c0,0,2.6,10.3-2.1,14.9c0,0-3.9,17,5,30.9c5.6,8.8-1.4,37.7-14,40.9c-12.6,3.1-18.9-0.6-26.3,1.7
		c-7.4,2.3-15.7,8.3-24,0c-8.3-8.3-6.3-14-12.3-16c-6-2-23.5,0.6-20.3-22.3s40.3-12.3,43.2-24C669.5,191.9,675.8,161,717.6,177.6z"
		/>
	<path class="st24" d="M718.5,220c0.8,4.6-0.8,7.1-2.1,8c-4.3,3.3-6.3,8.8-8.7,13.7c-2.4,4.9-6.3,9.9-11.8,10.2
		c-6.7,0.5-12.4-6.2-19.1-5.3c-3,0.4-5.5,2.3-8.2,3.7c-2.7,1.4-6.1,2.3-8.6,0.6c-2.8-1.9-3.1-5.8-3.2-9.2c-0.2-3.4-1-7.4-4.2-8.6
		c-2.2-0.8-4.7,0.2-7-0.5c-3.3-1-4.7-5.2-3.7-8.4c1-3.3,3.7-5.7,6.4-7.7c5-3.7,9.9-5.7,15-9.1l0,0c-9.7,5.5-37.3,0.6-40,20.2
		c-3.1,22.9,14.3,20.3,20.3,22.3c6,2,4,7.7,12.3,16c8.3,8.3,16.6,2.3,24,0c7.4-2.3,13.7,1.4,26.3-1.7
		C717.8,261.4,730.2,234.1,718.5,220z"/>
	<path class="st23" d="M713.5,189.8c0.2,0.9,0.5,1.9,1.4,2.2c0.9,0.4,2-0.2,2.8-0.9c1.9-1.7,3.2-3.9,3.8-6.4
		c0.4-1.7,0.4-3.6-0.6-5.1c-0.8-1-2-1.7-3.1-2.2c-2-0.9-4.1-1.7-6.2-2.4c-3.3-1-2.6,0.2-1.5,2.5
		C711.8,181.5,712.5,185.8,713.5,189.8z"/>
	<path class="st20" d="M649.7,310.4c3.1-22.6,15-36.3,15-36.3l-22.8-14.2c-0.1,0.2-0.2,0.4-0.2,0.6c0,0,0,0.1,0,0.1
		c-0.1,0.4-0.3,0.8-0.4,1.2c0,0.1,0,0.1-0.1,0.2c-0.4,1.3-0.9,2.6-1.3,4c-0.1,0.3-0.2,0.5-0.2,0.8c-0.1,0.2-0.1,0.4-0.2,0.6
		c0,0.1-0.1,0.3-0.1,0.4c-0.8,2.7-1.5,5.4-2.2,8.1c0,0.1-0.1,0.2-0.1,0.4c-0.3,1.3-0.6,2.5-0.9,3.8c0,0.2-0.1,0.4-0.1,0.5
		c-1.2,5.4-2.2,10.5-3,14.7c0,0.1,0,0.1,0,0.2c-0.5,2.8-0.9,5.1-1.1,6.9c0,0,0,0,0,0.1c-0.1,0.6-0.2,1.2-0.2,1.7c0,0,0,0,0,0
		c-0.1,0.5-0.1,0.8-0.1,1.1c0,0.1,0,0.2,0,0.2c0,0,0,0,0,0c0,0,0,0,0,0c0,0.1,0,0.2,0,0.2l0,0c-5.9,30.5-12.6,45.9-12.6,45.9
		s26-6.2,50.3-9.8l0,0C669.3,341.8,646.6,333,649.7,310.4z"/>
	<path class="st6" d="M865.2,96.3c0,0,16.7-4.1,25.8,1c9.1,5.1,8.9,18.1,8.9,18.1s-17,9.5-25.2,0C866.4,105.9,865.2,96.3,865.2,96.3
		z"/>
	<path class="st6" d="M866.7,299.4c-8,3.1,0,9.1,0,9.1s12.4,4.2,24.9,0c11.2-3.7,13.5-8.4,13.5-8.4s-6.5-2.1-11.7-3.1
		C886.7,295.8,877,295.3,866.7,299.4z"/>
	<path class="st20" d="M173.7,207.9c2.2-1.7-8.7-23.2,2.2-21.1C184.4,188.3,177.4,205.1,173.7,207.9z"/>
	<g>
		<path class="st19" d="M140.4,273.6c0,0,18.2-1.7,23.3-3.7c4.5-13.6,4.5-36.7,4.5-36.7l-31.2,5.5L140.4,273.6z"/>
		<path class="st12" d="M52.2,393l19.1,23.9h51.6c0,0-15.6-39.6-27.4-46C83.7,364.6,61.4,362.1,52.2,393z"/>
		<path class="st6" d="M109.8,303.8c0,0,40.2,22.2,60.2,21.9s91.9-48.5,91.9-48.5l-7.5-12.7c0,0-61.5,37.8-85,36.3
			S135,283.1,135,283.1L109.8,303.8z"/>
		<path class="st12" d="M71.3,376.7l-19.1,39.8l-52,0.4c0,0,3.5-38.8,9.2-47.6C15,360.5,71.3,376.7,71.3,376.7z"/>
		<path class="st18" d="M103.1,246.4c-13.3,1-24.1,16.2-15.5,33.4s34.8,38.7,35.4,37.9c0.5-0.8,21.4-18,22.6-27.3
			C145.7,290.4,115.7,245.4,103.1,246.4z"/>
		<path class="st9" d="M52.2,416.5l24-49.1c-4.8-0.5-40.5,15.6-60.5,49.5L52.2,416.5z"/>
		<path class="st18" d="M146.7,242.1c-9.1-8.3-25-9.8-25-9.8c-7.9,0.2-34.8,8.9-46.3,19.9c-11.4,11-30,32.7-41.2,58.6
			C23,336.8,9.3,369.3,9.3,369.3s30.1,6.8,45.9,7c17.1,0.2,31.4-3,37.3-4.6c0.4,0.1,0.9,0.1,1.3,0.1c2.6-0.1,5.2-1.9,5.3-4.5
			c0-2-1.4-3.9-0.7-5.8c0.6-1.5,2.3-2.2,3.1-3.6c1.1-1.8,0.3-4-0.1-6.1c0.6-1.8,1.2-3.6,1.8-5.5c0.9-0.8,2-1.5,2.6-2.6
			c1-1.7,0.6-4,0.5-6.1c1.2-3.3,2.4-6.2,3.4-8.6c5.6-12.6,24.4-30.8,29.6-42.9C144.7,274.1,155.8,250.4,146.7,242.1z"/>
		<path class="st19" d="M121.7,232.3c-6.8,0.1-27.7,6.6-40.7,15.5c-0.6,1.4-0.9,2.9-0.9,4.4c0.1,3.5,1.8,6.9,4.7,8.9
			c2.4,1.7,5.3,2.4,8.2,2.9c3.6,0.6,7.3,0.8,10.9,0c2.9-0.7,5.6-2.1,8.5-3c5.1-1.5,10.5-1.3,15.9-1.2c5.3,0.1,10.8,0.1,15.8-1.7
			c2.2-0.8,4.2-2,5.9-3.6c0.5-5.2-0.3-9.7-3.3-12.4C137.5,233.9,121.7,232.3,121.7,232.3z"/>
		<path class="st8" d="M127.1,212.5c0,0-3.3,16.6-10.2,22.6c-4.8,4.2,0.1,13.4,6.1,17.9c6,4.5,16.3-0.7,16.3-0.7s2.6-7.7,5.8-12.8
			S127.1,212.5,127.1,212.5z"/>
		<path class="st25" d="M145.4,237.9c-5.1-7.1-12.4-12.7-16-20.6l-1.7,5.3c-0.2,4.7,0.2,9.4,1.1,13.9c0.3,1.6,0.8,3.3,1.5,4.8
			c0.7,1.5,1.7,2.8,2.7,4.1c1.8,2.3,3.6,4.7,5.4,7c0,0.1,0.1,0.1,0.1,0.2c0.5-0.2,0.8-0.3,0.8-0.3s2.6-7.7,5.8-12.8
			C145.3,239.1,145.4,238.5,145.4,237.9z"/>
		<path class="st6" d="M152.5,178.2c14.1,6,25.2,11,22.3,40c-2.2,22.2-20.1,29.2-27.3,26.6c-7.2-2.6-21.2-18.2-20.5-32.3
			C128,192,141.7,173.5,152.5,178.2z"/>
		<path class="st8" d="M150.1,195.4c6.8,0.4,15.8,11.9,24.7,8.3c0.1,0,0.1,0,0.2-0.1c-1.3-11.5-6.3-17-13-20.9
			c-7.7-1-16.1-1.3-20.2,0.9c-9,4.8-3,18.6-3,18.6S143.4,195,150.1,195.4z"/>
		<path class="st5" d="M124.6,181.6c0,0-1.8-9.8,15.2-15.3c17-5.5,17.1,9,24.2,8.1s9.7-8.1,15.5-2.2c5.8,5.9,1.4,20.8-6.8,20.9
			c-8.2,0.2-14.9-4.6-23-5.7c-8.1-1.1-11.3,5.7-11.3,5.7L124.6,181.6z"/>
		<path class="st20" d="M137.9,189l4,14.8l-3.3,2.6c0,0-6.2,7.3-8.2,11.1c-2.1,3.8-2,6.9-2,6.9l-6.8,4c0,0-10.8-29.7-2.5-45
			C124.6,173.2,137.9,189,137.9,189z"/>
		<path class="st6" d="M136,221c-7.3,0-10.6-13.7-6.8-19.3c3.9-5.6,10.1,1.6,9.3,4.8L136,221z"/>
		<path class="st20" d="M182,181.5c-2.1,2.9-5.3,4.9-8.9,5.3c-7.8,1-14.8-5-22.7-5.8c-4.5-0.5-9.1,1-12.6,3.8
			c-4.8,3.7-2.7,5.3,0.9,7.7c1.1-1.7,4.5-5.9,11-5c8.1,1.1,14.8,5.8,23,5.7C177.8,193,181.4,187.3,182,181.5z"/>
		<path class="st19" d="M84.5,270.4c21.8,35.7,44,42.1,44,42.1l-5.5,5.1C123,317.7,79.5,287.4,84.5,270.4z"/>
		<path class="st11" d="M166.9,208.3c0,0,8,19.3,1.3,22.9c-5.9,3.1-9.6-2.9-9.6-2.9L166.9,208.3z"/>
	</g>
	<path class="st6" d="M254.3,264.5c0,0-0.3-15,3.2-16.1c3.5-1.1,0.3,9.5,2.9,9.2c2.6-0.3,10.7-25.6,20.7-24s7.8,13.1,5.5,21.2
		c-2.3,8.1-24.8,22.5-24.8,22.5L254.3,264.5z"/>
	<path class="st8" d="M271.5,166.9c0,0,6-21,12.4-18.6C290.2,150.7,271.5,166.9,271.5,166.9z"/>
	<path class="st26" d="M882.9,160.2c-2.5,0.2-5.1,0.5-7.3,1.7c-0.9,0.5-1.8,1.1-2.2,2c-1.2,2.7,2.3,5.9,1,8.6
		c-0.4,0.9-1.4,1.6-1.7,2.6c-0.6,2.3,2.7,3.9,2.7,6.3c0,1-0.6,1.9-0.7,2.9c-0.2,2.2,2.3,3.8,4.5,3.7c2.2-0.1,4.1-1.3,6.1-2.3
		c9.2-4.2,20.8-2.3,28.8-8.4c0.5-0.4,1-0.8,1.1-1.4c0.6-2-2.8-3.5-2.4-5.6c0.3-1.2,1.8-1.8,2.1-3.1c0.4-2.1-3-3.3-2.7-5.4
		c1-7.3-5.3-3.6-9.7-2.9C896,159.9,889.4,159.7,882.9,160.2z"/>
</g>
</svg>
